<svg xmlns="http://www.w3.org/2000/svg" width="1100" height="380"><rect x="0" y="0" width="1100" height="404.3461051149694" fill="white"></rect><path stroke="black" stroke-width="1.5" stroke-linecap="round" stroke-linejoin="round" fill="none" d="M 55.83,30 51.75,41.67 M 55.25,31.75 58.75,42.25 M 55.83,31.75 59.33,42.25 M 55.83,30 59.92,42.25 M 52.92,38.75 58.17,38.75 M 50.58,42.25 54.08,42.25 M 57,42.25 61.08,42.25 M 51.75,41.67 51.17,42.25 M 51.75,41.67 52.92,42.25 M 58.75,41.67 57.58,42.25 M 58.75,41.08 58.17,42.25 M 59.33,41.08 60.5,42.25 M 63.42,30 63.42,42.25 M 64,30.58 64,41.67 M 61.67,30 64.58,30 64.58,42.25 M 61.67,42.25 66.33,42.25 M 62.25,30 63.42,30.58 M 62.83,30 63.42,31.17 M 63.42,41.67 62.25,42.25 M 63.42,41.08 62.83,42.25 M 64.58,41.08 65.17,42.25 M 64.58,41.67 65.75,42.25 M 69.25,30 69.25,42.25 M 69.83,30.58 69.83,41.67 M 67.5,30 70.42,30 70.42,42.25 M 67.5,42.25 72.17,42.25 M 68.08,30 69.25,30.58 M 68.67,30 69.25,31.17 M 69.25,41.67 68.08,42.25 M 69.25,41.08 68.67,42.25 M 70.42,41.08 71,42.25 M 70.42,41.67 71.58,42.25 M 75.08,37.58 81.5,37.58 81.5,36.42 80.92,35.25 80.33,34.67 78.58,34.08 77.42,34.08 75.67,34.67 74.5,35.83 73.92,37.58 73.92,38.75 74.5,40.5 75.67,41.67 77.42,42.25 78.58,42.25 80.33,41.67 81.5,40.5 M 80.92,37 80.92,36.42 80.33,35.25 M 75.08,35.83 74.5,37 74.5,39.33 75.08,40.5 M 80.33,37.58 80.33,35.83 79.75,34.67 78.58,34.08 M 77.42,34.08 76.25,34.67 75.67,35.25 75.08,37 75.08,39.33 75.67,41.08 76.25,41.67 77.42,42.25 M 90.83,34.67 91.42,35.25 92,34.67 91.42,34.08 90.83,34.08 89.67,34.67 89.08,35.25 M 86.75,34.08 85.58,34.67 85,35.25 84.42,36.42 84.42,37.58 85,38.75 85.58,39.33 86.75,39.92 87.92,39.92 89.08,39.33 89.67,38.75 90.25,37.58 90.25,36.42 89.67,35.25 89.08,34.67 87.92,34.08 86.75,34.08 M 85.58,35.25 85,36.42 85,37.58 85.58,38.75 M 89.08,38.75 89.67,37.58 89.67,36.42 89.08,35.25 M 86.75,34.08 86.17,34.67 85.58,35.83 85.58,38.17 86.17,39.33 86.75,39.92 M 87.92,39.92 88.5,39.33 89.08,38.17 89.08,35.83 88.5,34.67 87.92,34.08 M 85,38.75 84.42,39.33 83.83,40.5 83.83,41.08 84.42,42.25 85,42.83 86.75,43.42 89.08,43.42 90.83,44 91.42,44.58 M 85,42.25 86.75,42.83 89.08,42.83 90.83,43.42 M 83.83,41.08 84.42,41.67 86.17,42.25 89.08,42.25 90.83,42.83 91.42,44 91.42,44.58 90.83,45.75 89.08,46.33 85.58,46.33 83.83,45.75 83.25,44.58 83.25,44 83.83,42.83 85.58,42.25 M 85.58,46.33 84.42,45.75 83.83,44.58 83.83,44 84.42,42.83 85.58,42.25 M 94.92,34.08 94.92,42.25 M 95.5,34.67 95.5,41.67 M 93.17,34.08 96.08,34.08 96.08,42.25 M 100.17,35.25 100.17,34.67 99.58,34.67 99.58,35.83 100.75,35.83 100.75,34.67 100.17,34.08 99,34.08 97.83,34.67 96.67,35.83 96.08,37.58 M 93.17,42.25 97.83,42.25 M 93.75,34.08 94.92,34.67 M 94.33,34.08 94.92,35.25 M 94.92,41.67 93.75,42.25 M 94.92,41.08 94.33,42.25 M 96.08,41.08 96.67,42.25 M 96.08,41.67 97.25,42.25 M 103.67,37.58 110.08,37.58 110.08,36.42 109.5,35.25 108.92,34.67 107.17,34.08 106,34.08 104.25,34.67 103.08,35.83 102.5,37.58 102.5,38.75 103.08,40.5 104.25,41.67 106,42.25 107.17,42.25 108.92,41.67 110.08,40.5 M 109.5,37 109.5,36.42 108.92,35.25 M 103.67,35.83 103.08,37 103.08,39.33 103.67,40.5 M 108.92,37.58 108.92,35.83 108.33,34.67 107.17,34.08 M 106,34.08 104.83,34.67 104.25,35.25 103.67,37 103.67,39.33 104.25,41.08 104.83,41.67 106,42.25 M 113.58,31.17 113.58,39.33 114.17,41.08 114.75,41.67 115.92,42.25 117.08,42.25 118.25,41.67 118.83,40.5 M 114.17,31.17 114.17,39.92 114.75,41.08 M 113.58,31.17 114.75,30 114.75,39.92 115.33,41.67 115.92,42.25 M 111.83,34.08 117.08,34.08 M 121.17,31.17 121.17,39.33 121.75,41.08 122.33,41.67 123.5,42.25 124.67,42.25 125.83,41.67 126.42,40.5 M 121.75,31.17 121.75,39.92 122.33,41.08 M 121.17,31.17 122.33,30 122.33,39.92 122.92,41.67 123.5,42.25 M 119.42,34.08 124.67,34.08 M 131.08,34.08 129.33,34.67 128.17,35.83 127.58,37.58 127.58,38.75 128.17,40.5 129.33,41.67 131.08,42.25 132.25,42.25 134,41.67 135.17,40.5 135.75,38.75 135.75,37.58 135.17,35.83 134,34.67 132.25,34.08 131.08,34.08 M 128.75,35.83 128.17,37 128.17,39.33 128.75,40.5 M 134.58,40.5 135.17,39.33 135.17,37 134.58,35.83 M 131.08,34.08 129.92,34.67 129.33,35.25 128.75,37 128.75,39.33 129.33,41.08 129.92,41.67 131.08,42.25 M 132.25,42.25 133.42,41.67 134,41.08 134.58,39.33 134.58,37 134,35.25 133.42,34.67 132.25,34.08 M 149.75,35.25 150.33,34.08 150.33,36.42 149.75,35.25 149.17,34.67 148,34.08 145.67,34.08 144.5,34.67 143.92,35.25 143.92,36.42 144.5,37.58 145.67,38.17 148.58,38.75 149.75,39.33 150.33,41.08 M 144.5,34.67 143.92,36.42 M 144.5,37 145.67,37.58 148.58,38.17 149.75,38.75 M 150.33,39.33 149.75,41.67 M 143.92,35.25 144.5,36.42 145.67,37 148.58,37.58 149.75,38.17 150.33,39.33 150.33,41.08 149.75,41.67 148.58,42.25 146.25,42.25 145.08,41.67 144.5,41.08 143.92,39.92 143.92,42.25 144.5,41.08 M 153.83,37.58 160.25,37.58 160.25,36.42 159.67,35.25 159.08,34.67 157.33,34.08 156.17,34.08 154.42,34.67 153.25,35.83 152.67,37.58 152.67,38.75 153.25,40.5 154.42,41.67 156.17,42.25 157.33,42.25 159.08,41.67 160.25,40.5 M 159.67,37 159.67,36.42 159.08,35.25 M 153.83,35.83 153.25,37 153.25,39.33 153.83,40.5 M 159.08,37.58 159.08,35.83 158.5,34.67 157.33,34.08 M 156.17,34.08 155,34.67 154.42,35.25 153.83,37 153.83,39.33 154.42,41.08 155,41.67 156.17,42.25 M 163.75,34.08 163.75,42.25 M 164.33,34.67 164.33,41.67 M 162,34.08 164.92,34.08 164.92,42.25 M 164.92,36.42 165.5,35.25 166.08,34.67 167.25,34.08 169,34.08 170.17,34.67 170.75,35.25 171.33,37 171.33,42.25 M 170.17,35.25 170.75,37 170.75,41.67 M 169,34.08 169.58,34.67 170.17,36.42 170.17,42.25 M 171.33,36.42 171.92,35.25 172.5,34.67 173.67,34.08 175.42,34.08 176.58,34.67 177.17,35.25 177.75,37 177.75,42.25 M 176.58,35.25 177.17,37 177.17,41.67 M 175.42,34.08 176,34.67 176.58,36.42 176.58,42.25 M 162,42.25 166.67,42.25 M 168.42,42.25 173.08,42.25 M 174.83,42.25 179.5,42.25 M 162.58,34.08 163.75,34.67 M 163.17,34.08 163.75,35.25 M 163.75,41.67 162.58,42.25 M 163.75,41.08 163.17,42.25 M 164.92,41.08 165.5,42.25 M 164.92,41.67 166.08,42.25 M 170.17,41.67 169,42.25 M 170.17,41.08 169.58,42.25 M 171.33,41.08 171.92,42.25 M 171.33,41.67 172.5,42.25 M 176.58,41.67 175.42,42.25 M 176.58,41.08 176,42.25 M 177.75,41.08 178.33,42.25 M 177.75,41.67 178.92,42.25 M 182.42,34.08 182.42,46.33 M 183,34.67 183,45.75 M 180.67,34.08 183.58,34.08 183.58,46.33 M 183.58,35.83 184.17,34.67 185.33,34.08 186.5,34.08 188.25,34.67 189.42,35.83 190,37.58 190,38.75 189.42,40.5 188.25,41.67 186.5,42.25 185.33,42.25 184.17,41.67 183.58,40.5 M 188.83,35.83 189.42,37 189.42,39.33 188.83,40.5 M 186.5,34.08 187.67,34.67 188.25,35.25 188.83,37 188.83,39.33 188.25,41.08 187.67,41.67 186.5,42.25 M 180.67,46.33 185.33,46.33 M 181.25,34.08 182.42,34.67 M 181.83,34.08 182.42,35.25 M 182.42,45.75 181.25,46.33 M 182.42,45.17 181.83,46.33 M 183.58,45.17 184.17,46.33 M 183.58,45.75 184.75,46.33 M 193.5,30 193.5,42.25 M 194.08,30.58 194.08,41.67 M 191.75,30 194.67,30 194.67,42.25 M 191.75,42.25 196.42,42.25 M 192.33,30 193.5,30.58 M 192.92,30 193.5,31.17 M 193.5,41.67 192.33,42.25 M 193.5,41.08 192.92,42.25 M 194.67,41.08 195.25,42.25 M 194.67,41.67 195.83,42.25 M 199.33,30 199.33,31.17 200.5,31.17 200.5,30 199.33,30 M 199.92,30 199.92,31.17 M 199.33,30.58 200.5,30.58 M 199.33,34.08 199.33,42.25 M 199.92,34.67 199.92,41.67 M 197.58,34.08 200.5,34.08 200.5,42.25 M 197.58,42.25 202.25,42.25 M 198.17,34.08 199.33,34.67 M 198.75,34.08 199.33,35.25 M 199.33,41.67 198.17,42.25 M 199.33,41.08 198.75,42.25 M 200.5,41.08 201.08,42.25 M 200.5,41.67 201.67,42.25 M 211,36.42 211,35.83 210.42,35.83 210.42,37 211.58,37 211.58,35.83 210.42,34.67 209.25,34.08 207.5,34.08 205.75,34.67 204.58,35.83 204,37.58 204,38.75 204.58,40.5 205.75,41.67 207.5,42.25 208.67,42.25 210.42,41.67 211.58,40.5 M 205.17,35.83 204.58,37 204.58,39.33 205.17,40.5 M 207.5,34.08 206.33,34.67 205.75,35.25 205.17,37 205.17,39.33 205.75,41.08 206.33,41.67 207.5,42.25 M 215.08,37.58 221.5,37.58 221.5,36.42 220.92,35.25 220.33,34.67 218.58,34.08 217.42,34.08 215.67,34.67 214.5,35.83 213.92,37.58 213.92,38.75 214.5,40.5 215.67,41.67 217.42,42.25 218.58,42.25 220.33,41.67 221.5,40.5 M 220.92,37 220.92,36.42 220.33,35.25 M 215.08,35.83 214.5,37 214.5,39.33 215.08,40.5 M 220.33,37.58 220.33,35.83 219.75,34.67 218.58,34.08 M 217.42,34.08 216.25,34.67 215.67,35.25 215.08,37 215.08,39.33 215.67,41.08 216.25,41.67 217.42,42.25 M 225,41.08 224.42,41.67 225,42.25 225.58,41.67 225,41.08 M 46.75,98 42.9,102.52 40.29,107.04 38.94,111.57 37.54,118.35 37.33,127.39 38.38,136.43 42.97,154.52 44.06,161.3 43.91,168.09 42.51,174.87 39.85,181.65 M 42.9,102.52 40.24,109.3 38.79,118.35 38.58,127.39 39.68,134.17 44.27,152.26 45.31,161.3 45.16,168.09 43.76,174.87 39.85,181.65 34.75,186.17 39.85,190.69 43.76,197.48 45.16,204.26 45.31,211.04 44.27,220.09 39.68,238.17 38.58,244.96 38.79,254 40.24,263.04 42.9,269.82 M 39.85,190.69 42.51,197.48 43.91,204.26 44.06,211.04 42.97,217.82 38.38,235.91 37.33,244.96 37.54,254 38.94,260.78 40.29,265.3 42.9,269.82 46.75,274.35 M 50,98 50,274.35 M 50,98 1050,98 M 50,107 1050,107 M 50,116 1050,116 M 50,125 1050,125 M 50,134 1050,134 M 50,238.35 1050,238.35 M 50,247.35 1050,247.35 M 50,256.35 1050,256.35 M 50,265.35 1050,265.35 M 50,274.35 1050,274.35 M 61.34,146.42 62.33,146.27 63.17,145.13 63.02,144.14 61.88,143.3 60.89,143.45 60.05,144.59 60.35,146.57 61.64,148.4 63.76,149.09 65.74,148.79 68.56,147.35 70.24,145.07 70.93,142.95 71.32,138.84 69.67,127.97 64.8,102.41 63.75,95.49 63.99,90.39 64.68,88.27 66.51,86.98 67.5,86.83 69.63,87.52 70.92,89.35 71.51,93.3 70.97,96.42 70.28,98.54 68.75,101.81 64.41,106.51 59.07,111.36 57.39,113.64 55.87,116.91 55.18,119.03 54.78,123.14 55.38,127.09 56.97,130.9 59.39,133.57 62.66,135.09 66.76,135.49 70.72,134.89 74.52,133.3 76.35,132.01 77.88,128.75 78.42,125.63 77.82,121.68 76.39,118.86 75.1,117.03 72.82,115.35 69.71,114.81 65.75,115.41 62.94,116.85 61.26,119.12 60.72,122.24 61.31,126.2 62.75,129.01 65.03,130.69 M 61.04,144.44 61.19,145.43 62.18,145.28 62.03,144.29 61.04,144.44 M 68.75,101.81 65.4,106.36 61.05,111.07 58.53,114.48 57,117.74 56.31,119.87 55.77,122.99 56.37,126.94 57.96,130.75 59.25,132.58 62.66,135.09 M 70.72,134.89 73.54,133.45 75.36,132.16 76.89,128.9 77.43,125.78 76.84,121.83 75.4,119.01 74.11,117.18 71.83,115.5 69.71,114.81 M 86.75,86.5 86.75,111.8 M 92.15,84.2 92.15,109.5 M 84.95,94.6 93.95,90.4 M 84.95,95.85 93.95,91.65 M 84.95,104.5 93.95,100.3 M 84.95,105.75 93.95,101.55 M 96.35,100 96.35,125.3 M 101.75,97.7 101.75,123 M 94.55,108.1 103.55,103.9 M 94.55,109.35 103.55,105.15 M 94.55,118 103.55,113.8 M 94.55,119.25 103.55,115.05 M 130.87,100.45 130.87,101.3 131.87,101.3 131.87,100.45 130.87,100.45 M 131.87,99.6 130.87,99.6 129.87,100.45 129.87,101.3 130.87,102.15 131.87,102.15 132.87,101.3 132.87,100.45 131.87,98.75 129.87,97.9 126.87,97.9 123.87,98.75 121.87,100.45 120.87,102.15 119.87,105.55 119.87,110.65 120.87,113.2 122.87,114.9 125.87,115.75 127.87,115.75 130.87,114.9 132.87,113.2 133.87,110.65 133.87,109.8 132.87,107.25 130.87,105.55 127.87,104.7 125.87,104.7 123.87,105.55 122.87,106.4 121.87,108.1 M 122.87,100.45 121.87,102.15 120.87,105.55 120.87,110.65 121.87,113.2 122.87,114.05 M 131.87,113.2 132.87,111.5 132.87,108.95 131.87,107.25 M 126.87,97.9 124.87,98.75 123.87,99.6 122.87,101.3 121.87,104.7 121.87,110.65 122.87,113.2 123.87,114.9 125.87,115.75 M 127.87,115.75 129.87,114.9 130.87,114.05 131.87,111.5 131.87,108.95 130.87,106.4 129.87,105.55 127.87,104.7 M 124.87,115.9 121.87,116.75 120.87,118.45 120.87,121 121.87,122.7 124.87,123.55 128.87,123.55 131.87,122.7 132.87,121 132.87,118.45 131.87,116.75 128.87,115.9 124.87,115.9 M 122.87,116.75 121.87,118.45 121.87,121 122.87,122.7 M 130.87,122.7 131.87,121 131.87,118.45 130.87,116.75 M 124.87,115.9 123.87,116.75 122.87,118.45 122.87,121 123.87,122.7 124.87,123.55 M 128.87,123.55 129.87,122.7 130.87,121 130.87,118.45 129.87,116.75 128.87,115.9 M 124.87,123.55 121.87,124.4 120.87,125.25 119.87,126.95 119.87,130.35 120.87,132.05 121.87,132.9 124.87,133.75 128.87,133.75 131.87,132.9 132.87,132.05 133.87,130.35 133.87,126.95 132.87,125.25 131.87,124.4 128.87,123.55 M 121.87,125.25 120.87,126.95 120.87,130.35 121.87,132.05 M 131.87,132.05 132.87,130.35 132.87,126.95 131.87,125.25 M 124.87,123.55 122.87,124.4 121.87,126.95 121.87,130.35 122.87,132.9 124.87,133.75 M 128.87,133.75 130.87,132.9 131.87,130.35 131.87,126.95 130.87,124.4 128.87,123.55 M 157.87,72.5 167.87,75.5 157.87,78.5 M 158.23,111.72 155.27,112.8 153.19,114.64 152.07,116.4 151.91,118.08 152.71,119.68 154.55,120.36 156.47,120.2 159.43,119.12 161.51,117.28 162.63,115.52 162.79,113.84 161.99,112.24 160.15,111.56 158.23,111.72 M 154.15,114.56 160.15,111.56 M 153.03,116.32 161.03,112.32 M 151.91,118.08 161.91,113.08 M 152.79,118.84 162.79,113.84 M 153.67,119.6 161.67,115.6 M 154.55,120.36 160.55,117.36 M 162.87,90.26 162.87,116 M 162.87,91.01 166.87,94.01 169.87,97.01 171.87,100.01 172.87,104.51 172.87,107.51 171.87,110.51 170.87,112.01 M 162.87,92.51 168.87,97.01 M 162.87,94.01 165.87,95.51 169.87,98.51 171.87,101.51 172.87,104.51 M 149.54,187.38 150.27,185.91 151.74,184.45 153.21,184.45 153.94,185.18 154.67,186.65 154.67,188.85 153.94,191.78 151.74,199.85 M 153.94,185.18 153.94,188.85 153.21,191.78 151.01,199.85 M 153.94,186.65 153.21,189.58 150.27,199.85 M 154.67,189.58 155.41,187.38 156.14,185.91 156.87,185.18 158.34,184.45 159.81,184.45 161.27,185.18 162.01,185.91 162.74,188.11 162.74,189.58 162.01,191.78 160.54,193.98 158.34,194.71 156.87,194.71 155.41,193.98 154.67,191.78 154.67,189.58 M 161.27,185.91 162.01,187.38 162.01,189.58 161.27,191.78 160.54,193.25 M 159.81,184.45 160.54,185.18 161.27,187.38 161.27,189.58 160.54,191.78 159.81,193.25 158.34,194.71 M 148.07,199.85 153.94,199.85 M 151.01,199.11 148.81,199.85 M 151.01,198.38 149.54,199.85 M 151.74,198.38 152.47,199.85 M 151.01,199.11 153.21,199.85 M 157.23,134.22 154.27,135.3 152.19,137.14 151.07,138.9 150.91,140.58 151.71,142.18 153.55,142.86 155.47,142.7 158.43,141.62 160.51,139.78 161.63,138.02 161.79,136.34 160.99,134.74 159.15,134.06 157.23,134.22 M 153.15,137.06 159.15,134.06 M 152.03,138.82 160.03,134.82 M 150.91,140.58 160.91,135.58 M 151.79,141.34 161.79,136.34 M 152.67,142.1 160.67,138.1 M 153.55,142.86 159.55,139.86 M 150.87,164.24 150.87,138.5 M 160.87,149.99 159.87,152.99 157.87,155.99 153.87,158.99 150.87,160.49 M 156.87,157.49 150.87,161.99 M 158.87,142.49 159.87,143.99 160.87,146.99 160.87,149.99 159.87,154.49 157.87,157.49 154.87,160.49 150.87,163.49 M 56.22,246.35 57.22,244.35 59.22,243.35 61.22,243.35 63.22,244.35 64.22,246.35 64.22,248.35 63.22,250.35 61.22,251.35 59.22,251.35 57.22,250.35 56.22,249.35 55.22,246.35 55.22,243.35 56.22,240.35 58.22,238.35 61.22,237.35 65.22,237.35 69.22,238.35 72.22,240.35 74.22,243.35 75.22,247.35 75.22,252.35 74.22,256.35 73.22,258.35 71.22,261.35 68.22,264.35 64.22,267.35 59.22,270.35 55.22,272.35 M 65.22,237.35 68.22,238.35 71.22,240.35 73.22,243.35 74.22,247.35 74.22,252.35 73.22,256.35 72.22,258.35 70.22,261.35 67.22,264.35 62.22,268.35 59.22,270.35 M 58.22,244.35 62.22,244.35 M 57.22,245.35 63.22,245.35 M 56.22,246.35 64.22,246.35 M 56.22,247.35 64.22,247.35 M 56.22,248.35 64.22,248.35 M 57.22,249.35 63.22,249.35 M 58.22,250.35 62.22,250.35 M 79.22,241.35 79.22,243.35 81.22,243.35 81.22,241.35 79.22,241.35 M 80.22,241.35 80.22,243.35 M 79.22,242.35 81.22,242.35 M 79.22,251.35 79.22,253.35 81.22,253.35 81.22,251.35 79.22,251.35 M 80.22,251.35 80.22,253.35 M 79.22,252.35 81.22,252.35 M 86.75,235.85 86.75,261.15 M 92.15,233.55 92.15,258.85 M 84.95,243.95 93.95,239.75 M 84.95,245.2 93.95,241 M 84.95,253.85 93.95,249.65 M 84.95,255.1 93.95,250.9 M 96.35,249.35 96.35,274.65 M 101.75,247.05 101.75,272.35 M 94.55,257.45 103.55,253.25 M 94.55,258.7 103.55,254.5 M 94.55,267.35 103.55,263.15 M 94.55,268.6 103.55,264.4 M 130.87,240.8 130.87,241.65 131.87,241.65 131.87,240.8 130.87,240.8 M 131.87,239.95 130.87,239.95 129.87,240.8 129.87,241.65 130.87,242.5 131.87,242.5 132.87,241.65 132.87,240.8 131.87,239.1 129.87,238.25 126.87,238.25 123.87,239.1 121.87,240.8 120.87,242.5 119.87,245.9 119.87,251 120.87,253.55 122.87,255.25 125.87,256.1 127.87,256.1 130.87,255.25 132.87,253.55 133.87,251 133.87,250.15 132.87,247.6 130.87,245.9 127.87,245.05 125.87,245.05 123.87,245.9 122.87,246.75 121.87,248.45 M 122.87,240.8 121.87,242.5 120.87,245.9 120.87,251 121.87,253.55 122.87,254.4 M 131.87,253.55 132.87,251.85 132.87,249.3 131.87,247.6 M 126.87,238.25 124.87,239.1 123.87,239.95 122.87,241.65 121.87,245.05 121.87,251 122.87,253.55 123.87,255.25 125.87,256.1 M 127.87,256.1 129.87,255.25 130.87,254.4 131.87,251.85 131.87,249.3 130.87,246.75 129.87,245.9 127.87,245.05 M 124.87,256.25 121.87,257.1 120.87,258.8 120.87,261.35 121.87,263.05 124.87,263.9 128.87,263.9 131.87,263.05 132.87,261.35 132.87,258.8 131.87,257.1 128.87,256.25 124.87,256.25 M 122.87,257.1 121.87,258.8 121.87,261.35 122.87,263.05 M 130.87,263.05 131.87,261.35 131.87,258.8 130.87,257.1 M 124.87,256.25 123.87,257.1 122.87,258.8 122.87,261.35 123.87,263.05 124.87,263.9 M 128.87,263.9 129.87,263.05 130.87,261.35 130.87,258.8 129.87,257.1 128.87,256.25 M 124.87,263.9 121.87,264.75 120.87,265.6 119.87,267.3 119.87,270.7 120.87,272.4 121.87,273.25 124.87,274.1 128.87,274.1 131.87,273.25 132.87,272.4 133.87,270.7 133.87,267.3 132.87,265.6 131.87,264.75 128.87,263.9 M 121.87,265.6 120.87,267.3 120.87,270.7 121.87,272.4 M 131.87,272.4 132.87,270.7 132.87,267.3 131.87,265.6 M 124.87,263.9 122.87,264.75 121.87,267.3 121.87,270.7 122.87,273.25 124.87,274.1 M 128.87,274.1 130.87,273.25 131.87,270.7 131.87,267.3 130.87,264.75 128.87,263.9 M 151.87,221.85 161.87,224.85 151.87,227.85 M 157.23,229.57 154.27,230.65 152.19,232.49 151.07,234.25 150.91,235.93 151.71,237.53 153.55,238.21 155.47,238.05 158.43,236.97 160.51,235.13 161.63,233.37 161.79,231.69 160.99,230.09 159.15,229.41 157.23,229.57 M 153.15,232.41 159.15,229.41 M 152.03,234.17 160.03,230.17 M 150.91,235.93 160.91,230.93 M 151.79,236.69 161.79,231.69 M 152.67,237.45 160.67,233.45 M 153.55,238.21 159.55,235.21 M 150.87,259.59 150.87,233.85 M 160.87,245.34 159.87,248.34 157.87,251.34 153.87,254.34 150.87,255.84 M 156.87,252.84 150.87,257.34 M 158.87,237.84 159.87,239.34 160.87,242.34 160.87,245.34 159.87,249.84 157.87,252.84 154.87,255.84 150.87,258.84 M 187.83,98 187.83,238.35 M 187.83,238.35 187.83,274.35 M 216.73,119.4 216.73,121.6 218.93,121.6 218.93,119.4 216.73,119.4 M 216.73,119.4 218.93,121.6 M 218.93,119.4 216.73,121.6 M 207.19,116.22 204.23,117.3 202.15,119.14 201.03,120.9 200.87,122.58 201.67,124.18 203.51,124.86 205.43,124.7 208.39,123.62 210.47,121.78 211.59,120.02 211.75,118.34 210.95,116.74 209.11,116.06 207.19,116.22 M 203.11,119.06 209.11,116.06 M 201.99,120.82 209.99,116.82 M 200.87,122.58 210.87,117.58 M 201.75,123.34 211.75,118.34 M 202.63,124.1 210.63,120.1 M 203.51,124.86 209.51,121.86 M 251.86,120.72 248.9,121.8 246.82,123.64 245.7,125.4 245.54,127.08 246.34,128.68 248.18,129.36 250.1,129.2 253.06,128.12 255.14,126.28 256.26,124.52 256.42,122.84 255.62,121.24 253.78,120.56 251.86,120.72 M 247.78,123.56 253.78,120.56 M 246.66,125.32 254.66,121.32 M 245.54,127.08 255.54,122.08 M 246.42,127.84 256.42,122.84 M 247.3,128.6 255.3,124.6 M 248.18,129.36 254.18,126.36 M 271.56,125.22 268.6,126.3 266.52,128.14 265.4,129.9 265.24,131.58 266.04,133.18 267.88,133.86 269.8,133.7 272.76,132.62 274.84,130.78 275.96,129.02 276.12,127.34 275.32,125.74 273.48,125.06 271.56,125.22 M 267.48,128.06 273.48,125.06 M 266.36,129.82 274.36,125.82 M 265.24,131.58 275.24,126.58 M 266.12,132.34 276.12,127.34 M 267,133.1 275,129.1 M 267.88,133.86 273.88,130.86 M 291.75,125.22 288.79,126.3 286.71,128.14 285.59,129.9 285.43,131.58 286.23,133.18 288.07,133.86 289.99,133.7 292.95,132.62 295.03,130.78 296.15,129.02 296.31,127.34 295.51,125.74 293.67,125.06 291.75,125.22 M 287.67,128.06 293.67,125.06 M 286.55,129.82 294.55,125.82 M 285.43,131.58 295.43,126.58 M 286.31,132.34 296.31,127.34 M 287.19,133.1 295.19,129.1 M 288.07,133.86 294.07,130.86 M 296.39,107 296.39,129.5 M 312.53,72.5 322.53,75.5 312.53,78.5 M 312.89,111.72 309.93,112.8 307.85,114.64 306.73,116.4 306.57,118.08 307.37,119.68 309.21,120.36 311.13,120.2 314.09,119.12 316.17,117.28 317.29,115.52 317.45,113.84 316.65,112.24 314.81,111.56 312.89,111.72 M 308.81,114.56 314.81,111.56 M 307.69,116.32 315.69,112.32 M 306.57,118.08 316.57,113.08 M 307.45,118.84 317.45,113.84 M 308.33,119.6 316.33,115.6 M 309.21,120.36 315.21,117.36 M 317.53,90.26 317.53,116 M 317.53,91.01 321.53,94.01 324.53,97.01 326.53,100.01 327.53,104.51 327.53,107.51 326.53,110.51 325.53,112.01 M 317.53,92.51 323.53,97.01 M 317.53,94.01 320.53,95.51 324.53,98.51 326.53,101.51 327.53,104.51 M 216.73,137.4 216.73,139.6 218.93,139.6 218.93,137.4 216.73,137.4 M 216.73,137.4 218.93,139.6 M 218.93,137.4 216.73,139.6 M 206.19,134.22 203.23,135.3 201.15,137.14 200.03,138.9 199.87,140.58 200.67,142.18 202.51,142.86 204.43,142.7 207.39,141.62 209.47,139.78 210.59,138.02 210.75,136.34 209.95,134.74 208.11,134.06 206.19,134.22 M 202.11,137.06 208.11,134.06 M 200.99,138.82 208.99,134.82 M 199.87,140.58 209.87,135.58 M 200.75,141.34 210.75,136.34 M 201.63,142.1 209.63,138.1 M 202.51,142.86 208.51,139.86 M 199.83,161 199.83,138.5 M 290.75,134.22 287.79,135.3 285.71,137.14 284.59,138.9 284.43,140.58 285.23,142.18 287.07,142.86 288.99,142.7 291.95,141.62 294.03,139.78 295.15,138.02 295.31,136.34 294.51,134.74 292.67,134.06 290.75,134.22 M 286.67,137.06 292.67,134.06 M 285.55,138.82 293.55,134.82 M 284.43,140.58 294.43,135.58 M 285.31,141.34 295.31,136.34 M 286.19,142.1 294.19,138.1 M 287.07,142.86 293.07,139.86 M 284.39,161 284.39,138.5 M 311.89,134.22 308.93,135.3 306.85,137.14 305.73,138.9 305.57,140.58 306.37,142.18 308.21,142.86 310.13,142.7 313.09,141.62 315.17,139.78 316.29,138.02 316.45,136.34 315.65,134.74 313.81,134.06 311.89,134.22 M 307.81,137.06 313.81,134.06 M 306.69,138.82 314.69,134.82 M 305.57,140.58 315.57,135.58 M 306.45,141.34 316.45,136.34 M 307.33,142.1 315.33,138.1 M 308.21,142.86 314.21,139.86 M 305.53,164.24 305.53,138.5 M 315.53,149.99 314.53,152.99 312.53,155.99 308.53,158.99 305.53,160.49 M 311.53,157.49 305.53,161.99 M 313.53,142.49 314.53,143.99 315.53,146.99 315.53,149.99 314.53,154.49 312.53,157.49 309.53,160.49 305.53,163.49 M 211.83,88.86 276.2,97.33 M 211.83,89.95 276.2,98.42 M 211.83,91.04 276.2,99.51 M 211.83,92.13 276.2,100.6 M 243.1,99.03 256.5,100.62 M 243.1,100.12 256.5,101.71 M 243.1,101.21 256.5,102.8 M 243.1,102.3 256.5,103.89 M 211.83,88.56 211.83,120.5 M 256.5,93.84 256.5,125 M 276.2,97.03 276.2,129.5 M 228.73,232.75 228.73,234.95 230.93,234.95 230.93,232.75 228.73,232.75 M 228.73,232.75 230.93,234.95 M 230.93,232.75 228.73,234.95 M 219.19,229.57 216.23,230.65 214.15,232.49 213.03,234.25 212.87,235.93 213.67,237.53 215.51,238.21 217.43,238.05 220.39,236.97 222.47,235.13 223.59,233.37 223.75,231.69 222.95,230.09 221.11,229.41 219.19,229.57 M 215.11,232.41 221.11,229.41 M 213.99,234.17 221.99,230.17 M 212.87,235.93 222.87,230.93 M 213.75,236.69 223.75,231.69 M 214.63,237.45 222.63,233.45 M 215.51,238.21 221.51,235.21 M 223.83,211.35 223.83,233.85 M 291.75,229.57 288.79,230.65 286.71,232.49 285.59,234.25 285.43,235.93 286.23,237.53 288.07,238.21 289.99,238.05 292.95,236.97 295.03,235.13 296.15,233.37 296.31,231.69 295.51,230.09 293.67,229.41 291.75,229.57 M 287.67,232.41 293.67,229.41 M 286.55,234.17 294.55,230.17 M 285.43,235.93 295.43,230.93 M 286.31,236.69 296.31,231.69 M 287.19,237.45 295.19,233.45 M 288.07,238.21 294.07,235.21 M 296.39,211.35 296.39,233.85 M 228.73,241.75 228.73,243.95 230.93,243.95 230.93,241.75 228.73,241.75 M 228.73,241.75 230.93,243.95 M 230.93,241.75 228.73,243.95 M 206.19,234.07 203.23,235.15 201.15,236.99 200.03,238.75 199.87,240.43 200.67,242.03 202.51,242.71 204.43,242.55 207.39,241.47 209.47,239.63 210.59,237.87 210.75,236.19 209.95,234.59 208.11,233.91 206.19,234.07 M 202.11,236.91 208.11,233.91 M 200.99,238.67 208.99,234.67 M 199.87,240.43 209.87,235.43 M 200.75,241.19 210.75,236.19 M 201.63,241.95 209.63,237.95 M 202.51,242.71 208.51,239.71 M 250.86,238.57 247.9,239.65 245.82,241.49 244.7,243.25 244.54,244.93 245.34,246.53 247.18,247.21 249.1,247.05 252.06,245.97 254.14,244.13 255.26,242.37 255.42,240.69 254.62,239.09 252.78,238.41 250.86,238.57 M 246.78,241.41 252.78,238.41 M 245.66,243.17 253.66,239.17 M 244.54,244.93 254.54,239.93 M 245.42,245.69 255.42,240.69 M 246.3,246.45 254.3,242.45 M 247.18,247.21 253.18,244.21 M 270.56,243.07 267.6,244.15 265.52,245.99 264.4,247.75 264.24,249.43 265.04,251.03 266.88,251.71 268.8,251.55 271.76,250.47 273.84,248.63 274.96,246.87 275.12,245.19 274.32,243.59 272.48,242.91 270.56,243.07 M 266.48,245.91 272.48,242.91 M 265.36,247.67 273.36,243.67 M 264.24,249.43 274.24,244.43 M 265.12,250.19 275.12,245.19 M 266,250.95 274,246.95 M 266.88,251.71 272.88,248.71 M 290.75,243.07 287.79,244.15 285.71,245.99 284.59,247.75 284.43,249.43 285.23,251.03 287.07,251.71 288.99,251.55 291.95,250.47 294.03,248.63 295.15,246.87 295.31,245.19 294.51,243.59 292.67,242.91 290.75,243.07 M 286.67,245.91 292.67,242.91 M 285.55,247.67 293.55,243.67 M 284.43,249.43 294.43,244.43 M 285.31,250.19 295.31,245.19 M 286.19,250.95 294.19,246.95 M 287.07,251.71 293.07,248.71 M 284.39,269.85 284.39,247.35 M 300.53,266.85 310.53,269.85 300.53,272.85 M 311.89,229.57 308.93,230.65 306.85,232.49 305.73,234.25 305.57,235.93 306.37,237.53 308.21,238.21 310.13,238.05 313.09,236.97 315.17,235.13 316.29,233.37 316.45,231.69 315.65,230.09 313.81,229.41 311.89,229.57 M 307.81,232.41 313.81,229.41 M 306.69,234.17 314.69,230.17 M 305.57,235.93 315.57,230.93 M 306.45,236.69 316.45,231.69 M 307.33,237.45 315.33,233.45 M 308.21,238.21 314.21,235.21 M 305.53,259.59 305.53,233.85 M 315.53,245.34 314.53,248.34 312.53,251.34 308.53,254.34 305.53,255.84 M 311.53,252.84 305.53,257.34 M 313.53,237.84 314.53,239.34 315.53,242.34 315.53,245.34 314.53,249.84 312.53,252.84 309.53,255.84 305.53,258.84 M 199.83,269.27 264.2,278.37 M 199.83,268.18 264.2,277.28 M 199.83,267.09 264.2,276.19 M 199.83,266 264.2,275.1 M 231.1,267.21 244.5,269.1 M 231.1,266.12 244.5,268.01 M 231.1,265.03 244.5,266.92 M 231.1,263.94 244.5,265.83 M 199.83,269.57 199.83,238.35 M 244.5,275.88 244.5,242.85 M 264.2,278.67 264.2,247.35 M 342.49,98 342.49,238.35 M 342.49,238.35 342.49,274.35 M 396.83,119.4 396.83,121.6 399.03,121.6 399.03,119.4 396.83,119.4 M 396.83,119.4 399.03,121.6 M 399.03,119.4 396.83,121.6 M 387.29,116.22 384.33,117.3 382.25,119.14 381.13,120.9 380.97,122.58 381.77,124.18 383.61,124.86 385.53,124.7 388.49,123.62 390.57,121.78 391.69,120.02 391.85,118.34 391.05,116.74 389.21,116.06 387.29,116.22 M 383.21,119.06 389.21,116.06 M 382.09,120.82 390.09,116.82 M 380.97,122.58 390.97,117.58 M 381.85,123.34 391.85,118.34 M 382.73,124.1 390.73,120.1 M 383.61,124.86 389.61,121.86 M 431.95,120.72 428.99,121.8 426.91,123.64 425.79,125.4 425.63,127.08 426.43,128.68 428.27,129.36 430.19,129.2 433.15,128.12 435.23,126.28 436.35,124.52 436.51,122.84 435.71,121.24 433.87,120.56 431.95,120.72 M 427.87,123.56 433.87,120.56 M 426.75,125.32 434.75,121.32 M 425.63,127.08 435.63,122.08 M 426.51,127.84 436.51,122.84 M 427.39,128.6 435.39,124.6 M 428.27,129.36 434.27,126.36 M 451.66,125.22 448.7,126.3 446.62,128.14 445.5,129.9 445.34,131.58 446.14,133.18 447.98,133.86 449.9,133.7 452.86,132.62 454.94,130.78 456.06,129.02 456.22,127.34 455.42,125.74 453.58,125.06 451.66,125.22 M 447.58,128.06 453.58,125.06 M 446.46,129.82 454.46,125.82 M 445.34,131.58 455.34,126.58 M 446.22,132.34 456.22,127.34 M 447.1,133.1 455.1,129.1 M 447.98,133.86 453.98,130.86 M 471.84,125.22 468.88,126.3 466.8,128.14 465.68,129.9 465.52,131.58 466.32,133.18 468.16,133.86 470.08,133.7 473.04,132.62 475.12,130.78 476.24,129.02 476.4,127.34 475.6,125.74 473.76,125.06 471.84,125.22 M 467.76,128.06 473.76,125.06 M 466.64,129.82 474.64,125.82 M 465.52,131.58 475.52,126.58 M 466.4,132.34 476.4,127.34 M 467.28,133.1 475.28,129.1 M 468.16,133.86 474.16,130.86 M 476.48,107 476.48,129.5 M 492.99,134.22 490.03,135.3 487.95,137.14 486.83,138.9 486.67,140.58 487.47,142.18 489.31,142.86 491.23,142.7 494.19,141.62 496.27,139.78 497.39,138.02 497.55,136.34 496.75,134.74 494.91,134.06 492.99,134.22 M 488.91,137.06 494.91,134.06 M 487.79,138.82 495.79,134.82 M 486.67,140.58 496.67,135.58 M 487.55,141.34 497.55,136.34 M 488.43,142.1 496.43,138.1 M 489.31,142.86 495.31,139.86 M 512.69,129.72 509.73,130.8 507.65,132.64 506.53,134.4 506.37,136.08 507.17,137.68 509.01,138.36 510.93,138.2 513.89,137.12 515.97,135.28 517.09,133.52 517.25,131.84 516.45,130.24 514.61,129.56 512.69,129.72 M 508.61,132.56 514.61,129.56 M 507.49,134.32 515.49,130.32 M 506.37,136.08 516.37,131.08 M 507.25,136.84 517.25,131.84 M 508.13,137.6 516.13,133.6 M 509.01,138.36 515.01,135.36 M 396.83,137.4 396.83,139.6 399.03,139.6 399.03,137.4 396.83,137.4 M 396.83,137.4 399.03,139.6 M 399.03,137.4 396.83,139.6 M 386.29,134.22 383.33,135.3 381.25,137.14 380.13,138.9 379.97,140.58 380.77,142.18 382.61,142.86 384.53,142.7 387.49,141.62 389.57,139.78 390.69,138.02 390.85,136.34 390.05,134.74 388.21,134.06 386.29,134.22 M 382.21,137.06 388.21,134.06 M 381.09,138.82 389.09,134.82 M 379.97,140.58 389.97,135.58 M 380.85,141.34 390.85,136.34 M 381.73,142.1 389.73,138.1 M 382.61,142.86 388.61,139.86 M 379.93,161 379.93,138.5 M 470.84,134.22 467.88,135.3 465.8,137.14 464.68,138.9 464.52,140.58 465.32,142.18 467.16,142.86 469.08,142.7 472.04,141.62 474.12,139.78 475.24,138.02 475.4,136.34 474.6,134.74 472.76,134.06 470.84,134.22 M 466.76,137.06 472.76,134.06 M 465.64,138.82 473.64,134.82 M 464.52,140.58 474.52,135.58 M 465.4,141.34 475.4,136.34 M 466.28,142.1 474.28,138.1 M 467.16,142.86 473.16,139.86 M 464.48,161 464.48,138.5 M 391.93,88.86 456.3,97.33 M 391.93,89.95 456.3,98.42 M 391.93,91.04 456.3,99.51 M 391.93,92.13 456.3,100.6 M 423.19,99.03 436.59,100.62 M 423.19,100.12 436.59,101.71 M 423.19,101.21 436.59,102.8 M 423.19,102.3 436.59,103.89 M 391.93,88.56 391.93,120.5 M 436.59,93.84 436.59,125 M 456.3,97.03 456.3,129.5 M 497.63,105.5 517.33,101 M 497.63,106.59 517.33,102.09 M 497.63,107.68 517.33,103.18 M 497.63,108.77 517.33,104.27 M 497.63,111.98 517.33,107.48 M 497.63,113.07 517.33,108.57 M 497.63,114.16 517.33,109.66 M 497.63,115.25 517.33,110.75 M 497.63,105.2 497.63,138.5 M 517.33,100.7 517.33,134 M 489.63,158 488.63,156 488.63,154 486.63,154 486.63,156 487.63,157 489.63,158 492.63,158 494.63,157 496.63,155 M 487.63,154 487.63,157 M 486.63,155 488.63,155 M 486.63,156 492.63,158 M 489.63,158 494.63,157 M 496.63,155 492.63,168 M 364.2,118.36 362.72,118.9 361.68,119.82 361.12,120.7 361.04,121.54 361.44,122.34 362.36,122.68 363.32,122.6 364.8,122.06 365.84,121.14 366.4,120.26 366.48,119.42 366.08,118.62 365.16,118.28 364.2,118.36 M 362.16,119.78 365.16,118.28 M 361.6,120.66 365.6,118.66 M 361.04,121.54 366.04,119.04 M 361.48,121.92 366.48,119.42 M 361.92,122.3 365.92,120.3 M 362.36,122.68 365.36,121.18 M 370.19,113.86 368.71,114.4 367.67,115.32 367.11,116.2 367.03,117.04 367.43,117.84 368.35,118.18 369.31,118.1 370.79,117.56 371.83,116.64 372.39,115.76 372.47,114.92 372.07,114.12 371.15,113.78 370.19,113.86 M 368.15,115.28 371.15,113.78 M 367.59,116.16 371.59,114.16 M 367.03,117.04 372.03,114.54 M 367.47,117.42 372.47,114.92 M 367.91,117.8 371.91,115.8 M 368.35,118.18 371.35,116.68 M 366.52,100.82 372.51,96.32 M 366.52,101.91 372.51,97.41 M 366.52,103 372.51,98.5 M 366.52,104.09 372.51,99.59 M 366.52,107.3 372.51,102.8 M 366.52,108.39 372.51,103.89 M 366.52,109.48 372.51,104.98 M 366.52,110.57 372.51,106.07 M 366.52,100.52 366.52,120.5 M 372.51,96.02 372.51,116 M 408.83,232.75 408.83,234.95 411.03,234.95 411.03,232.75 408.83,232.75 M 408.83,232.75 411.03,234.95 M 411.03,232.75 408.83,234.95 M 399.29,229.57 396.33,230.65 394.25,232.49 393.13,234.25 392.97,235.93 393.77,237.53 395.61,238.21 397.53,238.05 400.49,236.97 402.57,235.13 403.69,233.37 403.85,231.69 403.05,230.09 401.21,229.41 399.29,229.57 M 395.21,232.41 401.21,229.41 M 394.09,234.17 402.09,230.17 M 392.97,235.93 402.97,230.93 M 393.85,236.69 403.85,231.69 M 394.73,237.45 402.73,233.45 M 395.61,238.21 401.61,235.21 M 403.93,211.35 403.93,233.85 M 471.84,229.57 468.88,230.65 466.8,232.49 465.68,234.25 465.52,235.93 466.32,237.53 468.16,238.21 470.08,238.05 473.04,236.97 475.12,235.13 476.24,233.37 476.4,231.69 475.6,230.09 473.76,229.41 471.84,229.57 M 467.76,232.41 473.76,229.41 M 466.64,234.17 474.64,230.17 M 465.52,235.93 475.52,230.93 M 466.4,236.69 476.4,231.69 M 467.28,237.45 475.28,233.45 M 468.16,238.21 474.16,235.21 M 476.48,211.35 476.48,233.85 M 492.99,261.07 490.03,262.15 487.95,263.99 486.83,265.75 486.67,267.43 487.47,269.03 489.31,269.71 491.23,269.55 494.19,268.47 496.27,266.63 497.39,264.87 497.55,263.19 496.75,261.59 494.91,260.91 492.99,261.07 M 488.91,263.91 494.91,260.91 M 487.79,265.67 495.79,261.67 M 486.67,267.43 496.67,262.43 M 487.55,268.19 497.55,263.19 M 488.43,268.95 496.43,264.95 M 489.31,269.71 495.31,266.71 M 512.69,256.57 509.73,257.65 507.65,259.49 506.53,261.25 506.37,262.93 507.17,264.53 509.01,265.21 510.93,265.05 513.89,263.97 515.97,262.13 517.09,260.37 517.25,258.69 516.45,257.09 514.61,256.41 512.69,256.57 M 508.61,259.41 514.61,256.41 M 507.49,261.17 515.49,257.17 M 506.37,262.93 516.37,257.93 M 507.25,263.69 517.25,258.69 M 508.13,264.45 516.13,260.45 M 509.01,265.21 515.01,262.21 M 408.83,241.75 408.83,243.95 411.03,243.95 411.03,241.75 408.83,241.75 M 408.83,241.75 411.03,243.95 M 411.03,241.75 408.83,243.95 M 386.29,234.07 383.33,235.15 381.25,236.99 380.13,238.75 379.97,240.43 380.77,242.03 382.61,242.71 384.53,242.55 387.49,241.47 389.57,239.63 390.69,237.87 390.85,236.19 390.05,234.59 388.21,233.91 386.29,234.07 M 382.21,236.91 388.21,233.91 M 381.09,238.67 389.09,234.67 M 379.97,240.43 389.97,235.43 M 380.85,241.19 390.85,236.19 M 381.73,241.95 389.73,237.95 M 382.61,242.71 388.61,239.71 M 430.95,238.57 427.99,239.65 425.91,241.49 424.79,243.25 424.63,244.93 425.43,246.53 427.27,247.21 429.19,247.05 432.15,245.97 434.23,244.13 435.35,242.37 435.51,240.69 434.71,239.09 432.87,238.41 430.95,238.57 M 426.87,241.41 432.87,238.41 M 425.75,243.17 433.75,239.17 M 424.63,244.93 434.63,239.93 M 425.51,245.69 435.51,240.69 M 426.39,246.45 434.39,242.45 M 427.27,247.21 433.27,244.21 M 450.66,243.07 447.7,244.15 445.62,245.99 444.5,247.75 444.34,249.43 445.14,251.03 446.98,251.71 448.9,251.55 451.86,250.47 453.94,248.63 455.06,246.87 455.22,245.19 454.42,243.59 452.58,242.91 450.66,243.07 M 446.58,245.91 452.58,242.91 M 445.46,247.67 453.46,243.67 M 444.34,249.43 454.34,244.43 M 445.22,250.19 455.22,245.19 M 446.1,250.95 454.1,246.95 M 446.98,251.71 452.98,248.71 M 470.84,243.07 467.88,244.15 465.8,245.99 464.68,247.75 464.52,249.43 465.32,251.03 467.16,251.71 469.08,251.55 472.04,250.47 474.12,248.63 475.24,246.87 475.4,245.19 474.6,243.59 472.76,242.91 470.84,243.07 M 466.76,245.91 472.76,242.91 M 465.64,247.67 473.64,243.67 M 464.52,249.43 474.52,244.43 M 465.4,250.19 475.4,245.19 M 466.28,250.95 474.28,246.95 M 467.16,251.71 473.16,248.71 M 464.48,269.85 464.48,247.35 M 497.63,232.35 517.33,227.85 M 497.63,233.44 517.33,228.94 M 497.63,234.53 517.33,230.03 M 497.63,235.62 517.33,231.12 M 497.63,238.83 517.33,234.33 M 497.63,239.92 517.33,235.42 M 497.63,241.01 517.33,236.51 M 497.63,242.1 517.33,237.6 M 497.63,232.05 497.63,265.35 M 517.33,227.55 517.33,260.85 M 379.93,269.27 444.3,278.37 M 379.93,268.18 444.3,277.28 M 379.93,267.09 444.3,276.19 M 379.93,266 444.3,275.1 M 411.19,267.21 424.59,269.1 M 411.19,266.12 424.59,268.01 M 411.19,265.03 424.59,266.92 M 411.19,263.94 424.59,265.83 M 379.93,269.57 379.93,238.35 M 424.59,275.88 424.59,242.85 M 444.3,278.67 444.3,247.35 M 529.81,98 529.81,238.35 M 529.81,238.35 529.81,274.35 M 558.71,128.4 558.71,130.6 560.91,130.6 560.91,128.4 558.71,128.4 M 558.71,128.4 560.91,130.6 M 560.91,128.4 558.71,130.6 M 549.17,125.22 546.21,126.3 544.13,128.14 543.01,129.9 542.85,131.58 543.65,133.18 545.49,133.86 547.41,133.7 550.37,132.62 552.45,130.78 553.57,129.02 553.73,127.34 552.93,125.74 551.09,125.06 549.17,125.22 M 545.09,128.06 551.09,125.06 M 543.97,129.82 551.97,125.82 M 542.85,131.58 552.85,126.58 M 543.73,132.34 553.73,127.34 M 544.61,133.1 552.61,129.1 M 545.49,133.86 551.49,130.86 M 553.81,107 553.81,129.5 M 627.4,128.4 627.4,130.6 629.6,130.6 629.6,128.4 627.4,128.4 M 627.4,128.4 629.6,130.6 M 629.6,128.4 627.4,130.6 M 617.86,125.22 614.9,126.3 612.82,128.14 611.7,129.9 611.54,131.58 612.34,133.18 614.18,133.86 616.1,133.7 619.06,132.62 621.14,130.78 622.26,129.02 622.42,127.34 621.62,125.74 619.78,125.06 617.86,125.22 M 613.78,128.06 619.78,125.06 M 612.66,129.82 620.66,125.82 M 611.54,131.58 621.54,126.58 M 612.42,132.34 622.42,127.34 M 613.3,133.1 621.3,129.1 M 614.18,133.86 620.18,130.86 M 664.93,116.22 661.97,117.3 659.89,119.14 658.77,120.9 658.61,122.58 659.41,124.18 661.25,124.86 663.17,124.7 666.13,123.62 668.21,121.78 669.33,120.02 669.49,118.34 668.69,116.74 666.85,116.06 664.93,116.22 M 660.85,119.06 666.85,116.06 M 659.73,120.82 667.73,116.82 M 658.61,122.58 668.61,117.58 M 659.49,123.34 669.49,118.34 M 660.37,124.1 668.37,120.1 M 661.25,124.86 667.25,121.86 M 646.23,109 646.23,134.3 M 651.63,106.7 651.63,132 M 644.43,117.1 653.43,112.9 M 644.43,118.35 653.43,114.15 M 644.43,127 653.43,122.8 M 644.43,128.25 653.43,124.05 M 684.63,107.22 681.67,108.3 679.59,110.14 678.47,111.9 678.31,113.58 679.11,115.18 680.95,115.86 682.87,115.7 685.83,114.62 687.91,112.78 689.03,111.02 689.19,109.34 688.39,107.74 686.55,107.06 684.63,107.22 M 680.55,110.06 686.55,107.06 M 679.43,111.82 687.43,107.82 M 678.31,113.58 688.31,108.58 M 679.19,114.34 689.19,109.34 M 680.07,115.1 688.07,111.1 M 680.95,115.86 686.95,112.86 M 704.34,102.72 701.38,103.8 699.3,105.64 698.18,107.4 698.02,109.08 698.82,110.68 700.66,111.36 702.58,111.2 705.54,110.12 707.62,108.28 708.74,106.52 708.9,104.84 708.1,103.24 706.26,102.56 704.34,102.72 M 700.26,105.56 706.26,102.56 M 699.14,107.32 707.14,103.32 M 698.02,109.08 708.02,104.08 M 698.9,109.84 708.9,104.84 M 699.78,110.6 707.78,106.6 M 700.66,111.36 706.66,108.36 M 558.71,146.4 558.71,148.6 560.91,148.6 560.91,146.4 558.71,146.4 M 558.71,146.4 560.91,148.6 M 560.91,146.4 558.71,148.6 M 548.17,143.22 545.21,144.3 543.13,146.14 542.01,147.9 541.85,149.58 542.65,151.18 544.49,151.86 546.41,151.7 549.37,150.62 551.45,148.78 552.57,147.02 552.73,145.34 551.93,143.74 550.09,143.06 548.17,143.22 M 544.09,146.06 550.09,143.06 M 542.97,147.82 550.97,143.82 M 541.85,149.58 551.85,144.58 M 542.73,150.34 552.73,145.34 M 543.61,151.1 551.61,147.1 M 544.49,151.86 550.49,148.86 M 541.81,170 541.81,147.5 M 627.4,155.4 627.4,157.6 629.6,157.6 629.6,155.4 627.4,155.4 M 627.4,155.4 629.6,157.6 M 629.6,155.4 627.4,157.6 M 616.86,147.72 613.9,148.8 611.82,150.64 610.7,152.4 610.54,154.08 611.34,155.68 613.18,156.36 615.1,156.2 618.06,155.12 620.14,153.28 621.26,151.52 621.42,149.84 620.62,148.24 618.78,147.56 616.86,147.72 M 612.78,150.56 618.78,147.56 M 611.66,152.32 619.66,148.32 M 610.54,154.08 620.54,149.08 M 611.42,154.84 621.42,149.84 M 612.3,155.6 620.3,151.6 M 613.18,156.36 619.18,153.36 M 599.16,140.5 599.16,165.8 M 604.56,138.2 604.56,163.5 M 597.36,148.6 606.36,144.4 M 597.36,149.85 606.36,145.65 M 597.36,158.5 606.36,154.3 M 597.36,159.75 606.36,155.55 M 663.93,138.72 660.97,139.8 658.89,141.64 657.77,143.4 657.61,145.08 658.41,146.68 660.25,147.36 662.17,147.2 665.13,146.12 667.21,144.28 668.33,142.52 668.49,140.84 667.69,139.24 665.85,138.56 663.93,138.72 M 659.85,141.56 665.85,138.56 M 658.73,143.32 666.73,139.32 M 657.61,145.08 667.61,140.08 M 658.49,145.84 668.49,140.84 M 659.37,146.6 667.37,142.6 M 660.25,147.36 666.25,144.36 M 683.63,129.72 680.67,130.8 678.59,132.64 677.47,134.4 677.31,136.08 678.11,137.68 679.95,138.36 681.87,138.2 684.83,137.12 686.91,135.28 688.03,133.52 688.19,131.84 687.39,130.24 685.55,129.56 683.63,129.72 M 679.55,132.56 685.55,129.56 M 678.43,134.32 686.43,130.32 M 677.31,136.08 687.31,131.08 M 678.19,136.84 688.19,131.84 M 679.07,137.6 687.07,133.6 M 679.95,138.36 685.95,135.36 M 703.34,125.22 700.38,126.3 698.3,128.14 697.18,129.9 697.02,131.58 697.82,133.18 699.66,133.86 701.58,133.7 704.54,132.62 706.62,130.78 707.74,129.02 707.9,127.34 707.1,125.74 705.26,125.06 703.34,125.22 M 699.26,128.06 705.26,125.06 M 698.14,129.82 706.14,125.82 M 697.02,131.58 707.02,126.58 M 697.9,132.34 707.9,127.34 M 698.78,133.1 706.78,129.1 M 699.66,133.86 705.66,130.86 M 622.5,99.26 708.98,74.06 M 622.5,100.35 708.98,75.15 M 622.5,101.44 708.98,76.24 M 622.5,102.53 708.98,77.33 M 689.27,86.28 708.98,80.54 M 689.27,87.37 708.98,81.63 M 689.27,88.46 708.98,82.72 M 689.27,89.55 708.98,83.81 M 622.5,98.96 622.5,129.5 M 669.57,85.24 669.57,120.5 M 689.27,79.5 689.27,111.5 M 708.98,73.76 708.98,107 M 610.5,184.05 696.98,163.39 M 610.5,182.96 696.98,162.3 M 610.5,181.87 696.98,161.21 M 610.5,180.78 696.98,160.12 M 677.27,161.62 696.98,156.91 M 677.27,160.53 696.98,155.82 M 677.27,159.44 696.98,154.73 M 677.27,158.35 696.98,153.64 M 610.5,184.35 610.5,152 M 657.57,173.1 657.57,143 M 677.27,168.4 677.27,134 M 696.98,163.69 696.98,129.5 M 537.31,143 558.31,143 M 606,143 627,143 M 606,152 627,152 M 653.07,143 674.07,143 M 558.71,250.75 558.71,252.95 560.91,252.95 560.91,250.75 558.71,250.75 M 558.71,250.75 560.91,252.95 M 560.91,250.75 558.71,252.95 M 549.17,252.07 546.21,253.15 544.13,254.99 543.01,256.75 542.85,258.43 543.65,260.03 545.49,260.71 547.41,260.55 550.37,259.47 552.45,257.63 553.57,255.87 553.73,254.19 552.93,252.59 551.09,251.91 549.17,252.07 M 545.09,254.91 551.09,251.91 M 543.97,256.67 551.97,252.67 M 542.85,258.43 552.85,253.43 M 543.73,259.19 553.73,254.19 M 544.61,259.95 552.61,255.95 M 545.49,260.71 551.49,257.71 M 553.81,233.85 553.81,256.35 M 627.4,250.75 627.4,252.95 629.6,252.95 629.6,250.75 627.4,250.75 M 627.4,250.75 629.6,252.95 M 629.6,250.75 627.4,252.95 M 617.86,247.57 614.9,248.65 612.82,250.49 611.7,252.25 611.54,253.93 612.34,255.53 614.18,256.21 616.1,256.05 619.06,254.97 621.14,253.13 622.26,251.37 622.42,249.69 621.62,248.09 619.78,247.41 617.86,247.57 M 613.78,250.41 619.78,247.41 M 612.66,252.17 620.66,248.17 M 611.54,253.93 621.54,248.93 M 612.42,254.69 622.42,249.69 M 613.3,255.45 621.3,251.45 M 614.18,256.21 620.18,253.21 M 664.93,243.07 661.97,244.15 659.89,245.99 658.77,247.75 658.61,249.43 659.41,251.03 661.25,251.71 663.17,251.55 666.13,250.47 668.21,248.63 669.33,246.87 669.49,245.19 668.69,243.59 666.85,242.91 664.93,243.07 M 660.85,245.91 666.85,242.91 M 659.73,247.67 667.73,243.67 M 658.61,249.43 668.61,244.43 M 659.49,250.19 669.49,245.19 M 660.37,250.95 668.37,246.95 M 661.25,251.71 667.25,248.71 M 684.63,238.57 681.67,239.65 679.59,241.49 678.47,243.25 678.31,244.93 679.11,246.53 680.95,247.21 682.87,247.05 685.83,245.97 687.91,244.13 689.03,242.37 689.19,240.69 688.39,239.09 686.55,238.41 684.63,238.57 M 680.55,241.41 686.55,238.41 M 679.43,243.17 687.43,239.17 M 678.31,244.93 688.31,239.93 M 679.19,245.69 689.19,240.69 M 680.07,246.45 688.07,242.45 M 680.95,247.21 686.95,244.21 M 582.28,274.57 579.32,275.65 577.24,277.49 576.12,279.25 575.96,280.93 576.76,282.53 578.6,283.21 580.52,283.05 583.48,281.97 585.56,280.13 586.68,278.37 586.84,276.69 586.04,275.09 584.2,274.41 582.28,274.57 M 578.2,277.41 584.2,274.41 M 577.08,279.17 585.08,275.17 M 575.96,280.93 585.96,275.93 M 576.84,281.69 586.84,276.69 M 577.72,282.45 585.72,278.45 M 578.6,283.21 584.6,280.21 M 575.92,304.59 575.92,278.85 M 585.92,290.34 584.92,293.34 582.92,296.34 578.92,299.34 575.92,300.84 M 581.92,297.84 575.92,302.34 M 583.92,282.84 584.92,284.34 585.92,287.34 585.92,290.34 584.92,294.84 582.92,297.84 579.92,300.84 575.92,303.84 M 627.4,277.75 627.4,279.95 629.6,279.95 629.6,277.75 627.4,277.75 M 627.4,277.75 629.6,279.95 M 629.6,277.75 627.4,279.95 M 616.86,274.57 613.9,275.65 611.82,277.49 610.7,279.25 610.54,280.93 611.34,282.53 613.18,283.21 615.1,283.05 618.06,281.97 620.14,280.13 621.26,278.37 621.42,276.69 620.62,275.09 618.78,274.41 616.86,274.57 M 612.78,277.41 618.78,274.41 M 611.66,279.17 619.66,275.17 M 610.54,280.93 620.54,275.93 M 611.42,281.69 621.42,276.69 M 612.3,282.45 620.3,278.45 M 613.18,283.21 619.18,280.21 M 610.5,301.35 610.5,278.85 M 622.5,220.95 689.27,211.87 M 622.5,222.04 689.27,212.96 M 622.5,223.13 689.27,214.05 M 622.5,224.22 689.27,215.14 M 655.45,222.95 669.57,221.03 M 655.45,224.04 669.57,222.12 M 655.45,225.13 669.57,223.21 M 655.45,226.22 669.57,224.3 M 622.5,220.65 622.5,251.85 M 669.57,214.25 669.57,247.35 M 689.27,211.57 689.27,242.85 M 545.32,277.52 551.29,286.97 548.01,294.34 548.11,295.33 M 550.2,286.08 546.92,293.44 M 548.9,283.19 549.1,285.18 545.82,292.55 548.11,295.33 551.5,299.01 M 553.79,301.8 551.5,299.01 549.41,298.22 547.42,298.42 545.53,299.61 544.73,301.7 544.93,303.69 546.12,305.58 549.31,307.27 M 553.79,301.8 551.6,300.01 549.51,299.21 545.53,299.61 545.93,303.59 547.12,305.48 549.31,307.27 M 549.41,298.22 546.62,300.51 544.93,303.69 M 721.46,98 721.46,238.35 M 721.46,238.35 721.46,274.35 M 740.82,107.22 737.86,108.3 735.78,110.14 734.66,111.9 734.5,113.58 735.3,115.18 737.14,115.86 739.06,115.7 742.02,114.62 744.1,112.78 745.22,111.02 745.38,109.34 744.58,107.74 742.74,107.06 740.82,107.22 M 736.74,110.06 742.74,107.06 M 735.62,111.82 743.62,107.82 M 734.5,113.58 744.5,108.58 M 735.38,114.34 745.38,109.34 M 736.26,115.1 744.26,111.1 M 737.14,115.86 743.14,112.86 M 745.46,85.76 745.46,111.5 M 745.46,86.51 749.46,89.51 752.46,92.51 754.46,95.51 755.46,100.01 755.46,103.01 754.46,106.01 753.46,107.51 M 745.46,88.01 751.46,92.51 M 745.46,89.51 748.46,91.01 752.46,94.01 754.46,97.01 755.46,100.01 M 773,111.72 770.04,112.8 767.96,114.64 766.84,116.4 766.68,118.08 767.48,119.68 769.32,120.36 771.24,120.2 774.2,119.12 776.28,117.28 777.4,115.52 777.56,113.84 776.76,112.24 774.92,111.56 773,111.72 M 768.92,114.56 774.92,111.56 M 767.8,116.32 775.8,112.32 M 766.68,118.08 776.68,113.08 M 767.56,118.84 777.56,113.84 M 768.44,119.6 776.44,115.6 M 769.32,120.36 775.32,117.36 M 777.64,93.5 777.64,116 M 814.33,111.72 811.37,112.8 809.29,114.64 808.17,116.4 808.01,118.08 808.81,119.68 810.65,120.36 812.57,120.2 815.53,119.12 817.61,117.28 818.73,115.52 818.89,113.84 818.09,112.24 816.25,111.56 814.33,111.72 M 810.25,114.56 816.25,111.56 M 809.13,116.32 817.13,112.32 M 808.01,118.08 818.01,113.08 M 808.89,118.84 818.89,113.84 M 809.77,119.6 817.77,115.6 M 810.65,120.36 816.65,117.36 M 818.97,90.26 818.97,116 M 818.97,91.01 822.97,94.01 825.97,97.01 827.97,100.01 828.97,104.51 828.97,107.51 827.97,110.51 826.97,112.01 M 818.97,92.51 824.97,97.01 M 818.97,94.01 821.97,95.51 825.97,98.51 827.97,101.51 828.97,104.51 M 865.38,63.5 875.38,66.5 865.38,69.5 M 865.74,102.72 862.78,103.8 860.7,105.64 859.58,107.4 859.42,109.08 860.22,110.68 862.06,111.36 863.98,111.2 866.94,110.12 869.02,108.28 870.14,106.52 870.3,104.84 869.5,103.24 867.66,102.56 865.74,102.72 M 861.66,105.56 867.66,102.56 M 860.54,107.32 868.54,103.32 M 859.42,109.08 869.42,104.08 M 860.3,109.84 870.3,104.84 M 861.18,110.6 869.18,106.6 M 862.06,111.36 868.06,108.36 M 870.38,81.26 870.38,107 M 870.38,82.01 874.38,85.01 877.38,88.01 879.38,91.01 880.38,95.51 880.38,98.51 879.38,101.51 878.38,103.01 M 870.38,83.51 876.38,88.01 M 870.38,85.01 873.38,86.51 877.38,89.51 879.38,92.51 880.38,95.51 M 739.82,129.72 736.86,130.8 734.78,132.64 733.66,134.4 733.5,136.08 734.3,137.68 736.14,138.36 738.06,138.2 741.02,137.12 743.1,135.28 744.22,133.52 744.38,131.84 743.58,130.24 741.74,129.56 739.82,129.72 M 735.74,132.56 741.74,129.56 M 734.62,134.32 742.62,130.32 M 733.5,136.08 743.5,131.08 M 734.38,136.84 744.38,131.84 M 735.26,137.6 743.26,133.6 M 736.14,138.36 742.14,135.36 M 733.46,159.74 733.46,134 M 743.46,145.49 742.46,148.49 740.46,151.49 736.46,154.49 733.46,155.99 M 739.46,152.99 733.46,157.49 M 741.46,137.99 742.46,139.49 743.46,142.49 743.46,145.49 742.46,149.99 740.46,152.99 737.46,155.99 733.46,158.99 M 772,134.22 769.04,135.3 766.96,137.14 765.84,138.9 765.68,140.58 766.48,142.18 768.32,142.86 770.24,142.7 773.2,141.62 775.28,139.78 776.4,138.02 776.56,136.34 775.76,134.74 773.92,134.06 772,134.22 M 767.92,137.06 773.92,134.06 M 766.8,138.82 774.8,134.82 M 765.68,140.58 775.68,135.58 M 766.56,141.34 776.56,136.34 M 767.44,142.1 775.44,138.1 M 768.32,142.86 774.32,139.86 M 765.64,161 765.64,138.5 M 813.33,134.22 810.37,135.3 808.29,137.14 807.17,138.9 807.01,140.58 807.81,142.18 809.65,142.86 811.57,142.7 814.53,141.62 816.61,139.78 817.73,138.02 817.89,136.34 817.09,134.74 815.25,134.06 813.33,134.22 M 809.25,137.06 815.25,134.06 M 808.13,138.82 816.13,134.82 M 807.01,140.58 817.01,135.58 M 807.89,141.34 817.89,136.34 M 808.77,142.1 816.77,138.1 M 809.65,142.86 815.65,139.86 M 806.97,164.24 806.97,138.5 M 816.97,149.99 815.97,152.99 813.97,155.99 809.97,158.99 806.97,160.49 M 812.97,157.49 806.97,161.99 M 814.97,142.49 815.97,143.99 816.97,146.99 816.97,149.99 815.97,154.49 813.97,157.49 810.97,160.49 806.97,163.49 M 864.74,125.22 861.78,126.3 859.7,128.14 858.58,129.9 858.42,131.58 859.22,133.18 861.06,133.86 862.98,133.7 865.94,132.62 868.02,130.78 869.14,129.02 869.3,127.34 868.5,125.74 866.66,125.06 864.74,125.22 M 860.66,128.06 866.66,125.06 M 859.54,129.82 867.54,125.82 M 858.42,131.58 868.42,126.58 M 859.3,132.34 869.3,127.34 M 860.18,133.1 868.18,129.1 M 861.06,133.86 867.06,130.86 M 858.38,155.24 858.38,129.5 M 868.38,140.99 867.38,143.99 865.38,146.99 861.38,149.99 858.38,151.49 M 864.38,148.49 858.38,152.99 M 866.38,133.49 867.38,134.99 868.38,137.99 868.38,140.99 867.38,145.49 865.38,148.49 862.38,151.49 858.38,154.49 M 843.16,95 842.16,93 842.16,91 840.16,91 840.16,93 841.16,94 843.16,95 846.16,95 848.16,94 850.16,92 M 841.16,91 841.16,94 M 840.16,92 842.16,92 M 840.16,93 846.16,95 M 843.16,95 848.16,94 M 850.16,92 846.16,105 M 843.16,149 842.16,147 842.16,145 840.16,145 840.16,147 841.16,148 843.16,149 846.16,149 848.16,148 850.16,146 M 841.16,145 841.16,148 M 840.16,146 842.16,146 M 840.16,147 846.16,149 M 843.16,149 848.16,148 M 850.16,146 846.16,159 M 740.82,238.57 737.86,239.65 735.78,241.49 734.66,243.25 734.5,244.93 735.3,246.53 737.14,247.21 739.06,247.05 742.02,245.97 744.1,244.13 745.22,242.37 745.38,240.69 744.58,239.09 742.74,238.41 740.82,238.57 M 736.74,241.41 742.74,238.41 M 735.62,243.17 743.62,239.17 M 734.5,244.93 744.5,239.93 M 735.38,245.69 745.38,240.69 M 736.26,246.45 744.26,242.45 M 737.14,247.21 743.14,244.21 M 745.46,217.11 745.46,242.85 M 745.46,217.86 749.46,220.86 752.46,223.86 754.46,226.86 755.46,231.36 755.46,234.36 754.46,237.36 753.46,238.86 M 745.46,219.36 751.46,223.86 M 745.46,220.86 748.46,222.36 752.46,225.36 754.46,228.36 755.46,231.36 M 773,243.07 770.04,244.15 767.96,245.99 766.84,247.75 766.68,249.43 767.48,251.03 769.32,251.71 771.24,251.55 774.2,250.47 776.28,248.63 777.4,246.87 777.56,245.19 776.76,243.59 774.92,242.91 773,243.07 M 768.92,245.91 774.92,242.91 M 767.8,247.67 775.8,243.67 M 766.68,249.43 776.68,244.43 M 767.56,250.19 777.56,245.19 M 768.44,250.95 776.44,246.95 M 769.32,251.71 775.32,248.71 M 777.64,224.85 777.64,247.35 M 814.33,243.07 811.37,244.15 809.29,245.99 808.17,247.75 808.01,249.43 808.81,251.03 810.65,251.71 812.57,251.55 815.53,250.47 817.61,248.63 818.73,246.87 818.89,245.19 818.09,243.59 816.25,242.91 814.33,243.07 M 810.25,245.91 816.25,242.91 M 809.13,247.67 817.13,243.67 M 808.01,249.43 818.01,244.43 M 808.89,250.19 818.89,245.19 M 809.77,250.95 817.77,246.95 M 810.65,251.71 816.65,248.71 M 818.97,221.61 818.97,247.35 M 818.97,222.36 822.97,225.36 825.97,228.36 827.97,231.36 828.97,235.86 828.97,238.86 827.97,241.86 826.97,243.36 M 818.97,223.86 824.97,228.36 M 818.97,225.36 821.97,226.86 825.97,229.86 827.97,232.86 828.97,235.86 M 739.82,261.07 736.86,262.15 734.78,263.99 733.66,265.75 733.5,267.43 734.3,269.03 736.14,269.71 738.06,269.55 741.02,268.47 743.1,266.63 744.22,264.87 744.38,263.19 743.58,261.59 741.74,260.91 739.82,261.07 M 735.74,263.91 741.74,260.91 M 734.62,265.67 742.62,261.67 M 733.5,267.43 743.5,262.43 M 734.38,268.19 744.38,263.19 M 735.26,268.95 743.26,264.95 M 736.14,269.71 742.14,266.71 M 733.46,287.85 733.46,265.35 M 722.04,335.35 722.04,336.09 722.77,336.82 724.24,336.82 725.71,336.09 725.71,333.89 724.97,332.42 723.51,330.22 723.51,328.75 724.97,327.29 M 724.97,333.89 723.51,330.95 M 724.24,336.82 724.97,336.09 724.97,334.62 723.51,332.42 722.77,330.95 722.77,329.49 723.51,328.02 724.97,327.29 727.17,327.29 728.64,328.02 729.37,328.75 730.11,330.22 730.11,338.29 M 730.11,339.75 730.11,343.42 729.37,344.89 727.91,345.62 725.71,345.62 724.97,344.89 724.97,343.42 725.71,342.69 726.44,343.42 725.71,344.15 M 728.64,328.75 729.37,330.22 729.37,343.42 728.64,344.89 M 727.17,327.29 727.91,328.02 728.64,330.22 728.64,338.29 M 728.64,339.75 728.64,343.42 727.91,344.89 727.17,345.62 M 730.11,330.22 733.77,327.29 M 733.77,327.29 735.24,329.49 735.97,330.95 736.71,333.89 736.71,336.09 735.97,338.29 734.51,340.49 732.31,342.69 M 733.04,328.02 735.24,330.95 735.97,333.15 735.97,333.89 M 732.31,328.75 733.77,330.22 735.24,332.42 735.97,334.62 735.97,336.82 735.24,339.02 734.51,340.49 M 733.04,341.22 731.57,339.02 730.11,338.29 M 728.64,338.29 727.17,339.02 725.71,340.49 M 733.04,341.95 731.57,339.75 730.11,339.02 727.91,339.02 M 732.31,342.69 730.84,340.49 730.11,339.75 M 728.64,339.75 727.17,339.75 725.71,340.49 M 737.99,341.04 742.39,338.1 740.19,335.17 737.26,337.37 736.52,338.84 736.52,342.5 737.26,343.97 738.72,345.44 741.66,343.97 M 741.66,338.1 739.46,335.9 M 737.99,337.37 737.26,338.84 737.26,342.5 737.99,343.97 738.72,344.7 M 740.92,338.84 739.46,336.64 738.72,336.64 737.99,338.1 737.99,341.77 738.72,343.24 740.19,344.7 M 746.06,330.04 743.86,332.24 743.86,333.7 744.59,334.44 747.52,335.9 749.72,337.37 750.46,338.84 750.46,341.04 749.72,343.24 748.26,344.7 M 744.59,332.97 744.59,333.7 747.52,335.17 749.72,336.64 750.46,337.37 M 744.59,331.5 744.59,332.24 745.32,332.97 748.99,335.17 750.46,336.64 751.19,338.84 751.19,341.04 750.46,343.24 748.26,344.7 746.06,345.44 M 746.79,335.9 743.86,337.37 743.86,343.24 743.12,343.97 M 744.59,337.37 744.59,343.24 746.79,344.7 M 745.32,336.64 745.32,343.24 746.79,343.97 747.52,344.7 M 743.12,343.97 743.86,343.97 745.32,344.7 746.06,345.44 M 752.29,344.34 753.21,343.42 754.12,344.34 753.21,345.25 M 793.15,274.57 790.19,275.65 788.11,277.49 786.99,279.25 786.83,280.93 787.63,282.53 789.47,283.21 791.39,283.05 794.35,281.97 796.43,280.13 797.55,278.37 797.71,276.69 796.91,275.09 795.07,274.41 793.15,274.57 M 789.07,277.41 795.07,274.41 M 787.95,279.17 795.95,275.17 M 786.83,280.93 796.83,275.93 M 787.71,281.69 797.71,276.69 M 788.59,282.45 796.59,278.45 M 789.47,283.21 795.47,280.21 M 786.79,304.59 786.79,278.85 M 796.79,290.34 795.79,293.34 793.79,296.34 789.79,299.34 786.79,300.84 M 792.79,297.84 786.79,302.34 M 794.79,282.84 795.79,284.34 796.79,287.34 796.79,290.34 795.79,294.84 793.79,297.84 790.79,300.84 786.79,303.84 M 813.33,292.57 810.37,293.65 808.29,295.49 807.17,297.25 807.01,298.93 807.81,300.53 809.65,301.21 811.57,301.05 814.53,299.97 816.61,298.13 817.73,296.37 817.89,294.69 817.09,293.09 815.25,292.41 813.33,292.57 M 809.25,295.41 815.25,292.41 M 808.13,297.17 816.13,293.17 M 807.01,298.93 817.01,293.93 M 807.89,299.69 817.89,294.69 M 808.77,300.45 816.77,296.45 M 809.65,301.21 815.65,298.21 M 806.97,322.59 806.97,296.85 M 816.97,308.34 815.97,311.34 813.97,314.34 809.97,317.34 806.97,318.84 M 812.97,315.84 806.97,320.34 M 814.97,300.84 815.97,302.34 816.97,305.34 816.97,308.34 815.97,312.84 813.97,315.84 810.97,318.84 806.97,321.84 M 853.38,257.85 863.38,260.85 853.38,263.85 M 864.74,220.57 861.78,221.65 859.7,223.49 858.58,225.25 858.42,226.93 859.22,228.53 861.06,229.21 862.98,229.05 865.94,227.97 868.02,226.13 869.14,224.37 869.3,222.69 868.5,221.09 866.66,220.41 864.74,220.57 M 860.66,223.41 866.66,220.41 M 859.54,225.17 867.54,221.17 M 858.42,226.93 868.42,221.93 M 859.3,227.69 869.3,222.69 M 860.18,228.45 868.18,224.45 M 861.06,229.21 867.06,226.21 M 858.38,250.59 858.38,224.85 M 868.38,236.34 867.38,239.34 865.38,242.34 861.38,245.34 858.38,246.84 M 864.38,243.84 858.38,248.34 M 866.38,228.84 867.38,230.34 868.38,233.34 868.38,236.34 867.38,240.84 865.38,243.84 862.38,246.84 858.38,249.84 M 843.16,280.35 842.16,278.35 842.16,276.35 840.16,276.35 840.16,278.35 841.16,279.35 843.16,280.35 846.16,280.35 848.16,279.35 850.16,277.35 M 841.16,276.35 841.16,279.35 M 840.16,277.35 842.16,277.35 M 840.16,278.35 846.16,280.35 M 843.16,280.35 848.16,279.35 M 850.16,277.35 846.16,290.35 M 856.23,334.62 856.97,336.09 859.9,335.72 861.37,334.62 862.83,336.09 861.37,337.55 859.9,336.45 856.97,336.09 856.23,337.55 M 856.84,336.09 856.32,337.64 858.66,339.46 860.47,339.72 860.47,341.79 858.4,341.79 858.14,339.98 856.32,337.64 854.77,338.16 M 856.23,337.55 854.77,338.29 855.13,341.22 856.23,342.69 854.77,344.15 853.3,342.69 854.4,341.22 854.77,338.29 853.3,337.55 M 854.77,338.16 853.21,337.64 851.4,339.98 851.14,341.79 849.06,341.79 849.06,339.72 850.88,339.46 853.21,337.64 852.69,336.09 M 853.3,337.55 852.57,336.09 849.63,336.45 848.17,337.55 846.7,336.09 848.17,334.62 849.63,335.72 852.57,336.09 853.3,334.62 M 852.69,336.09 853.21,334.53 850.88,332.72 849.06,332.46 849.06,330.38 851.14,330.38 851.4,332.2 853.21,334.53 854.77,334.01 M 853.3,334.62 854.77,333.89 854.4,330.95 853.3,329.49 854.77,328.02 856.23,329.49 855.13,330.95 854.77,333.89 856.23,334.62 M 854.77,334.01 856.32,334.53 858.14,332.2 858.4,330.38 860.47,330.38 860.47,332.46 858.66,332.72 856.32,334.53 856.84,336.09 M 802.47,283.35 823.47,283.35 M 802.47,292.35 823.47,292.35 M 853.88,229.35 874.88,229.35 M 895.34,98 895.34,238.35 M 895.34,238.35 895.34,274.35 M 924.24,110.4 924.24,112.6 926.44,112.6 926.44,110.4 924.24,110.4 M 924.24,110.4 926.44,112.6 M 926.44,110.4 924.24,112.6 M 914.7,107.22 911.74,108.3 909.66,110.14 908.54,111.9 908.38,113.58 909.18,115.18 911.02,115.86 912.94,115.7 915.9,114.62 917.98,112.78 919.1,111.02 919.26,109.34 918.46,107.74 916.62,107.06 914.7,107.22 M 910.62,110.06 916.62,107.06 M 909.5,111.82 917.5,107.82 M 908.38,113.58 918.38,108.58 M 909.26,114.34 919.26,109.34 M 910.14,115.1 918.14,111.1 M 911.02,115.86 917.02,112.86 M 959.37,111.72 956.41,112.8 954.33,114.64 953.21,116.4 953.05,118.08 953.85,119.68 955.69,120.36 957.61,120.2 960.57,119.12 962.65,117.28 963.77,115.52 963.93,113.84 963.13,112.24 961.29,111.56 959.37,111.72 M 955.29,114.56 961.29,111.56 M 954.17,116.32 962.17,112.32 M 953.05,118.08 963.05,113.08 M 953.93,118.84 963.93,113.84 M 954.81,119.6 962.81,115.6 M 955.69,120.36 961.69,117.36 M 979.07,116.22 976.11,117.3 974.03,119.14 972.91,120.9 972.75,122.58 973.55,124.18 975.39,124.86 977.31,124.7 980.27,123.62 982.35,121.78 983.47,120.02 983.63,118.34 982.83,116.74 980.99,116.06 979.07,116.22 M 974.99,119.06 980.99,116.06 M 973.87,120.82 981.87,116.82 M 972.75,122.58 982.75,117.58 M 973.63,123.34 983.63,118.34 M 974.51,124.1 982.51,120.1 M 975.39,124.86 981.39,121.86 M 999.26,116.22 996.29,117.3 994.21,119.14 993.09,120.9 992.94,122.58 993.74,124.18 995.58,124.86 997.5,124.7 1000.46,123.62 1002.54,121.78 1003.66,120.02 1003.82,118.34 1003.02,116.74 1001.18,116.06 999.26,116.22 M 995.17,119.06 1001.18,116.06 M 994.05,120.82 1002.06,116.82 M 992.94,122.58 1002.94,117.58 M 993.82,123.34 1003.82,118.34 M 994.7,124.1 1002.7,120.1 M 995.58,124.86 1001.58,121.86 M 1003.9,98 1003.9,120.5 M 1020.04,63.5 1030.04,66.5 1020.04,69.5 M 1020.4,102.72 1017.44,103.8 1015.36,105.64 1014.24,107.4 1014.08,109.08 1014.88,110.68 1016.72,111.36 1018.64,111.2 1021.6,110.12 1023.68,108.28 1024.8,106.52 1024.96,104.84 1024.16,103.24 1022.32,102.56 1020.4,102.72 M 1016.32,105.56 1022.32,102.56 M 1015.2,107.32 1023.2,103.32 M 1014.08,109.08 1024.08,104.08 M 1014.96,109.84 1024.96,104.84 M 1015.84,110.6 1023.84,106.6 M 1016.72,111.36 1022.72,108.36 M 1025.04,81.26 1025.04,107 M 1025.04,82.01 1029.04,85.01 1032.04,88.01 1034.04,91.01 1035.04,95.51 1035.04,98.51 1034.04,101.51 1033.04,103.01 M 1025.04,83.51 1031.04,88.01 M 1025.04,85.01 1028.04,86.51 1032.04,89.51 1034.04,92.51 1035.04,95.51 M 924.24,128.4 924.24,130.6 926.44,130.6 926.44,128.4 924.24,128.4 M 924.24,128.4 926.44,130.6 M 926.44,128.4 924.24,130.6 M 913.7,125.22 910.74,126.3 908.66,128.14 907.54,129.9 907.38,131.58 908.18,133.18 910.02,133.86 911.94,133.7 914.9,132.62 916.98,130.78 918.1,129.02 918.26,127.34 917.46,125.74 915.62,125.06 913.7,125.22 M 909.62,128.06 915.62,125.06 M 908.5,129.82 916.5,125.82 M 907.38,131.58 917.38,126.58 M 908.26,132.34 918.26,127.34 M 909.14,133.1 917.14,129.1 M 910.02,133.86 916.02,130.86 M 907.34,152 907.34,129.5 M 998.26,125.22 995.29,126.3 993.21,128.14 992.09,129.9 991.94,131.58 992.74,133.18 994.58,133.86 996.5,133.7 999.46,132.62 1001.54,130.78 1002.66,129.02 1002.82,127.34 1002.02,125.74 1000.18,125.06 998.26,125.22 M 994.17,128.06 1000.18,125.06 M 993.05,129.82 1001.06,125.82 M 991.94,131.58 1001.94,126.58 M 992.82,132.34 1002.82,127.34 M 993.7,133.1 1001.7,129.1 M 994.58,133.86 1000.58,130.86 M 991.9,152 991.9,129.5 M 1019.4,125.22 1016.44,126.3 1014.36,128.14 1013.24,129.9 1013.08,131.58 1013.88,133.18 1015.72,133.86 1017.64,133.7 1020.6,132.62 1022.68,130.78 1023.8,129.02 1023.96,127.34 1023.16,125.74 1021.32,125.06 1019.4,125.22 M 1015.32,128.06 1021.32,125.06 M 1014.2,129.82 1022.2,125.82 M 1013.08,131.58 1023.08,126.58 M 1013.96,132.34 1023.96,127.34 M 1014.84,133.1 1022.84,129.1 M 1015.72,133.86 1021.72,130.86 M 1013.04,155.24 1013.04,129.5 M 1023.04,140.99 1022.04,143.99 1020.04,146.99 1016.04,149.99 1013.04,151.49 M 1019.04,148.49 1013.04,152.99 M 1021.04,133.49 1022.04,134.99 1023.04,137.99 1023.04,140.99 1022.04,145.49 1020.04,148.49 1017.04,151.49 1013.04,154.49 M 919.34,79.86 983.71,88.33 M 919.34,80.95 983.71,89.42 M 919.34,82.04 983.71,90.51 M 919.34,83.13 983.71,91.6 M 950.61,90.03 964.01,91.62 M 950.61,91.12 964.01,92.71 M 950.61,92.21 964.01,93.8 M 950.61,93.3 964.01,94.89 M 919.34,79.56 919.34,111.5 M 964.01,84.84 964.01,116 M 983.71,88.03 983.71,120.5 M 936.24,223.75 936.24,225.95 938.44,225.95 938.44,223.75 936.24,223.75 M 936.24,223.75 938.44,225.95 M 938.44,223.75 936.24,225.95 M 926.7,220.57 923.74,221.65 921.66,223.49 920.54,225.25 920.38,226.93 921.18,228.53 923.02,229.21 924.94,229.05 927.9,227.97 929.98,226.13 931.1,224.37 931.26,222.69 930.46,221.09 928.62,220.41 926.7,220.57 M 922.62,223.41 928.62,220.41 M 921.5,225.17 929.5,221.17 M 920.38,226.93 930.38,221.93 M 921.26,227.69 931.26,222.69 M 922.14,228.45 930.14,224.45 M 923.02,229.21 929.02,226.21 M 931.34,202.35 931.34,224.85 M 999.26,220.57 996.29,221.65 994.21,223.49 993.09,225.25 992.94,226.93 993.74,228.53 995.58,229.21 997.5,229.05 1000.46,227.97 1002.54,226.13 1003.66,224.37 1003.82,222.69 1003.02,221.09 1001.18,220.41 999.26,220.57 M 995.17,223.41 1001.18,220.41 M 994.05,225.17 1002.06,221.17 M 992.94,226.93 1002.94,221.93 M 993.82,227.69 1003.82,222.69 M 994.7,228.45 1002.7,224.45 M 995.58,229.21 1001.58,226.21 M 1003.9,202.35 1003.9,224.85 M 936.24,232.75 936.24,234.95 938.44,234.95 938.44,232.75 936.24,232.75 M 936.24,232.75 938.44,234.95 M 938.44,232.75 936.24,234.95 M 913.7,225.07 910.74,226.15 908.66,227.99 907.54,229.75 907.38,231.43 908.18,233.03 910.02,233.71 911.94,233.55 914.9,232.47 916.98,230.63 918.1,228.87 918.26,227.19 917.46,225.59 915.62,224.91 913.7,225.07 M 909.62,227.91 915.62,224.91 M 908.5,229.67 916.5,225.67 M 907.38,231.43 917.38,226.43 M 908.26,232.19 918.26,227.19 M 909.14,232.95 917.14,228.95 M 910.02,233.71 916.02,230.71 M 958.37,229.57 955.41,230.65 953.33,232.49 952.21,234.25 952.05,235.93 952.85,237.53 954.69,238.21 956.61,238.05 959.57,236.97 961.65,235.13 962.77,233.37 962.93,231.69 962.13,230.09 960.29,229.41 958.37,229.57 M 954.29,232.41 960.29,229.41 M 953.17,234.17 961.17,230.17 M 952.05,235.93 962.05,230.93 M 952.93,236.69 962.93,231.69 M 953.81,237.45 961.81,233.45 M 954.69,238.21 960.69,235.21 M 978.07,234.07 975.11,235.15 973.03,236.99 971.91,238.75 971.75,240.43 972.55,242.03 974.39,242.71 976.31,242.55 979.27,241.47 981.35,239.63 982.47,237.87 982.63,236.19 981.83,234.59 979.99,233.91 978.07,234.07 M 973.99,236.91 979.99,233.91 M 972.87,238.67 980.87,234.67 M 971.75,240.43 981.75,235.43 M 972.63,241.19 982.63,236.19 M 973.51,241.95 981.51,237.95 M 974.39,242.71 980.39,239.71 M 998.26,234.07 995.29,235.15 993.21,236.99 992.09,238.75 991.94,240.43 992.74,242.03 994.58,242.71 996.5,242.55 999.46,241.47 1001.54,239.63 1002.66,237.87 1002.82,236.19 1002.02,234.59 1000.18,233.91 998.26,234.07 M 994.17,236.91 1000.18,233.91 M 993.05,238.67 1001.06,234.67 M 991.94,240.43 1001.94,235.43 M 992.82,241.19 1002.82,236.19 M 993.7,241.95 1001.7,237.95 M 994.58,242.71 1000.58,239.71 M 991.9,260.85 991.9,238.35 M 1008.04,257.85 1018.04,260.85 1008.04,263.85 M 1019.4,220.57 1016.44,221.65 1014.36,223.49 1013.24,225.25 1013.08,226.93 1013.88,228.53 1015.72,229.21 1017.64,229.05 1020.6,227.97 1022.68,226.13 1023.8,224.37 1023.96,222.69 1023.16,221.09 1021.32,220.41 1019.4,220.57 M 1015.32,223.41 1021.32,220.41 M 1014.2,225.17 1022.2,221.17 M 1013.08,226.93 1023.08,221.93 M 1013.96,227.69 1023.96,222.69 M 1014.84,228.45 1022.84,224.45 M 1015.72,229.21 1021.72,226.21 M 1013.04,250.59 1013.04,224.85 M 1023.04,236.34 1022.04,239.34 1020.04,242.34 1016.04,245.34 1013.04,246.84 M 1019.04,243.84 1013.04,248.34 M 1021.04,228.84 1022.04,230.34 1023.04,233.34 1023.04,236.34 1022.04,240.84 1020.04,243.84 1017.04,246.84 1013.04,249.84 M 907.34,260.27 971.71,269.37 M 907.34,259.18 971.71,268.28 M 907.34,258.09 971.71,267.19 M 907.34,257 971.71,266.1 M 938.61,258.21 952.01,260.1 M 938.61,257.12 952.01,259.01 M 938.61,256.03 952.01,257.92 M 938.61,254.94 952.01,256.83 M 907.34,260.57 907.34,229.35 M 952.01,266.88 952.01,233.85 M 971.71,269.67 971.71,238.35 M 902.84,229.35 935.84,229.35 M 987.4,229.35 1008.4,229.35 M 1008.54,229.35 1029.54,229.35 M 1050,98 1050,238.35 M 1050,238.35 1050,274.35 M 164.87,88.26 169.62,84.08 175.1,80.54 181.24,77.62 187.95,75.3 195.12,73.58 202.68,72.43 210.52,71.84 218.57,71.79 226.73,72.26 234.9,73.23 243.01,74.7 250.95,76.64 258.64,79.03 265.99,81.86 272.9,85.11 279.28,88.77 285.06,92.81 290.12,97.23 294.39,102 M 285.06,93.1 279.28,89.17 272.9,85.61 265.99,82.44 258.64,79.68 250.95,77.33 243.01,75.43 234.9,73.98 226.73,73.01 218.57,72.52 210.52,72.54 202.68,73.08 195.12,74.16 187.95,75.8 181.24,78.02 175.1,80.82 M 159.87,229.85 161.75,228.57 163.96,227.4 166.46,226.33 169.22,225.38 172.19,224.54 175.34,223.82 178.62,223.22 182.01,222.74 185.45,222.4 188.92,222.19 192.38,222.11 195.78,222.17 199.09,222.38 202.26,222.73 205.27,223.24 208.07,223.9 210.62,224.72 212.89,225.7 214.83,226.85 M 210.62,225 208.07,224.3 205.27,223.74 202.26,223.32 199.09,223.03 195.78,222.87 192.38,222.84 188.92,222.93 185.45,223.15 182.01,223.48 178.62,223.92 175.34,224.47 172.19,225.12 169.22,225.88 166.46,226.73 163.96,227.68 M 220.83,226.85 223.15,225.63 225.86,224.56 228.92,223.62 232.28,222.81 235.9,222.13 239.73,221.6 243.72,221.19 247.83,220.92 252.01,220.79 256.21,220.79 260.39,220.92 264.5,221.19 268.49,221.6 272.32,222.13 275.94,222.81 279.3,223.62 282.36,224.56 285.07,225.63 287.39,226.85 M 282.36,224.84 279.3,224.01 275.94,223.31 272.32,222.72 268.49,222.24 264.5,221.89 260.39,221.65 256.21,221.54 252.01,221.54 247.83,221.65 243.72,221.89 239.73,222.24 235.9,222.72 232.28,223.31 228.92,224.01 225.86,224.84 M 159.87,145.5 161.37,146.71 163.12,147.79 165.09,148.73 167.27,149.54 169.6,150.21 172.07,150.75 174.65,151.15 177.3,151.42 180,151.56 182.71,151.56 185.41,151.42 188.06,151.15 190.64,150.75 193.11,150.21 195.44,149.54 197.61,148.73 199.59,147.79 201.34,146.71 202.83,145.5 M 199.59,147.51 197.61,148.33 195.44,149.04 193.11,149.63 190.64,150.1 188.06,150.46 185.41,150.69 182.71,150.81 180,150.81 177.3,150.69 174.65,150.46 172.07,150.1 169.6,149.63 167.27,149.04 165.09,148.33 163.12,147.51 M 208.83,145.5 211.57,146.71 214.77,147.79 218.38,148.73 222.35,149.54 226.62,150.21 231.14,150.75 235.85,151.15 240.7,151.42 245.63,151.56 250.59,151.56 255.52,151.42 260.37,151.15 265.08,150.75 269.6,150.21 273.87,149.54 277.84,148.73 281.46,147.79 284.66,146.71 287.39,145.5 M 281.46,147.51 277.84,148.33 273.87,149.04 269.6,149.63 265.08,150.1 260.37,150.46 255.52,150.69 250.59,150.81 245.63,150.81 240.7,150.69 235.85,150.46 231.14,150.1 226.62,149.63 222.35,149.04 218.38,148.33 214.77,147.51 M 319.53,88.26 325.12,84.07 331.61,80.53 338.89,77.61 346.85,75.29 355.39,73.57 364.39,72.42 373.75,71.82 383.36,71.77 393.11,72.24 402.89,73.22 412.6,74.68 422.12,76.62 431.34,79.01 440.17,81.84 448.49,85.1 456.18,88.76 463.15,92.81 469.29,97.23 474.48,102 M 463.15,93.09 456.18,89.16 448.49,85.6 440.17,82.43 431.34,79.66 422.12,77.32 412.6,75.41 402.89,73.96 393.11,72.99 383.36,72.5 373.75,72.52 364.39,73.07 355.39,74.15 346.85,75.79 338.89,78.01 331.61,80.81 M 314.53,145.5 316.91,146.71 319.7,147.79 322.84,148.73 326.3,149.54 330.02,150.21 333.95,150.75 338.06,151.15 342.28,151.42 346.57,151.56 350.89,151.56 355.18,151.42 359.41,151.15 363.51,150.75 367.44,150.21 371.16,149.54 374.62,148.73 377.76,147.79 380.55,146.71 382.93,145.5 M 377.76,147.51 374.62,148.33 371.16,149.04 367.44,149.63 363.51,150.1 359.41,150.46 355.18,150.69 350.89,150.81 346.57,150.81 342.28,150.69 338.06,150.46 333.95,150.1 330.02,149.63 326.3,149.04 322.84,148.33 319.7,147.51 M 388.93,145.5 391.66,146.71 394.86,147.79 398.47,148.73 402.44,149.54 406.71,150.21 411.23,150.75 415.94,151.15 420.79,151.42 425.73,151.56 430.68,151.56 435.62,151.42 440.47,151.15 445.18,150.75 449.7,150.21 453.97,149.54 457.94,148.73 461.55,147.79 464.75,146.71 467.48,145.5 M 461.55,147.51 457.94,148.33 453.97,149.04 449.7,149.63 445.18,150.1 440.47,150.46 435.62,150.69 430.68,150.81 425.73,150.81 420.79,150.69 415.94,150.46 411.23,150.1 406.71,149.63 402.44,149.04 398.47,148.33 394.86,147.51 M 314.53,237.85 317.31,239.12 320.56,240.29 324.24,241.36 328.29,242.31 332.65,243.15 337.26,243.87 342.08,244.48 347.04,244.95 352.08,245.3 357.16,245.51 362.21,245.59 367.17,245.52 372,245.31 376.64,244.96 381.02,244.45 385.1,243.79 388.81,242.97 392.11,241.99 394.93,240.85 M 388.81,242.69 385.1,243.39 381.02,243.96 376.64,244.38 372,244.67 367.17,244.82 362.21,244.85 357.16,244.76 352.08,244.55 347.04,244.22 342.08,243.78 337.26,243.23 332.65,242.57 328.29,241.81 324.24,240.96 320.56,240.01 M 400.93,226.85 403.24,225.63 405.95,224.56 409.01,223.62 412.38,222.81 416,222.13 419.83,221.6 423.82,221.19 427.93,220.92 432.1,220.79 436.31,220.79 440.48,220.92 444.59,221.19 448.58,221.6 452.41,222.13 456.03,222.81 459.4,223.62 462.46,224.56 465.17,225.63 467.48,226.85 M 462.46,224.84 459.4,224.01 456.03,223.31 452.41,222.72 448.58,222.24 444.59,221.89 440.48,221.65 436.31,221.54 432.1,221.54 427.93,221.65 423.82,221.89 419.83,222.24 416,222.72 412.38,223.31 409.01,224.01 405.95,224.84 M 499.63,100.2 501.49,97.39 503.66,94.92 506.1,92.78 508.77,90.98 511.63,89.5 514.66,88.34 517.8,87.51 521.04,87 524.32,86.81 527.61,86.94 530.88,87.39 534.09,88.14 537.21,89.21 540.19,90.58 543,92.26 545.6,94.25 547.96,96.53 550.05,99.12 551.81,102 M 547.96,96.81 545.6,94.64 543,92.76 540.19,91.16 537.21,89.85 534.09,88.84 530.88,88.12 527.61,87.69 524.32,87.56 521.04,87.74 517.8,88.21 514.66,88.99 511.63,90.08 508.77,91.48 506.1,93.18 503.66,95.21 M 499.63,227.05 501.49,224.24 503.66,221.77 506.1,219.63 508.77,217.82 511.63,216.34 514.66,215.19 517.8,214.36 521.04,213.85 524.32,213.66 527.61,213.79 530.88,214.23 534.09,214.99 537.21,216.05 540.19,217.43 543,219.11 545.6,221.09 547.96,223.38 550.05,225.96 551.81,228.85 M 547.96,223.66 545.6,221.49 543,219.61 540.19,218.01 537.21,216.7 534.09,215.68 530.88,214.96 527.61,214.54 524.32,214.41 521.04,214.58 517.8,215.06 514.66,215.84 511.63,216.92 508.77,218.32 506.1,220.03 503.66,222.05 M 584.92,285.85 585.91,287.06 587.08,288.13 588.39,289.08 589.83,289.88 591.39,290.56 593.03,291.1 594.75,291.5 596.51,291.77 598.31,291.9 600.11,291.9 601.91,291.77 603.67,291.5 605.39,291.1 607.03,290.56 608.58,289.88 610.03,289.08 611.34,288.13 612.51,287.06 613.5,285.85 M 611.34,287.85 610.03,288.68 608.58,289.39 607.03,289.98 605.39,290.45 603.67,290.8 601.91,291.04 600.11,291.16 598.31,291.16 596.51,291.04 594.75,290.8 593.03,290.45 591.39,289.98 589.83,289.39 588.39,288.68 587.08,287.85 M 624.5,93.96 631.06,87.84 638.78,82.3 647.53,77.34 657.17,72.96 667.56,69.19 678.57,66.02 690.07,63.48 701.92,61.57 713.99,60.29 726.14,59.68 738.24,59.72 750.15,60.44 761.74,61.85 772.87,63.95 783.41,66.76 793.23,70.28 802.18,74.53 810.14,79.52 816.97,85.26 M 802.18,74.81 793.23,70.68 783.41,67.26 772.87,64.53 761.74,62.5 750.15,61.14 738.24,60.45 726.14,60.43 713.99,61.04 701.92,62.3 690.07,64.18 678.57,66.67 667.56,69.77 657.17,73.46 647.53,77.74 638.78,82.58 M 774.64,109 775.87,107.79 777.31,106.71 778.93,105.77 780.72,104.96 782.64,104.29 784.67,103.75 786.79,103.35 788.97,103.08 791.19,102.94 793.42,102.94 795.64,103.08 797.82,103.35 799.94,103.75 801.97,104.29 803.89,104.96 805.68,105.77 807.3,106.71 808.74,107.79 809.97,109 M 807.3,106.99 805.68,106.17 803.89,105.46 801.97,104.87 799.94,104.4 797.82,104.04 795.64,103.81 793.42,103.69 791.19,103.69 788.97,103.81 786.79,104.04 784.67,104.4 782.64,104.87 780.72,105.46 778.93,106.17 777.31,106.99 M 774.64,145.5 775.87,146.71 777.31,147.79 778.93,148.73 780.72,149.54 782.64,150.21 784.67,150.75 786.79,151.15 788.97,151.42 791.19,151.56 793.42,151.56 795.64,151.42 797.82,151.15 799.94,150.75 801.97,150.21 803.89,149.54 805.68,148.73 807.3,147.79 808.74,146.71 809.97,145.5 M 807.3,147.51 805.68,148.33 803.89,149.04 801.97,149.63 799.94,150.1 797.82,150.46 795.64,150.69 793.42,150.81 791.19,150.81 788.97,150.69 786.79,150.46 784.67,150.1 782.64,149.63 780.72,149.04 778.93,148.33 777.31,147.51 M 774.64,240.35 775.87,239.13 777.31,238.06 778.93,237.12 780.72,236.31 782.64,235.63 784.67,235.1 786.79,234.69 788.97,234.42 791.19,234.29 793.42,234.29 795.64,234.42 797.82,234.69 799.94,235.1 801.97,235.63 803.89,236.31 805.68,237.12 807.3,238.06 808.74,239.13 809.97,240.35 M 807.3,238.34 805.68,237.51 803.89,236.81 801.97,236.22 799.94,235.74 797.82,235.39 795.64,235.15 793.42,235.04 791.19,235.04 788.97,235.15 786.79,235.39 784.67,235.74 782.64,236.22 780.72,236.81 778.93,237.51 777.31,238.34 M 735.46,292.85 737.15,296.66 739.34,300.49 741.97,304.31 745,308.05 748.38,311.69 752.06,315.18 755.98,318.48 760.11,321.55 764.4,324.33 768.79,326.8 773.23,328.9 777.68,330.6 782.09,331.85 786.41,332.62 790.6,332.85 794.59,332.5 798.35,331.54 801.83,329.91 804.97,327.59 M 798.35,331.25 794.59,332.1 790.6,332.35 786.41,332.03 782.09,331.21 777.68,329.9 773.23,328.17 768.79,326.05 764.4,323.58 760.11,320.81 755.98,317.78 752.06,314.54 748.38,311.11 745,307.55 741.97,303.91 739.34,300.21 M 872.38,79.26 877.12,75.08 882.61,71.54 888.75,68.62 895.45,66.3 902.63,64.58 910.18,63.43 918.03,62.84 926.08,62.79 934.23,63.26 942.41,64.23 950.51,65.7 958.46,67.64 966.15,70.03 973.49,72.86 980.4,76.11 986.79,79.77 992.56,83.81 997.63,88.23 1001.9,93 M 992.56,84.1 986.79,80.17 980.4,76.61 973.49,73.44 966.15,70.68 958.46,68.33 950.51,66.43 942.41,64.98 934.23,64.01 926.08,63.52 918.03,63.54 910.18,64.08 902.63,65.16 895.45,66.8 888.75,69.02 882.61,71.82 M 867.38,136.5 868.87,137.71 870.62,138.79 872.6,139.73 874.77,140.54 877.11,141.21 879.58,141.75 882.16,142.15 884.81,142.42 887.5,142.56 890.22,142.56 892.91,142.42 895.57,142.15 898.14,141.75 900.61,141.21 902.95,140.54 905.12,139.73 907.1,138.79 908.85,137.71 910.34,136.5 M 907.1,138.51 905.12,139.33 902.95,140.04 900.61,140.63 898.14,141.1 895.57,141.46 892.91,141.69 890.22,141.81 887.5,141.81 884.81,141.69 882.16,141.46 879.58,141.1 877.11,140.63 874.77,140.04 872.6,139.33 870.62,138.51 M 916.34,136.5 919.07,137.71 922.27,138.79 925.89,139.73 929.85,140.54 934.13,141.21 938.65,141.75 943.36,142.15 948.21,142.42 953.14,142.56 958.1,142.56 963.03,142.42 967.88,142.15 972.59,141.75 977.11,141.21 981.38,140.54 985.35,139.73 988.96,138.79 992.16,137.71 994.9,136.5 M 988.96,138.51 985.35,139.33 981.38,140.04 977.11,140.63 972.59,141.1 967.88,141.46 963.03,141.69 958.1,141.81 953.14,141.81 948.21,141.69 943.36,141.46 938.65,141.1 934.13,140.63 929.85,140.04 925.89,139.33 922.27,138.51 M 867.38,228.85 869.26,230.12 871.47,231.29 873.97,232.36 876.73,233.31 879.7,234.15 882.84,234.87 886.13,235.47 889.51,235.95 892.96,236.29 896.43,236.51 899.88,236.58 903.28,236.52 906.59,236.31 909.77,235.96 912.78,235.45 915.57,234.79 918.13,233.97 920.4,232.99 922.34,231.85 M 918.13,233.69 915.57,234.39 912.78,234.95 909.77,235.38 906.59,235.66 903.28,235.82 899.88,235.85 896.43,235.76 892.96,235.55 889.51,235.22 886.13,234.77 882.84,234.22 879.7,233.57 876.73,232.81 873.97,231.96 871.47,231.01 M 928.34,217.85 930.66,216.63 933.37,215.56 936.43,214.62 939.79,213.81 943.41,213.13 947.24,212.6 951.23,212.19 955.34,211.92 959.52,211.79 963.72,211.79 967.9,211.92 972.01,212.19 976,212.6 979.83,213.13 983.45,213.81 986.81,214.62 989.87,215.56 992.58,216.63 994.9,217.85 M 989.87,215.84 986.81,215.01 983.45,214.31 979.83,213.72 976,213.24 972.01,212.89 967.9,212.65 963.72,212.54 959.52,212.54 955.34,212.65 951.23,212.89 947.24,213.24 943.41,213.72 939.79,214.31 936.43,215.01 933.37,215.84 M 619.5,188.85 699.98,177.85 M 619.5,188.85 699.98,199.85 M 742.46,177.85 768.64,188.85 M 742.46,199.85 768.64,188.85 "/></svg>
