<svg xmlns="http://www.w3.org/2000/svg" width="1100" height="366.0861051149694"><rect x="0" y="0" width="1100" height="366.0861051149694" fill="white"/><rect x="50" y="30" width="176.75" height="14" fill="rgba(0,0,0,0.2)" stroke="black"/><text x="50" y="30" font-size="13">bold_text</text><rect x="50" y="98" width="1" height="176.34610511496942" fill="rgba(0,0,0,0.2)" stroke="black"/><text x="50" y="98" font-size="13">bracket</text><line x1="50" y1="98" x2="50" y2="274.3461051149694" stroke="black"/><line x1="50" y1="98" x2="1050" y2="98" stroke="black"/><line x1="50" y1="107" x2="1050" y2="107" stroke="black"/><line x1="50" y1="116" x2="1050" y2="116" stroke="black"/><line x1="50" y1="125" x2="1050" y2="125" stroke="black"/><line x1="50" y1="134" x2="1050" y2="134" stroke="black"/><line x1="50" y1="238.34610511496942" x2="1050" y2="238.34610511496942" stroke="black"/><line x1="50" y1="247.34610511496942" x2="1050" y2="247.34610511496942" stroke="black"/><line x1="50" y1="256.3461051149694" x2="1050" y2="256.3461051149694" stroke="black"/><line x1="50" y1="265.3461051149694" x2="1050" y2="265.3461051149694" stroke="black"/><line x1="50" y1="274.3461051149694" x2="1050" y2="274.3461051149694" stroke="black"/><rect x="57.22485714285715" y="107" width="24" height="36" fill="rgba(255,255,0,0.2)" stroke="black"/><rect x="85.4497142857143" y="93.5" width="12" height="9" fill="rgba(255,255,0,0.2)" stroke="black"/><rect x="95.04971428571429" y="107" width="12" height="9" fill="rgba(255,255,0,0.2)" stroke="black"/><rect x="114.87457142857144" y="98" width="24" height="18" fill="rgba(255,255,0,0.2)" stroke="black"/><rect x="114.87457142857144" y="116" width="24" height="18" fill="rgba(255,255,0,0.2)" stroke="black"/><rect x="162.87457142857144" y="75.5" width="12" height="9" fill="rgba(0,0,0,0.2)" stroke="black"/><text x="162.87457142857144" y="75.5" font-size="13">articulation</text><rect x="152.87457142857144" y="114" width="10" height="4" fill="blue"/><text x="162.87457142857144" y="116" font-size="8" fill="red">8</text><line x1="162.87457142857144" y1="90.26" x2="162.87457142857144" y2="116" stroke="black"/><rect x="162.87457142857144" y="90.26" width="12" height="9" fill="rgba(0,0,0,0.2)" stroke="black"/><text x="162.87457142857144" y="90.26" font-size="13">flag</text><rect x="156.87457142857144" y="177.84610511496942" width="12" height="22" fill="rgba(0,0,0,0.2)" stroke="black"/><text x="156.87457142857144" y="177.84610511496942" font-size="13">cue</text><rect x="150.87457142857144" y="136.5" width="10" height="4" fill="blue"/><text x="150.87457142857144" y="138.5" font-size="8" fill="red">8</text><line x1="150.87457142857144" y1="164.24" x2="150.87457142857144" y2="138.5" stroke="black"/><rect x="150.87457142857144" y="164.24" width="12" height="9" fill="rgba(0,0,0,0.2)" stroke="black"/><text x="150.87457142857144" y="164.24" font-size="13">flag</text><rect x="57.22485714285715" y="229.34610511496942" width="24" height="36" fill="rgba(255,255,0,0.2)" stroke="black"/><rect x="85.4497142857143" y="242.84610511496942" width="12" height="9" fill="rgba(255,255,0,0.2)" stroke="black"/><rect x="95.04971428571429" y="256.3461051149694" width="12" height="9" fill="rgba(255,255,0,0.2)" stroke="black"/><rect x="114.87457142857144" y="238.34610511496942" width="24" height="18" fill="rgba(255,255,0,0.2)" stroke="black"/><rect x="114.87457142857144" y="256.3461051149694" width="24" height="18" fill="rgba(255,255,0,0.2)" stroke="black"/><rect x="156.87457142857144" y="224.84610511496942" width="12" height="9" fill="rgba(0,0,0,0.2)" stroke="black"/><text x="156.87457142857144" y="224.84610511496942" font-size="13">articulation</text><rect x="150.87457142857144" y="231.84610511496942" width="10" height="4" fill="blue"/><text x="150.87457142857144" y="233.84610511496942" font-size="8" fill="red">8</text><line x1="150.87457142857144" y1="259.5861051149694" x2="150.87457142857144" y2="233.84610511496942" stroke="black"/><rect x="150.87457142857144" y="259.5861051149694" width="12" height="9" fill="rgba(0,0,0,0.2)" stroke="black"/><text x="150.87457142857144" y="259.5861051149694" font-size="13">flag</text><line x1="187.83457142857145" y1="98" x2="187.83457142857145" y2="238.34610511496942" stroke="black"/><line x1="187.83457142857145" y1="238.34610511496942" x2="187.83457142857145" y2="274.3461051149694" stroke="black"/><rect x="217.83457142857145" y="120.5" width="1" height="1" fill="rgba(0,0,0,0.2)" stroke="black"/><text x="217.83457142857145" y="120.5" font-size="13">dot</text><rect x="201.83457142857145" y="118.5" width="10" height="4" fill="blue"/><text x="211.83457142857145" y="120.5" font-size="8" fill="red">12</text><rect x="246.4994285714286" y="123" width="10" height="4" fill="blue"/><text x="256.4994285714286" y="125" font-size="8" fill="red">4</text><rect x="266.20428571428573" y="127.5" width="10" height="4" fill="blue"/><text x="276.20428571428573" y="129.5" font-size="8" fill="red">8</text><rect x="286.38914285714293" y="127.5" width="10" height="4" fill="blue"/><text x="296.38914285714293" y="129.5" font-size="8" fill="red">16</text><line x1="296.38914285714293" y1="107" x2="296.38914285714293" y2="129.5" stroke="black"/><rect x="317.53400000000005" y="75.5" width="12" height="9" fill="rgba(0,0,0,0.2)" stroke="black"/><text x="317.53400000000005" y="75.5" font-size="13">articulation</text><rect x="307.53400000000005" y="114" width="10" height="4" fill="blue"/><text x="317.53400000000005" y="116" font-size="8" fill="red">8</text><line x1="317.53400000000005" y1="90.26" x2="317.53400000000005" y2="116" stroke="black"/><rect x="317.53400000000005" y="90.26" width="12" height="9" fill="rgba(0,0,0,0.2)" stroke="black"/><text x="317.53400000000005" y="90.26" font-size="13">flag</text><rect x="217.83457142857145" y="138.5" width="1" height="1" fill="rgba(0,0,0,0.2)" stroke="black"/><text x="217.83457142857145" y="138.5" font-size="13">dot</text><rect x="199.83457142857145" y="136.5" width="10" height="4" fill="blue"/><text x="199.83457142857145" y="138.5" font-size="8" fill="red">24</text><line x1="199.83457142857145" y1="161" x2="199.83457142857145" y2="138.5" stroke="black"/><rect x="284.38914285714293" y="136.5" width="10" height="4" fill="blue"/><text x="284.38914285714293" y="138.5" font-size="8" fill="red">16</text><line x1="284.38914285714293" y1="161" x2="284.38914285714293" y2="138.5" stroke="black"/><rect x="305.53400000000005" y="136.5" width="10" height="4" fill="blue"/><text x="305.53400000000005" y="138.5" font-size="8" fill="red">8</text><line x1="305.53400000000005" y1="164.24" x2="305.53400000000005" y2="138.5" stroke="black"/><rect x="305.53400000000005" y="164.24" width="12" height="9" fill="rgba(0,0,0,0.2)" stroke="black"/><text x="305.53400000000005" y="164.24" font-size="13">flag</text><line x1="211.83457142857145" y1="88.5552633559105" x2="276.20428571428573" y2="97.0259833498801" stroke="brown" stroke-width="3"/><line x1="243.09997142857145" y1="98.73370631271973" x2="256.4994285714286" y2="100.31875329420942" stroke="brown" stroke-width="3"/><line x1="211.83457142857145" y1="88.5552633559105" x2="211.83457142857145" y2="120.5" stroke="black"/><line x1="256.4994285714286" y1="93.83875329420941" x2="256.4994285714286" y2="125" stroke="black"/><line x1="276.20428571428573" y1="97.0259833498801" x2="276.20428571428573" y2="129.5" stroke="black"/><rect x="229.83457142857145" y="233.84610511496942" width="1" height="1" fill="rgba(0,0,0,0.2)" stroke="black"/><text x="229.83457142857145" y="233.84610511496942" font-size="13">dot</text><rect x="213.83457142857145" y="231.84610511496942" width="10" height="4" fill="blue"/><text x="223.83457142857145" y="233.84610511496942" font-size="8" fill="red">24</text><line x1="223.83457142857145" y1="211.34610511496942" x2="223.83457142857145" y2="233.84610511496942" stroke="black"/><rect x="286.38914285714293" y="231.84610511496942" width="10" height="4" fill="blue"/><text x="296.38914285714293" y="233.84610511496942" font-size="8" fill="red">16</text><line x1="296.38914285714293" y1="211.34610511496942" x2="296.38914285714293" y2="233.84610511496942" stroke="black"/><rect x="229.83457142857145" y="242.84610511496942" width="1" height="1" fill="rgba(0,0,0,0.2)" stroke="black"/><text x="229.83457142857145" y="242.84610511496942" font-size="13">dot</text><rect x="199.83457142857145" y="236.34610511496942" width="10" height="4" fill="blue"/><text x="199.83457142857145" y="238.34610511496942" font-size="8" fill="red">12</text><rect x="244.4994285714286" y="240.84610511496942" width="10" height="4" fill="blue"/><text x="244.4994285714286" y="242.84610511496942" font-size="8" fill="red">4</text><rect x="264.20428571428573" y="245.34610511496942" width="10" height="4" fill="blue"/><text x="264.20428571428573" y="247.34610511496942" font-size="8" fill="red">8</text><rect x="284.38914285714293" y="245.34610511496942" width="10" height="4" fill="blue"/><text x="284.38914285714293" y="247.34610511496942" font-size="8" fill="red">16</text><line x1="284.38914285714293" y1="269.8461051149694" x2="284.38914285714293" y2="247.34610511496942" stroke="black"/><rect x="305.53400000000005" y="269.8461051149694" width="12" height="9" fill="rgba(0,0,0,0.2)" stroke="black"/><text x="305.53400000000005" y="269.8461051149694" font-size="13">articulation</text><rect x="305.53400000000005" y="231.84610511496942" width="10" height="4" fill="blue"/><text x="305.53400000000005" y="233.84610511496942" font-size="8" fill="red">8</text><line x1="305.53400000000005" y1="259.5861051149694" x2="305.53400000000005" y2="233.84610511496942" stroke="black"/><rect x="305.53400000000005" y="259.5861051149694" width="12" height="9" fill="rgba(0,0,0,0.2)" stroke="black"/><text x="305.53400000000005" y="259.5861051149694" font-size="13">flag</text><line x1="199.83457142857145" y1="269.5667716978073" x2="264.20428571428573" y2="278.6689514747545" stroke="brown" stroke-width="3"/><line x1="231.09997142857145" y1="267.5078460299847" x2="244.4994285714286" y2="269.40259217234643" stroke="brown" stroke-width="3"/><line x1="199.83457142857145" y1="269.5667716978073" x2="199.83457142857145" y2="238.34610511496942" stroke="black"/><line x1="244.4994285714286" y1="275.88259217234645" x2="244.4994285714286" y2="242.84610511496942" stroke="black"/><line x1="264.20428571428573" y1="278.6689514747545" x2="264.20428571428573" y2="247.34610511496945" stroke="black"/><line x1="342.494" y1="98" x2="342.494" y2="238.34610511496942" stroke="black"/><line x1="342.494" y1="238.34610511496942" x2="342.494" y2="274.3461051149694" stroke="black"/><rect x="397.92771428571433" y="120.5" width="1" height="1" fill="rgba(0,0,0,0.2)" stroke="black"/><text x="397.92771428571433" y="120.5" font-size="13">dot</text><rect x="381.92771428571433" y="118.5" width="10" height="4" fill="blue"/><text x="391.92771428571433" y="120.5" font-size="8" fill="red">12</text><rect x="426.59257142857143" y="123" width="10" height="4" fill="blue"/><text x="436.59257142857143" y="125" font-size="8" fill="red">4</text><rect x="446.2974285714286" y="127.5" width="10" height="4" fill="blue"/><text x="456.2974285714286" y="129.5" font-size="8" fill="red">8</text><rect x="466.48228571428575" y="127.5" width="10" height="4" fill="blue"/><text x="476.48228571428575" y="129.5" font-size="8" fill="red">16</text><line x1="476.48228571428575" y1="107" x2="476.48228571428575" y2="129.5" stroke="black"/><rect x="487.62714285714287" y="136.5" width="10" height="4" fill="blue"/><text x="497.62714285714287" y="138.5" font-size="8" fill="red">4</text><rect x="507.3320000000001" y="132" width="10" height="4" fill="blue"/><text x="517.3320000000001" y="134" font-size="8" fill="red">4</text><rect x="397.92771428571433" y="138.5" width="1" height="1" fill="rgba(0,0,0,0.2)" stroke="black"/><text x="397.92771428571433" y="138.5" font-size="13">dot</text><rect x="379.92771428571433" y="136.5" width="10" height="4" fill="blue"/><text x="379.92771428571433" y="138.5" font-size="8" fill="red">24</text><line x1="379.92771428571433" y1="161" x2="379.92771428571433" y2="138.5" stroke="black"/><rect x="464.48228571428575" y="136.5" width="10" height="4" fill="blue"/><text x="464.48228571428575" y="138.5" font-size="8" fill="red">16</text><line x1="464.48228571428575" y1="161" x2="464.48228571428575" y2="138.5" stroke="black"/><line x1="391.92771428571433" y1="88.55526335591051" x2="456.2974285714286" y2="97.0259833498801" stroke="brown" stroke-width="3"/><line x1="423.19311428571433" y1="98.73370631271973" x2="436.5925714285715" y2="100.3187532942094" stroke="brown" stroke-width="3"/><line x1="391.92771428571433" y1="88.55526335591051" x2="391.92771428571433" y2="120.5" stroke="black"/><line x1="436.59257142857143" y1="93.83875329420941" x2="436.59257142857143" y2="125" stroke="black"/><line x1="456.2974285714286" y1="97.0259833498801" x2="456.2974285714286" y2="129.5" stroke="black"/><line x1="497.62714285714287" y1="105.20000000000016" x2="517.332" y2="100.69999999999986" stroke="brown" stroke-width="3"/><line x1="497.62714285714287" y1="111.68000000000016" x2="517.332" y2="107.17999999999986" stroke="brown" stroke-width="3"/><line x1="497.62714285714287" y1="105.20000000000016" x2="497.62714285714287" y2="138.5" stroke="black"/><line x1="517.3320000000001" y1="100.69999999999986" x2="517.3320000000001" y2="134" stroke="black"/><rect x="485.62714285714287" y="143" width="12" height="36" fill="rgba(0,255,0,0.2)" stroke="black"/><text x="485.62714285714287" y="143" font-size="8">8</text><rect x="356.5188571428572" y="118.5" width="10" height="4" fill="blue"/><text x="366.5188571428572" y="120.5" font-size="8" fill="red">4</text><rect x="362.51085714285716" y="114" width="10" height="4" fill="blue"/><text x="372.51085714285716" y="116" font-size="8" fill="red">4</text><line x1="366.5188571428572" y1="100.52000000000001" x2="372.5108571428572" y2="96.02000000000001" stroke="brown" stroke-width="3"/><line x1="366.5188571428572" y1="107" x2="372.5108571428572" y2="102.5" stroke="brown" stroke-width="3"/><line x1="366.5188571428572" y1="100.52000000000001" x2="366.5188571428572" y2="120.5" stroke="black"/><line x1="372.51085714285716" y1="96.02000000000001" x2="372.51085714285716" y2="116" stroke="black"/><rect x="409.92771428571433" y="233.84610511496942" width="1" height="1" fill="rgba(0,0,0,0.2)" stroke="black"/><text x="409.92771428571433" y="233.84610511496942" font-size="13">dot</text><rect x="393.92771428571433" y="231.84610511496942" width="10" height="4" fill="blue"/><text x="403.92771428571433" y="233.84610511496942" font-size="8" fill="red">24</text><line x1="403.92771428571433" y1="211.34610511496942" x2="403.92771428571433" y2="233.84610511496942" stroke="black"/><rect x="466.48228571428575" y="231.84610511496942" width="10" height="4" fill="blue"/><text x="476.48228571428575" y="233.84610511496942" font-size="8" fill="red">16</text><line x1="476.48228571428575" y1="211.34610511496942" x2="476.48228571428575" y2="233.84610511496942" stroke="black"/><rect x="487.62714285714287" y="263.3461051149694" width="10" height="4" fill="blue"/><text x="497.62714285714287" y="265.3461051149694" font-size="8" fill="red">4</text><rect x="507.3320000000001" y="258.8461051149694" width="10" height="4" fill="blue"/><text x="517.3320000000001" y="260.8461051149694" font-size="8" fill="red">4</text><rect x="409.92771428571433" y="242.84610511496942" width="1" height="1" fill="rgba(0,0,0,0.2)" stroke="black"/><text x="409.92771428571433" y="242.84610511496942" font-size="13">dot</text><rect x="379.92771428571433" y="236.34610511496942" width="10" height="4" fill="blue"/><text x="379.92771428571433" y="238.34610511496942" font-size="8" fill="red">12</text><rect x="424.59257142857143" y="240.84610511496942" width="10" height="4" fill="blue"/><text x="424.59257142857143" y="242.84610511496942" font-size="8" fill="red">4</text><rect x="444.2974285714286" y="245.34610511496942" width="10" height="4" fill="blue"/><text x="444.2974285714286" y="247.34610511496942" font-size="8" fill="red">8</text><rect x="464.48228571428575" y="245.34610511496942" width="10" height="4" fill="blue"/><text x="464.48228571428575" y="247.34610511496942" font-size="8" fill="red">16</text><line x1="464.48228571428575" y1="269.8461051149694" x2="464.48228571428575" y2="247.34610511496942" stroke="black"/><line x1="497.62714285714287" y1="232.04610511496955" x2="517.332" y2="227.54610511496932" stroke="brown" stroke-width="3"/><line x1="497.62714285714287" y1="238.52610511496954" x2="517.332" y2="234.0261051149693" stroke="brown" stroke-width="3"/><line x1="497.62714285714287" y1="232.04610511496955" x2="497.62714285714287" y2="265.3461051149694" stroke="black"/><line x1="517.3320000000001" y1="227.54610511496932" x2="517.3320000000001" y2="260.8461051149694" stroke="black"/><line x1="379.92771428571433" y1="269.56677169780727" x2="444.2974285714286" y2="278.6689514747545" stroke="brown" stroke-width="3"/><line x1="411.19311428571433" y1="267.5078460299847" x2="424.5925714285715" y2="269.40259217234643" stroke="brown" stroke-width="3"/><line x1="379.92771428571433" y1="269.56677169780727" x2="379.92771428571433" y2="238.34610511496942" stroke="black"/><line x1="424.59257142857143" y1="275.88259217234645" x2="424.59257142857143" y2="242.84610511496942" stroke="black"/><line x1="444.2974285714286" y1="278.6689514747545" x2="444.2974285714286" y2="247.34610511496942" stroke="black"/><line x1="529.812" y1="98" x2="529.812" y2="238.34610511496942" stroke="black"/><line x1="529.812" y1="238.34610511496942" x2="529.812" y2="274.3461051149694" stroke="black"/><rect x="559.812" y="129.5" width="1" height="1" fill="rgba(0,0,0,0.2)" stroke="black"/><text x="559.812" y="129.5" font-size="13">dot</text><rect x="543.812" y="127.5" width="10" height="4" fill="blue"/><text x="553.812" y="129.5" font-size="8" fill="red">24</text><line x1="553.812" y1="107" x2="553.812" y2="129.5" stroke="black"/><rect x="628.5017142857143" y="129.5" width="1" height="1" fill="rgba(0,0,0,0.2)" stroke="black"/><text x="628.5017142857143" y="129.5" font-size="13">dot</text><rect x="612.5017142857143" y="127.5" width="10" height="4" fill="blue"/><text x="622.5017142857143" y="129.5" font-size="8" fill="red">12</text><rect x="659.5665714285715" y="118.5" width="10" height="4" fill="blue"/><text x="669.5665714285715" y="120.5" font-size="8" fill="red">4</text><rect x="642.9265714285715" y="116" width="12" height="9" fill="rgba(255,255,0,0.2)" stroke="black"/><rect x="679.2714285714286" y="109.5" width="10" height="4" fill="blue"/><text x="689.2714285714286" y="111.5" font-size="8" fill="red">4</text><rect x="698.9762857142857" y="105" width="10" height="4" fill="blue"/><text x="708.9762857142857" y="107" font-size="8" fill="red">4</text><rect x="559.812" y="147.5" width="1" height="1" fill="rgba(0,0,0,0.2)" stroke="black"/><text x="559.812" y="147.5" font-size="13">dot</text><rect x="541.812" y="145.5" width="10" height="4" fill="blue"/><text x="541.812" y="147.5" font-size="8" fill="red">24</text><line x1="541.812" y1="170" x2="541.812" y2="147.5" stroke="black"/><rect x="628.5017142857143" y="156.5" width="1" height="1" fill="rgba(0,0,0,0.2)" stroke="black"/><text x="628.5017142857143" y="156.5" font-size="13">dot</text><rect x="610.5017142857143" y="150" width="10" height="4" fill="blue"/><text x="610.5017142857143" y="152" font-size="8" fill="red">12</text><rect x="595.8617142857144" y="147.5" width="12" height="9" fill="rgba(255,255,0,0.2)" stroke="black"/><rect x="657.5665714285715" y="141" width="10" height="4" fill="blue"/><text x="657.5665714285715" y="143" font-size="8" fill="red">4</text><rect x="677.2714285714286" y="132" width="10" height="4" fill="blue"/><text x="677.2714285714286" y="134" font-size="8" fill="red">4</text><rect x="696.9762857142857" y="127.5" width="10" height="4" fill="blue"/><text x="696.9762857142857" y="129.5" font-size="8" fill="red">4</text><line x1="622.5017142857143" y1="98.95544106086302" x2="708.9762857142858" y2="73.76034273044311" stroke="brown" stroke-width="3"/><line x1="689.2714285714286" y1="85.98151964637901" x2="708.9762857142857" y2="80.24034273044313" stroke="brown" stroke-width="3"/><line x1="622.5017142857143" y1="98.95544106086302" x2="622.5017142857143" y2="129.5" stroke="black"/><line x1="669.5665714285715" y1="85.24269656231488" x2="669.5665714285715" y2="120.5" stroke="black"/><line x1="689.2714285714286" y1="79.50151964637901" x2="689.2714285714286" y2="111.5" stroke="black"/><line x1="708.9762857142857" y1="73.76034273044311" x2="708.9762857142857" y2="107" stroke="black"/><line x1="610.5017142857143" y1="184.34610511496942" x2="696.9762857142858" y2="163.69140261111534" stroke="brown" stroke-width="3"/><line x1="677.2714285714286" y1="161.9179649616769" x2="696.9762857142857" y2="157.21140261111535" stroke="brown" stroke-width="3"/><line x1="610.5017142857143" y1="184.34610511496942" x2="610.5017142857143" y2="152" stroke="black"/><line x1="657.5665714285715" y1="173.10452731223842" x2="657.5665714285715" y2="143" stroke="black"/><line x1="677.2714285714286" y1="168.39796496167688" x2="677.2714285714286" y2="134" stroke="black"/><line x1="696.9762857142857" y1="163.69140261111534" x2="696.9762857142857" y2="129.5" stroke="black"/><line x1="537.312" y1="143" x2="558.312" y2="143" stroke="black"/><line x1="606.0017142857143" y1="143" x2="627.0017142857143" y2="143" stroke="black"/><line x1="606.0017142857143" y1="152" x2="627.0017142857143" y2="152" stroke="black"/><line x1="653.0665714285715" y1="143" x2="674.0665714285715" y2="143" stroke="black"/><rect x="559.812" y="251.84610511496942" width="1" height="1" fill="rgba(0,0,0,0.2)" stroke="black"/><text x="559.812" y="251.84610511496942" font-size="13">dot</text><rect x="543.812" y="254.34610511496942" width="10" height="4" fill="blue"/><text x="553.812" y="256.3461051149694" font-size="8" fill="red">24</text><line x1="553.812" y1="233.84610511496942" x2="553.812" y2="256.3461051149694" stroke="black"/><rect x="628.5017142857143" y="251.84610511496942" width="1" height="1" fill="rgba(0,0,0,0.2)" stroke="black"/><text x="628.5017142857143" y="251.84610511496942" font-size="13">dot</text><rect x="612.5017142857143" y="249.84610511496942" width="10" height="4" fill="blue"/><text x="622.5017142857143" y="251.84610511496942" font-size="8" fill="red">12</text><rect x="659.5665714285715" y="245.34610511496942" width="10" height="4" fill="blue"/><text x="669.5665714285715" y="247.34610511496942" font-size="8" fill="red">4</text><rect x="679.2714285714286" y="240.84610511496942" width="10" height="4" fill="blue"/><text x="689.2714285714286" y="242.84610511496942" font-size="8" fill="red">8</text><rect x="575.9168571428571" y="276.8461051149694" width="10" height="4" fill="blue"/><text x="575.9168571428571" y="278.8461051149694" font-size="8" fill="red">8</text><line x1="575.9168571428571" y1="304.5861051149694" x2="575.9168571428571" y2="278.8461051149694" stroke="black"/><rect x="575.9168571428571" y="304.5861051149694" width="12" height="9" fill="rgba(0,0,0,0.2)" stroke="black"/><text x="575.9168571428571" y="304.5861051149694" font-size="13">flag</text><rect x="628.5017142857143" y="278.8461051149694" width="1" height="1" fill="rgba(0,0,0,0.2)" stroke="black"/><text x="628.5017142857143" y="278.8461051149694" font-size="13">dot</text><rect x="610.5017142857143" y="276.8461051149694" width="10" height="4" fill="blue"/><text x="610.5017142857143" y="278.8461051149694" font-size="8" fill="red">24</text><line x1="610.5017142857143" y1="301.3461051149694" x2="610.5017142857143" y2="278.8461051149694" stroke="black"/><line x1="622.5017142857143" y1="220.6472197717475" x2="689.2714285714286" y2="211.56545805285396" stroke="brown" stroke-width="3"/><line x1="655.4471142857143" y1="222.64611219573902" x2="669.5665714285715" y2="220.7256375203068" stroke="brown" stroke-width="3"/><line x1="622.5017142857143" y1="220.6472197717475" x2="622.5017142857143" y2="251.84610511496942" stroke="black"/><line x1="669.5665714285715" y1="214.24563752030681" x2="669.5665714285715" y2="247.34610511496942" stroke="black"/><line x1="689.2714285714286" y1="211.56545805285396" x2="689.2714285714286" y2="242.84610511496942" stroke="black"/><rect x="541.812" y="274.3461051149694" width="12" height="36" fill="rgba(0,255,0,0.2)" stroke="black"/><text x="541.812" y="274.3461051149694" font-size="8">16</text><line x1="721.4562857142857" y1="98" x2="721.4562857142857" y2="238.34610511496942" stroke="black"/><line x1="721.4562857142857" y1="238.34610511496942" x2="721.4562857142857" y2="274.3461051149694" stroke="black"/><rect x="735.4562857142857" y="109.5" width="10" height="4" fill="blue"/><text x="745.4562857142857" y="111.5" font-size="8" fill="red">8</text><line x1="745.4562857142857" y1="85.76" x2="745.4562857142857" y2="111.5" stroke="black"/><rect x="745.4562857142857" y="85.76" width="12" height="9" fill="rgba(0,0,0,0.2)" stroke="black"/><text x="745.4562857142857" y="85.76" font-size="13">flag</text><rect x="767.6411428571429" y="114" width="10" height="4" fill="blue"/><text x="777.6411428571429" y="116" font-size="8" fill="red">16</text><line x1="777.6411428571429" y1="93.5" x2="777.6411428571429" y2="116" stroke="black"/><rect x="808.9708571428572" y="114" width="10" height="4" fill="blue"/><text x="818.9708571428572" y="116" font-size="8" fill="red">8</text><line x1="818.9708571428572" y1="90.26" x2="818.9708571428572" y2="116" stroke="black"/><rect x="818.9708571428572" y="90.26" width="12" height="9" fill="rgba(0,0,0,0.2)" stroke="black"/><text x="818.9708571428572" y="90.26" font-size="13">flag</text><rect x="870.3805714285716" y="66.5" width="12" height="9" fill="rgba(0,0,0,0.2)" stroke="black"/><text x="870.3805714285716" y="66.5" font-size="13">articulation</text><rect x="860.3805714285716" y="105" width="10" height="4" fill="blue"/><text x="870.3805714285716" y="107" font-size="8" fill="red">8</text><line x1="870.3805714285716" y1="81.26" x2="870.3805714285716" y2="107" stroke="black"/><rect x="870.3805714285716" y="81.26" width="12" height="9" fill="rgba(0,0,0,0.2)" stroke="black"/><text x="870.3805714285716" y="81.26" font-size="13">flag</text><rect x="733.4562857142857" y="132" width="10" height="4" fill="blue"/><text x="733.4562857142857" y="134" font-size="8" fill="red">8</text><line x1="733.4562857142857" y1="159.74" x2="733.4562857142857" y2="134" stroke="black"/><rect x="733.4562857142857" y="159.74" width="12" height="9" fill="rgba(0,0,0,0.2)" stroke="black"/><text x="733.4562857142857" y="159.74" font-size="13">flag</text><rect x="765.6411428571429" y="136.5" width="10" height="4" fill="blue"/><text x="765.6411428571429" y="138.5" font-size="8" fill="red">16</text><line x1="765.6411428571429" y1="161" x2="765.6411428571429" y2="138.5" stroke="black"/><rect x="806.9708571428572" y="136.5" width="10" height="4" fill="blue"/><text x="806.9708571428572" y="138.5" font-size="8" fill="red">8</text><line x1="806.9708571428572" y1="164.24" x2="806.9708571428572" y2="138.5" stroke="black"/><rect x="806.9708571428572" y="164.24" width="12" height="9" fill="rgba(0,0,0,0.2)" stroke="black"/><text x="806.9708571428572" y="164.24" font-size="13">flag</text><rect x="858.3805714285716" y="127.5" width="10" height="4" fill="blue"/><text x="858.3805714285716" y="129.5" font-size="8" fill="red">8</text><line x1="858.3805714285716" y1="155.24" x2="858.3805714285716" y2="129.5" stroke="black"/><rect x="858.3805714285716" y="155.24" width="12" height="9" fill="rgba(0,0,0,0.2)" stroke="black"/><text x="858.3805714285716" y="155.24" font-size="13">flag</text><rect x="839.1557142857143" y="80" width="12" height="36" fill="rgba(0,255,0,0.2)" stroke="black"/><text x="839.1557142857143" y="80" font-size="8">8</text><rect x="839.1557142857143" y="134" width="12" height="36" fill="rgba(0,255,0,0.2)" stroke="black"/><text x="839.1557142857143" y="134" font-size="8">8</text><rect x="735.4562857142857" y="240.84610511496942" width="10" height="4" fill="blue"/><text x="745.4562857142857" y="242.84610511496942" font-size="8" fill="red">8</text><line x1="745.4562857142857" y1="217.1061051149694" x2="745.4562857142857" y2="242.84610511496942" stroke="black"/><rect x="745.4562857142857" y="217.1061051149694" width="12" height="9" fill="rgba(0,0,0,0.2)" stroke="black"/><text x="745.4562857142857" y="217.1061051149694" font-size="13">flag</text><rect x="767.6411428571429" y="245.34610511496942" width="10" height="4" fill="blue"/><text x="777.6411428571429" y="247.34610511496942" font-size="8" fill="red">16</text><line x1="777.6411428571429" y1="224.84610511496942" x2="777.6411428571429" y2="247.34610511496942" stroke="black"/><rect x="808.9708571428572" y="245.34610511496942" width="10" height="4" fill="blue"/><text x="818.9708571428572" y="247.34610511496942" font-size="8" fill="red">8</text><line x1="818.9708571428572" y1="221.6061051149694" x2="818.9708571428572" y2="247.34610511496942" stroke="black"/><rect x="818.9708571428572" y="221.6061051149694" width="12" height="9" fill="rgba(0,0,0,0.2)" stroke="black"/><text x="818.9708571428572" y="221.6061051149694" font-size="13">flag</text><rect x="733.4562857142857" y="263.3461051149694" width="10" height="4" fill="blue"/><text x="733.4562857142857" y="265.3461051149694" font-size="8" fill="red">16</text><line x1="733.4562857142857" y1="287.8461051149694" x2="733.4562857142857" y2="265.3461051149694" stroke="black"/><rect x="739.4562857142857" y="325.0861051149694" width="12" height="22" fill="rgba(0,0,0,0.2)" stroke="black"/><text x="739.4562857142857" y="325.0861051149694" font-size="13">cue</text><rect x="786.7860000000001" y="276.8461051149694" width="10" height="4" fill="blue"/><text x="786.7860000000001" y="278.8461051149694" font-size="8" fill="red">8</text><line x1="786.7860000000001" y1="304.5861051149694" x2="786.7860000000001" y2="278.8461051149694" stroke="black"/><rect x="786.7860000000001" y="304.5861051149694" width="12" height="9" fill="rgba(0,0,0,0.2)" stroke="black"/><text x="786.7860000000001" y="304.5861051149694" font-size="13">flag</text><rect x="806.9708571428572" y="294.8461051149694" width="10" height="4" fill="blue"/><text x="806.9708571428572" y="296.8461051149694" font-size="8" fill="red">8</text><line x1="806.9708571428572" y1="322.5861051149694" x2="806.9708571428572" y2="296.8461051149694" stroke="black"/><rect x="806.9708571428572" y="322.5861051149694" width="12" height="9" fill="rgba(0,0,0,0.2)" stroke="black"/><text x="806.9708571428572" y="322.5861051149694" font-size="13">flag</text><rect x="858.3805714285716" y="260.8461051149694" width="12" height="9" fill="rgba(0,0,0,0.2)" stroke="black"/><text x="858.3805714285716" y="260.8461051149694" font-size="13">articulation</text><rect x="858.3805714285716" y="222.84610511496942" width="10" height="4" fill="blue"/><text x="858.3805714285716" y="224.84610511496942" font-size="8" fill="red">8</text><line x1="858.3805714285716" y1="250.58610511496943" x2="858.3805714285716" y2="224.84610511496942" stroke="black"/><rect x="858.3805714285716" y="250.58610511496943" width="12" height="9" fill="rgba(0,0,0,0.2)" stroke="black"/><text x="858.3805714285716" y="250.58610511496943" font-size="13">flag</text><rect x="839.1557142857143" y="265.3461051149694" width="12" height="36" fill="rgba(0,255,0,0.2)" stroke="black"/><text x="839.1557142857143" y="265.3461051149694" font-size="8">8</text><rect x="854.768142857143" y="325.0861051149694" width="12" height="22" fill="rgba(0,0,0,0.2)" stroke="black"/><text x="854.768142857143" y="325.0861051149694" font-size="13">cue</text><line x1="802.4708571428572" y1="283.3461051149694" x2="823.4708571428572" y2="283.3461051149694" stroke="black"/><line x1="802.4708571428572" y1="292.3461051149694" x2="823.4708571428572" y2="292.3461051149694" stroke="black"/><line x1="853.8805714285716" y1="229.34610511496942" x2="874.8805714285716" y2="229.34610511496942" stroke="black"/><line x1="895.3405714285715" y1="98" x2="895.3405714285715" y2="238.34610511496942" stroke="black"/><line x1="895.3405714285715" y1="238.34610511496942" x2="895.3405714285715" y2="274.3461051149694" stroke="black"/><rect x="925.3405714285715" y="111.5" width="1" height="1" fill="rgba(0,0,0,0.2)" stroke="black"/><text x="925.3405714285715" y="111.5" font-size="13">dot</text><rect x="909.3405714285715" y="109.5" width="10" height="4" fill="blue"/><text x="919.3405714285715" y="111.5" font-size="8" fill="red">12</text><rect x="954.0054285714286" y="114" width="10" height="4" fill="blue"/><text x="964.0054285714286" y="116" font-size="8" fill="red">4</text><rect x="973.7102857142858" y="118.5" width="10" height="4" fill="blue"/><text x="983.7102857142858" y="120.5" font-size="8" fill="red">8</text><rect x="993.8951428571429" y="118.5" width="10" height="4" fill="blue"/><text x="1003.8951428571429" y="120.5" font-size="8" fill="red">16</text><line x1="1003.8951428571429" y1="98" x2="1003.8951428571429" y2="120.5" stroke="black"/><rect x="1025.04" y="66.5" width="12" height="9" fill="rgba(0,0,0,0.2)" stroke="black"/><text x="1025.04" y="66.5" font-size="13">articulation</text><rect x="1015.04" y="105" width="10" height="4" fill="blue"/><text x="1025.04" y="107" font-size="8" fill="red">8</text><line x1="1025.04" y1="81.26" x2="1025.04" y2="107" stroke="black"/><rect x="1025.04" y="81.26" width="12" height="9" fill="rgba(0,0,0,0.2)" stroke="black"/><text x="1025.04" y="81.26" font-size="13">flag</text><rect x="925.3405714285715" y="129.5" width="1" height="1" fill="rgba(0,0,0,0.2)" stroke="black"/><text x="925.3405714285715" y="129.5" font-size="13">dot</text><rect x="907.3405714285715" y="127.5" width="10" height="4" fill="blue"/><text x="907.3405714285715" y="129.5" font-size="8" fill="red">24</text><line x1="907.3405714285715" y1="152" x2="907.3405714285715" y2="129.5" stroke="black"/><rect x="991.8951428571429" y="127.5" width="10" height="4" fill="blue"/><text x="991.8951428571429" y="129.5" font-size="8" fill="red">16</text><line x1="991.8951428571429" y1="152" x2="991.8951428571429" y2="129.5" stroke="black"/><rect x="1013.0400000000001" y="127.5" width="10" height="4" fill="blue"/><text x="1013.0400000000001" y="129.5" font-size="8" fill="red">8</text><line x1="1013.0400000000001" y1="155.24" x2="1013.0400000000001" y2="129.5" stroke="black"/><rect x="1013.0400000000001" y="155.24" width="12" height="9" fill="rgba(0,0,0,0.2)" stroke="black"/><text x="1013.0400000000001" y="155.24" font-size="13">flag</text><line x1="919.3405714285715" y1="79.5552633559105" x2="983.7102857142858" y2="88.0259833498801" stroke="brown" stroke-width="3"/><line x1="950.6059714285715" y1="89.73370631271973" x2="964.0054285714286" y2="91.3187532942094" stroke="brown" stroke-width="3"/><line x1="919.3405714285715" y1="79.5552633559105" x2="919.3405714285715" y2="111.5" stroke="black"/><line x1="964.0054285714286" y1="84.83875329420941" x2="964.0054285714286" y2="116" stroke="black"/><line x1="983.7102857142858" y1="88.02598334988008" x2="983.7102857142858" y2="120.5" stroke="black"/><rect x="937.3405714285715" y="224.84610511496942" width="1" height="1" fill="rgba(0,0,0,0.2)" stroke="black"/><text x="937.3405714285715" y="224.84610511496942" font-size="13">dot</text><rect x="921.3405714285715" y="222.84610511496942" width="10" height="4" fill="blue"/><text x="931.3405714285715" y="224.84610511496942" font-size="8" fill="red">24</text><line x1="931.3405714285715" y1="202.34610511496942" x2="931.3405714285715" y2="224.84610511496942" stroke="black"/><rect x="993.8951428571429" y="222.84610511496942" width="10" height="4" fill="blue"/><text x="1003.8951428571429" y="224.84610511496942" font-size="8" fill="red">16</text><line x1="1003.8951428571429" y1="202.34610511496942" x2="1003.8951428571429" y2="224.84610511496942" stroke="black"/><rect x="937.3405714285715" y="233.84610511496942" width="1" height="1" fill="rgba(0,0,0,0.2)" stroke="black"/><text x="937.3405714285715" y="233.84610511496942" font-size="13">dot</text><rect x="907.3405714285715" y="227.34610511496942" width="10" height="4" fill="blue"/><text x="907.3405714285715" y="229.34610511496942" font-size="8" fill="red">12</text><rect x="952.0054285714286" y="231.84610511496942" width="10" height="4" fill="blue"/><text x="952.0054285714286" y="233.84610511496942" font-size="8" fill="red">4</text><rect x="971.7102857142858" y="236.34610511496942" width="10" height="4" fill="blue"/><text x="971.7102857142858" y="238.34610511496942" font-size="8" fill="red">8</text><rect x="991.8951428571429" y="236.34610511496942" width="10" height="4" fill="blue"/><text x="991.8951428571429" y="238.34610511496942" font-size="8" fill="red">16</text><line x1="991.8951428571429" y1="260.8461051149694" x2="991.8951428571429" y2="238.34610511496942" stroke="black"/><rect x="1013.0400000000001" y="260.8461051149694" width="12" height="9" fill="rgba(0,0,0,0.2)" stroke="black"/><text x="1013.0400000000001" y="260.8461051149694" font-size="13">articulation</text><rect x="1013.0400000000001" y="222.84610511496942" width="10" height="4" fill="blue"/><text x="1013.0400000000001" y="224.84610511496942" font-size="8" fill="red">8</text><line x1="1013.0400000000001" y1="250.58610511496943" x2="1013.0400000000001" y2="224.84610511496942" stroke="black"/><rect x="1013.0400000000001" y="250.58610511496943" width="12" height="9" fill="rgba(0,0,0,0.2)" stroke="black"/><text x="1013.0400000000001" y="250.58610511496943" font-size="13">flag</text><line x1="907.3405714285715" y1="260.5667716978073" x2="971.7102857142858" y2="269.6689514747545" stroke="brown" stroke-width="3"/><line x1="938.6059714285715" y1="258.5078460299847" x2="952.0054285714286" y2="260.40259217234643" stroke="brown" stroke-width="3"/><line x1="907.3405714285715" y1="260.5667716978073" x2="907.3405714285715" y2="229.34610511496942" stroke="black"/><line x1="952.0054285714286" y1="266.88259217234645" x2="952.0054285714286" y2="233.84610511496942" stroke="black"/><line x1="971.7102857142858" y1="269.6689514747545" x2="971.7102857142858" y2="238.34610511496945" stroke="black"/><line x1="902.8405714285715" y1="229.34610511496942" x2="935.8405714285715" y2="229.34610511496942" stroke="black"/><line x1="987.3951428571429" y1="229.34610511496942" x2="1008.3951428571429" y2="229.34610511496942" stroke="black"/><line x1="1008.5400000000001" y1="229.34610511496942" x2="1029.54" y2="229.34610511496942" stroke="black"/><line x1="1050" y1="98" x2="1050" y2="238.34610511496942" stroke="black"/><line x1="1050" y1="238.34610511496942" x2="1050" y2="274.3461051149694" stroke="black"/><rect x="164.87457142857144" y="88.26" width="129.51457142857146" height="30.011683972907406" fill="rgba(0,0,0,0.2)" stroke="black"/><text x="164.87457142857144" y="88.26" font-size="13">slur</text><rect x="159.87457142857144" y="229.84610511496942" width="54.96000000000001" height="8.1" fill="rgba(0,0,0,0.2)" stroke="black"/><text x="159.87457142857144" y="229.84610511496942" font-size="13">slur</text><rect x="220.83457142857145" y="226.84610511496942" width="66.55457142857145" height="8.1" fill="rgba(0,0,0,0.2)" stroke="black"/><text x="220.83457142857145" y="226.84610511496942" font-size="13">slur</text><rect x="159.87457142857144" y="145.5" width="42.96000000000001" height="8.1" fill="rgba(0,0,0,0.2)" stroke="black"/><text x="159.87457142857144" y="145.5" font-size="13">slur</text><rect x="208.83457142857145" y="145.5" width="78.55457142857145" height="8.1" fill="rgba(0,0,0,0.2)" stroke="black"/><text x="208.83457142857145" y="145.5" font-size="13">slur</text><rect x="319.53400000000005" y="88.26" width="154.9482857142857" height="30.011683972907395" fill="rgba(0,0,0,0.2)" stroke="black"/><text x="319.53400000000005" y="88.26" font-size="13">slur</text><rect x="314.53400000000005" y="145.5" width="68.39371428571428" height="8.1" fill="rgba(0,0,0,0.2)" stroke="black"/><text x="314.53400000000005" y="145.5" font-size="13">slur</text><rect x="388.92771428571433" y="145.5" width="78.55457142857142" height="8.1" fill="rgba(0,0,0,0.2)" stroke="black"/><text x="388.92771428571433" y="145.5" font-size="13">slur</text><rect x="314.53400000000005" y="237.84610511496942" width="80.39371428571428" height="8.1" fill="rgba(0,0,0,0.2)" stroke="black"/><text x="314.53400000000005" y="237.84610511496942" font-size="13">slur</text><rect x="400.92771428571433" y="226.84610511496942" width="66.55457142857142" height="8.1" fill="rgba(0,0,0,0.2)" stroke="black"/><text x="400.92771428571433" y="226.84610511496942" font-size="13">slur</text><rect x="499.62714285714287" y="100.20000000000016" width="52.18485714285714" height="19.020000000000216" fill="rgba(0,0,0,0.2)" stroke="black"/><text x="499.62714285714287" y="100.20000000000016" font-size="13">slur</text><rect x="499.62714285714287" y="227.04610511496952" width="52.18485714285714" height="19.020000000000163" fill="rgba(0,0,0,0.2)" stroke="black"/><text x="499.62714285714287" y="227.04610511496952" font-size="13">slur</text><rect x="584.9168571428571" y="285.8461051149694" width="28.58485714285723" height="8.1" fill="rgba(0,0,0,0.2)" stroke="black"/><text x="584.9168571428571" y="285.8461051149694" font-size="13">slur</text><rect x="624.5017142857143" y="93.95544106086302" width="192.46914285714286" height="39.62548567824498" fill="rgba(0,0,0,0.2)" stroke="black"/><text x="624.5017142857143" y="93.95544106086302" font-size="13">slur</text><rect x="774.6411428571429" y="109" width="35.32971428571432" height="8.1" fill="rgba(0,0,0,0.2)" stroke="black"/><text x="774.6411428571429" y="109" font-size="13">slur</text><rect x="774.6411428571429" y="145.5" width="35.32971428571432" height="8.1" fill="rgba(0,0,0,0.2)" stroke="black"/><text x="774.6411428571429" y="145.5" font-size="13">slur</text><rect x="774.6411428571429" y="240.34610511496942" width="35.32971428571432" height="8.1" fill="rgba(0,0,0,0.2)" stroke="black"/><text x="774.6411428571429" y="240.34610511496942" font-size="13">slur</text><rect x="735.4562857142857" y="292.8461051149694" width="69.51457142857146" height="21.66599999999999" fill="rgba(0,0,0,0.2)" stroke="black"/><text x="735.4562857142857" y="292.8461051149694" font-size="13">slur</text><rect x="872.3805714285716" y="79.26" width="129.51457142857134" height="30.011683972907406" fill="rgba(0,0,0,0.2)" stroke="black"/><text x="872.3805714285716" y="79.26" font-size="13">slur</text><rect x="867.3805714285716" y="136.5" width="42.95999999999992" height="8.1" fill="rgba(0,0,0,0.2)" stroke="black"/><text x="867.3805714285716" y="136.5" font-size="13">slur</text><rect x="916.3405714285715" y="136.5" width="78.55457142857142" height="8.1" fill="rgba(0,0,0,0.2)" stroke="black"/><text x="916.3405714285715" y="136.5" font-size="13">slur</text><rect x="867.3805714285716" y="228.84610511496942" width="54.95999999999992" height="8.1" fill="rgba(0,0,0,0.2)" stroke="black"/><text x="867.3805714285716" y="228.84610511496942" font-size="13">slur</text><rect x="928.3405714285715" y="217.84610511496942" width="66.55457142857142" height="8.1" fill="rgba(0,0,0,0.2)" stroke="black"/><text x="928.3405714285715" y="217.84610511496942" font-size="13">slur</text><rect x="619.5017142857143" y="188.84610511496942" width="80.47457142857138" height="-11" fill="rgba(0,0,0,0.2)" stroke="black"/><text x="619.5017142857143" y="188.84610511496942" font-size="13">cresc</text><rect x="742.4562857142857" y="177.84610511496942" width="26.18485714285714" height="11" fill="rgba(0,0,0,0.2)" stroke="black"/><text x="742.4562857142857" y="177.84610511496942" font-size="13">cresc</text></svg>
