<svg xmlns="http://www.w3.org/2000/svg" width="800" height="268"><rect x="0" y="0" width="800" height="268" fill="white"></rect><path stroke="black" stroke-width="1.5" stroke-linecap="round" stroke-linejoin="round" fill="none" d="M 30,78 30,220 M 30,78 419.52,78 M 30,87 419.52,87 M 30,96 419.52,96 M 30,105 419.52,105 M 30,114 419.52,114 M 30,184 419.52,184 M 30,193 419.52,193 M 30,202 419.52,202 M 30,211 419.52,211 M 30,220 419.52,220 M 42.11,126.42 43.1,126.27 43.94,125.13 43.79,124.14 42.65,123.3 41.66,123.45 40.82,124.59 41.12,126.57 42.41,128.4 44.54,129.09 46.52,128.79 49.33,127.35 51.01,125.07 51.7,122.95 52.09,118.84 50.45,107.97 45.57,82.41 44.53,75.49 44.77,70.39 45.46,68.27 47.29,66.98 48.28,66.83 50.4,67.52 51.69,69.35 52.29,73.3 51.75,76.42 51.06,78.54 49.53,81.81 45.18,86.51 39.85,91.36 38.17,93.64 36.64,96.91 35.95,99.03 35.56,103.14 36.16,107.09 37.74,110.9 40.17,113.57 43.43,115.09 47.54,115.49 51.49,114.89 55.3,113.3 57.13,112.01 58.66,108.75 59.2,105.63 58.6,101.68 57.16,98.86 55.88,97.03 53.6,95.35 50.48,94.81 46.53,95.41 43.71,96.85 42.03,99.12 41.49,102.24 42.09,106.2 43.53,109.01 45.8,110.69 M 41.81,124.44 41.96,125.43 42.95,125.28 42.8,124.29 41.81,124.44 M 49.53,81.81 46.17,86.36 41.83,91.07 39.31,94.48 37.78,97.74 37.09,99.87 36.55,102.99 37.15,106.94 38.73,110.75 40.02,112.58 43.43,115.09 M 51.49,114.89 54.31,113.45 56.14,112.16 57.67,108.9 58.21,105.78 57.61,101.83 56.17,99.01 54.89,97.18 52.61,95.5 50.48,94.81 M 91,80.45 91,95.75 M 92,79.6 92,94.9 M 93,77.9 93,95.75 M 93,77.9 82,90.65 98,90.65 M 88,95.75 96,95.75 M 91,94.9 89,95.75 M 91,94.05 90,95.75 M 93,94.05 94,95.75 M 93,94.9 95,95.75 M 91,98.45 91,113.75 M 92,97.6 92,112.9 M 93,95.9 93,113.75 M 93,95.9 82,108.65 98,108.65 M 88,113.75 96,113.75 M 91,112.9 89,113.75 M 91,112.05 90,113.75 M 93,112.05 94,113.75 M 93,112.9 95,113.75 M 115,52.5 125,55.5 115,58.5 M 120.36,64.72 117.4,65.8 115.32,67.64 114.2,69.4 114.04,71.08 114.84,72.68 116.68,73.36 118.6,73.2 121.56,72.12 123.64,70.28 124.76,68.52 124.92,66.84 124.12,65.24 122.28,64.56 120.36,64.72 M 116.28,67.56 122.28,64.56 M 115.16,69.32 123.16,65.32 M 114.04,71.08 124.04,66.08 M 114.92,71.84 124.92,66.84 M 115.8,72.6 123.8,68.6 M 116.68,73.36 122.68,70.36 M 114,96 114,69 M 150.44,58.5 153.44,52.5 156.44,58.5 M 153.8,64.72 150.84,65.8 148.76,67.64 147.64,69.4 147.48,71.08 148.28,72.68 150.12,73.36 152.04,73.2 155,72.12 157.08,70.28 158.2,68.52 158.36,66.84 157.56,65.24 155.72,64.56 153.8,64.72 M 149.72,67.56 155.72,64.56 M 148.6,69.32 156.6,65.32 M 147.48,71.08 157.48,66.08 M 148.36,71.84 158.36,66.84 M 149.24,72.6 157.24,68.6 M 150.12,73.36 156.12,70.36 M 147.44,96 147.44,69 M 185.78,54.4 185.78,56.6 187.98,56.6 187.98,54.4 185.78,54.4 M 185.78,54.4 187.98,56.6 M 187.98,54.4 185.78,56.6 M 187.24,64.72 184.28,65.8 182.2,67.64 181.08,69.4 180.92,71.08 181.72,72.68 183.56,73.36 185.48,73.2 188.44,72.12 190.52,70.28 191.64,68.52 191.8,66.84 191,65.24 189.16,64.56 187.24,64.72 M 183.16,67.56 189.16,64.56 M 182.04,69.32 190.04,65.32 M 180.92,71.08 190.92,66.08 M 181.8,71.84 191.8,66.84 M 182.68,72.6 190.68,68.6 M 183.56,73.36 189.56,70.36 M 180.88,96 180.88,69 M 216.32,55.5 224.32,55.5 M 220.68,64.72 217.72,65.8 215.64,67.64 214.52,69.4 214.36,71.08 215.16,72.68 217,73.36 218.92,73.2 221.88,72.12 223.96,70.28 225.08,68.52 225.24,66.84 224.44,65.24 222.6,64.56 220.68,64.72 M 216.6,67.56 222.6,64.56 M 215.48,69.32 223.48,65.32 M 214.36,71.08 224.36,66.08 M 215.24,71.84 225.24,66.84 M 216.12,72.6 224.12,68.6 M 217,73.36 223,70.36 M 214.32,96 214.32,69 M 109.5,69 130.5,69 M 142.94,69 163.94,69 M 176.38,69 197.38,69 M 209.82,69 230.82,69 M 37,192 38,190 40,189 42,189 44,190 45,192 45,194 44,196 42,197 40,197 38,196 37,195 36,192 36,189 37,186 39,184 42,183 46,183 50,184 53,186 55,189 56,193 56,198 55,202 54,204 52,207 49,210 45,213 40,216 36,218 M 46,183 49,184 52,186 54,189 55,193 55,198 54,202 53,204 51,207 48,210 43,214 40,216 M 39,190 43,190 M 38,191 44,191 M 37,192 45,192 M 37,193 45,193 M 37,194 45,194 M 38,195 44,195 M 39,196 43,196 M 60,187 60,189 62,189 62,187 60,187 M 61,187 61,189 M 60,188 62,188 M 60,197 60,199 62,199 62,197 60,197 M 61,197 61,199 M 60,198 62,198 M 91,186.45 91,201.75 M 92,185.6 92,200.9 M 93,183.9 93,201.75 M 93,183.9 82,196.65 98,196.65 M 88,201.75 96,201.75 M 91,200.9 89,201.75 M 91,200.05 90,201.75 M 93,200.05 94,201.75 M 93,200.9 95,201.75 M 91,204.45 91,219.75 M 92,203.6 92,218.9 M 93,201.9 93,219.75 M 93,201.9 82,214.65 98,214.65 M 88,219.75 96,219.75 M 91,218.9 89,219.75 M 91,218.05 90,219.75 M 93,218.05 94,219.75 M 93,218.9 95,219.75 M 119,158.5 120,164.5 121,158.5 119,158.5 M 120.36,170.72 117.4,171.8 115.32,173.64 114.2,175.4 114.04,177.08 114.84,178.68 116.68,179.36 118.6,179.2 121.56,178.12 123.64,176.28 124.76,174.52 124.92,172.84 124.12,171.24 122.28,170.56 120.36,170.72 M 116.28,173.56 122.28,170.56 M 115.16,175.32 123.16,171.32 M 114.04,177.08 124.04,172.08 M 114.92,177.84 124.92,172.84 M 115.8,178.6 123.8,174.6 M 116.68,179.36 122.68,176.36 M 114,202 114,175 M 159.44,162.5 158.85,159.9 157.18,157.81 154.78,156.65 152.1,156.65 149.7,157.81 148.03,159.9 147.44,162.5 M 152.44,162.5 153.44,161.5 154.44,162.5 153.44,163.5 M 153.8,170.72 150.84,171.8 148.76,173.64 147.64,175.4 147.48,177.08 148.28,178.68 150.12,179.36 152.04,179.2 155,178.12 157.08,176.28 158.2,174.52 158.36,172.84 157.56,171.24 155.72,170.56 153.8,170.72 M 149.72,173.56 155.72,170.56 M 148.6,175.32 156.6,171.32 M 147.48,177.08 157.48,172.08 M 148.36,177.84 158.36,172.84 M 149.24,178.6 157.24,174.6 M 150.12,179.36 156.12,176.36 M 147.44,202 147.44,175 M 182.88,161.5 190.88,161.5 M 186.88,157.5 186.88,165.5 M 187.24,170.72 184.28,171.8 182.2,173.64 181.08,175.4 180.92,177.08 181.72,178.68 183.56,179.36 185.48,179.2 188.44,178.12 190.52,176.28 191.64,174.52 191.8,172.84 191,171.24 189.16,170.56 187.24,170.72 M 183.16,173.56 189.16,170.56 M 182.04,175.32 190.04,171.32 M 180.92,177.08 190.92,172.08 M 181.8,177.84 191.8,172.84 M 182.68,178.6 190.68,174.6 M 183.56,179.36 189.56,176.36 M 180.88,202 180.88,175 M 213.12,164.7 214.72,162.3 216.32,159.1 M 218.72,151.9 213.92,166.3 213.92,167.9 215.52,168.7 217.12,167.9 217.92,167.1 219.52,164.7 M 219.52,151.9 214.72,166.3 214.72,167.9 215.52,168.7 M 214.72,158.3 219.52,158.3 M 220.02,164.2 221.62,161.8 223.22,161 224.82,161.8 224.82,163.4 223.22,168.2 M 223.22,161 224.02,161.8 224.02,163.4 222.42,168.2 M 224.82,163.4 226.42,161.8 228.02,161 228.82,161 228.02,163.4 M 228.02,161 228.02,163.4 228.82,165 229.62,165 231.22,164.2 M 220.68,170.72 217.72,171.8 215.64,173.64 214.52,175.4 214.36,177.08 215.16,178.68 217,179.36 218.92,179.2 221.88,178.12 223.96,176.28 225.08,174.52 225.24,172.84 224.44,171.24 222.6,170.56 220.68,170.72 M 216.6,173.56 222.6,170.56 M 215.48,175.32 223.48,171.32 M 214.36,177.08 224.36,172.08 M 215.24,177.84 225.24,172.84 M 216.12,178.6 224.12,174.6 M 217,179.36 223,176.36 M 214.32,202 214.32,175 M 109.5,175 130.5,175 M 142.94,175 163.94,175 M 176.38,175 197.38,175 M 209.82,175 230.82,175 M 251.76,78 251.76,220 M 286.76,51.5 284.76,52.5 283.76,54.5 283.76,56.5 284.76,58.5 286.76,59.5 288.76,59.5 290.76,58.5 291.76,56.5 291.76,54.5 290.76,52.5 288.76,51.5 286.76,51.5 M 288.12,64.72 285.16,65.8 283.08,67.64 281.96,69.4 281.8,71.08 282.6,72.68 284.44,73.36 286.36,73.2 289.32,72.12 291.4,70.28 292.52,68.52 292.68,66.84 291.88,65.24 290.04,64.56 288.12,64.72 M 284.04,67.56 290.04,64.56 M 282.92,69.32 290.92,65.32 M 281.8,71.08 291.8,66.08 M 282.68,71.84 292.68,66.84 M 283.56,72.6 291.56,68.6 M 284.44,73.36 290.44,70.36 M 281.76,96 281.76,69 M 313.2,57.5 316.2,54.5 319.2,57.5 322.2,54.5 325.2,57.5 328.2,54.5 M 317.2,53.5 320.2,56.5 M 323.2,53.5 326.2,56.5 M 321.56,64.72 318.6,65.8 316.52,67.64 315.4,69.4 315.24,71.08 316.04,72.68 317.88,73.36 319.8,73.2 322.76,72.12 324.84,70.28 325.96,68.52 326.12,66.84 325.32,65.24 323.48,64.56 321.56,64.72 M 317.48,67.56 323.48,64.56 M 316.36,69.32 324.36,65.32 M 315.24,71.08 325.24,66.08 M 316.12,71.84 326.12,66.84 M 317,72.6 325,68.6 M 317.88,73.36 323.88,70.36 M 315.2,96 315.2,69 M 360.04,53.1 359.44,53.5 358.84,53.1 359.44,52.7 360.04,52.7 361.24,53.5 361.84,54.7 361.84,56.3 361.24,57.5 360.04,58.3 358.84,58.3 357.64,57.9 357.04,57.5 356.44,56.7 355.24,54.3 354.64,53.5 353.44,52.7 M 358.84,58.3 357.64,57.5 357.04,56.7 355.84,54.3 355.24,53.5 354.64,53.1 353.44,52.7 351.04,52.7 349.84,53.5 349.24,54.7 349.24,56.3 349.84,57.5 351.04,58.3 351.64,58.3 352.24,57.9 351.64,57.5 351.04,57.9 M 355,64.72 352.04,65.8 349.96,67.64 348.84,69.4 348.68,71.08 349.48,72.68 351.32,73.36 353.24,73.2 356.2,72.12 358.28,70.28 359.4,68.52 359.56,66.84 358.76,65.24 356.92,64.56 355,64.72 M 350.92,67.56 356.92,64.56 M 349.8,69.32 357.8,65.32 M 348.68,71.08 358.68,66.08 M 349.56,71.84 359.56,66.84 M 350.44,72.6 358.44,68.6 M 351.32,73.36 357.32,70.36 M 348.64,96 348.64,69 M 385.08,52.5 388.08,58.5 391.08,52.5 M 388.44,64.72 385.48,65.8 383.4,67.64 382.28,69.4 382.12,71.08 382.92,72.68 384.76,73.36 386.68,73.2 389.64,72.12 391.72,70.28 392.84,68.52 393,66.84 392.2,65.24 390.36,64.56 388.44,64.72 M 384.36,67.56 390.36,64.56 M 383.24,69.32 391.24,65.32 M 382.12,71.08 392.12,66.08 M 383,71.84 393,66.84 M 383.88,72.6 391.88,68.6 M 384.76,73.36 390.76,70.36 M 382.08,96 382.08,69 M 277.26,69 298.26,69 M 310.7,69 331.7,69 M 344.14,69 365.14,69 M 377.58,69 398.58,69 M 270.76,161.25 274.76,165.25 270.76,169.25 274.76,173.25 270.76,177.25 274.76,181.25 270.76,185.25 274.76,189.25 M 275.56,166.05 271.56,170.05 M 275.56,174.05 271.56,178.05 M 275.56,182.05 271.56,186.05 M 284.76,183.5 281.76,184.5 280.76,185.5 279.76,187.5 279.76,189.5 280.76,191.5 281.76,192.5 284.76,193.5 288.76,193.5 291.76,192.5 292.76,191.5 293.76,189.5 293.76,187.5 292.76,185.5 291.76,184.5 288.76,183.5 284.76,183.5 M 281.76,184.5 280.76,186.5 280.76,189.5 281.76,191.5 282.76,192.5 284.76,193.5 M 291.76,192.5 292.76,190.5 292.76,187.5 291.76,185.5 290.76,184.5 288.76,183.5 M 284.76,170 281.76,171 280.76,172 279.76,174 279.76,176 280.76,178 281.76,179 284.76,180 288.76,180 291.76,179 292.76,178 293.76,176 293.76,174 292.76,172 291.76,171 288.76,170 284.76,170 M 281.76,171 280.76,173 280.76,176 281.76,178 282.76,179 284.76,180 M 291.76,179 292.76,177 292.76,174 291.76,172 290.76,171 288.76,170 M 284.76,161 281.76,162 280.76,163 279.76,165 279.76,167 280.76,169 281.76,170 284.76,171 288.76,171 291.76,170 292.76,169 293.76,167 293.76,165 292.76,163 291.76,162 288.76,161 284.76,161 M 281.76,162 280.76,164 280.76,167 281.76,169 282.76,170 284.76,171 M 291.76,170 292.76,168 292.76,165 291.76,163 290.76,162 288.76,161 M 277.26,175 298.26,175 M 277.26,166 298.26,166 M 419.52,78 419.52,220 "/></svg>