<svg xmlns="http://www.w3.org/2000/svg" width="800" height="130.5"><rect x="0" y="0" width="800" height="130.5" fill="white"></rect><path stroke="black" stroke-width="1.5" stroke-linecap="round" stroke-linejoin="round" fill="none" d="M 30,42 170.29,42 M 30,51 170.29,51 M 30,60 170.29,60 M 30,69 170.29,69 M 30,78 170.29,78 M 42.11,90.42 43.1,90.27 43.94,89.13 43.79,88.14 42.65,87.3 41.66,87.45 40.82,88.59 41.12,90.57 42.41,92.4 44.54,93.09 46.52,92.79 49.33,91.35 51.01,89.07 51.7,86.95 52.09,82.84 50.45,71.97 45.57,46.41 44.53,39.49 44.77,34.39 45.46,32.27 47.29,30.98 48.28,30.83 50.4,31.52 51.69,33.35 52.29,37.3 51.75,40.42 51.06,42.54 49.53,45.81 45.18,50.51 39.85,55.36 38.17,57.64 36.64,60.91 35.95,63.03 35.56,67.14 36.16,71.09 37.74,74.9 40.17,77.57 43.43,79.09 47.54,79.49 51.49,78.89 55.3,77.3 57.13,76.01 58.66,72.75 59.2,69.63 58.6,65.68 57.16,62.86 55.88,61.03 53.6,59.35 50.48,58.81 46.53,59.41 43.71,60.85 42.03,63.12 41.49,66.24 42.09,70.2 43.53,73.01 45.8,74.69 M 41.81,88.44 41.96,89.43 42.95,89.28 42.8,88.29 41.81,88.44 M 49.53,45.81 46.17,50.36 41.83,55.07 39.31,58.48 37.78,61.74 37.09,63.87 36.55,66.99 37.15,70.94 38.73,74.75 40.02,76.58 43.43,79.09 M 51.49,78.89 54.31,77.45 56.14,76.16 57.67,72.9 58.21,69.78 57.61,65.83 56.17,63.01 54.89,61.18 52.61,59.5 50.48,58.81 M 91,44.45 91,59.75 M 92,43.6 92,58.9 M 93,41.9 93,59.75 M 93,41.9 82,54.65 98,54.65 M 88,59.75 96,59.75 M 91,58.9 89,59.75 M 91,58.05 90,59.75 M 93,58.05 94,59.75 M 93,58.9 95,59.75 M 91,62.45 91,77.75 M 92,61.6 92,76.9 M 93,59.9 93,77.75 M 93,59.9 82,72.65 98,72.65 M 88,77.75 96,77.75 M 91,76.9 89,77.75 M 91,76.05 90,77.75 M 93,76.05 94,77.75 M 93,76.9 95,77.75 M 153.65,82.72 150.69,83.8 148.61,85.64 147.49,87.4 147.33,89.08 148.13,90.68 149.97,91.36 151.89,91.2 154.85,90.12 156.93,88.28 158.05,86.52 158.21,84.84 157.41,83.24 155.57,82.56 153.65,82.72 M 149.57,85.56 155.57,82.56 M 148.45,87.32 156.45,83.32 M 147.33,89.08 157.33,84.08 M 148.21,89.84 158.21,84.84 M 149.09,90.6 157.09,86.6 M 149.97,91.36 155.97,88.36 M 158.29,60 158.29,87 M 141.79,87 162.79,87 M 124.48,75.86 123,76.4 121.96,77.32 121.4,78.2 121.32,79.04 121.72,79.84 122.64,80.18 123.6,80.1 125.08,79.56 126.12,78.64 126.68,77.76 126.76,76.92 126.36,76.12 125.44,75.78 124.48,75.86 M 122.44,77.28 125.44,75.78 M 121.88,78.16 125.88,76.16 M 121.32,79.04 126.32,76.54 M 121.76,79.42 126.76,76.92 M 122.2,79.8 126.2,77.8 M 122.64,80.18 125.64,78.68 M 134.62,80.36 133.14,80.9 132.1,81.82 131.54,82.7 131.46,83.54 131.86,84.34 132.78,84.68 133.74,84.6 135.22,84.06 136.26,83.14 136.82,82.26 136.9,81.42 136.5,80.62 135.58,80.28 134.62,80.36 M 132.58,81.78 135.58,80.28 M 132.02,82.66 136.02,80.66 M 131.46,83.54 136.46,81.04 M 131.9,83.92 136.9,81.42 M 132.34,84.3 136.34,82.3 M 132.78,84.68 135.78,83.18 M 126.8,55.62 136.94,60.12 M 126.8,56.71 136.94,61.21 M 126.8,57.8 136.94,62.3 M 126.8,58.89 136.94,63.39 M 126.8,62.1 136.94,66.6 M 126.8,63.19 136.94,67.69 M 126.8,64.28 136.94,68.78 M 126.8,65.37 136.94,69.87 M 126.8,55.32 126.8,78 M 136.94,59.82 136.94,82.5 M 170.29,42 170.29,78 M 126.4,85 126.87,87.15 127.53,89.17 128.35,91.06 129.32,92.8 130.42,94.39 131.64,95.81 132.95,97.05 134.35,98.1 135.81,98.95 137.32,99.59 138.86,100.01 140.41,100.19 141.96,100.13 143.49,99.81 144.99,99.23 146.44,98.36 147.81,97.21 149.1,95.76 150.29,94 M 147.81,96.93 146.44,97.97 144.99,98.73 143.49,99.23 141.96,99.48 140.41,99.49 138.86,99.28 137.32,98.84 135.81,98.21 134.35,97.37 132.95,96.35 131.64,95.16 130.42,93.81 129.32,92.31 128.35,90.66 127.53,88.89 "/></svg>