<svg xmlns="http://www.w3.org/2000/svg" width="800" height="232"><rect x="0" y="0" width="800" height="232" fill="white"></rect><path stroke="black" stroke-width="1.5" stroke-linecap="round" stroke-linejoin="round" fill="none" d="M 26.75,42 22.9,45.64 20.29,49.28 18.94,52.92 17.54,58.38 17.33,65.67 18.38,72.95 22.97,87.51 24.06,92.97 23.91,98.44 22.51,103.9 19.85,109.36 M 22.9,45.64 20.24,51.1 18.79,58.38 18.58,65.67 19.68,71.13 24.27,85.69 25.31,92.97 25.16,98.44 23.76,103.9 19.85,109.36 14.75,113 19.85,116.64 23.76,122.1 25.16,127.56 25.31,133.03 24.27,140.31 19.68,154.87 18.58,160.33 18.79,167.62 20.24,174.9 22.9,180.36 M 19.85,116.64 22.51,122.1 23.91,127.56 24.06,133.03 22.97,138.49 18.38,153.05 17.33,160.33 17.54,167.62 18.94,173.08 20.29,176.72 22.9,180.36 26.75,184 M 30,42 30,184 M 30,42 174,42 M 30,51 174,51 M 30,60 174,60 M 30,69 174,69 M 30,78 174,78 M 30,148 174,148 M 30,157 174,157 M 30,166 174,166 M 30,175 174,175 M 30,184 174,184 M 42.11,90.42 43.1,90.27 43.94,89.13 43.79,88.14 42.65,87.3 41.66,87.45 40.82,88.59 41.12,90.57 42.41,92.4 44.54,93.09 46.52,92.79 49.33,91.35 51.01,89.07 51.7,86.95 52.09,82.84 50.45,71.97 45.57,46.41 44.53,39.49 44.77,34.39 45.46,32.27 47.29,30.98 48.28,30.83 50.4,31.52 51.69,33.35 52.29,37.3 51.75,40.42 51.06,42.54 49.53,45.81 45.18,50.51 39.85,55.36 38.17,57.64 36.64,60.91 35.95,63.03 35.56,67.14 36.16,71.09 37.74,74.9 40.17,77.57 43.43,79.09 47.54,79.49 51.49,78.89 55.3,77.3 57.13,76.01 58.66,72.75 59.2,69.63 58.6,65.68 57.16,62.86 55.88,61.03 53.6,59.35 50.48,58.81 46.53,59.41 43.71,60.85 42.03,63.12 41.49,66.24 42.09,70.2 43.53,73.01 45.8,74.69 M 41.81,88.44 41.96,89.43 42.95,89.28 42.8,88.29 41.81,88.44 M 49.53,45.81 46.17,50.36 41.83,55.07 39.31,58.48 37.78,61.74 37.09,63.87 36.55,66.99 37.15,70.94 38.73,74.75 40.02,76.58 43.43,79.09 M 51.49,78.89 54.31,77.45 56.14,76.16 57.67,72.9 58.21,69.78 57.61,65.83 56.17,63.01 54.89,61.18 52.61,59.5 50.48,58.81 M 91,44.45 91,59.75 M 92,43.6 92,58.9 M 93,41.9 93,59.75 M 93,41.9 82,54.65 98,54.65 M 88,59.75 96,59.75 M 91,58.9 89,59.75 M 91,58.05 90,59.75 M 93,58.05 94,59.75 M 93,58.9 95,59.75 M 91,62.45 91,77.75 M 92,61.6 92,76.9 M 93,59.9 93,77.75 M 93,59.9 82,72.65 98,72.65 M 88,77.75 96,77.75 M 91,76.9 89,77.75 M 91,76.05 90,77.75 M 93,76.05 94,77.75 M 93,76.9 95,77.75 M 118,82 115,83 114,84 113,86 113,88 114,90 115,91 118,92 122,92 125,91 126,90 127,88 127,86 126,84 125,83 122,82 118,82 M 115,83 114,85 114,88 115,90 116,91 118,92 M 125,91 126,89 126,86 125,84 124,83 122,82 M 109.5,87 130.5,87 M 42.11,196.42 43.1,196.27 43.94,195.13 43.79,194.14 42.65,193.3 41.66,193.45 40.82,194.59 41.12,196.57 42.41,198.4 44.54,199.09 46.52,198.79 49.33,197.35 51.01,195.07 51.7,192.95 52.09,188.84 50.45,177.97 45.57,152.41 44.53,145.49 44.77,140.39 45.46,138.27 47.29,136.98 48.28,136.83 50.4,137.52 51.69,139.35 52.29,143.3 51.75,146.42 51.06,148.54 49.53,151.81 45.18,156.51 39.85,161.36 38.17,163.64 36.64,166.91 35.95,169.03 35.56,173.14 36.16,177.09 37.74,180.9 40.17,183.57 43.43,185.09 47.54,185.49 51.49,184.89 55.3,183.3 57.13,182.01 58.66,178.75 59.2,175.63 58.6,171.68 57.16,168.86 55.88,167.03 53.6,165.35 50.48,164.81 46.53,165.41 43.71,166.85 42.03,169.12 41.49,172.24 42.09,176.2 43.53,179.01 45.8,180.69 M 41.81,194.44 41.96,195.43 42.95,195.28 42.8,194.29 41.81,194.44 M 49.53,151.81 46.17,156.36 41.83,161.07 39.31,164.48 37.78,167.74 37.09,169.87 36.55,172.99 37.15,176.94 38.73,180.75 40.02,182.58 43.43,185.09 M 51.49,184.89 54.31,183.45 56.14,182.16 57.67,178.9 58.21,175.78 57.61,171.83 56.17,169.01 54.89,167.18 52.61,165.5 50.48,164.81 M 91,150.45 91,165.75 M 92,149.6 92,164.9 M 93,147.9 93,165.75 M 93,147.9 82,160.65 98,160.65 M 88,165.75 96,165.75 M 91,164.9 89,165.75 M 91,164.05 90,165.75 M 93,164.05 94,165.75 M 93,164.9 95,165.75 M 91,168.45 91,183.75 M 92,167.6 92,182.9 M 93,165.9 93,183.75 M 93,165.9 82,178.65 98,178.65 M 88,183.75 96,183.75 M 91,182.9 89,183.75 M 91,182.05 90,183.75 M 93,182.05 94,183.75 M 93,182.9 95,183.75 M 118,179 115,180 114,181 113,183 113,185 114,187 115,188 118,189 122,189 125,188 126,187 127,185 127,183 126,181 125,180 122,179 118,179 M 115,180 114,182 114,185 115,187 116,188 118,189 M 125,188 126,186 126,183 125,181 124,180 122,179 M 138,42 138,148 M 138,148 138,184 M 154,82 151,83 150,84 149,86 149,88 150,90 151,91 154,92 158,92 161,91 162,90 163,88 163,86 162,84 161,83 158,82 154,82 M 151,83 150,85 150,88 151,90 152,91 154,92 M 161,91 162,89 162,86 161,84 160,83 158,82 M 145.5,87 166.5,87 M 154,179 151,180 150,181 149,183 149,185 150,187 151,188 154,189 158,189 161,188 162,187 163,185 163,183 162,181 161,180 158,179 154,179 M 151,180 150,182 150,185 151,187 152,188 154,189 M 161,188 162,186 162,183 161,181 160,180 158,179 M 174,42 174,148 M 174,148 174,184 "/></svg>