<svg xmlns="http://www.w3.org/2000/svg" width="800" height="126"><rect x="0" y="0" width="800" height="126" fill="white"></rect><path stroke="black" stroke-width="1.5" stroke-linecap="round" stroke-linejoin="round" fill="none" d="M 30,42 251.76,42 M 30,51 251.76,51 M 30,60 251.76,60 M 30,69 251.76,69 M 30,78 251.76,78 M 42.11,90.42 43.1,90.27 43.94,89.13 43.79,88.14 42.65,87.3 41.66,87.45 40.82,88.59 41.12,90.57 42.41,92.4 44.54,93.09 46.52,92.79 49.33,91.35 51.01,89.07 51.7,86.95 52.09,82.84 50.45,71.97 45.57,46.41 44.53,39.49 44.77,34.39 45.46,32.27 47.29,30.98 48.28,30.83 50.4,31.52 51.69,33.35 52.29,37.3 51.75,40.42 51.06,42.54 49.53,45.81 45.18,50.51 39.85,55.36 38.17,57.64 36.64,60.91 35.95,63.03 35.56,67.14 36.16,71.09 37.74,74.9 40.17,77.57 43.43,79.09 47.54,79.49 51.49,78.89 55.3,77.3 57.13,76.01 58.66,72.75 59.2,69.63 58.6,65.68 57.16,62.86 55.88,61.03 53.6,59.35 50.48,58.81 46.53,59.41 43.71,60.85 42.03,63.12 41.49,66.24 42.09,70.2 43.53,73.01 45.8,74.69 M 41.81,88.44 41.96,89.43 42.95,89.28 42.8,88.29 41.81,88.44 M 49.53,45.81 46.17,50.36 41.83,55.07 39.31,58.48 37.78,61.74 37.09,63.87 36.55,66.99 37.15,70.94 38.73,74.75 40.02,76.58 43.43,79.09 M 51.49,78.89 54.31,77.45 56.14,76.16 57.67,72.9 58.21,69.78 57.61,65.83 56.17,63.01 54.89,61.18 52.61,59.5 50.48,58.81 M 91,44.45 91,59.75 M 92,43.6 92,58.9 M 93,41.9 93,59.75 M 93,41.9 82,54.65 98,54.65 M 88,59.75 96,59.75 M 91,58.9 89,59.75 M 91,58.05 90,59.75 M 93,58.05 94,59.75 M 93,58.9 95,59.75 M 91,62.45 91,77.75 M 92,61.6 92,76.9 M 93,59.9 93,77.75 M 93,59.9 82,72.65 98,72.65 M 88,77.75 96,77.75 M 91,76.9 89,77.75 M 91,76.05 90,77.75 M 93,76.05 94,77.75 M 93,76.9 95,77.75 M 121.36,87.22 118.4,88.3 116.32,90.14 115.2,91.9 115.04,93.58 115.84,95.18 117.68,95.86 119.6,95.7 122.56,94.62 124.64,92.78 125.76,91.02 125.92,89.34 125.12,87.74 123.28,87.06 121.36,87.22 M 117.28,90.06 123.28,87.06 M 116.16,91.82 124.16,87.82 M 115.04,93.58 125.04,88.58 M 115.92,94.34 125.92,89.34 M 116.8,95.1 124.8,91.1 M 117.68,95.86 123.68,92.86 M 126,64.5 126,91.5 M 154.8,82.72 151.84,83.8 149.76,85.64 148.64,87.4 148.48,89.08 149.28,90.68 151.12,91.36 153.04,91.2 156,90.12 158.08,88.28 159.2,86.52 159.36,84.84 158.56,83.24 156.72,82.56 154.8,82.72 M 150.72,85.56 156.72,82.56 M 149.6,87.32 157.6,83.32 M 148.48,89.08 158.48,84.08 M 149.36,89.84 159.36,84.84 M 150.24,90.6 158.24,86.6 M 151.12,91.36 157.12,88.36 M 159.44,60 159.44,87 M 188.24,78.22 185.28,79.3 183.2,81.14 182.08,82.9 181.92,84.58 182.72,86.18 184.56,86.86 186.48,86.7 189.44,85.62 191.52,83.78 192.64,82.02 192.8,80.34 192,78.74 190.16,78.06 188.24,78.22 M 184.16,81.06 190.16,78.06 M 183.04,82.82 191.04,78.82 M 181.92,84.58 191.92,79.58 M 182.8,85.34 192.8,80.34 M 183.68,86.1 191.68,82.1 M 184.56,86.86 190.56,83.86 M 192.88,55.5 192.88,82.5 M 221.68,73.72 218.72,74.8 216.64,76.64 215.52,78.4 215.36,80.08 216.16,81.68 218,82.36 219.92,82.2 222.88,81.12 224.96,79.28 226.08,77.52 226.24,75.84 225.44,74.24 223.6,73.56 221.68,73.72 M 217.6,76.56 223.6,73.56 M 216.48,78.32 224.48,74.32 M 215.36,80.08 225.36,75.08 M 216.24,80.84 226.24,75.84 M 217.12,81.6 225.12,77.6 M 218,82.36 224,79.36 M 226.32,51 226.32,78 M 109.5,87 130.5,87 M 142.94,87 163.94,87 M 251.76,42 251.76,78 "/></svg>