<svg xmlns="http://www.w3.org/2000/svg" width="800" height="126"><rect x="0" y="0" width="800" height="126" fill="white"></rect><path stroke="black" stroke-width="1.5" stroke-linecap="round" stroke-linejoin="round" fill="none" d="M 30,42 218.32,42 M 30,51 218.32,51 M 30,60 218.32,60 M 30,69 218.32,69 M 30,78 218.32,78 M 42.11,90.42 43.1,90.27 43.94,89.13 43.79,88.14 42.65,87.3 41.66,87.45 40.82,88.59 41.12,90.57 42.41,92.4 44.54,93.09 46.52,92.79 49.33,91.35 51.01,89.07 51.7,86.95 52.09,82.84 50.45,71.97 45.57,46.41 44.53,39.49 44.77,34.39 45.46,32.27 47.29,30.98 48.28,30.83 50.4,31.52 51.69,33.35 52.29,37.3 51.75,40.42 51.06,42.54 49.53,45.81 45.18,50.51 39.85,55.36 38.17,57.64 36.64,60.91 35.95,63.03 35.56,67.14 36.16,71.09 37.74,74.9 40.17,77.57 43.43,79.09 47.54,79.49 51.49,78.89 55.3,77.3 57.13,76.01 58.66,72.75 59.2,69.63 58.6,65.68 57.16,62.86 55.88,61.03 53.6,59.35 50.48,58.81 46.53,59.41 43.71,60.85 42.03,63.12 41.49,66.24 42.09,70.2 43.53,73.01 45.8,74.69 M 41.81,88.44 41.96,89.43 42.95,89.28 42.8,88.29 41.81,88.44 M 49.53,45.81 46.17,50.36 41.83,55.07 39.31,58.48 37.78,61.74 37.09,63.87 36.55,66.99 37.15,70.94 38.73,74.75 40.02,76.58 43.43,79.09 M 51.49,78.89 54.31,77.45 56.14,76.16 57.67,72.9 58.21,69.78 57.61,65.83 56.17,63.01 54.89,61.18 52.61,59.5 50.48,58.81 M 84,45.3 84,46.15 85,46.15 85,45.3 84,45.3 M 84,44.45 85,44.45 86,45.3 86,46.15 85,47 84,47 83,46.15 83,45.3 84,43.6 85,42.75 88,41.9 92,41.9 95,42.75 96,44.45 96,47 95,48.7 92,49.55 M 94,42.75 95,44.45 95,47 94,48.7 M 91,41.9 93,42.75 94,44.45 94,47 93,48.7 91,49.55 M 89,49.55 92,49.55 94,50.4 96,52.1 97,53.8 97,56.35 96,58.05 95,58.9 92,59.75 88,59.75 85,58.9 84,58.05 83,56.35 83,55.5 84,54.65 85,54.65 86,55.5 86,56.35 85,57.2 84,57.2 M 95,52.1 96,53.8 96,56.35 95,58.05 M 91,49.55 93,50.4 94,51.25 95,53.8 95,56.35 94,58.9 92,59.75 M 84,55.5 84,56.35 85,56.35 85,55.5 84,55.5 M 91,62.45 91,77.75 M 92,61.6 92,76.9 M 93,59.9 93,77.75 M 93,59.9 82,72.65 98,72.65 M 88,77.75 96,77.75 M 91,76.9 89,77.75 M 91,76.05 90,77.75 M 93,76.05 94,77.75 M 93,76.9 95,77.75 M 121.36,82.72 118.4,83.8 116.32,85.64 115.2,87.4 115.04,89.08 115.84,90.68 117.68,91.36 119.6,91.2 122.56,90.12 124.64,88.28 125.76,86.52 125.92,84.84 125.12,83.24 123.28,82.56 121.36,82.72 M 117.28,85.56 123.28,82.56 M 116.16,87.32 124.16,83.32 M 115.04,89.08 125.04,84.08 M 115.92,89.84 125.92,84.84 M 116.8,90.6 124.8,86.6 M 117.68,91.36 123.68,88.36 M 126,60 126,87 M 154.8,78.22 151.84,79.3 149.76,81.14 148.64,82.9 148.48,84.58 149.28,86.18 151.12,86.86 153.04,86.7 156,85.62 158.08,83.78 159.2,82.02 159.36,80.34 158.56,78.74 156.72,78.06 154.8,78.22 M 150.72,81.06 156.72,78.06 M 149.6,82.82 157.6,78.82 M 148.48,84.58 158.48,79.58 M 149.36,85.34 159.36,80.34 M 150.24,86.1 158.24,82.1 M 151.12,86.86 157.12,83.86 M 159.44,55.5 159.44,82.5 M 188.24,73.72 185.28,74.8 183.2,76.64 182.08,78.4 181.92,80.08 182.72,81.68 184.56,82.36 186.48,82.2 189.44,81.12 191.52,79.28 192.64,77.52 192.8,75.84 192,74.24 190.16,73.56 188.24,73.72 M 184.16,76.56 190.16,73.56 M 183.04,78.32 191.04,74.32 M 181.92,80.08 191.92,75.08 M 182.8,80.84 192.8,75.84 M 183.68,81.6 191.68,77.6 M 184.56,82.36 190.56,79.36 M 192.88,51 192.88,78 M 109.5,87 130.5,87 M 218.32,42 218.32,78 "/></svg>