<svg xmlns="http://www.w3.org/2000/svg" width="800" height="155.4"><rect x="0" y="0" width="800" height="155.4" fill="white"></rect><path stroke="black" stroke-width="1.5" stroke-linecap="round" stroke-linejoin="round" fill="none" d="M 30,42 482.8,42 M 30,51 482.8,51 M 30,60 482.8,60 M 30,69 482.8,69 M 30,78 482.8,78 M 42.11,90.42 43.1,90.27 43.94,89.13 43.79,88.14 42.65,87.3 41.66,87.45 40.82,88.59 41.12,90.57 42.41,92.4 44.54,93.09 46.52,92.79 49.33,91.35 51.01,89.07 51.7,86.95 52.09,82.84 50.45,71.97 45.57,46.41 44.53,39.49 44.77,34.39 45.46,32.27 47.29,30.98 48.28,30.83 50.4,31.52 51.69,33.35 52.29,37.3 51.75,40.42 51.06,42.54 49.53,45.81 45.18,50.51 39.85,55.36 38.17,57.64 36.64,60.91 35.95,63.03 35.56,67.14 36.16,71.09 37.74,74.9 40.17,77.57 43.43,79.09 47.54,79.49 51.49,78.89 55.3,77.3 57.13,76.01 58.66,72.75 59.2,69.63 58.6,65.68 57.16,62.86 55.88,61.03 53.6,59.35 50.48,58.81 46.53,59.41 43.71,60.85 42.03,63.12 41.49,66.24 42.09,70.2 43.53,73.01 45.8,74.69 M 41.81,88.44 41.96,89.43 42.95,89.28 42.8,88.29 41.81,88.44 M 49.53,45.81 46.17,50.36 41.83,55.07 39.31,58.48 37.78,61.74 37.09,63.87 36.55,66.99 37.15,70.94 38.73,74.75 40.02,76.58 43.43,79.09 M 51.49,78.89 54.31,77.45 56.14,76.16 57.67,72.9 58.21,69.78 57.61,65.83 56.17,63.01 54.89,61.18 52.61,59.5 50.48,58.81 M 91,44.45 91,59.75 M 92,43.6 92,58.9 M 93,41.9 93,59.75 M 93,41.9 82,54.65 98,54.65 M 88,59.75 96,59.75 M 91,58.9 89,59.75 M 91,58.05 90,59.75 M 93,58.05 94,59.75 M 93,58.9 95,59.75 M 91,62.45 91,77.75 M 92,61.6 92,76.9 M 93,59.9 93,77.75 M 93,59.9 82,72.65 98,72.65 M 88,77.75 96,77.75 M 91,76.9 89,77.75 M 91,76.05 90,77.75 M 93,76.05 94,77.75 M 93,76.9 95,77.75 M 121.36,69.22 118.4,70.3 116.32,72.14 115.2,73.9 115.04,75.58 115.84,77.18 117.68,77.86 119.6,77.7 122.56,76.62 124.64,74.78 125.76,73.02 125.92,71.34 125.12,69.74 123.28,69.06 121.36,69.22 M 117.28,72.06 123.28,69.06 M 116.16,73.82 124.16,69.82 M 115.04,75.58 125.04,70.58 M 115.92,76.34 125.92,71.34 M 116.8,77.1 124.8,73.1 M 117.68,77.86 123.68,74.86 M 126,46.5 126,73.5 M 117,99 114.6,107.4 114,109.8 114,111 114.6,111.6 116.4,111.6 117.6,110.4 118.2,109.2 M 117.6,99 115.2,107.4 114.6,109.8 114.6,111 115.2,111.6 M 113.4,103.2 118.8,103.2 M 120.6,105.6 121.2,104.4 122.4,103.2 124.2,103.2 124.8,103.8 124.8,105.6 123.6,109.2 123.6,110.4 124.8,111.6 M 123.6,103.2 124.2,103.8 124.2,105.6 123,109.2 123,110.4 123.6,111 124.8,111.6 126,111.6 127.2,111 128.4,109.8 129,108.6 M 130.2,103.2 129,108.6 129,110.4 129.6,111 130.8,111.6 132,111.6 133.2,111 134.4,109.8 135,108.6 135.6,106.2 135.6,103.2 135,103.2 135.6,104.4 M 130.8,103.2 129.6,108.6 129.6,110.4 130.8,111.6 M 142.8,99 142.2,99.6 142.8,100.2 143.4,99.6 142.8,99 M 138,105.6 138.6,104.4 139.8,103.2 141.6,103.2 142.2,103.8 142.2,105.6 141,109.2 141,111 141.6,111.6 M 141,103.2 141.6,103.8 141.6,105.6 140.4,109.2 140.4,111 141,111.6 142.8,111.6 144,110.4 144.6,109.2 M 145.8,105.6 146.4,104.4 147.6,103.2 149.4,103.2 150,103.8 150,105 149.4,107.4 148.2,111.6 M 148.8,103.2 149.4,103.8 149.4,105 148.8,107.4 147.6,111.6 M 149.4,107.4 150.6,105 151.8,103.8 153,103.2 154.2,103.2 155.4,103.8 156,104.4 156,105.6 154.8,109.2 154.8,111 155.4,111.6 M 154.2,103.2 155.4,104.4 155.4,105.6 154.2,109.2 154.2,111 154.8,111.6 156.6,111.6 157.8,110.4 158.4,109.2 M 161.4,106.2 172.2,106.2 M 192.36,69.22 189.4,70.3 187.32,72.14 186.2,73.9 186.04,75.58 186.84,77.18 188.68,77.86 190.6,77.7 193.56,76.62 195.64,74.78 196.76,73.02 196.92,71.34 196.12,69.74 194.28,69.06 192.36,69.22 M 188.28,72.06 194.28,69.06 M 187.16,73.82 195.16,69.82 M 186.04,75.58 196.04,70.58 M 186.92,76.34 196.92,71.34 M 187.8,77.1 195.8,73.1 M 188.68,77.86 194.68,74.86 M 197,46.5 197,73.5 M 187.4,99 183.8,111.6 M 188,99 184.4,111.6 M 192.2,103.8 191.6,104.4 192.2,105 192.8,104.4 192.8,103.8 192.2,103.2 191.6,103.2 190.4,103.8 188,106.2 186.8,106.8 185.6,106.8 M 186.8,106.8 188,107.4 189.2,111 189.8,111.6 M 186.8,106.8 187.4,107.4 188.6,111 189.2,111.6 190.4,111.6 191.6,111 192.8,109.2 M 185.6,99 188,99 M 199.4,99 197,107.4 196.4,109.8 196.4,111 197,111.6 198.8,111.6 200,110.4 200.6,109.2 M 200,99 197.6,107.4 197,109.8 197,111 197.6,111.6 M 197.6,99 200,99 M 204.2,108.6 206.6,108 208.4,107.4 210.2,106.2 210.8,105 210.2,103.8 209,103.2 207.2,103.2 205.4,103.8 204.2,105.6 203.6,107.4 203.6,109.2 204.2,110.4 204.8,111 206,111.6 207.2,111.6 209,111 210.2,109.8 M 207.2,103.2 206,103.8 204.8,105.6 204.2,107.4 204.2,109.8 204.8,111 M 229.36,51.22 226.4,52.3 224.32,54.14 223.2,55.9 223.04,57.58 223.84,59.18 225.68,59.86 227.6,59.7 230.56,58.62 232.64,56.78 233.76,55.02 233.92,53.34 233.12,51.74 231.28,51.06 229.36,51.22 M 225.28,54.06 231.28,51.06 M 224.16,55.82 232.16,51.82 M 223.04,57.58 233.04,52.58 M 223.92,58.34 233.92,53.34 M 224.8,59.1 232.8,55.1 M 225.68,59.86 231.68,56.86 M 223,82.5 223,55.5 M 226,99 223.6,107.4 223,109.8 223,111 223.6,111.6 225.4,111.6 226.6,110.4 227.2,109.2 M 226.6,99 224.2,107.4 223.6,109.8 223.6,111 224.2,111.6 M 222.4,103.2 227.8,103.2 M 229.6,105.6 230.2,104.4 231.4,103.2 233.2,103.2 233.8,103.8 233.8,105.6 232.6,109.2 232.6,110.4 233.8,111.6 M 232.6,103.2 233.2,103.8 233.2,105.6 232,109.2 232,110.4 232.6,111 233.8,111.6 235,111.6 236.2,111 237.4,109.8 238,108.6 M 239.2,103.2 238,108.6 238,110.4 238.6,111 239.8,111.6 241,111.6 242.2,111 243.4,109.8 244,108.6 244.6,106.2 244.6,103.2 244,103.2 244.6,104.4 M 239.8,103.2 238.6,108.6 238.6,110.4 239.8,111.6 M 251.8,99 251.2,99.6 251.8,100.2 252.4,99.6 251.8,99 M 247,105.6 247.6,104.4 248.8,103.2 250.6,103.2 251.2,103.8 251.2,105.6 250,109.2 250,111 250.6,111.6 M 250,103.2 250.6,103.8 250.6,105.6 249.4,109.2 249.4,111 250,111.6 251.8,111.6 253,110.4 253.6,109.2 M 254.8,105.6 255.4,104.4 256.6,103.2 258.4,103.2 259,103.8 259,105 258.4,107.4 257.2,111.6 M 257.8,103.2 258.4,103.8 258.4,105 257.8,107.4 256.6,111.6 M 258.4,107.4 259.6,105 260.8,103.8 262,103.2 263.2,103.2 264.4,103.8 265,104.4 265,105.6 263.8,109.2 263.8,111 264.4,111.6 M 263.2,103.2 264.4,104.4 264.4,105.6 263.2,109.2 263.2,111 263.8,111.6 265.6,111.6 266.8,110.4 267.4,109.2 M 270.4,106.2 281.2,106.2 M 300.36,51.22 297.4,52.3 295.32,54.14 294.2,55.9 294.04,57.58 294.84,59.18 296.68,59.86 298.6,59.7 301.56,58.62 303.64,56.78 304.76,55.02 304.92,53.34 304.12,51.74 302.28,51.06 300.36,51.22 M 296.28,54.06 302.28,51.06 M 295.16,55.82 303.16,51.82 M 294.04,57.58 304.04,52.58 M 294.92,58.34 304.92,53.34 M 295.8,59.1 303.8,55.1 M 296.68,59.86 302.68,56.86 M 294,82.5 294,55.5 M 296.4,99 292.8,111.6 M 297,99 293.4,111.6 M 301.2,103.8 300.6,104.4 301.2,105 301.8,104.4 301.8,103.8 301.2,103.2 300.6,103.2 299.4,103.8 297,106.2 295.8,106.8 294.6,106.8 M 295.8,106.8 297,107.4 298.2,111 298.8,111.6 M 295.8,106.8 296.4,107.4 297.6,111 298.2,111.6 299.4,111.6 300.6,111 301.8,109.2 M 294.6,99 297,99 M 308.4,99 306,107.4 305.4,109.8 305.4,111 306,111.6 307.8,111.6 309,110.4 309.6,109.2 M 309,99 306.6,107.4 306,109.8 306,111 306.6,111.6 M 306.6,99 309,99 M 313.2,108.6 315.6,108 317.4,107.4 319.2,106.2 319.8,105 319.2,103.8 318,103.2 316.2,103.2 314.4,103.8 313.2,105.6 312.6,107.4 312.6,109.2 313.2,110.4 313.8,111 315,111.6 316.2,111.6 318,111 319.2,109.8 M 316.2,103.2 315,103.8 313.8,105.6 313.2,107.4 313.2,109.8 313.8,111 M 336,42 336,78 M 354.36,46.72 351.4,47.8 349.32,49.64 348.2,51.4 348.04,53.08 348.84,54.68 350.68,55.36 352.6,55.2 355.56,54.12 357.64,52.28 358.76,50.52 358.92,48.84 358.12,47.24 356.28,46.56 354.36,46.72 M 350.28,49.56 356.28,46.56 M 349.16,51.32 357.16,47.32 M 348.04,53.08 358.04,48.08 M 348.92,53.84 358.92,48.84 M 349.8,54.6 357.8,50.6 M 350.68,55.36 356.68,52.36 M 348,78 348,51 M 350.4,99 348,107.4 347.4,109.8 347.4,111 348,111.6 349.8,111.6 351,110.4 351.6,109.2 M 351,99 348.6,107.4 348,109.8 348,111 348.6,111.6 M 348.6,99 351,99 M 358.2,99 357.6,99.6 358.2,100.2 358.8,99.6 358.2,99 M 353.4,105.6 354,104.4 355.2,103.2 357,103.2 357.6,103.8 357.6,105.6 356.4,109.2 356.4,111 357,111.6 M 356.4,103.2 357,103.8 357,105.6 355.8,109.2 355.8,111 356.4,111.6 358.2,111.6 359.4,110.4 360,109.2 M 366,99 363.6,107.4 363,109.8 363,111 363.6,111.6 365.4,111.6 366.6,110.4 367.2,109.2 M 366.6,99 364.2,107.4 363.6,109.8 363.6,111 364.2,111.6 M 362.4,103.2 367.8,103.2 M 371.4,106.2 382.2,106.2 M 401.36,46.72 398.4,47.8 396.32,49.64 395.2,51.4 395.04,53.08 395.84,54.68 397.68,55.36 399.6,55.2 402.56,54.12 404.64,52.28 405.76,50.52 405.92,48.84 405.12,47.24 403.28,46.56 401.36,46.72 M 397.28,49.56 403.28,46.56 M 396.16,51.32 404.16,47.32 M 395.04,53.08 405.04,48.08 M 395.92,53.84 405.92,48.84 M 396.8,54.6 404.8,50.6 M 397.68,55.36 403.68,52.36 M 395,78 395,51 M 398,99 395.6,107.4 395,109.8 395,111 395.6,111.6 397.4,111.6 398.6,110.4 399.2,109.2 M 398.6,99 396.2,107.4 395.6,109.8 395.6,111 396.2,111.6 M 394.4,103.2 399.8,103.2 M 405.8,99 403.4,107.4 402.8,109.8 402.8,111 403.4,111.6 405.2,111.6 406.4,110.4 407,109.2 M 406.4,99 404,107.4 403.4,109.8 403.4,111 404,111.6 M 404,99 406.4,99 M 410.6,108.6 413,108 414.8,107.4 416.6,106.2 417.2,105 416.6,103.8 415.4,103.2 413.6,103.2 411.8,103.8 410.6,105.6 410,107.4 410,109.2 410.6,110.4 411.2,111 412.4,111.6 413.6,111.6 415.4,111 416.6,109.8 M 413.6,103.2 412.4,103.8 411.2,105.6 410.6,107.4 410.6,109.8 411.2,111 M 435.87,50.86 432.62,51.94 430.14,53.9 429.27,55.78 429.21,57.62 429.95,59.42 431.52,60.26 433.93,60.14 437.18,59.06 439.66,57.1 440.53,55.22 440.59,53.38 439.85,51.58 438.28,50.74 435.87,50.86 M 436.2,51.67 433.03,52.93 430.51,54.8 429.53,56.41 429.32,57.89 429.87,59.24 431.3,59.72 433.6,59.33 436.77,58.07 439.29,56.2 440.27,54.59 440.48,53.11 439.93,51.76 438.5,51.28 436.2,51.67 M 429.4,82.5 429.4,55.5 M 435.4,104.4 435.4,105 436,105 436,104.4 435.4,103.8 433.6,103.2 431.8,103.2 430,103.8 429.4,104.4 429.4,105.6 430,106.2 434.2,108.6 434.8,109.2 M 429.4,105 430,105.6 434.2,108 434.8,108.6 434.8,110.4 434.2,111 432.4,111.6 430.6,111.6 428.8,111 428.2,110.4 428.2,109.8 428.8,109.8 428.8,110.4 M 442.6,99 440.2,107.4 439.6,109.8 439.6,111 440.2,111.6 442,111.6 443.2,110.4 443.8,109.2 M 443.2,99 440.8,107.4 440.2,109.8 440.2,111 440.8,111.6 M 439,103.2 444.4,103.2 M 455.2,103.2 454,107.4 453.4,109.8 453.4,111 454,111.6 455.8,111.6 457,110.4 457.6,109.2 M 455.8,103.2 454.6,107.4 454,109.8 454,111 454.6,111.6 M 454,107.4 454,105.6 453.4,103.8 452.2,103.2 451,103.2 449.2,103.8 448,105.6 447.4,107.4 447.4,109.2 448,110.4 448.6,111 449.8,111.6 451,111.6 452.2,111 453.4,109.2 454,107.4 M 451,103.2 449.8,103.8 448.6,105.6 448,107.4 448,109.8 448.6,111 M 458.8,105.6 459.4,104.4 460.6,103.2 462.4,103.2 463,103.8 463,105 462.4,107.4 461.2,111.6 M 461.8,103.2 462.4,103.8 462.4,105 461.8,107.4 460.6,111.6 M 462.4,107.4 463.6,105 464.8,103.8 466,103.2 467.2,103.2 467.8,103.8 467.8,104.4 467.2,105 466.6,104.4 467.2,103.8 M 482.8,42 482.8,78 "/></svg>