<svg xmlns="http://www.w3.org/2000/svg" width="800" height="126"><rect x="0" y="0" width="800" height="126" fill="white"></rect><path stroke="black" stroke-width="1.5" stroke-linecap="round" stroke-linejoin="round" fill="none" d="M 30,42 186,42 M 30,51 186,51 M 30,60 186,60 M 30,69 186,69 M 30,78 186,78 M 42.11,90.42 43.1,90.27 43.94,89.13 43.79,88.14 42.65,87.3 41.66,87.45 40.82,88.59 41.12,90.57 42.41,92.4 44.54,93.09 46.52,92.79 49.33,91.35 51.01,89.07 51.7,86.95 52.09,82.84 50.45,71.97 45.57,46.41 44.53,39.49 44.77,34.39 45.46,32.27 47.29,30.98 48.28,30.83 50.4,31.52 51.69,33.35 52.29,37.3 51.75,40.42 51.06,42.54 49.53,45.81 45.18,50.51 39.85,55.36 38.17,57.64 36.64,60.91 35.95,63.03 35.56,67.14 36.16,71.09 37.74,74.9 40.17,77.57 43.43,79.09 47.54,79.49 51.49,78.89 55.3,77.3 57.13,76.01 58.66,72.75 59.2,69.63 58.6,65.68 57.16,62.86 55.88,61.03 53.6,59.35 50.48,58.81 46.53,59.41 43.71,60.85 42.03,63.12 41.49,66.24 42.09,70.2 43.53,73.01 45.8,74.69 M 41.81,88.44 41.96,89.43 42.95,89.28 42.8,88.29 41.81,88.44 M 49.53,45.81 46.17,50.36 41.83,55.07 39.31,58.48 37.78,61.74 37.09,63.87 36.55,66.99 37.15,70.94 38.73,74.75 40.02,76.58 43.43,79.09 M 51.49,78.89 54.31,77.45 56.14,76.16 57.67,72.9 58.21,69.78 57.61,65.83 56.17,63.01 54.89,61.18 52.61,59.5 50.48,58.81 M 91,44.45 91,59.75 M 92,43.6 92,58.9 M 93,41.9 93,59.75 M 93,41.9 82,54.65 98,54.65 M 88,59.75 96,59.75 M 91,58.9 89,59.75 M 91,58.05 90,59.75 M 93,58.05 94,59.75 M 93,58.9 95,59.75 M 91,62.45 91,77.75 M 92,61.6 92,76.9 M 93,59.9 93,77.75 M 93,59.9 82,72.65 98,72.65 M 88,77.75 96,77.75 M 91,76.9 89,77.75 M 91,76.05 90,77.75 M 93,76.05 94,77.75 M 93,76.9 95,77.75 M 121.36,82.72 118.4,83.8 116.32,85.64 115.2,87.4 115.04,89.08 115.84,90.68 117.68,91.36 119.6,91.2 122.56,90.12 124.64,88.28 125.76,86.52 125.92,84.84 125.12,83.24 123.28,82.56 121.36,82.72 M 117.28,85.56 123.28,82.56 M 116.16,87.32 124.16,83.32 M 115.04,89.08 125.04,84.08 M 115.92,89.84 125.92,84.84 M 116.8,90.6 124.8,86.6 M 117.68,91.36 123.68,88.36 M 126,53.52 126,87 M 126,54.27 130,57.27 133,60.27 135,63.27 136,67.77 136,73.77 M 126,55.77 132,60.27 M 126,57.27 129,58.77 133,61.77 135,64.77 136,67.77 M 126,60.75 130,63.75 133,66.75 135,69.75 136,74.25 136,77.25 135,80.25 134,81.75 M 126,62.25 132,66.75 M 126,63.75 129,65.25 133,68.25 135,71.25 136,74.25 M 109.5,87 130.5,87 M 150,42 150,78 M 156,51 180,51 M 159.5,51 159.5,54.75 M 176.5,51 176.5,54.75 M 159.5,51 176.5,51 M 159.5,52.25 176.5,52.25 M 159.5,53.5 176.5,53.5 M 159.5,54.75 176.5,54.75 M 186,42 186,78 "/></svg>