<svg xmlns="http://www.w3.org/2000/svg" width="800" height="146.0291166332675"><rect x="0" y="0" width="800" height="146.0291166332675" fill="white"></rect><path stroke="black" stroke-width="1.5" stroke-linecap="round" stroke-linejoin="round" fill="none" d="M 30,62.03 371.76,62.03 M 30,71.03 371.76,71.03 M 30,80.03 371.76,80.03 M 30,89.03 371.76,89.03 M 30,98.03 371.76,98.03 M 42.11,110.45 43.1,110.3 43.94,109.16 43.79,108.17 42.65,107.33 41.66,107.48 40.82,108.62 41.12,110.6 42.41,112.43 44.54,113.12 46.52,112.82 49.33,111.38 51.01,109.1 51.7,106.98 52.09,102.87 50.45,92 45.57,66.44 44.53,59.52 44.77,54.42 45.46,52.3 47.29,51.01 48.28,50.86 50.4,51.55 51.69,53.38 52.29,57.33 51.75,60.45 51.06,62.57 49.53,65.84 45.18,70.54 39.85,75.39 38.17,77.67 36.64,80.93 35.95,83.06 35.56,87.17 36.16,91.12 37.74,94.93 40.17,97.59 43.43,99.12 47.54,99.51 51.49,98.92 55.3,97.33 57.13,96.04 58.66,92.78 59.2,89.66 58.6,85.71 57.16,82.89 55.88,81.06 53.6,79.38 50.48,78.84 46.53,79.44 43.71,80.88 42.03,83.15 41.49,86.27 42.09,90.22 43.53,93.04 45.8,94.72 M 41.81,108.47 41.96,109.46 42.95,109.31 42.8,108.32 41.81,108.47 M 49.53,65.84 46.17,70.39 41.83,75.09 39.31,78.51 37.78,81.77 37.09,83.9 36.55,87.02 37.15,90.97 38.73,94.78 40.02,96.61 43.43,99.12 M 51.49,98.92 54.31,97.48 56.14,96.19 57.67,92.93 58.21,89.81 57.61,85.86 56.17,83.04 54.89,81.21 52.61,79.53 50.48,78.84 M 91,64.48 91,79.78 M 92,63.63 92,78.93 M 93,61.93 93,79.78 M 93,61.93 82,74.68 98,74.68 M 88,79.78 96,79.78 M 91,78.93 89,79.78 M 91,78.08 90,79.78 M 93,78.08 94,79.78 M 93,78.93 95,79.78 M 91,82.48 91,97.78 M 92,81.63 92,96.93 M 93,79.93 93,97.78 M 93,79.93 82,92.68 98,92.68 M 88,97.78 96,97.78 M 91,96.93 89,97.78 M 91,96.08 90,97.78 M 93,96.08 94,97.78 M 93,96.93 95,97.78 M 121.36,102.75 118.4,103.83 116.32,105.67 115.2,107.43 115.04,109.11 115.84,110.71 117.68,111.39 119.6,111.23 122.56,110.15 124.64,108.31 125.76,106.55 125.92,104.87 125.12,103.27 123.28,102.59 121.36,102.75 M 117.28,105.59 123.28,102.59 M 116.16,107.35 124.16,103.35 M 115.04,109.11 125.04,104.11 M 115.92,109.87 125.92,104.87 M 116.8,110.63 124.8,106.63 M 117.68,111.39 123.68,108.39 M 148.08,98.25 145.12,99.33 143.04,101.17 141.92,102.93 141.76,104.61 142.56,106.21 144.4,106.89 146.32,106.73 149.28,105.65 151.36,103.81 152.48,102.05 152.64,100.37 151.84,98.77 150,98.09 148.08,98.25 M 144,101.09 150,98.09 M 142.88,102.85 150.88,98.85 M 141.76,104.61 151.76,99.61 M 142.64,105.37 152.64,100.37 M 143.52,106.13 151.52,102.13 M 144.4,106.89 150.4,103.89 M 174.8,93.75 171.84,94.83 169.76,96.67 168.64,98.43 168.48,100.11 169.28,101.71 171.12,102.39 173.04,102.23 176,101.15 178.08,99.31 179.2,97.55 179.36,95.87 178.56,94.27 176.72,93.59 174.8,93.75 M 170.72,96.59 176.72,93.59 M 169.6,98.35 177.6,94.35 M 168.48,100.11 178.48,95.11 M 169.36,100.87 179.36,95.87 M 170.24,101.63 178.24,97.63 M 171.12,102.39 177.12,99.39 M 198.16,89.25 195.2,90.33 193.12,92.17 192,93.93 191.84,95.61 192.64,97.21 194.48,97.89 196.4,97.73 199.36,96.65 201.44,94.81 202.56,93.05 202.72,91.37 201.92,89.77 200.08,89.09 198.16,89.25 M 194.08,92.09 200.08,89.09 M 192.96,93.85 200.96,89.85 M 191.84,95.61 201.84,90.61 M 192.72,96.37 202.72,91.37 M 193.6,97.13 201.6,93.13 M 194.48,97.89 200.48,94.89 M 221.52,84.75 218.56,85.83 216.48,87.67 215.36,89.43 215.2,91.11 216,92.71 217.84,93.39 219.76,93.23 222.72,92.15 224.8,90.31 225.92,88.55 226.08,86.87 225.28,85.27 223.44,84.59 221.52,84.75 M 217.44,87.59 223.44,84.59 M 216.32,89.35 224.32,85.35 M 215.2,91.11 225.2,86.11 M 216.08,91.87 226.08,86.87 M 216.96,92.63 224.96,88.63 M 217.84,93.39 223.84,90.39 M 244.88,80.25 241.92,81.33 239.84,83.17 238.72,84.93 238.56,86.61 239.36,88.21 241.2,88.89 243.12,88.73 246.08,87.65 248.16,85.81 249.28,84.05 249.44,82.37 248.64,80.77 246.8,80.09 244.88,80.25 M 240.8,83.09 246.8,80.09 M 239.68,84.85 247.68,80.85 M 238.56,86.61 248.56,81.61 M 239.44,87.37 249.44,82.37 M 240.32,88.13 248.32,84.13 M 241.2,88.89 247.2,85.89 M 267.24,75.75 264.28,76.83 262.2,78.67 261.08,80.43 260.92,82.11 261.72,83.71 263.56,84.39 265.48,84.23 268.44,83.15 270.52,81.31 271.64,79.55 271.8,77.87 271,76.27 269.16,75.59 267.24,75.75 M 263.16,78.59 269.16,75.59 M 262.04,80.35 270.04,76.35 M 260.92,82.11 270.92,77.11 M 261.8,82.87 271.8,77.87 M 262.68,83.63 270.68,79.63 M 263.56,84.39 269.56,81.39 M 293.96,71.25 291,72.33 288.92,74.17 287.8,75.93 287.64,77.61 288.44,79.21 290.28,79.89 292.2,79.73 295.16,78.65 297.24,76.81 298.36,75.05 298.52,73.37 297.72,71.77 295.88,71.09 293.96,71.25 M 289.88,74.09 295.88,71.09 M 288.76,75.85 296.76,71.85 M 287.64,77.61 297.64,72.61 M 288.52,78.37 298.52,73.37 M 289.4,79.13 297.4,75.13 M 290.28,79.89 296.28,76.89 M 320.68,66.75 317.72,67.83 315.64,69.67 314.52,71.43 314.36,73.11 315.16,74.71 317,75.39 318.92,75.23 321.88,74.15 323.96,72.31 325.08,70.55 325.24,68.87 324.44,67.27 322.6,66.59 320.68,66.75 M 316.6,69.59 322.6,66.59 M 315.48,71.35 323.48,67.35 M 314.36,73.11 324.36,68.11 M 315.24,73.87 325.24,68.87 M 316.12,74.63 324.12,70.63 M 317,75.39 323,72.39 M 347.4,62.25 344.44,63.33 342.36,65.17 341.24,66.93 341.08,68.61 341.88,70.21 343.72,70.89 345.64,70.73 348.6,69.65 350.68,67.81 351.8,66.05 351.96,64.37 351.16,62.77 349.32,62.09 347.4,62.25 M 343.32,65.09 349.32,62.09 M 342.2,66.85 350.2,62.85 M 341.08,68.61 351.08,63.61 M 341.96,69.37 351.96,64.37 M 342.84,70.13 350.84,66.13 M 343.72,70.89 349.72,67.89 M 126,71.88 249.52,46.8 M 126,72.97 249.52,47.89 M 126,74.06 249.52,48.98 M 126,75.15 249.52,50.07 M 179.44,67.51 249.52,53.28 M 179.44,68.6 249.52,54.37 M 179.44,69.69 249.52,55.46 M 179.44,70.78 249.52,56.55 M 126,71.58 126,107.03 M 152.72,66.16 152.72,102.53 M 179.44,60.73 179.44,98.03 M 202.8,55.99 202.8,93.53 M 226.16,51.24 226.16,89.03 M 249.52,46.5 249.52,84.53 M 260.88,108.89 341.04,95.39 M 260.88,107.8 341.04,94.3 M 260.88,106.71 341.04,93.21 M 260.88,105.62 341.04,92.12 M 260.88,109.19 260.88,80.03 M 287.6,104.69 287.6,75.53 M 314.32,100.19 314.32,71.03 M 341.04,95.69 341.04,66.53 M 109.5,107.03 130.5,107.03 M 371.76,62.03 371.76,98.03 "/></svg>