<svg xmlns="http://www.w3.org/2000/svg" width="800" height="241"><rect x="0" y="0" width="800" height="241" fill="white"></rect><path stroke="black" stroke-width="1.5" stroke-linecap="round" stroke-linejoin="round" fill="none" d="M 30,51 30,193 M 30,51 360.24,51 M 30,60 360.24,60 M 30,69 360.24,69 M 30,78 360.24,78 M 30,87 360.24,87 M 30,157 360.24,157 M 30,166 360.24,166 M 30,175 360.24,175 M 30,184 360.24,184 M 30,193 360.24,193 M 42.11,99.42 43.1,99.27 43.94,98.13 43.79,97.14 42.65,96.3 41.66,96.45 40.82,97.59 41.12,99.57 42.41,101.4 44.54,102.09 46.52,101.79 49.33,100.35 51.01,98.07 51.7,95.95 52.09,91.84 50.45,80.97 45.57,55.41 44.53,48.49 44.77,43.39 45.46,41.27 47.29,39.98 48.28,39.83 50.4,40.52 51.69,42.35 52.29,46.3 51.75,49.42 51.06,51.54 49.53,54.81 45.18,59.51 39.85,64.36 38.17,66.64 36.64,69.91 35.95,72.03 35.56,76.14 36.16,80.09 37.74,83.9 40.17,86.57 43.43,88.09 47.54,88.49 51.49,87.89 55.3,86.3 57.13,85.01 58.66,81.75 59.2,78.63 58.6,74.68 57.16,71.86 55.88,70.03 53.6,68.35 50.48,67.81 46.53,68.41 43.71,69.85 42.03,72.12 41.49,75.24 42.09,79.2 43.53,82.01 45.8,83.69 M 41.81,97.44 41.96,98.43 42.95,98.28 42.8,97.29 41.81,97.44 M 49.53,54.81 46.17,59.36 41.83,64.07 39.31,67.48 37.78,70.74 37.09,72.87 36.55,75.99 37.15,79.94 38.73,83.75 40.02,85.58 43.43,88.09 M 51.49,87.89 54.31,86.45 56.14,85.16 57.67,81.9 58.21,78.78 57.61,74.83 56.17,72.01 54.89,70.18 52.61,68.5 50.48,67.81 M 68.3,39.5 68.3,64.8 M 73.7,37.2 73.7,62.5 M 66.5,47.6 75.5,43.4 M 66.5,48.85 75.5,44.65 M 66.5,57.5 75.5,53.3 M 66.5,58.75 75.5,54.55 M 93.6,54.3 93.6,55.15 94.6,55.15 94.6,54.3 93.6,54.3 M 93.6,53.45 94.6,53.45 95.6,54.3 95.6,55.15 94.6,56 93.6,56 92.6,55.15 92.6,54.3 93.6,52.6 94.6,51.75 97.6,50.9 101.6,50.9 104.6,51.75 105.6,52.6 106.6,54.3 106.6,56 105.6,57.7 102.6,59.4 97.6,61.1 95.6,61.95 93.6,63.65 92.6,66.2 92.6,68.75 M 104.6,52.6 105.6,54.3 105.6,56 104.6,57.7 M 101.6,50.9 103.6,51.75 104.6,54.3 104.6,56 103.6,57.7 101.6,59.4 97.6,61.1 M 92.6,67.05 93.6,66.2 95.6,66.2 100.6,67.05 104.6,67.05 106.6,66.2 M 95.6,66.2 100.6,67.9 104.6,67.9 105.6,67.05 M 95.6,66.2 100.6,68.75 104.6,68.75 105.6,67.9 106.6,66.2 106.6,64.5 M 100.6,71.45 100.6,86.75 M 101.6,70.6 101.6,85.9 M 102.6,68.9 102.6,86.75 M 102.6,68.9 91.6,81.65 107.6,81.65 M 97.6,86.75 105.6,86.75 M 100.6,85.9 98.6,86.75 M 100.6,85.05 99.6,86.75 M 102.6,85.05 103.6,86.75 M 102.6,85.9 104.6,86.75 M 130.96,91.72 128,92.8 125.92,94.64 124.8,96.4 124.64,98.08 125.44,99.68 127.28,100.36 129.2,100.2 132.16,99.12 134.24,97.28 135.36,95.52 135.52,93.84 134.72,92.24 132.88,91.56 130.96,91.72 M 126.88,94.56 132.88,91.56 M 125.76,96.32 133.76,92.32 M 124.64,98.08 134.64,93.08 M 125.52,98.84 135.52,93.84 M 126.4,99.6 134.4,95.6 M 127.28,100.36 133.28,97.36 M 135.6,69 135.6,96 M 164.4,87.22 161.44,88.3 159.36,90.14 158.24,91.9 158.08,93.58 158.88,95.18 160.72,95.86 162.64,95.7 165.6,94.62 167.68,92.78 168.8,91.02 168.96,89.34 168.16,87.74 166.32,87.06 164.4,87.22 M 160.32,90.06 166.32,87.06 M 159.2,91.82 167.2,87.82 M 158.08,93.58 168.08,88.58 M 158.96,94.34 168.96,89.34 M 159.84,95.1 167.84,91.1 M 160.72,95.86 166.72,92.86 M 169.04,64.5 169.04,91.5 M 119.1,96 140.1,96 M 37,165 38,163 40,162 42,162 44,163 45,165 45,167 44,169 42,170 40,170 38,169 37,168 36,165 36,162 37,159 39,157 42,156 46,156 50,157 53,159 55,162 56,166 56,171 55,175 54,177 52,180 49,183 45,186 40,189 36,191 M 46,156 49,157 52,159 54,162 55,166 55,171 54,175 53,177 51,180 48,183 43,187 40,189 M 39,163 43,163 M 38,164 44,164 M 37,165 45,165 M 37,166 45,166 M 37,167 45,167 M 38,168 44,168 M 39,169 43,169 M 60,160 60,162 62,162 62,160 60,160 M 61,160 61,162 M 60,161 62,161 M 60,170 60,172 62,172 62,170 60,170 M 61,170 61,172 M 60,171 62,171 M 68.3,154.5 68.3,179.8 M 73.7,152.2 73.7,177.5 M 66.5,162.6 75.5,158.4 M 66.5,163.85 75.5,159.65 M 66.5,172.5 75.5,168.3 M 66.5,173.75 75.5,169.55 M 93.6,160.3 93.6,161.15 94.6,161.15 94.6,160.3 93.6,160.3 M 93.6,159.45 94.6,159.45 95.6,160.3 95.6,161.15 94.6,162 93.6,162 92.6,161.15 92.6,160.3 93.6,158.6 94.6,157.75 97.6,156.9 101.6,156.9 104.6,157.75 105.6,158.6 106.6,160.3 106.6,162 105.6,163.7 102.6,165.4 97.6,167.1 95.6,167.95 93.6,169.65 92.6,172.2 92.6,174.75 M 104.6,158.6 105.6,160.3 105.6,162 104.6,163.7 M 101.6,156.9 103.6,157.75 104.6,160.3 104.6,162 103.6,163.7 101.6,165.4 97.6,167.1 M 92.6,173.05 93.6,172.2 95.6,172.2 100.6,173.05 104.6,173.05 106.6,172.2 M 95.6,172.2 100.6,173.9 104.6,173.9 105.6,173.05 M 95.6,172.2 100.6,174.75 104.6,174.75 105.6,173.9 106.6,172.2 106.6,170.5 M 100.6,177.45 100.6,192.75 M 101.6,176.6 101.6,191.9 M 102.6,174.9 102.6,192.75 M 102.6,174.9 91.6,187.65 107.6,187.65 M 97.6,192.75 105.6,192.75 M 100.6,191.9 98.6,192.75 M 100.6,191.05 99.6,192.75 M 102.6,191.05 103.6,192.75 M 102.6,191.9 104.6,192.75 M 130.96,175.22 128,176.3 125.92,178.14 124.8,179.9 124.64,181.58 125.44,183.18 127.28,183.86 129.2,183.7 132.16,182.62 134.24,180.78 135.36,179.02 135.52,177.34 134.72,175.74 132.88,175.06 130.96,175.22 M 126.88,178.06 132.88,175.06 M 125.76,179.82 133.76,175.82 M 124.64,181.58 134.64,176.58 M 125.52,182.34 135.52,177.34 M 126.4,183.1 134.4,179.1 M 127.28,183.86 133.28,180.86 M 135.6,152.5 135.6,179.5 M 160.55,160.17 166.52,169.63 163.24,176.99 163.34,177.99 M 165.43,168.73 162.14,176.09 M 164.13,165.85 164.33,167.84 161.05,175.2 163.34,177.99 166.72,181.67 M 169.01,184.45 166.72,181.67 164.63,180.87 162.64,181.07 160.75,182.26 159.96,184.35 160.16,186.34 161.35,188.23 164.54,189.93 M 169.01,184.45 166.82,182.66 164.73,181.87 160.75,182.26 161.15,186.24 162.35,188.13 164.54,189.93 M 164.63,180.87 161.85,183.16 160.16,186.34 M 194.48,51 194.48,193 M 213.84,82.72 210.88,83.8 208.8,85.64 207.68,87.4 207.52,89.08 208.32,90.68 210.16,91.36 212.08,91.2 215.04,90.12 217.12,88.28 218.24,86.52 218.4,84.84 217.6,83.24 215.76,82.56 213.84,82.72 M 209.76,85.56 215.76,82.56 M 208.64,87.32 216.64,83.32 M 207.52,89.08 217.52,84.08 M 208.4,89.84 218.4,84.84 M 209.28,90.6 217.28,86.6 M 210.16,91.36 216.16,88.36 M 218.48,60 218.48,87 M 247.28,78.22 244.32,79.3 242.24,81.14 241.12,82.9 240.96,84.58 241.76,86.18 243.6,86.86 245.52,86.7 248.48,85.62 250.56,83.78 251.68,82.02 251.84,80.34 251.04,78.74 249.2,78.06 247.28,78.22 M 243.2,81.06 249.2,78.06 M 242.08,82.82 250.08,78.82 M 240.96,84.58 250.96,79.58 M 241.84,85.34 251.84,80.34 M 242.72,86.1 250.72,82.1 M 243.6,86.86 249.6,83.86 M 251.92,55.5 251.92,82.5 M 200.48,175 224.48,175 M 207.48,171 207.48,174.75 M 217.48,171 217.48,174.75 M 207.48,171 217.48,171 M 207.48,172.25 217.48,172.25 M 207.48,173.5 217.48,173.5 M 207.48,174.75 217.48,174.75 M 277.36,51 277.36,193 M 296.72,73.72 293.76,74.8 291.68,76.64 290.56,78.4 290.4,80.08 291.2,81.68 293.04,82.36 294.96,82.2 297.92,81.12 300,79.28 301.12,77.52 301.28,75.84 300.48,74.24 298.64,73.56 296.72,73.72 M 292.64,76.56 298.64,73.56 M 291.52,78.32 299.52,74.32 M 290.4,80.08 300.4,75.08 M 291.28,80.84 301.28,75.84 M 292.16,81.6 300.16,77.6 M 293.04,82.36 299.04,79.36 M 301.36,51 301.36,78 M 330.16,69.22 327.2,70.3 325.12,72.14 324,73.9 323.84,75.58 324.64,77.18 326.48,77.86 328.4,77.7 331.36,76.62 333.44,74.78 334.56,73.02 334.72,71.34 333.92,69.74 332.08,69.06 330.16,69.22 M 326.08,72.06 332.08,69.06 M 324.96,73.82 332.96,69.82 M 323.84,75.58 333.84,70.58 M 324.72,76.34 334.72,71.34 M 325.6,77.1 333.6,73.1 M 326.48,77.86 332.48,74.86 M 334.8,46.5 334.8,73.5 M 283.36,175 307.36,175 M 290.36,171 290.36,174.75 M 300.36,171 300.36,174.75 M 290.36,171 300.36,171 M 290.36,172.25 300.36,172.25 M 290.36,173.5 300.36,173.5 M 290.36,174.75 300.36,174.75 M 360.24,51 360.24,193 "/></svg>