<svg xmlns="http://www.w3.org/2000/svg" width="800" height="162"><rect x="0" y="0" width="800" height="162" fill="white"></rect><path stroke="black" stroke-width="1.5" stroke-linecap="round" stroke-linejoin="round" fill="none" d="M 30,78 184.88,78 M 30,87 184.88,87 M 30,96 184.88,96 M 30,105 184.88,105 M 30,114 184.88,114 M 42.11,126.42 43.1,126.27 43.94,125.13 43.79,124.14 42.65,123.3 41.66,123.45 40.82,124.59 41.12,126.57 42.41,128.4 44.54,129.09 46.52,128.79 49.33,127.35 51.01,125.07 51.7,122.95 52.09,118.84 50.45,107.97 45.57,82.41 44.53,75.49 44.77,70.39 45.46,68.27 47.29,66.98 48.28,66.83 50.4,67.52 51.69,69.35 52.29,73.3 51.75,76.42 51.06,78.54 49.53,81.81 45.18,86.51 39.85,91.36 38.17,93.64 36.64,96.91 35.95,99.03 35.56,103.14 36.16,107.09 37.74,110.9 40.17,113.57 43.43,115.09 47.54,115.49 51.49,114.89 55.3,113.3 57.13,112.01 58.66,108.75 59.2,105.63 58.6,101.68 57.16,98.86 55.88,97.03 53.6,95.35 50.48,94.81 46.53,95.41 43.71,96.85 42.03,99.12 41.49,102.24 42.09,106.2 43.53,109.01 45.8,110.69 M 41.81,124.44 41.96,125.43 42.95,125.28 42.8,124.29 41.81,124.44 M 49.53,81.81 46.17,86.36 41.83,91.07 39.31,94.48 37.78,97.74 37.09,99.87 36.55,102.99 37.15,106.94 38.73,110.75 40.02,112.58 43.43,115.09 M 51.49,114.89 54.31,113.45 56.14,112.16 57.67,108.9 58.21,105.78 57.61,101.83 56.17,99.01 54.89,97.18 52.61,95.5 50.48,94.81 M 84,81.3 84,82.15 85,82.15 85,81.3 84,81.3 M 84,80.45 85,80.45 86,81.3 86,82.15 85,83 84,83 83,82.15 83,81.3 84,79.6 85,78.75 88,77.9 92,77.9 95,78.75 96,79.6 97,81.3 97,83 96,84.7 93,86.4 88,88.1 86,88.95 84,90.65 83,93.2 83,95.75 M 95,79.6 96,81.3 96,83 95,84.7 M 92,77.9 94,78.75 95,81.3 95,83 94,84.7 92,86.4 88,88.1 M 83,94.05 84,93.2 86,93.2 91,94.05 95,94.05 97,93.2 M 86,93.2 91,94.9 95,94.9 96,94.05 M 86,93.2 91,95.75 95,95.75 96,94.9 97,93.2 97,91.5 M 91,98.45 91,113.75 M 92,97.6 92,112.9 M 93,95.9 93,113.75 M 93,95.9 82,108.65 98,108.65 M 88,113.75 96,113.75 M 91,112.9 89,113.75 M 91,112.05 90,113.75 M 93,112.05 94,113.75 M 93,112.9 95,113.75 M 112,57.5 115,54.5 118,57.5 121,54.5 124,57.5 127,54.5 M 116,53.5 119,56.5 M 122,53.5 125,56.5 M 120,50.5 120,60.5 M 120.36,64.72 117.4,65.8 115.32,67.64 114.2,69.4 114.04,71.08 114.84,72.68 116.68,73.36 118.6,73.2 121.56,72.12 123.64,70.28 124.76,68.52 124.92,66.84 124.12,65.24 122.28,64.56 120.36,64.72 M 116.28,67.56 122.28,64.56 M 115.16,69.32 123.16,65.32 M 114.04,71.08 124.04,66.08 M 114.92,71.84 124.92,66.84 M 115.8,72.6 123.8,68.6 M 116.68,73.36 122.68,70.36 M 114,96 114,69 M 158.84,53.1 158.24,53.5 157.64,53.1 158.24,52.7 158.84,52.7 160.04,53.5 160.64,54.7 160.64,56.3 160.04,57.5 158.84,58.3 157.64,58.3 156.44,57.9 155.84,57.5 155.24,56.7 154.04,54.3 153.44,53.5 152.24,52.7 M 157.64,58.3 156.44,57.5 155.84,56.7 154.64,54.3 154.04,53.5 153.44,53.1 152.24,52.7 149.84,52.7 148.64,53.5 148.04,54.7 148.04,56.3 148.64,57.5 149.84,58.3 150.44,58.3 151.04,57.9 150.44,57.5 149.84,57.9 M 153.44,50.5 153.44,60.5 M 153.8,64.72 150.84,65.8 148.76,67.64 147.64,69.4 147.48,71.08 148.28,72.68 150.12,73.36 152.04,73.2 155,72.12 157.08,70.28 158.2,68.52 158.36,66.84 157.56,65.24 155.72,64.56 153.8,64.72 M 149.72,67.56 155.72,64.56 M 148.6,69.32 156.6,65.32 M 147.48,71.08 157.48,66.08 M 148.36,71.84 158.36,66.84 M 149.24,72.6 157.24,68.6 M 150.12,73.36 156.12,70.36 M 147.44,96 147.44,69 M 109.5,69 130.5,69 M 142.94,69 163.94,69 M 184.88,78 184.88,114 "/></svg>