<svg xmlns="http://www.w3.org/2000/svg" width="800" height="152"><rect x="0" y="0" width="800" height="152" fill="white"></rect><path stroke="black" stroke-width="1.5" stroke-linecap="round" stroke-linejoin="round" fill="none" d="M 37.36,51.72 34.4,52.8 32.32,54.64 31.2,56.4 31.04,58.08 31.84,59.68 33.68,60.36 35.6,60.2 38.56,59.12 40.64,57.28 41.76,55.52 41.92,53.84 41.12,52.24 39.28,51.56 37.36,51.72 M 33.28,54.56 39.28,51.56 M 32.16,56.32 40.16,52.32 M 31.04,58.08 41.04,53.08 M 31.92,58.84 41.92,53.84 M 32.8,59.6 40.8,55.6 M 33.68,60.36 39.68,57.36 M 42,35.52 42,56 M 50.17,47.25 60.67,47.25 M 50.17,50.75 60.67,50.75 M 69.42,42 69.42,45.5 M 69.42,44.33 70,43.17 71.17,42 72.33,42 75.25,43.75 76.42,43.75 77,43.17 77.58,42 M 70,43.17 71.17,42.58 72.33,42.58 75.25,43.75 M 77.58,42 77.58,43.75 77,45.5 74.67,48.42 74.08,49.58 73.5,51.33 73.5,54.25 M 77,45.5 74.08,48.42 73.5,49.58 72.92,51.33 72.92,54.25 M 86.92,43.75 86.33,44.33 86.92,44.92 87.5,44.33 87.5,43.75 86.92,42.58 85.75,42 84,42 82.25,42.58 81.08,43.75 80.5,44.92 79.92,47.25 79.92,50.75 80.5,52.5 81.67,53.67 83.42,54.25 84.58,54.25 86.33,53.67 87.5,52.5 88.08,50.75 88.08,50.17 87.5,48.42 86.33,47.25 84.58,46.67 84,46.67 82.25,47.25 81.08,48.42 80.5,50.17 M 84,42 82.83,42.58 81.67,43.75 81.08,44.92 80.5,47.25 80.5,50.75 81.08,52.5 82.25,53.67 83.42,54.25 M 84.58,54.25 85.75,53.67 86.92,52.5 87.5,50.75 87.5,50.17 86.92,48.42 85.75,47.25 84.58,46.67 M 107.33,42 103.25,53.67 M 106.75,43.75 110.25,54.25 M 107.33,43.75 110.83,54.25 M 107.33,42 111.42,54.25 M 104.42,50.75 109.67,50.75 M 102.08,54.25 105.58,54.25 M 108.5,54.25 112.58,54.25 M 103.25,53.67 102.67,54.25 M 103.25,53.67 104.42,54.25 M 110.25,53.67 109.08,54.25 M 110.25,53.08 109.67,54.25 M 110.83,53.08 112,54.25 M 114.92,46.08 114.92,54.25 M 115.5,46.67 115.5,53.67 M 113.17,46.08 116.08,46.08 116.08,54.25 M 116.08,48.42 116.67,47.25 117.25,46.67 118.42,46.08 120.17,46.08 121.33,46.67 121.92,47.25 122.5,49 122.5,54.25 M 121.33,47.25 121.92,49 121.92,53.67 M 120.17,46.08 120.75,46.67 121.33,48.42 121.33,54.25 M 113.17,54.25 117.83,54.25 M 119.58,54.25 124.25,54.25 M 113.75,46.08 114.92,46.67 M 114.33,46.08 114.92,47.25 M 114.92,53.67 113.75,54.25 M 114.92,53.08 114.33,54.25 M 116.08,53.08 116.67,54.25 M 116.08,53.67 117.25,54.25 M 121.33,53.67 120.17,54.25 M 121.33,53.08 120.75,54.25 M 122.5,53.08 123.08,54.25 M 122.5,53.67 123.67,54.25 M 132.42,42 132.42,54.25 135.33,54.25 M 133,42.58 133,53.67 M 130.67,42 133.58,42 133.58,54.25 M 132.42,47.83 131.83,46.67 130.67,46.08 129.5,46.08 127.75,46.67 126.58,47.83 126,49.58 126,50.75 126.58,52.5 127.75,53.67 129.5,54.25 130.67,54.25 131.83,53.67 132.42,52.5 M 127.17,47.83 126.58,49 126.58,51.33 127.17,52.5 M 129.5,46.08 128.33,46.67 127.75,47.25 127.17,49 127.17,51.33 127.75,53.08 128.33,53.67 129.5,54.25 M 131.25,42 132.42,42.58 M 131.83,42 132.42,43.17 M 133.58,53.08 134.17,54.25 M 133.58,53.67 134.75,54.25 M 138.25,47.83 138.25,47.25 138.83,47.25 138.83,48.42 137.67,48.42 137.67,47.25 138.25,46.67 139.42,46.08 141.75,46.08 142.92,46.67 143.5,47.25 144.08,48.42 144.08,52.5 144.67,53.67 145.25,54.25 M 142.92,47.25 143.5,48.42 143.5,52.5 144.08,53.67 M 141.75,46.08 142.33,46.67 142.92,47.83 142.92,52.5 143.5,53.67 145.25,54.25 145.83,54.25 M 142.92,49 142.33,49.58 139.42,50.17 137.67,50.75 137.08,51.92 137.08,52.5 137.67,53.67 139.42,54.25 141.17,54.25 142.33,53.67 142.92,52.5 M 138.25,50.75 137.67,51.92 137.67,52.5 138.25,53.67 M 142.33,49.58 140,50.17 138.83,50.75 138.25,51.92 138.25,52.5 138.83,53.67 139.42,54.25 M 148.75,46.08 148.75,54.25 M 149.33,46.67 149.33,53.67 M 147,46.08 149.92,46.08 149.92,54.25 M 149.92,48.42 150.5,47.25 151.08,46.67 152.25,46.08 154,46.08 155.17,46.67 155.75,47.25 156.33,49 156.33,54.25 M 155.17,47.25 155.75,49 155.75,53.67 M 154,46.08 154.58,46.67 155.17,48.42 155.17,54.25 M 147,54.25 151.67,54.25 M 153.42,54.25 158.08,54.25 M 147.58,46.08 148.75,46.67 M 148.17,46.08 148.75,47.25 M 148.75,53.67 147.58,54.25 M 148.75,53.08 148.17,54.25 M 149.92,53.08 150.5,54.25 M 149.92,53.67 151.08,54.25 M 155.17,53.67 154,54.25 M 155.17,53.08 154.58,54.25 M 156.33,53.08 156.92,54.25 M 156.33,53.67 157.5,54.25 M 161,43.17 161,51.33 161.58,53.08 162.17,53.67 163.33,54.25 164.5,54.25 165.67,53.67 166.25,52.5 M 161.58,43.17 161.58,51.92 162.17,53.08 M 161,43.17 162.17,42 162.17,51.92 162.75,53.67 163.33,54.25 M 159.25,46.08 164.5,46.08 M 168.58,49.58 175,49.58 175,48.42 174.42,47.25 173.83,46.67 172.08,46.08 170.92,46.08 169.17,46.67 168,47.83 167.42,49.58 167.42,50.75 168,52.5 169.17,53.67 170.92,54.25 172.08,54.25 173.83,53.67 175,52.5 M 174.42,49 174.42,48.42 173.83,47.25 M 168.58,47.83 168,49 168,51.33 168.58,52.5 M 173.83,49.58 173.83,47.83 173.25,46.67 172.08,46.08 M 170.92,46.08 169.75,46.67 169.17,47.25 168.58,49 168.58,51.33 169.17,53.08 169.75,53.67 170.92,54.25 M 178.5,53.08 177.92,53.67 178.5,54.25 179.08,53.67 178.5,53.08 M 30,68 138,68 M 30,77 138,77 M 30,86 138,86 M 30,95 138,95 M 30,104 138,104 M 42.11,116.42 43.1,116.27 43.94,115.13 43.79,114.14 42.65,113.3 41.66,113.45 40.82,114.59 41.12,116.57 42.41,118.4 44.54,119.09 46.52,118.79 49.33,117.35 51.01,115.07 51.7,112.95 52.09,108.84 50.45,97.97 45.57,72.41 44.53,65.49 44.77,60.39 45.46,58.27 47.29,56.98 48.28,56.83 50.4,57.52 51.69,59.35 52.29,63.3 51.75,66.42 51.06,68.54 49.53,71.81 45.18,76.51 39.85,81.36 38.17,83.64 36.64,86.91 35.95,89.03 35.56,93.14 36.16,97.09 37.74,100.9 40.17,103.57 43.43,105.09 47.54,105.49 51.49,104.89 55.3,103.3 57.13,102.01 58.66,98.75 59.2,95.63 58.6,91.68 57.16,88.86 55.88,87.03 53.6,85.35 50.48,84.81 46.53,85.41 43.71,86.85 42.03,89.12 41.49,92.24 42.09,96.2 43.53,99.01 45.8,100.69 M 41.81,114.44 41.96,115.43 42.95,115.28 42.8,114.29 41.81,114.44 M 49.53,71.81 46.17,76.36 41.83,81.07 39.31,84.48 37.78,87.74 37.09,89.87 36.55,92.99 37.15,96.94 38.73,100.75 40.02,102.58 43.43,105.09 M 51.49,104.89 54.31,103.45 56.14,102.16 57.67,98.9 58.21,95.78 57.61,91.83 56.17,89.01 54.89,87.18 52.61,85.5 50.48,84.81 M 91,70.45 91,85.75 M 92,69.6 92,84.9 M 93,67.9 93,85.75 M 93,67.9 82,80.65 98,80.65 M 88,85.75 96,85.75 M 91,84.9 89,85.75 M 91,84.05 90,85.75 M 93,84.05 94,85.75 M 93,84.9 95,85.75 M 91,88.45 91,103.75 M 92,87.6 92,102.9 M 93,85.9 93,103.75 M 93,85.9 82,98.65 98,98.65 M 88,103.75 96,103.75 M 91,102.9 89,103.75 M 91,102.05 90,103.75 M 93,102.05 94,103.75 M 93,102.9 95,103.75 M 108,77 132,77 M 111.5,77 111.5,80.75 M 128.5,77 128.5,80.75 M 111.5,77 128.5,77 M 111.5,78.25 128.5,78.25 M 111.5,79.5 128.5,79.5 M 111.5,80.75 128.5,80.75 M 138,68 138,104 "/></svg>