<svg xmlns="http://www.w3.org/2000/svg" width="800" height="177.66"><rect x="0" y="0" width="800" height="177.66" fill="white"></rect><path stroke="black" stroke-width="1.5" stroke-linecap="round" stroke-linejoin="round" fill="none" d="M 30,69 238.32,69 M 30,78 238.32,78 M 30,87 238.32,87 M 30,96 238.32,96 M 30,105 238.32,105 M 42.11,117.42 43.1,117.27 43.94,116.13 43.79,115.14 42.65,114.3 41.66,114.45 40.82,115.59 41.12,117.57 42.41,119.4 44.54,120.09 46.52,119.79 49.33,118.35 51.01,116.07 51.7,113.95 52.09,109.84 50.45,98.97 45.57,73.41 44.53,66.49 44.77,61.39 45.46,59.27 47.29,57.98 48.28,57.83 50.4,58.52 51.69,60.35 52.29,64.3 51.75,67.42 51.06,69.54 49.53,72.81 45.18,77.51 39.85,82.36 38.17,84.64 36.64,87.91 35.95,90.03 35.56,94.14 36.16,98.09 37.74,101.9 40.17,104.57 43.43,106.09 47.54,106.49 51.49,105.89 55.3,104.3 57.13,103.01 58.66,99.75 59.2,96.63 58.6,92.68 57.16,89.86 55.88,88.03 53.6,86.35 50.48,85.81 46.53,86.41 43.71,87.85 42.03,90.12 41.49,93.24 42.09,97.2 43.53,100.01 45.8,101.69 M 41.81,115.44 41.96,116.43 42.95,116.28 42.8,115.29 41.81,115.44 M 49.53,72.81 46.17,77.36 41.83,82.07 39.31,85.48 37.78,88.74 37.09,90.87 36.55,93.99 37.15,97.94 38.73,101.75 40.02,103.58 43.43,106.09 M 51.49,105.89 54.31,104.45 56.14,103.16 57.67,99.9 58.21,96.78 57.61,92.83 56.17,90.01 54.89,88.18 52.61,86.5 50.48,85.81 M 84,72.3 84,73.15 85,73.15 85,72.3 84,72.3 M 84,71.45 85,71.45 86,72.3 86,73.15 85,74 84,74 83,73.15 83,72.3 84,70.6 85,69.75 88,68.9 92,68.9 95,69.75 96,71.45 96,74 95,75.7 92,76.55 M 94,69.75 95,71.45 95,74 94,75.7 M 91,68.9 93,69.75 94,71.45 94,74 93,75.7 91,76.55 M 89,76.55 92,76.55 94,77.4 96,79.1 97,80.8 97,83.35 96,85.05 95,85.9 92,86.75 88,86.75 85,85.9 84,85.05 83,83.35 83,82.5 84,81.65 85,81.65 86,82.5 86,83.35 85,84.2 84,84.2 M 95,79.1 96,80.8 96,83.35 95,85.05 M 91,76.55 93,77.4 94,78.25 95,80.8 95,83.35 94,85.9 92,86.75 M 84,82.5 84,83.35 85,83.35 85,82.5 84,82.5 M 91,89.45 91,104.75 M 92,88.6 92,103.9 M 93,86.9 93,104.75 M 93,86.9 82,99.65 98,99.65 M 88,104.75 96,104.75 M 91,103.9 89,104.75 M 91,103.05 90,104.75 M 93,103.05 94,104.75 M 93,103.9 95,104.75 M 121.36,87.22 118.4,88.3 116.32,90.14 115.2,91.9 115.04,93.58 115.84,95.18 117.68,95.86 119.6,95.7 122.56,94.62 124.64,92.78 125.76,91.02 125.92,89.34 125.12,87.74 123.28,87.06 121.36,87.22 M 117.28,90.06 123.28,87.06 M 116.16,91.82 124.16,87.82 M 115.04,93.58 125.04,88.58 M 115.92,94.34 125.92,89.34 M 116.8,95.1 124.8,91.1 M 117.68,95.86 123.68,92.86 M 126,64.5 126,91.5 M 154.8,78.22 151.84,79.3 149.76,81.14 148.64,82.9 148.48,84.58 149.28,86.18 151.12,86.86 153.04,86.7 156,85.62 158.08,83.78 159.2,82.02 159.36,80.34 158.56,78.74 156.72,78.06 154.8,78.22 M 150.72,81.06 156.72,78.06 M 149.6,82.82 157.6,78.82 M 148.48,84.58 158.48,79.58 M 149.36,85.34 159.36,80.34 M 150.24,86.1 158.24,82.1 M 151.12,86.86 157.12,83.86 M 159.44,55.5 159.44,82.5 M 188.24,69.22 185.28,70.3 183.2,72.14 182.08,73.9 181.92,75.58 182.72,77.18 184.56,77.86 186.48,77.7 189.44,76.62 191.52,74.78 192.64,73.02 192.8,71.34 192,69.74 190.16,69.06 188.24,69.22 M 184.16,72.06 190.16,69.06 M 183.04,73.82 191.04,69.82 M 181.92,75.58 191.92,70.58 M 182.8,76.34 192.8,71.34 M 183.68,77.1 191.68,73.1 M 184.56,77.86 190.56,74.86 M 192.88,46.5 192.88,73.5 M 120.47,109.36 117.22,110.44 114.74,112.4 113.87,114.28 113.81,116.12 114.55,117.92 116.12,118.76 118.53,118.64 121.78,117.56 124.26,115.6 125.13,113.72 125.19,111.88 124.45,110.08 122.88,109.24 120.47,109.36 M 120.8,110.17 117.63,111.43 115.11,113.3 114.13,114.91 113.92,116.39 114.47,117.74 115.9,118.22 118.2,117.83 121.37,116.57 123.89,114.7 124.87,113.09 125.08,111.61 124.53,110.26 123.1,109.78 120.8,110.17 M 114,141 114,114 M 187.24,91.72 184.28,92.8 182.2,94.64 181.08,96.4 180.92,98.08 181.72,99.68 183.56,100.36 185.48,100.2 188.44,99.12 190.52,97.28 191.64,95.52 191.8,93.84 191,92.24 189.16,91.56 187.24,91.72 M 183.16,94.56 189.16,91.56 M 182.04,96.32 190.04,92.32 M 180.92,98.08 190.92,93.08 M 181.8,98.84 191.8,93.84 M 182.68,99.6 190.68,95.6 M 183.56,100.36 189.56,97.36 M 213.96,109.72 211,110.8 208.92,112.64 207.8,114.4 207.64,116.08 208.44,117.68 210.28,118.36 212.2,118.2 215.16,117.12 217.24,115.28 218.36,113.52 218.52,111.84 217.72,110.24 215.88,109.56 213.96,109.72 M 209.88,112.56 215.88,109.56 M 208.76,114.32 216.76,110.32 M 207.64,116.08 217.64,111.08 M 208.52,116.84 218.52,111.84 M 209.4,117.6 217.4,113.6 M 210.28,118.36 216.28,115.36 M 180.88,132.17 207.6,142.86 M 180.88,131.08 207.6,141.77 M 180.88,129.99 207.6,140.68 M 180.88,128.9 207.6,139.59 M 180.88,132.47 180.88,96 M 207.6,143.16 207.6,114 M 109.5,114 130.5,114 M 203.1,114 224.1,114 M 238.32,69 238.32,105 "/></svg>