<svg xmlns="http://www.w3.org/2000/svg" width="800" height="157"><rect x="0" y="0" width="800" height="157" fill="white"></rect><path stroke="black" stroke-width="1.5" stroke-linecap="round" stroke-linejoin="round" fill="none" d="M 30,46.5 307.76,46.5 M 30,55.5 307.76,55.5 M 30,64.5 307.76,64.5 M 30,73.5 307.76,73.5 M 30,82.5 307.76,82.5 M 42.11,94.92 43.1,94.77 43.94,93.63 43.79,92.64 42.65,91.8 41.66,91.95 40.82,93.09 41.12,95.07 42.41,96.9 44.54,97.59 46.52,97.29 49.33,95.85 51.01,93.57 51.7,91.45 52.09,87.34 50.45,76.47 45.57,50.91 44.53,43.99 44.77,38.89 45.46,36.77 47.29,35.48 48.28,35.33 50.4,36.02 51.69,37.85 52.29,41.8 51.75,44.92 51.06,47.04 49.53,50.31 45.18,55.01 39.85,59.86 38.17,62.14 36.64,65.41 35.95,67.53 35.56,71.64 36.16,75.59 37.74,79.4 40.17,82.07 43.43,83.59 47.54,83.99 51.49,83.39 55.3,81.8 57.13,80.51 58.66,77.25 59.2,74.13 58.6,70.18 57.16,67.36 55.88,65.53 53.6,63.85 50.48,63.31 46.53,63.91 43.71,65.35 42.03,67.62 41.49,70.74 42.09,74.7 43.53,77.51 45.8,79.19 M 41.81,92.94 41.96,93.93 42.95,93.78 42.8,92.79 41.81,92.94 M 49.53,50.31 46.17,54.86 41.83,59.57 39.31,62.98 37.78,66.24 37.09,68.37 36.55,71.49 37.15,75.44 38.73,79.25 40.02,81.08 43.43,83.59 M 51.49,83.39 54.31,81.95 56.14,80.66 57.67,77.4 58.21,74.28 57.61,70.33 56.17,67.51 54.89,65.68 52.61,64 50.48,63.31 M 91,48.95 91,64.25 M 92,48.1 92,63.4 M 93,46.4 93,64.25 M 93,46.4 82,59.15 98,59.15 M 88,64.25 96,64.25 M 91,63.4 89,64.25 M 91,62.55 90,64.25 M 93,62.55 94,64.25 M 93,63.4 95,64.25 M 91,66.95 91,82.25 M 92,66.1 92,81.4 M 93,64.4 93,82.25 M 93,64.4 82,77.15 98,77.15 M 88,82.25 96,82.25 M 91,81.4 89,82.25 M 91,80.55 90,82.25 M 93,80.55 94,82.25 M 93,81.4 95,82.25 M 121.36,96.22 118.4,97.3 116.32,99.14 115.2,100.9 115.04,102.58 115.84,104.18 117.68,104.86 119.6,104.7 122.56,103.62 124.64,101.78 125.76,100.02 125.92,98.34 125.12,96.74 123.28,96.06 121.36,96.22 M 117.28,99.06 123.28,96.06 M 116.16,100.82 124.16,96.82 M 115.04,102.58 125.04,97.58 M 115.92,103.34 125.92,98.34 M 116.8,104.1 124.8,100.1 M 117.68,104.86 123.68,101.86 M 126,73.5 126,100.5 M 154.8,87.22 151.84,88.3 149.76,90.14 148.64,91.9 148.48,93.58 149.28,95.18 151.12,95.86 153.04,95.7 156,94.62 158.08,92.78 159.2,91.02 159.36,89.34 158.56,87.74 156.72,87.06 154.8,87.22 M 150.72,90.06 156.72,87.06 M 149.6,91.82 157.6,87.82 M 148.48,93.58 158.48,88.58 M 149.36,94.34 159.36,89.34 M 150.24,95.1 158.24,91.1 M 151.12,95.86 157.12,92.86 M 159.44,64.5 159.44,91.5 M 188.24,78.22 185.28,79.3 183.2,81.14 182.08,82.9 181.92,84.58 182.72,86.18 184.56,86.86 186.48,86.7 189.44,85.62 191.52,83.78 192.64,82.02 192.8,80.34 192,78.74 190.16,78.06 188.24,78.22 M 184.16,81.06 190.16,78.06 M 183.04,82.82 191.04,78.82 M 181.92,84.58 191.92,79.58 M 182.8,85.34 192.8,80.34 M 183.68,86.1 191.68,82.1 M 184.56,86.86 190.56,83.86 M 192.88,55.5 192.88,82.5 M 221.68,73.72 218.72,74.8 216.64,76.64 215.52,78.4 215.36,80.08 216.16,81.68 218,82.36 219.92,82.2 222.88,81.12 224.96,79.28 226.08,77.52 226.24,75.84 225.44,74.24 223.6,73.56 221.68,73.72 M 217.6,76.56 223.6,73.56 M 216.48,78.32 224.48,74.32 M 215.36,80.08 225.36,75.08 M 216.24,80.84 226.24,75.84 M 217.12,81.6 225.12,77.6 M 218,82.36 224,79.36 M 226.32,51 226.32,78 M 109.5,91.5 130.5,91.5 M 109.5,100.5 130.5,100.5 M 142.94,91.5 163.94,91.5 M 251.76,46.5 251.76,82.5 M 291.23,68.86 287.98,69.94 285.5,71.9 284.63,73.78 284.57,75.62 285.31,77.42 286.88,78.26 289.29,78.14 292.54,77.06 295.02,75.1 295.89,73.22 295.95,71.38 295.21,69.58 293.64,68.74 291.23,68.86 M 291.56,69.67 288.39,70.93 285.87,72.8 284.89,74.41 284.68,75.89 285.23,77.24 286.66,77.72 288.96,77.33 292.13,76.07 294.65,74.2 295.63,72.59 295.84,71.11 295.29,69.76 293.86,69.28 291.56,69.67 M 295.76,46.5 295.76,73.5 M 257.76,64.5 281.76,64.5 M 264.76,60.5 264.76,64.25 M 274.76,60.5 274.76,64.25 M 264.76,60.5 274.76,60.5 M 264.76,61.75 274.76,61.75 M 264.76,63 274.76,63 M 264.76,64.25 274.76,64.25 M 307.76,46.5 307.76,82.5 M 123,116 183.88,105 M 123,116 183.88,127 M 223.32,105 286.76,116 M 223.32,127 286.76,116 "/></svg>