<svg xmlns="http://www.w3.org/2000/svg" width="800" height="232"><rect x="0" y="0" width="800" height="232" fill="white"></rect><path stroke="black" stroke-width="1.5" stroke-linecap="round" stroke-linejoin="round" fill="none" d="M 35.33,52 40,66 M 36,52 40,64 M 44.67,52 40,66 M 34,52 38,52 M 42,52 46,52 M 51.33,56.67 49.33,57.33 48,58.67 47.33,60.67 47.33,62 48,64 49.33,65.33 51.33,66 52.67,66 54.67,65.33 56,64 56.67,62 56.67,60.67 56,58.67 54.67,57.33 52.67,56.67 51.33,56.67 M 51.33,56.67 50,57.33 48.67,58.67 48,60.67 48,62 48.67,64 50,65.33 51.33,66 M 52.67,66 54,65.33 55.33,64 56,62 56,60.67 55.33,58.67 54,57.33 52.67,56.67 M 67.33,58.67 66.67,59.33 67.33,60 68,59.33 68,58.67 66.67,57.33 65.33,56.67 63.33,56.67 61.33,57.33 60,58.67 59.33,60.67 59.33,62 60,64 61.33,65.33 63.33,66 64.67,66 66.67,65.33 68,64 M 63.33,56.67 62,57.33 60.67,58.67 60,60.67 60,62 60.67,64 62,65.33 63.33,66 M 72,58 72,58.67 71.33,58.67 71.33,58 72,57.33 73.33,56.67 76,56.67 77.33,57.33 78,58 78.67,59.33 78.67,64 79.33,65.33 80,66 M 78,58 78,64 78.67,65.33 80,66 80.67,66 M 78,59.33 77.33,60 73.33,60.67 71.33,61.33 70.67,62.67 70.67,64 71.33,65.33 73.33,66 75.33,66 76.67,65.33 78,64 M 73.33,60.67 72,61.33 71.33,62.67 71.33,64 72,65.33 73.33,66 M 84,52 84,66 M 84.67,52 84.67,66 M 82,52 84.67,52 M 82,66 86.67,66 M 33.33,158 33.33,172 M 34,158 34,172 M 31.33,158 39.33,158 41.33,158.67 42,159.33 42.67,160.67 42.67,162.67 42,164 41.33,164.67 39.33,165.33 34,165.33 M 39.33,158 40.67,158.67 41.33,159.33 42,160.67 42,162.67 41.33,164 40.67,164.67 39.33,165.33 M 31.33,172 36,172 M 46.67,158 46,158.67 46.67,159.33 47.33,158.67 46.67,158 M 46.67,162.67 46.67,172 M 47.33,162.67 47.33,172 M 44.67,162.67 47.33,162.67 M 44.67,172 49.33,172 M 52.67,164 52.67,164.67 52,164.67 52,164 52.67,163.33 54,162.67 56.67,162.67 58,163.33 58.67,164 59.33,165.33 59.33,170 60,171.33 60.67,172 M 58.67,164 58.67,170 59.33,171.33 60.67,172 61.33,172 M 58.67,165.33 58,166 54,166.67 52,167.33 51.33,168.67 51.33,170 52,171.33 54,172 56,172 57.33,171.33 58.67,170 M 54,166.67 52.67,167.33 52,168.67 52,170 52.67,171.33 54,172 M 64.67,162.67 64.67,172 M 65.33,162.67 65.33,172 M 65.33,164.67 66.67,163.33 68.67,162.67 70,162.67 72,163.33 72.67,164.67 72.67,172 M 70,162.67 71.33,163.33 72,164.67 72,172 M 62.67,162.67 65.33,162.67 M 62.67,172 67.33,172 M 70,172 74.67,172 M 80.67,162.67 78.67,163.33 77.33,164.67 76.67,166.67 76.67,168 77.33,170 78.67,171.33 80.67,172 82,172 84,171.33 85.33,170 86,168 86,166.67 85.33,164.67 84,163.33 82,162.67 80.67,162.67 M 80.67,162.67 79.33,163.33 78,164.67 77.33,166.67 77.33,168 78,170 79.33,171.33 80.67,172 M 82,172 83.33,171.33 84.67,170 85.33,168 85.33,166.67 84.67,164.67 83.33,163.33 82,162.67 M 108,42 108,184 M 108,42 252,42 M 108,51 252,51 M 108,60 252,60 M 108,69 252,69 M 108,78 252,78 M 108,148 252,148 M 108,157 252,157 M 108,166 252,166 M 108,175 252,175 M 108,184 252,184 M 120.11,90.42 121.1,90.27 121.94,89.13 121.79,88.14 120.65,87.3 119.66,87.45 118.82,88.59 119.12,90.57 120.41,92.4 122.54,93.09 124.52,92.79 127.33,91.35 129.01,89.07 129.7,86.95 130.09,82.84 128.45,71.97 123.57,46.41 122.53,39.49 122.77,34.39 123.46,32.27 125.29,30.98 126.28,30.83 128.4,31.52 129.69,33.35 130.29,37.3 129.75,40.42 129.06,42.54 127.53,45.81 123.18,50.51 117.85,55.36 116.17,57.64 114.64,60.91 113.95,63.03 113.56,67.14 114.16,71.09 115.74,74.9 118.17,77.57 121.43,79.09 125.54,79.49 129.49,78.89 133.3,77.3 135.13,76.01 136.66,72.75 137.2,69.63 136.6,65.68 135.16,62.86 133.88,61.03 131.6,59.35 128.48,58.81 124.53,59.41 121.71,60.85 120.03,63.12 119.49,66.24 120.09,70.2 121.53,73.01 123.8,74.69 M 119.81,88.44 119.96,89.43 120.95,89.28 120.8,88.29 119.81,88.44 M 127.53,45.81 124.17,50.36 119.83,55.07 117.31,58.48 115.78,61.74 115.09,63.87 114.55,66.99 115.15,70.94 116.73,74.75 118.02,76.58 121.43,79.09 M 129.49,78.89 132.31,77.45 134.14,76.16 135.67,72.9 136.21,69.78 135.61,65.83 134.17,63.01 132.89,61.18 130.61,59.5 128.48,58.81 M 169,44.45 169,59.75 M 170,43.6 170,58.9 M 171,41.9 171,59.75 M 171,41.9 160,54.65 176,54.65 M 166,59.75 174,59.75 M 169,58.9 167,59.75 M 169,58.05 168,59.75 M 171,58.05 172,59.75 M 171,58.9 173,59.75 M 169,62.45 169,77.75 M 170,61.6 170,76.9 M 171,59.9 171,77.75 M 171,59.9 160,72.65 176,72.65 M 166,77.75 174,77.75 M 169,76.9 167,77.75 M 169,76.05 168,77.75 M 171,76.05 172,77.75 M 171,76.9 173,77.75 M 196,82 193,83 192,84 191,86 191,88 192,90 193,91 196,92 200,92 203,91 204,90 205,88 205,86 204,84 203,83 200,82 196,82 M 193,83 192,85 192,88 193,90 194,91 196,92 M 203,91 204,89 204,86 203,84 202,83 200,82 M 187.5,87 208.5,87 M 120.11,196.42 121.1,196.27 121.94,195.13 121.79,194.14 120.65,193.3 119.66,193.45 118.82,194.59 119.12,196.57 120.41,198.4 122.54,199.09 124.52,198.79 127.33,197.35 129.01,195.07 129.7,192.95 130.09,188.84 128.45,177.97 123.57,152.41 122.53,145.49 122.77,140.39 123.46,138.27 125.29,136.98 126.28,136.83 128.4,137.52 129.69,139.35 130.29,143.3 129.75,146.42 129.06,148.54 127.53,151.81 123.18,156.51 117.85,161.36 116.17,163.64 114.64,166.91 113.95,169.03 113.56,173.14 114.16,177.09 115.74,180.9 118.17,183.57 121.43,185.09 125.54,185.49 129.49,184.89 133.3,183.3 135.13,182.01 136.66,178.75 137.2,175.63 136.6,171.68 135.16,168.86 133.88,167.03 131.6,165.35 128.48,164.81 124.53,165.41 121.71,166.85 120.03,169.12 119.49,172.24 120.09,176.2 121.53,179.01 123.8,180.69 M 119.81,194.44 119.96,195.43 120.95,195.28 120.8,194.29 119.81,194.44 M 127.53,151.81 124.17,156.36 119.83,161.07 117.31,164.48 115.78,167.74 115.09,169.87 114.55,172.99 115.15,176.94 116.73,180.75 118.02,182.58 121.43,185.09 M 129.49,184.89 132.31,183.45 134.14,182.16 135.67,178.9 136.21,175.78 135.61,171.83 134.17,169.01 132.89,167.18 130.61,165.5 128.48,164.81 M 169,150.45 169,165.75 M 170,149.6 170,164.9 M 171,147.9 171,165.75 M 171,147.9 160,160.65 176,160.65 M 166,165.75 174,165.75 M 169,164.9 167,165.75 M 169,164.05 168,165.75 M 171,164.05 172,165.75 M 171,164.9 173,165.75 M 169,168.45 169,183.75 M 170,167.6 170,182.9 M 171,165.9 171,183.75 M 171,165.9 160,178.65 176,178.65 M 166,183.75 174,183.75 M 169,182.9 167,183.75 M 169,182.05 168,183.75 M 171,182.05 172,183.75 M 171,182.9 173,183.75 M 196,179 193,180 192,181 191,183 191,185 192,187 193,188 196,189 200,189 203,188 204,187 205,185 205,183 204,181 203,180 200,179 196,179 M 193,180 192,182 192,185 193,187 194,188 196,189 M 203,188 204,186 204,183 203,181 202,180 200,179 M 216,42 216,148 M 216,148 216,184 M 232,82 229,83 228,84 227,86 227,88 228,90 229,91 232,92 236,92 239,91 240,90 241,88 241,86 240,84 239,83 236,82 232,82 M 229,83 228,85 228,88 229,90 230,91 232,92 M 239,91 240,89 240,86 239,84 238,83 236,82 M 223.5,87 244.5,87 M 232,179 229,180 228,181 227,183 227,185 228,187 229,188 232,189 236,189 239,188 240,187 241,185 241,183 240,181 239,180 236,179 232,179 M 229,180 228,182 228,185 229,187 230,188 232,189 M 239,188 240,186 240,183 239,181 238,180 236,179 M 252,42 252,148 M 252,148 252,184 "/></svg>