<svg xmlns="http://www.w3.org/2000/svg" width="800" height="245.5"><rect x="0" y="0" width="800" height="245.5" fill="white"></rect><path stroke="black" stroke-width="1.5" stroke-linecap="round" stroke-linejoin="round" fill="none" d="M 30,42 30,184 M 30,42 218.32,42 M 30,51 218.32,51 M 30,60 218.32,60 M 30,69 218.32,69 M 30,78 218.32,78 M 30,148 218.32,148 M 30,157 218.32,157 M 30,166 218.32,166 M 30,175 218.32,175 M 30,184 218.32,184 M 42.11,90.42 43.1,90.27 43.94,89.13 43.79,88.14 42.65,87.3 41.66,87.45 40.82,88.59 41.12,90.57 42.41,92.4 44.54,93.09 46.52,92.79 49.33,91.35 51.01,89.07 51.7,86.95 52.09,82.84 50.45,71.97 45.57,46.41 44.53,39.49 44.77,34.39 45.46,32.27 47.29,30.98 48.28,30.83 50.4,31.52 51.69,33.35 52.29,37.3 51.75,40.42 51.06,42.54 49.53,45.81 45.18,50.51 39.85,55.36 38.17,57.64 36.64,60.91 35.95,63.03 35.56,67.14 36.16,71.09 37.74,74.9 40.17,77.57 43.43,79.09 47.54,79.49 51.49,78.89 55.3,77.3 57.13,76.01 58.66,72.75 59.2,69.63 58.6,65.68 57.16,62.86 55.88,61.03 53.6,59.35 50.48,58.81 46.53,59.41 43.71,60.85 42.03,63.12 41.49,66.24 42.09,70.2 43.53,73.01 45.8,74.69 M 41.81,88.44 41.96,89.43 42.95,89.28 42.8,88.29 41.81,88.44 M 49.53,45.81 46.17,50.36 41.83,55.07 39.31,58.48 37.78,61.74 37.09,63.87 36.55,66.99 37.15,70.94 38.73,74.75 40.02,76.58 43.43,79.09 M 51.49,78.89 54.31,77.45 56.14,76.16 57.67,72.9 58.21,69.78 57.61,65.83 56.17,63.01 54.89,61.18 52.61,59.5 50.48,58.81 M 84,45.3 84,46.15 85,46.15 85,45.3 84,45.3 M 84,44.45 85,44.45 86,45.3 86,46.15 85,47 84,47 83,46.15 83,45.3 84,43.6 85,42.75 88,41.9 92,41.9 95,42.75 96,44.45 96,47 95,48.7 92,49.55 M 94,42.75 95,44.45 95,47 94,48.7 M 91,41.9 93,42.75 94,44.45 94,47 93,48.7 91,49.55 M 89,49.55 92,49.55 94,50.4 96,52.1 97,53.8 97,56.35 96,58.05 95,58.9 92,59.75 88,59.75 85,58.9 84,58.05 83,56.35 83,55.5 84,54.65 85,54.65 86,55.5 86,56.35 85,57.2 84,57.2 M 95,52.1 96,53.8 96,56.35 95,58.05 M 91,49.55 93,50.4 94,51.25 95,53.8 95,56.35 94,58.9 92,59.75 M 84,55.5 84,56.35 85,56.35 85,55.5 84,55.5 M 91,62.45 91,77.75 M 92,61.6 92,76.9 M 93,59.9 93,77.75 M 93,59.9 82,72.65 98,72.65 M 88,77.75 96,77.75 M 91,76.9 89,77.75 M 91,76.05 90,77.75 M 93,76.05 94,77.75 M 93,76.9 95,77.75 M 121.36,87.22 118.4,88.3 116.32,90.14 115.2,91.9 115.04,93.58 115.84,95.18 117.68,95.86 119.6,95.7 122.56,94.62 124.64,92.78 125.76,91.02 125.92,89.34 125.12,87.74 123.28,87.06 121.36,87.22 M 117.28,90.06 123.28,87.06 M 116.16,91.82 124.16,87.82 M 115.04,93.58 125.04,88.58 M 115.92,94.34 125.92,89.34 M 116.8,95.1 124.8,91.1 M 117.68,95.86 123.68,92.86 M 126,64.5 126,91.5 M 154.8,82.72 151.84,83.8 149.76,85.64 148.64,87.4 148.48,89.08 149.28,90.68 151.12,91.36 153.04,91.2 156,90.12 158.08,88.28 159.2,86.52 159.36,84.84 158.56,83.24 156.72,82.56 154.8,82.72 M 150.72,85.56 156.72,82.56 M 149.6,87.32 157.6,83.32 M 148.48,89.08 158.48,84.08 M 149.36,89.84 159.36,84.84 M 150.24,90.6 158.24,86.6 M 151.12,91.36 157.12,88.36 M 159.44,60 159.44,87 M 188.24,78.22 185.28,79.3 183.2,81.14 182.08,82.9 181.92,84.58 182.72,86.18 184.56,86.86 186.48,86.7 189.44,85.62 191.52,83.78 192.64,82.02 192.8,80.34 192,78.74 190.16,78.06 188.24,78.22 M 184.16,81.06 190.16,78.06 M 183.04,82.82 191.04,78.82 M 181.92,84.58 191.92,79.58 M 182.8,85.34 192.8,80.34 M 183.68,86.1 191.68,82.1 M 184.56,86.86 190.56,83.86 M 192.88,55.5 192.88,82.5 M 109.5,87 130.5,87 M 142.94,87 163.94,87 M 42.11,196.42 43.1,196.27 43.94,195.13 43.79,194.14 42.65,193.3 41.66,193.45 40.82,194.59 41.12,196.57 42.41,198.4 44.54,199.09 46.52,198.79 49.33,197.35 51.01,195.07 51.7,192.95 52.09,188.84 50.45,177.97 45.57,152.41 44.53,145.49 44.77,140.39 45.46,138.27 47.29,136.98 48.28,136.83 50.4,137.52 51.69,139.35 52.29,143.3 51.75,146.42 51.06,148.54 49.53,151.81 45.18,156.51 39.85,161.36 38.17,163.64 36.64,166.91 35.95,169.03 35.56,173.14 36.16,177.09 37.74,180.9 40.17,183.57 43.43,185.09 47.54,185.49 51.49,184.89 55.3,183.3 57.13,182.01 58.66,178.75 59.2,175.63 58.6,171.68 57.16,168.86 55.88,167.03 53.6,165.35 50.48,164.81 46.53,165.41 43.71,166.85 42.03,169.12 41.49,172.24 42.09,176.2 43.53,179.01 45.8,180.69 M 41.81,194.44 41.96,195.43 42.95,195.28 42.8,194.29 41.81,194.44 M 49.53,151.81 46.17,156.36 41.83,161.07 39.31,164.48 37.78,167.74 37.09,169.87 36.55,172.99 37.15,176.94 38.73,180.75 40.02,182.58 43.43,185.09 M 51.49,184.89 54.31,183.45 56.14,182.16 57.67,178.9 58.21,175.78 57.61,171.83 56.17,169.01 54.89,167.18 52.61,165.5 50.48,164.81 M 84,151.3 84,152.15 85,152.15 85,151.3 84,151.3 M 84,150.45 85,150.45 86,151.3 86,152.15 85,153 84,153 83,152.15 83,151.3 84,149.6 85,148.75 88,147.9 92,147.9 95,148.75 96,150.45 96,153 95,154.7 92,155.55 M 94,148.75 95,150.45 95,153 94,154.7 M 91,147.9 93,148.75 94,150.45 94,153 93,154.7 91,155.55 M 89,155.55 92,155.55 94,156.4 96,158.1 97,159.8 97,162.35 96,164.05 95,164.9 92,165.75 88,165.75 85,164.9 84,164.05 83,162.35 83,161.5 84,160.65 85,160.65 86,161.5 86,162.35 85,163.2 84,163.2 M 95,158.1 96,159.8 96,162.35 95,164.05 M 91,155.55 93,156.4 94,157.25 95,159.8 95,162.35 94,164.9 92,165.75 M 84,161.5 84,162.35 85,162.35 85,161.5 84,161.5 M 91,168.45 91,183.75 M 92,167.6 92,182.9 M 93,165.9 93,183.75 M 93,165.9 82,178.65 98,178.65 M 88,183.75 96,183.75 M 91,182.9 89,183.75 M 91,182.05 90,183.75 M 93,182.05 94,183.75 M 93,182.9 95,183.75 M 121.47,197.36 118.22,198.44 115.74,200.4 114.87,202.28 114.81,204.12 115.55,205.92 117.12,206.76 119.53,206.64 122.78,205.56 125.26,203.6 126.13,201.72 126.19,199.88 125.45,198.08 123.88,197.24 121.47,197.36 M 121.8,198.17 118.63,199.43 116.11,201.3 115.13,202.91 114.92,204.39 115.47,205.74 116.9,206.22 119.2,205.83 122.37,204.57 124.89,202.7 125.87,201.09 126.08,199.61 125.53,198.26 124.1,197.78 121.8,198.17 M 126,175 126,202 M 188.24,197.72 185.28,198.8 183.2,200.64 182.08,202.4 181.92,204.08 182.72,205.68 184.56,206.36 186.48,206.2 189.44,205.12 191.52,203.28 192.64,201.52 192.8,199.84 192,198.24 190.16,197.56 188.24,197.72 M 184.16,200.56 190.16,197.56 M 183.04,202.32 191.04,198.32 M 181.92,204.08 191.92,199.08 M 182.8,204.84 192.8,199.84 M 183.68,205.6 191.68,201.6 M 184.56,206.36 190.56,203.36 M 192.88,175 192.88,202 M 109.5,193 130.5,193 M 109.5,202 130.5,202 M 176.38,193 197.38,193 M 176.38,202 197.38,202 M 218.32,42 218.32,184 M 122,98.5 124.38,100.99 127.11,103.08 130.15,104.8 133.45,106.14 136.98,107.13 140.68,107.77 144.52,108.07 148.44,108.05 152.41,107.71 156.38,107.08 160.3,106.14 164.14,104.93 167.85,103.45 171.38,101.71 174.7,99.72 177.75,97.49 180.49,95.04 182.88,92.37 184.88,89.5 M 180.49,94.76 177.75,97.09 174.7,99.22 171.38,101.13 167.85,102.8 164.14,104.23 160.3,105.41 156.38,106.33 152.41,106.97 148.44,107.32 144.52,107.37 140.68,107.12 136.98,106.55 133.45,105.64 130.15,104.4 127.11,102.8 M 123,209 125.12,210.21 127.6,211.29 130.4,212.23 133.47,213.04 136.78,213.71 140.29,214.25 143.94,214.65 147.7,214.92 151.52,215.06 155.36,215.06 159.18,214.92 162.94,214.65 166.59,214.25 170.1,213.71 173.41,213.04 176.48,212.23 179.28,211.29 181.76,210.21 183.88,209 M 179.28,211.01 176.48,211.83 173.41,212.54 170.1,213.13 166.59,213.6 162.94,213.96 159.18,214.19 155.36,214.31 151.52,214.31 147.7,214.19 143.94,213.96 140.29,213.6 136.78,213.13 133.47,212.54 130.4,211.83 127.6,211.01 "/></svg>