<svg xmlns="http://www.w3.org/2000/svg" width="800" height="135"><rect x="0" y="0" width="800" height="135" fill="white"></rect><path stroke="black" stroke-width="1.5" stroke-linecap="round" stroke-linejoin="round" fill="none" d="M 30,51 191.44,51 M 30,60 191.44,60 M 30,69 191.44,69 M 30,78 191.44,78 M 30,87 191.44,87 M 42.11,99.42 43.1,99.27 43.94,98.13 43.79,97.14 42.65,96.3 41.66,96.45 40.82,97.59 41.12,99.57 42.41,101.4 44.54,102.09 46.52,101.79 49.33,100.35 51.01,98.07 51.7,95.95 52.09,91.84 50.45,80.97 45.57,55.41 44.53,48.49 44.77,43.39 45.46,41.27 47.29,39.98 48.28,39.83 50.4,40.52 51.69,42.35 52.29,46.3 51.75,49.42 51.06,51.54 49.53,54.81 45.18,59.51 39.85,64.36 38.17,66.64 36.64,69.91 35.95,72.03 35.56,76.14 36.16,80.09 37.74,83.9 40.17,86.57 43.43,88.09 47.54,88.49 51.49,87.89 55.3,86.3 57.13,85.01 58.66,81.75 59.2,78.63 58.6,74.68 57.16,71.86 55.88,70.03 53.6,68.35 50.48,67.81 46.53,68.41 43.71,69.85 42.03,72.12 41.49,75.24 42.09,79.2 43.53,82.01 45.8,83.69 M 41.81,97.44 41.96,98.43 42.95,98.28 42.8,97.29 41.81,97.44 M 49.53,54.81 46.17,59.36 41.83,64.07 39.31,67.48 37.78,70.74 37.09,72.87 36.55,75.99 37.15,79.94 38.73,83.75 40.02,85.58 43.43,88.09 M 51.49,87.89 54.31,86.45 56.14,85.16 57.67,81.9 58.21,78.78 57.61,74.83 56.17,72.01 54.89,70.18 52.61,68.5 50.48,67.81 M 91,53.45 91,68.75 M 92,52.6 92,67.9 M 93,50.9 93,68.75 M 93,50.9 82,63.65 98,63.65 M 88,68.75 96,68.75 M 91,67.9 89,68.75 M 91,67.05 90,68.75 M 93,67.05 94,68.75 M 93,67.9 95,68.75 M 91,71.45 91,86.75 M 92,70.6 92,85.9 M 93,68.9 93,86.75 M 93,68.9 82,81.65 98,81.65 M 88,86.75 96,86.75 M 91,85.9 89,86.75 M 91,85.05 90,86.75 M 93,85.05 94,86.75 M 93,85.9 95,86.75 M 121.36,87.22 118.4,88.3 116.32,90.14 115.2,91.9 115.04,93.58 115.84,95.18 117.68,95.86 119.6,95.7 122.56,94.62 124.64,92.78 125.76,91.02 125.92,89.34 125.12,87.74 123.28,87.06 121.36,87.22 M 117.28,90.06 123.28,87.06 M 116.16,91.82 124.16,87.82 M 115.04,93.58 125.04,88.58 M 115.92,94.34 125.92,89.34 M 116.8,95.1 124.8,91.1 M 117.68,95.86 123.68,92.86 M 126,82.5 126,91.5 M 121.36,78.22 118.4,79.3 116.32,81.14 115.2,82.9 115.04,84.58 115.84,86.18 117.68,86.86 119.6,86.7 122.56,85.62 124.64,83.78 125.76,82.02 125.92,80.34 125.12,78.74 123.28,78.06 121.36,78.22 M 117.28,81.06 123.28,78.06 M 116.16,82.82 124.16,78.82 M 115.04,84.58 125.04,79.58 M 115.92,85.34 125.92,80.34 M 116.8,86.1 124.8,82.1 M 117.68,86.86 123.68,83.86 M 126,73.5 126,82.5 M 121.36,69.22 118.4,70.3 116.32,72.14 115.2,73.9 115.04,75.58 115.84,77.18 117.68,77.86 119.6,77.7 122.56,76.62 124.64,74.78 125.76,73.02 125.92,71.34 125.12,69.74 123.28,69.06 121.36,69.22 M 117.28,72.06 123.28,69.06 M 116.16,73.82 124.16,69.82 M 115.04,75.58 125.04,70.58 M 115.92,76.34 125.92,71.34 M 116.8,77.1 124.8,73.1 M 117.68,77.86 123.68,74.86 M 126,46.5 126,73.5 M 150.95,54.17 156.92,63.63 153.64,70.99 153.74,71.99 M 155.83,62.73 152.54,70.09 M 154.53,59.85 154.73,61.84 151.45,69.2 153.74,71.99 157.12,75.67 M 159.41,78.45 157.12,75.67 155.03,74.87 153.04,75.07 151.15,76.26 150.36,78.35 150.56,80.34 151.75,82.23 154.94,83.93 M 159.41,78.45 157.22,76.66 155.13,75.87 151.15,76.26 151.55,80.24 152.75,82.13 154.94,83.93 M 155.03,74.87 152.25,77.16 150.56,80.34 M 161.44,69 185.44,69 M 168.44,65 168.44,68.75 M 178.44,65 178.44,68.75 M 168.44,65 178.44,65 M 168.44,66.25 178.44,66.25 M 168.44,67.5 178.44,67.5 M 168.44,68.75 178.44,68.75 M 191.44,51 191.44,87 "/></svg>