<svg xmlns="http://www.w3.org/2000/svg" width="800" height="162.9"><rect x="0" y="0" width="800" height="162.9" fill="white"></rect><path stroke="black" stroke-width="1.5" stroke-linecap="round" stroke-linejoin="round" fill="none" d="M 30,62.16 260.68,62.16 M 30,71.16 260.68,71.16 M 30,80.16 260.68,80.16 M 30,89.16 260.68,89.16 M 30,98.16 260.68,98.16 M 42.11,110.58 43.1,110.43 43.94,109.29 43.79,108.3 42.65,107.46 41.66,107.61 40.82,108.75 41.12,110.73 42.41,112.56 44.54,113.25 46.52,112.95 49.33,111.51 51.01,109.23 51.7,107.11 52.09,103 50.45,92.13 45.57,66.57 44.53,59.65 44.77,54.55 45.46,52.43 47.29,51.14 48.28,50.99 50.4,51.68 51.69,53.51 52.29,57.46 51.75,60.58 51.06,62.7 49.53,65.97 45.18,70.67 39.85,75.52 38.17,77.8 36.64,81.07 35.95,83.19 35.56,87.3 36.16,91.25 37.74,95.06 40.17,97.73 43.43,99.25 47.54,99.65 51.49,99.05 55.3,97.46 57.13,96.17 58.66,92.91 59.2,89.79 58.6,85.84 57.16,83.02 55.88,81.19 53.6,79.51 50.48,78.97 46.53,79.57 43.71,81.01 42.03,83.28 41.49,86.4 42.09,90.36 43.53,93.17 45.8,94.85 M 41.81,108.6 41.96,109.59 42.95,109.44 42.8,108.45 41.81,108.6 M 49.53,65.97 46.17,70.52 41.83,75.23 39.31,78.64 37.78,81.9 37.09,84.03 36.55,87.15 37.15,91.1 38.73,94.91 40.02,96.74 43.43,99.25 M 51.49,99.05 54.31,97.61 56.14,96.32 57.67,93.06 58.21,89.94 57.61,85.99 56.17,83.17 54.89,81.34 52.61,79.66 50.48,78.97 M 84,65.46 84,66.31 85,66.31 85,65.46 84,65.46 M 84,64.61 85,64.61 86,65.46 86,66.31 85,67.16 84,67.16 83,66.31 83,65.46 84,63.76 85,62.91 88,62.06 92,62.06 95,62.91 96,63.76 97,65.46 97,67.16 96,68.86 93,70.56 88,72.26 86,73.11 84,74.81 83,77.36 83,79.91 M 95,63.76 96,65.46 96,67.16 95,68.86 M 92,62.06 94,62.91 95,65.46 95,67.16 94,68.86 92,70.56 88,72.26 M 83,78.21 84,77.36 86,77.36 91,78.21 95,78.21 97,77.36 M 86,77.36 91,79.06 95,79.06 96,78.21 M 86,77.36 91,79.91 95,79.91 96,79.06 97,77.36 97,75.66 M 91,82.61 91,97.91 M 92,81.76 92,97.06 M 93,80.06 93,97.91 M 93,80.06 82,92.81 98,92.81 M 88,97.91 96,97.91 M 91,97.06 89,97.91 M 91,96.21 90,97.91 M 93,96.21 94,97.91 M 93,97.06 95,97.91 M 121.36,102.88 118.4,103.96 116.32,105.8 115.2,107.56 115.04,109.24 115.84,110.84 117.68,111.52 119.6,111.36 122.56,110.28 124.64,108.44 125.76,106.68 125.92,105 125.12,103.4 123.28,102.72 121.36,102.88 M 117.28,105.72 123.28,102.72 M 116.16,107.48 124.16,103.48 M 115.04,109.24 125.04,104.24 M 115.92,110 125.92,105 M 116.8,110.76 124.8,106.76 M 117.68,111.52 123.68,108.52 M 145.56,93.88 142.6,94.96 140.52,96.8 139.4,98.56 139.24,100.24 140.04,101.84 141.88,102.52 143.8,102.36 146.76,101.28 148.84,99.44 149.96,97.68 150.12,96 149.32,94.4 147.48,93.72 145.56,93.88 M 141.48,96.72 147.48,93.72 M 140.36,98.48 148.36,94.48 M 139.24,100.24 149.24,95.24 M 140.12,101 150.12,96 M 141,101.76 149,97.76 M 141.88,102.52 147.88,99.52 M 169.76,84.88 166.8,85.96 164.72,87.8 163.6,89.56 163.44,91.24 164.24,92.84 166.08,93.52 168,93.36 170.96,92.28 173.04,90.44 174.16,88.68 174.32,87 173.52,85.4 171.68,84.72 169.76,84.88 M 165.68,87.72 171.68,84.72 M 164.56,89.48 172.56,85.48 M 163.44,91.24 173.44,86.24 M 164.32,92 174.32,87 M 165.2,92.76 173.2,88.76 M 166.08,93.52 172.08,90.52 M 193.8,66.88 190.84,67.96 188.76,69.8 187.64,71.56 187.48,73.24 188.28,74.84 190.12,75.52 192.04,75.36 195,74.28 197.08,72.44 198.2,70.68 198.36,69 197.56,67.4 195.72,66.72 193.8,66.88 M 189.72,69.72 195.72,66.72 M 188.6,71.48 196.6,67.48 M 187.48,73.24 197.48,68.24 M 188.36,74 198.36,69 M 189.24,74.76 197.24,70.76 M 190.12,75.52 196.12,72.52 M 187.44,101.4 187.44,71.16 M 197.44,87.15 196.44,90.15 194.44,93.15 190.44,96.15 187.44,97.65 M 193.44,94.65 187.44,99.15 M 195.44,79.65 196.44,81.15 197.44,84.15 197.44,87.15 196.44,91.65 194.44,94.65 191.44,97.65 187.44,100.65 M 238,80.38 235.04,81.46 232.96,83.3 231.84,85.06 231.68,86.74 232.48,88.34 234.32,89.02 236.24,88.86 239.2,87.78 241.28,85.94 242.4,84.18 242.56,82.5 241.76,80.9 239.92,80.22 238,80.38 M 233.92,83.22 239.92,80.22 M 232.8,84.98 240.8,80.98 M 231.68,86.74 241.68,81.74 M 232.56,87.5 242.56,82.5 M 233.44,88.26 241.44,84.26 M 234.32,89.02 240.32,86.02 M 231.64,114.9 231.64,84.66 M 241.64,100.65 240.64,103.65 238.64,106.65 234.64,109.65 231.64,111.15 M 237.64,108.15 231.64,112.65 M 239.64,93.15 240.64,94.65 241.64,97.65 241.64,100.65 240.64,105.15 238.64,108.15 235.64,111.15 231.64,114.15 M 126,78.3 174.4,60.3 M 126,79.39 174.4,61.39 M 126,80.48 174.4,62.48 M 126,81.57 174.4,63.57 M 126,78 126,107.16 M 150.2,69 150.2,98.16 M 174.4,60 174.4,89.16 M 215.64,77.16 214.64,75.16 214.64,73.16 212.64,73.16 212.64,75.16 213.64,76.16 215.64,77.16 218.64,77.16 220.64,76.16 222.64,74.16 M 213.64,73.16 213.64,76.16 M 212.64,74.16 214.64,74.16 M 212.64,75.16 218.64,77.16 M 215.64,77.16 220.64,76.16 M 222.64,74.16 218.64,87.16 M 120,50.1 120,45.6 139.2,45.6 M 155.2,45.6 174.4,45.6 174.4,50.1 M 144.2,41.6 144.7,42.1 144.2,42.6 143.7,42.1 143.7,41.6 144.2,40.6 144.7,40.1 146.2,39.6 148.2,39.6 149.7,40.1 150.2,41.1 150.2,42.6 149.7,43.6 148.2,44.1 146.7,44.1 M 148.2,39.6 149.2,40.1 149.7,41.1 149.7,42.6 149.2,43.6 148.2,44.1 M 148.2,44.1 149.2,44.6 150.2,45.6 150.7,46.6 150.7,48.1 150.2,49.1 149.7,49.6 148.2,50.1 146.2,50.1 144.7,49.6 144.2,49.1 143.7,48.1 143.7,47.6 144.2,47.1 144.7,47.6 144.2,48.1 M 149.7,45.1 150.2,46.6 150.2,48.1 149.7,49.1 149.2,49.6 148.2,50.1 M 187.44,124.8 187.44,129.3 204.54,129.3 M 220.54,129.3 237.64,129.3 237.64,124.8 M 209.54,125.3 210.04,125.8 209.54,126.3 209.04,125.8 209.04,125.3 209.54,124.3 210.04,123.8 211.54,123.3 213.54,123.3 215.04,123.8 215.54,124.8 215.54,126.3 215.04,127.3 213.54,127.8 212.04,127.8 M 213.54,123.3 214.54,123.8 215.04,124.8 215.04,126.3 214.54,127.3 213.54,127.8 M 213.54,127.8 214.54,128.3 215.54,129.3 216.04,130.3 216.04,131.8 215.54,132.8 215.04,133.3 213.54,133.8 211.54,133.8 210.04,133.3 209.54,132.8 209.04,131.8 209.04,131.3 209.54,130.8 210.04,131.3 209.54,131.8 M 215.04,128.8 215.54,130.3 215.54,131.8 215.04,132.8 214.54,133.3 213.54,133.8 M 109.5,107.16 130.5,107.16 M 260.68,62.16 260.68,98.16 "/></svg>