<svg xmlns="http://www.w3.org/2000/svg" width="800" height="152"><rect x="0" y="0" width="800" height="152" fill="white"></rect><path stroke="black" stroke-width="1.5" stroke-linecap="round" stroke-linejoin="round" fill="none" d="M 35.83,42 31.75,53.67 M 35.25,43.75 38.75,54.25 M 35.83,43.75 39.33,54.25 M 35.83,42 39.92,54.25 M 32.92,50.75 38.17,50.75 M 30.58,54.25 34.08,54.25 M 37,54.25 41.08,54.25 M 31.75,53.67 31.17,54.25 M 31.75,53.67 32.92,54.25 M 38.75,53.67 37.58,54.25 M 38.75,53.08 38.17,54.25 M 39.33,53.08 40.5,54.25 M 43.42,46.08 43.42,54.25 M 44,46.67 44,53.67 M 41.67,46.08 44.58,46.08 44.58,54.25 M 44.58,48.42 45.17,47.25 45.75,46.67 46.92,46.08 48.67,46.08 49.83,46.67 50.42,47.25 51,49 51,54.25 M 49.83,47.25 50.42,49 50.42,53.67 M 48.67,46.08 49.25,46.67 49.83,48.42 49.83,54.25 M 41.67,54.25 46.33,54.25 M 48.08,54.25 52.75,54.25 M 42.25,46.08 43.42,46.67 M 42.83,46.08 43.42,47.25 M 43.42,53.67 42.25,54.25 M 43.42,53.08 42.83,54.25 M 44.58,53.08 45.17,54.25 M 44.58,53.67 45.75,54.25 M 49.83,53.67 48.67,54.25 M 49.83,53.08 49.25,54.25 M 51,53.08 51.58,54.25 M 51,53.67 52.17,54.25 M 60.92,42 60.92,54.25 63.83,54.25 M 61.5,42.58 61.5,53.67 M 59.17,42 62.08,42 62.08,54.25 M 60.92,47.83 60.33,46.67 59.17,46.08 58,46.08 56.25,46.67 55.08,47.83 54.5,49.58 54.5,50.75 55.08,52.5 56.25,53.67 58,54.25 59.17,54.25 60.33,53.67 60.92,52.5 M 55.67,47.83 55.08,49 55.08,51.33 55.67,52.5 M 58,46.08 56.83,46.67 56.25,47.25 55.67,49 55.67,51.33 56.25,53.08 56.83,53.67 58,54.25 M 59.75,42 60.92,42.58 M 60.33,42 60.92,43.17 M 62.08,53.08 62.67,54.25 M 62.08,53.67 63.25,54.25 M 66.75,47.83 66.75,47.25 67.33,47.25 67.33,48.42 66.17,48.42 66.17,47.25 66.75,46.67 67.92,46.08 70.25,46.08 71.42,46.67 72,47.25 72.58,48.42 72.58,52.5 73.17,53.67 73.75,54.25 M 71.42,47.25 72,48.42 72,52.5 72.58,53.67 M 70.25,46.08 70.83,46.67 71.42,47.83 71.42,52.5 72,53.67 73.75,54.25 74.33,54.25 M 71.42,49 70.83,49.58 67.92,50.17 66.17,50.75 65.58,51.92 65.58,52.5 66.17,53.67 67.92,54.25 69.67,54.25 70.83,53.67 71.42,52.5 M 66.75,50.75 66.17,51.92 66.17,52.5 66.75,53.67 M 70.83,49.58 68.5,50.17 67.33,50.75 66.75,51.92 66.75,52.5 67.33,53.67 67.92,54.25 M 77.25,46.08 77.25,54.25 M 77.83,46.67 77.83,53.67 M 75.5,46.08 78.42,46.08 78.42,54.25 M 78.42,48.42 79,47.25 79.58,46.67 80.75,46.08 82.5,46.08 83.67,46.67 84.25,47.25 84.83,49 84.83,54.25 M 83.67,47.25 84.25,49 84.25,53.67 M 82.5,46.08 83.08,46.67 83.67,48.42 83.67,54.25 M 75.5,54.25 80.17,54.25 M 81.92,54.25 86.58,54.25 M 76.08,46.08 77.25,46.67 M 76.67,46.08 77.25,47.25 M 77.25,53.67 76.08,54.25 M 77.25,53.08 76.67,54.25 M 78.42,53.08 79,54.25 M 78.42,53.67 79.58,54.25 M 83.67,53.67 82.5,54.25 M 83.67,53.08 83.08,54.25 M 84.83,53.08 85.42,54.25 M 84.83,53.67 86,54.25 M 89.5,43.17 89.5,51.33 90.08,53.08 90.67,53.67 91.83,54.25 93,54.25 94.17,53.67 94.75,52.5 M 90.08,43.17 90.08,51.92 90.67,53.08 M 89.5,43.17 90.67,42 90.67,51.92 91.25,53.67 91.83,54.25 M 87.75,46.08 93,46.08 M 97.08,49.58 103.5,49.58 103.5,48.42 102.92,47.25 102.33,46.67 100.58,46.08 99.42,46.08 97.67,46.67 96.5,47.83 95.92,49.58 95.92,50.75 96.5,52.5 97.67,53.67 99.42,54.25 100.58,54.25 102.33,53.67 103.5,52.5 M 102.92,49 102.92,48.42 102.33,47.25 M 97.08,47.83 96.5,49 96.5,51.33 97.08,52.5 M 102.33,49.58 102.33,47.83 101.75,46.67 100.58,46.08 M 99.42,46.08 98.25,46.67 97.67,47.25 97.08,49 97.08,51.33 97.67,53.08 98.25,53.67 99.42,54.25 M 107,53.08 106.42,53.67 107,54.25 107.58,53.67 107,53.08 M 30,68 138,68 M 30,77 138,77 M 30,86 138,86 M 30,95 138,95 M 30,104 138,104 M 42.11,116.42 43.1,116.27 43.94,115.13 43.79,114.14 42.65,113.3 41.66,113.45 40.82,114.59 41.12,116.57 42.41,118.4 44.54,119.09 46.52,118.79 49.33,117.35 51.01,115.07 51.7,112.95 52.09,108.84 50.45,97.97 45.57,72.41 44.53,65.49 44.77,60.39 45.46,58.27 47.29,56.98 48.28,56.83 50.4,57.52 51.69,59.35 52.29,63.3 51.75,66.42 51.06,68.54 49.53,71.81 45.18,76.51 39.85,81.36 38.17,83.64 36.64,86.91 35.95,89.03 35.56,93.14 36.16,97.09 37.74,100.9 40.17,103.57 43.43,105.09 47.54,105.49 51.49,104.89 55.3,103.3 57.13,102.01 58.66,98.75 59.2,95.63 58.6,91.68 57.16,88.86 55.88,87.03 53.6,85.35 50.48,84.81 46.53,85.41 43.71,86.85 42.03,89.12 41.49,92.24 42.09,96.2 43.53,99.01 45.8,100.69 M 41.81,114.44 41.96,115.43 42.95,115.28 42.8,114.29 41.81,114.44 M 49.53,71.81 46.17,76.36 41.83,81.07 39.31,84.48 37.78,87.74 37.09,89.87 36.55,92.99 37.15,96.94 38.73,100.75 40.02,102.58 43.43,105.09 M 51.49,104.89 54.31,103.45 56.14,102.16 57.67,98.9 58.21,95.78 57.61,91.83 56.17,89.01 54.89,87.18 52.61,85.5 50.48,84.81 M 91,70.45 91,85.75 M 92,69.6 92,84.9 M 93,67.9 93,85.75 M 93,67.9 82,80.65 98,80.65 M 88,85.75 96,85.75 M 91,84.9 89,85.75 M 91,84.05 90,85.75 M 93,84.05 94,85.75 M 93,84.9 95,85.75 M 91,88.45 91,103.75 M 92,87.6 92,102.9 M 93,85.9 93,103.75 M 93,85.9 82,98.65 98,98.65 M 88,103.75 96,103.75 M 91,102.9 89,103.75 M 91,102.05 90,103.75 M 93,102.05 94,103.75 M 93,102.9 95,103.75 M 108,77 132,77 M 111.5,77 111.5,80.75 M 128.5,77 128.5,80.75 M 111.5,77 128.5,77 M 111.5,78.25 128.5,78.25 M 111.5,79.5 128.5,79.5 M 111.5,80.75 128.5,80.75 M 138,68 138,104 "/></svg>