<svg xmlns="http://www.w3.org/2000/svg" width="800" height="236.5"><rect x="0" y="0" width="800" height="236.5" fill="white"></rect><path stroke="black" stroke-width="1.5" stroke-linecap="round" stroke-linejoin="round" fill="none" d="M 30,46.5 30,188.5 M 30,46.5 275.76,46.5 M 30,55.5 275.76,55.5 M 30,64.5 275.76,64.5 M 30,73.5 275.76,73.5 M 30,82.5 275.76,82.5 M 30,152.5 275.76,152.5 M 30,161.5 275.76,161.5 M 30,170.5 275.76,170.5 M 30,179.5 275.76,179.5 M 30,188.5 275.76,188.5 M 42.11,94.92 43.1,94.77 43.94,93.63 43.79,92.64 42.65,91.8 41.66,91.95 40.82,93.09 41.12,95.07 42.41,96.9 44.54,97.59 46.52,97.29 49.33,95.85 51.01,93.57 51.7,91.45 52.09,87.34 50.45,76.47 45.57,50.91 44.53,43.99 44.77,38.89 45.46,36.77 47.29,35.48 48.28,35.33 50.4,36.02 51.69,37.85 52.29,41.8 51.75,44.92 51.06,47.04 49.53,50.31 45.18,55.01 39.85,59.86 38.17,62.14 36.64,65.41 35.95,67.53 35.56,71.64 36.16,75.59 37.74,79.4 40.17,82.07 43.43,83.59 47.54,83.99 51.49,83.39 55.3,81.8 57.13,80.51 58.66,77.25 59.2,74.13 58.6,70.18 57.16,67.36 55.88,65.53 53.6,63.85 50.48,63.31 46.53,63.91 43.71,65.35 42.03,67.62 41.49,70.74 42.09,74.7 43.53,77.51 45.8,79.19 M 41.81,92.94 41.96,93.93 42.95,93.78 42.8,92.79 41.81,92.94 M 49.53,50.31 46.17,54.86 41.83,59.57 39.31,62.98 37.78,66.24 37.09,68.37 36.55,71.49 37.15,75.44 38.73,79.25 40.02,81.08 43.43,83.59 M 51.49,83.39 54.31,81.95 56.14,80.66 57.67,77.4 58.21,74.28 57.61,70.33 56.17,67.51 54.89,65.68 52.61,64 50.48,63.31 M 91,48.95 91,64.25 M 92,48.1 92,63.4 M 93,46.4 93,64.25 M 93,46.4 82,59.15 98,59.15 M 88,64.25 96,64.25 M 91,63.4 89,64.25 M 91,62.55 90,64.25 M 93,62.55 94,64.25 M 93,63.4 95,64.25 M 91,66.95 91,82.25 M 92,66.1 92,81.4 M 93,64.4 93,82.25 M 93,64.4 82,77.15 98,77.15 M 88,82.25 96,82.25 M 91,81.4 89,82.25 M 91,80.55 90,82.25 M 93,80.55 94,82.25 M 93,81.4 95,82.25 M 130.9,85.9 130.9,88.1 133.1,88.1 133.1,85.9 130.9,85.9 M 130.9,85.9 133.1,88.1 M 133.1,85.9 130.9,88.1 M 121.36,87.22 118.4,88.3 116.32,90.14 115.2,91.9 115.04,93.58 115.84,95.18 117.68,95.86 119.6,95.7 122.56,94.62 124.64,92.78 125.76,91.02 125.92,89.34 125.12,87.74 123.28,87.06 121.36,87.22 M 117.28,90.06 123.28,87.06 M 116.16,91.82 124.16,87.82 M 115.04,93.58 125.04,88.58 M 115.92,94.34 125.92,89.34 M 116.8,95.1 124.8,91.1 M 117.68,95.86 123.68,92.86 M 126,64.5 126,91.5 M 173.52,87.22 170.56,88.3 168.48,90.14 167.36,91.9 167.2,93.58 168,95.18 169.84,95.86 171.76,95.7 174.72,94.62 176.8,92.78 177.92,91.02 178.08,89.34 177.28,87.74 175.44,87.06 173.52,87.22 M 169.44,90.06 175.44,87.06 M 168.32,91.82 176.32,87.82 M 167.2,93.58 177.2,88.58 M 168.08,94.34 178.08,89.34 M 168.96,95.1 176.96,91.1 M 169.84,95.86 175.84,92.86 M 178.16,61.26 178.16,91.5 M 178.16,62.01 182.16,65.01 185.16,68.01 187.16,71.01 188.16,75.51 188.16,78.51 187.16,81.51 186.16,83.01 M 178.16,63.51 184.16,68.01 M 178.16,65.01 181.16,66.51 185.16,69.51 187.16,72.51 188.16,75.51 M 212.24,78.22 209.28,79.3 207.2,81.14 206.08,82.9 205.92,84.58 206.72,86.18 208.56,86.86 210.48,86.7 213.44,85.62 215.52,83.78 216.64,82.02 216.8,80.34 216,78.74 214.16,78.06 212.24,78.22 M 208.16,81.06 214.16,78.06 M 207.04,82.82 215.04,78.82 M 205.92,84.58 215.92,79.58 M 206.8,85.34 216.8,80.34 M 207.68,86.1 215.68,82.1 M 208.56,86.86 214.56,83.86 M 216.88,55.5 216.88,82.5 M 245.68,69.22 242.72,70.3 240.64,72.14 239.52,73.9 239.36,75.58 240.16,77.18 242,77.86 243.92,77.7 246.88,76.62 248.96,74.78 250.08,73.02 250.24,71.34 249.44,69.74 247.6,69.06 245.68,69.22 M 241.6,72.06 247.6,69.06 M 240.48,73.82 248.48,69.82 M 239.36,75.58 249.36,70.58 M 240.24,76.34 250.24,71.34 M 241.12,77.1 249.12,73.1 M 242,77.86 248,74.86 M 250.32,46.5 250.32,73.5 M 109.5,91.5 130.5,91.5 M 161.66,91.5 182.66,91.5 M 37,160.5 38,158.5 40,157.5 42,157.5 44,158.5 45,160.5 45,162.5 44,164.5 42,165.5 40,165.5 38,164.5 37,163.5 36,160.5 36,157.5 37,154.5 39,152.5 42,151.5 46,151.5 50,152.5 53,154.5 55,157.5 56,161.5 56,166.5 55,170.5 54,172.5 52,175.5 49,178.5 45,181.5 40,184.5 36,186.5 M 46,151.5 49,152.5 52,154.5 54,157.5 55,161.5 55,166.5 54,170.5 53,172.5 51,175.5 48,178.5 43,182.5 40,184.5 M 39,158.5 43,158.5 M 38,159.5 44,159.5 M 37,160.5 45,160.5 M 37,161.5 45,161.5 M 37,162.5 45,162.5 M 38,163.5 44,163.5 M 39,164.5 43,164.5 M 60,155.5 60,157.5 62,157.5 62,155.5 60,155.5 M 61,155.5 61,157.5 M 60,156.5 62,156.5 M 60,165.5 60,167.5 62,167.5 62,165.5 60,165.5 M 61,165.5 61,167.5 M 60,166.5 62,166.5 M 91,154.95 91,170.25 M 92,154.1 92,169.4 M 93,152.4 93,170.25 M 93,152.4 82,165.15 98,165.15 M 88,170.25 96,170.25 M 91,169.4 89,170.25 M 91,168.55 90,170.25 M 93,168.55 94,170.25 M 93,169.4 95,170.25 M 91,172.95 91,188.25 M 92,172.1 92,187.4 M 93,170.4 93,188.25 M 93,170.4 82,183.15 98,183.15 M 88,188.25 96,188.25 M 91,187.4 89,188.25 M 91,186.55 90,188.25 M 93,186.55 94,188.25 M 93,187.4 95,188.25 M 121.47,170.36 118.22,171.44 115.74,173.4 114.87,175.28 114.81,177.12 115.55,178.92 117.12,179.76 119.53,179.64 122.78,178.56 125.26,176.6 126.13,174.72 126.19,172.88 125.45,171.08 123.88,170.24 121.47,170.36 M 121.8,171.17 118.63,172.43 116.11,174.3 115.13,175.91 114.92,177.39 115.47,178.74 116.9,179.22 119.2,178.83 122.37,177.57 124.89,175.7 125.87,174.09 126.08,172.61 125.53,171.26 124.1,170.78 121.8,171.17 M 126,148 126,175 M 212.35,170.36 209.1,171.44 206.62,173.4 205.75,175.28 205.69,177.12 206.43,178.92 208,179.76 210.41,179.64 213.66,178.56 216.14,176.6 217.01,174.72 217.07,172.88 216.33,171.08 214.76,170.24 212.35,170.36 M 212.68,171.17 209.51,172.43 206.99,174.3 206.01,175.91 205.8,177.39 206.35,178.74 207.78,179.22 210.08,178.83 213.25,177.57 215.77,175.7 216.75,174.09 216.96,172.61 216.41,171.26 214.98,170.78 212.68,171.17 M 216.88,148 216.88,175 M 275.76,46.5 275.76,188.5 "/></svg>