<svg xmlns="http://www.w3.org/2000/svg" width="800" height="656"><rect x="0" y="0" width="800" height="656" fill="white"></rect><path stroke="black" stroke-width="1.5" stroke-linecap="round" stroke-linejoin="round" fill="none" d="M 40.67,54 41.33,52 41.33,56 40.67,54 39.33,52.67 37.33,52 35.33,52 33.33,52.67 32,54 32,55.33 32.67,56.67 33.33,57.33 34.67,58 38.67,59.33 40,60 41.33,61.33 M 32,55.33 33.33,56.67 34.67,57.33 38.67,58.67 40,59.33 40.67,60 41.33,61.33 41.33,64 40,65.33 38,66 36,66 34,65.33 32.67,64 32,62 32,66 32.67,64 M 48,56.67 46,57.33 44.67,58.67 44,60.67 44,62 44.67,64 46,65.33 48,66 49.33,66 51.33,65.33 52.67,64 53.33,62 53.33,60.67 52.67,58.67 51.33,57.33 49.33,56.67 48,56.67 M 48,56.67 46.67,57.33 45.33,58.67 44.67,60.67 44.67,62 45.33,64 46.67,65.33 48,66 M 49.33,66 50.67,65.33 52,64 52.67,62 52.67,60.67 52,58.67 50.67,57.33 49.33,56.67 M 57.33,56.67 57.33,70.67 M 58,56.67 58,70.67 M 58,58.67 59.33,57.33 60.67,56.67 62,56.67 64,57.33 65.33,58.67 66,60.67 66,62 65.33,64 64,65.33 62,66 60.67,66 59.33,65.33 58,64 M 62,56.67 63.33,57.33 64.67,58.67 65.33,60.67 65.33,62 64.67,64 63.33,65.33 62,66 M 55.33,56.67 58,56.67 M 55.33,70.67 60,70.67 M 70,56.67 70,66 M 70.67,56.67 70.67,66 M 70.67,60.67 71.33,58.67 72.67,57.33 74,56.67 76,56.67 76.67,57.33 76.67,58 76,58.67 75.33,58 76,57.33 M 68,56.67 70.67,56.67 M 68,66 72.67,66 M 80,58 80,58.67 79.33,58.67 79.33,58 80,57.33 81.33,56.67 84,56.67 85.33,57.33 86,58 86.67,59.33 86.67,64 87.33,65.33 88,66 M 86,58 86,64 86.67,65.33 88,66 88.67,66 M 86,59.33 85.33,60 81.33,60.67 79.33,61.33 78.67,62.67 78.67,64 79.33,65.33 81.33,66 83.33,66 84.67,65.33 86,64 M 81.33,60.67 80,61.33 79.33,62.67 79.33,64 80,65.33 81.33,66 M 92,56.67 92,66 M 92.67,56.67 92.67,66 M 92.67,58.67 94,57.33 96,56.67 97.33,56.67 99.33,57.33 100,58.67 100,66 M 97.33,56.67 98.67,57.33 99.33,58.67 99.33,66 M 90,56.67 92.67,56.67 M 90,66 94.67,66 M 97.33,66 102,66 M 108,56.67 106,57.33 104.67,58.67 104,60.67 104,62 104.67,64 106,65.33 108,66 109.33,66 111.33,65.33 112.67,64 113.33,62 113.33,60.67 112.67,58.67 111.33,57.33 109.33,56.67 108,56.67 M 108,56.67 106.67,57.33 105.33,58.67 104.67,60.67 104.67,62 105.33,64 106.67,65.33 108,66 M 109.33,66 110.67,65.33 112,64 112.67,62 112.67,60.67 112,58.67 110.67,57.33 109.33,56.67 M 82,158 77.33,172 M 82,158 86.67,172 M 82,160 86,172 M 78.67,168 84.67,168 M 76,172 80,172 M 84,172 88,172 M 90.67,158 90.67,172 M 91.33,158 91.33,172 M 88.67,158 91.33,158 M 88.67,172 93.33,172 M 96.67,158 96.67,169.33 97.33,171.33 98.67,172 100,172 101.33,171.33 102,170 M 97.33,158 97.33,169.33 98,171.33 98.67,172 M 94.67,162.67 100,162.67 M 108,162.67 106,163.33 104.67,164.67 104,166.67 104,168 104.67,170 106,171.33 108,172 109.33,172 111.33,171.33 112.67,170 113.33,168 113.33,166.67 112.67,164.67 111.33,163.33 109.33,162.67 108,162.67 M 108,162.67 106.67,163.33 105.33,164.67 104.67,166.67 104.67,168 105.33,170 106.67,171.33 108,172 M 109.33,172 110.67,171.33 112,170 112.67,168 112.67,166.67 112,164.67 110.67,163.33 109.33,162.67 M 62,264 62,278 M 62.67,264 62.67,278 M 58,264 57.33,268 57.33,264 67.33,264 67.33,268 66.67,264 M 60,278 64.67,278 M 70,272.67 78,272.67 78,271.33 77.33,270 76.67,269.33 75.33,268.67 73.33,268.67 71.33,269.33 70,270.67 69.33,272.67 69.33,274 70,276 71.33,277.33 73.33,278 74.67,278 76.67,277.33 78,276 M 77.33,272.67 77.33,270.67 76.67,269.33 M 73.33,268.67 72,269.33 70.67,270.67 70,272.67 70,274 70.67,276 72,277.33 73.33,278 M 82,268.67 82,278 M 82.67,268.67 82.67,278 M 82.67,270.67 84,269.33 86,268.67 87.33,268.67 89.33,269.33 90,270.67 90,278 M 87.33,268.67 88.67,269.33 89.33,270.67 89.33,278 M 80,268.67 82.67,268.67 M 80,278 84.67,278 M 87.33,278 92,278 M 98,268.67 96,269.33 94.67,270.67 94,272.67 94,274 94.67,276 96,277.33 98,278 99.33,278 101.33,277.33 102.67,276 103.33,274 103.33,272.67 102.67,270.67 101.33,269.33 99.33,268.67 98,268.67 M 98,268.67 96.67,269.33 95.33,270.67 94.67,272.67 94.67,274 95.33,276 96.67,277.33 98,278 M 99.33,278 100.67,277.33 102,276 102.67,274 102.67,272.67 102,270.67 100.67,269.33 99.33,268.67 M 107.33,268.67 107.33,278 M 108,268.67 108,278 M 108,272.67 108.67,270.67 110,269.33 111.33,268.67 113.33,268.67 114,269.33 114,270 113.33,270.67 112.67,270 113.33,269.33 M 105.33,268.67 108,268.67 M 105.33,278 110,278 M 72,370 72,384 M 72.67,370 72.67,384 M 70,370 78,370 80,370.67 80.67,371.33 81.33,372.67 81.33,374 80.67,375.33 80,376 78,376.67 M 78,370 79.33,370.67 80,371.33 80.67,372.67 80.67,374 80,375.33 79.33,376 78,376.67 M 72.67,376.67 78,376.67 80,377.33 80.67,378 81.33,379.33 81.33,381.33 80.67,382.67 80,383.33 78,384 70,384 M 78,376.67 79.33,377.33 80,378 80.67,379.33 80.67,381.33 80,382.67 79.33,383.33 78,384 M 85.33,376 85.33,376.67 84.67,376.67 84.67,376 85.33,375.33 86.67,374.67 89.33,374.67 90.67,375.33 91.33,376 92,377.33 92,382 92.67,383.33 93.33,384 M 91.33,376 91.33,382 92,383.33 93.33,384 94,384 M 91.33,377.33 90.67,378 86.67,378.67 84.67,379.33 84,380.67 84,382 84.67,383.33 86.67,384 88.67,384 90,383.33 91.33,382 M 86.67,378.67 85.33,379.33 84.67,380.67 84.67,382 85.33,383.33 86.67,384 M 102.67,376 103.33,374.67 103.33,377.33 102.67,376 102,375.33 100.67,374.67 98,374.67 96.67,375.33 96,376 96,377.33 96.67,378 98,378.67 101.33,380 102.67,380.67 103.33,381.33 M 96,376.67 96.67,377.33 98,378 101.33,379.33 102.67,380 103.33,380.67 103.33,382.67 102.67,383.33 101.33,384 98.67,384 97.33,383.33 96.67,382.67 96,381.33 96,384 96.67,382.67 M 112.67,376 113.33,374.67 113.33,377.33 112.67,376 112,375.33 110.67,374.67 108,374.67 106.67,375.33 106,376 106,377.33 106.67,378 108,378.67 111.33,380 112.67,380.67 113.33,381.33 M 106,376.67 106.67,377.33 108,378 111.33,379.33 112.67,380 113.33,380.67 113.33,382.67 112.67,383.33 111.33,384 108.67,384 107.33,383.33 106.67,382.67 106,381.33 106,384 106.67,382.67 M 140.33,30 133.33,34 127.33,35 127.33,403 133.33,404 140.33,408 M 140.33,30 134.33,34 128.33,36 128.33,402 134.33,404 140.33,408 M 129.33,37 129.33,401 M 60.67,529 58.67,529.67 57.33,531 56.67,532.33 56,535 56,537 56.67,539.67 57.33,541 58.67,542.33 60.67,543 62,543 64,542.33 65.33,541 66,539.67 66.67,537 66.67,535 66,532.33 65.33,531 64,529.67 62,529 60.67,529 M 60.67,529 59.33,529.67 58,531 57.33,532.33 56.67,535 56.67,537 57.33,539.67 58,541 59.33,542.33 60.67,543 M 62,543 63.33,542.33 64.67,541 65.33,539.67 66,537 66,535 65.33,532.33 64.67,531 63.33,529.67 62,529 M 70.67,533.67 70.67,543 M 71.33,533.67 71.33,543 M 71.33,537.67 72,535.67 73.33,534.33 74.67,533.67 76.67,533.67 77.33,534.33 77.33,535 76.67,535.67 76,535 76.67,534.33 M 68.67,533.67 71.33,533.67 M 68.67,543 73.33,543 M 82.67,533.67 81.33,534.33 80.67,535 80,536.33 80,537.67 80.67,539 81.33,539.67 82.67,540.33 84,540.33 85.33,539.67 86,539 86.67,537.67 86.67,536.33 86,535 85.33,534.33 84,533.67 82.67,533.67 M 81.33,534.33 80.67,535.67 80.67,538.33 81.33,539.67 M 85.33,539.67 86,538.33 86,535.67 85.33,534.33 M 86,535 86.67,534.33 88,533.67 88,534.33 86.67,534.33 M 80.67,539 80,539.67 79.33,541 79.33,541.67 80,543 82,543.67 85.33,543.67 87.33,544.33 88,545 M 79.33,541.67 80,542.33 82,543 85.33,543 87.33,543.67 88,545 88,545.67 87.33,547 85.33,547.67 81.33,547.67 79.33,547 78.67,545.67 78.67,545 79.33,543.67 81.33,543 M 92,535 92,535.67 91.33,535.67 91.33,535 92,534.33 93.33,533.67 96,533.67 97.33,534.33 98,535 98.67,536.33 98.67,541 99.33,542.33 100,543 M 98,535 98,541 98.67,542.33 100,543 100.67,543 M 98,536.33 97.33,537 93.33,537.67 91.33,538.33 90.67,539.67 90.67,541 91.33,542.33 93.33,543 95.33,543 96.67,542.33 98,541 M 93.33,537.67 92,538.33 91.33,539.67 91.33,541 92,542.33 93.33,543 M 104,533.67 104,543 M 104.67,533.67 104.67,543 M 104.67,535.67 106,534.33 108,533.67 109.33,533.67 111.33,534.33 112,535.67 112,543 M 109.33,533.67 110.67,534.33 111.33,535.67 111.33,543 M 102,533.67 104.67,533.67 M 102,543 106.67,543 M 109.33,543 114,543 M 132.08,466 128.23,469.64 125.63,473.28 124.28,476.92 122.87,482.38 122.67,489.67 123.71,496.95 128.3,511.51 129.4,516.97 129.24,522.44 127.84,527.9 125.19,533.36 M 128.23,469.64 125.58,475.1 124.12,482.38 123.92,489.67 125.01,495.13 129.6,509.69 130.65,516.97 130.49,522.44 129.09,527.9 125.19,533.36 120.08,537 125.19,540.64 129.09,546.1 130.49,551.56 130.65,557.03 129.6,564.31 125.01,578.87 123.92,584.33 124.12,591.62 125.58,598.9 128.23,604.36 M 125.19,540.64 127.84,546.1 129.24,551.56 129.4,557.03 128.3,562.49 123.71,577.05 122.67,584.33 122.87,591.62 124.28,597.08 125.63,600.72 128.23,604.36 132.08,608 M 135.33,42 135.33,608 M 135.33,42 279.33,42 M 135.33,51 279.33,51 M 135.33,60 279.33,60 M 135.33,69 279.33,69 M 135.33,78 279.33,78 M 135.33,148 279.33,148 M 135.33,157 279.33,157 M 135.33,166 279.33,166 M 135.33,175 279.33,175 M 135.33,184 279.33,184 M 135.33,254 279.33,254 M 135.33,263 279.33,263 M 135.33,272 279.33,272 M 135.33,281 279.33,281 M 135.33,290 279.33,290 M 135.33,360 279.33,360 M 135.33,369 279.33,369 M 135.33,378 279.33,378 M 135.33,387 279.33,387 M 135.33,396 279.33,396 M 135.33,466 279.33,466 M 135.33,475 279.33,475 M 135.33,484 279.33,484 M 135.33,493 279.33,493 M 135.33,502 279.33,502 M 135.33,572 279.33,572 M 135.33,581 279.33,581 M 135.33,590 279.33,590 M 135.33,599 279.33,599 M 135.33,608 279.33,608 M 147.45,90.42 148.43,90.27 149.27,89.13 149.12,88.14 147.99,87.3 147,87.45 146.16,88.59 146.46,90.57 147.74,92.4 149.87,93.09 151.85,92.79 154.67,91.35 156.34,89.07 157.03,86.95 157.43,82.84 155.78,71.97 150.91,46.41 149.86,39.49 150.1,34.39 150.79,32.27 152.62,30.98 153.61,30.83 155.74,31.52 157.02,33.35 157.62,37.3 157.08,40.42 156.39,42.54 154.86,45.81 150.52,50.51 145.18,55.36 143.5,57.64 141.97,60.91 141.28,63.03 140.89,67.14 141.49,71.09 143.08,74.9 145.5,77.57 148.77,79.09 152.87,79.49 156.83,78.89 160.63,77.3 162.46,76.01 163.99,72.75 164.53,69.63 163.93,65.68 162.5,62.86 161.21,61.03 158.93,59.35 155.82,58.81 151.86,59.41 149.04,60.85 147.37,63.12 146.83,66.24 147.42,70.2 148.86,73.01 151.14,74.69 M 147.15,88.44 147.3,89.43 148.28,89.28 148.14,88.29 147.15,88.44 M 154.86,45.81 151.51,50.36 147.16,55.07 144.64,58.48 143.11,61.74 142.42,63.87 141.88,66.99 142.48,70.94 144.07,74.75 145.35,76.58 148.77,79.09 M 156.83,78.89 159.64,77.45 161.47,76.16 163,72.9 163.54,69.78 162.94,65.83 161.51,63.01 160.22,61.18 157.94,59.5 155.82,58.81 M 196.33,44.45 196.33,59.75 M 197.33,43.6 197.33,58.9 M 198.33,41.9 198.33,59.75 M 198.33,41.9 187.33,54.65 203.33,54.65 M 193.33,59.75 201.33,59.75 M 196.33,58.9 194.33,59.75 M 196.33,58.05 195.33,59.75 M 198.33,58.05 199.33,59.75 M 198.33,58.9 200.33,59.75 M 196.33,62.45 196.33,77.75 M 197.33,61.6 197.33,76.9 M 198.33,59.9 198.33,77.75 M 198.33,59.9 187.33,72.65 203.33,72.65 M 193.33,77.75 201.33,77.75 M 196.33,76.9 194.33,77.75 M 196.33,76.05 195.33,77.75 M 198.33,76.05 199.33,77.75 M 198.33,76.9 200.33,77.75 M 213.33,51 237.33,51 M 216.83,51 216.83,54.75 M 233.83,51 233.83,54.75 M 216.83,51 233.83,51 M 216.83,52.25 233.83,52.25 M 216.83,53.5 233.83,53.5 M 216.83,54.75 233.83,54.75 M 147.45,196.42 148.43,196.27 149.27,195.13 149.12,194.14 147.99,193.3 147,193.45 146.16,194.59 146.46,196.57 147.74,198.4 149.87,199.09 151.85,198.79 154.67,197.35 156.34,195.07 157.03,192.95 157.43,188.84 155.78,177.97 150.91,152.41 149.86,145.49 150.1,140.39 150.79,138.27 152.62,136.98 153.61,136.83 155.74,137.52 157.02,139.35 157.62,143.3 157.08,146.42 156.39,148.54 154.86,151.81 150.52,156.51 145.18,161.36 143.5,163.64 141.97,166.91 141.28,169.03 140.89,173.14 141.49,177.09 143.08,180.9 145.5,183.57 148.77,185.09 152.87,185.49 156.83,184.89 160.63,183.3 162.46,182.01 163.99,178.75 164.53,175.63 163.93,171.68 162.5,168.86 161.21,167.03 158.93,165.35 155.82,164.81 151.86,165.41 149.04,166.85 147.37,169.12 146.83,172.24 147.42,176.2 148.86,179.01 151.14,180.69 M 147.15,194.44 147.3,195.43 148.28,195.28 148.14,194.29 147.15,194.44 M 154.86,151.81 151.51,156.36 147.16,161.07 144.64,164.48 143.11,167.74 142.42,169.87 141.88,172.99 142.48,176.94 144.07,180.75 145.35,182.58 148.77,185.09 M 156.83,184.89 159.64,183.45 161.47,182.16 163,178.9 163.54,175.78 162.94,171.83 161.51,169.01 160.22,167.18 157.94,165.5 155.82,164.81 M 196.33,150.45 196.33,165.75 M 197.33,149.6 197.33,164.9 M 198.33,147.9 198.33,165.75 M 198.33,147.9 187.33,160.65 203.33,160.65 M 193.33,165.75 201.33,165.75 M 196.33,164.9 194.33,165.75 M 196.33,164.05 195.33,165.75 M 198.33,164.05 199.33,165.75 M 198.33,164.9 200.33,165.75 M 196.33,168.45 196.33,183.75 M 197.33,167.6 197.33,182.9 M 198.33,165.9 198.33,183.75 M 198.33,165.9 187.33,178.65 203.33,178.65 M 193.33,183.75 201.33,183.75 M 196.33,182.9 194.33,183.75 M 196.33,182.05 195.33,183.75 M 198.33,182.05 199.33,183.75 M 198.33,182.9 200.33,183.75 M 213.33,157 237.33,157 M 216.83,157 216.83,160.75 M 233.83,157 233.83,160.75 M 216.83,157 233.83,157 M 216.83,158.25 233.83,158.25 M 216.83,159.5 233.83,159.5 M 216.83,160.75 233.83,160.75 M 147.45,302.42 148.43,302.27 149.27,301.13 149.12,300.14 147.99,299.3 147,299.45 146.16,300.59 146.46,302.57 147.74,304.4 149.87,305.09 151.85,304.79 154.67,303.35 156.34,301.07 157.03,298.95 157.43,294.84 155.78,283.97 150.91,258.41 149.86,251.49 150.1,246.39 150.79,244.27 152.62,242.98 153.61,242.83 155.74,243.52 157.02,245.35 157.62,249.3 157.08,252.42 156.39,254.54 154.86,257.81 150.52,262.51 145.18,267.36 143.5,269.64 141.97,272.91 141.28,275.03 140.89,279.14 141.49,283.09 143.08,286.9 145.5,289.57 148.77,291.09 152.87,291.49 156.83,290.89 160.63,289.3 162.46,288.01 163.99,284.75 164.53,281.63 163.93,277.68 162.5,274.86 161.21,273.03 158.93,271.35 155.82,270.81 151.86,271.41 149.04,272.85 147.37,275.12 146.83,278.24 147.42,282.2 148.86,285.01 151.14,286.69 M 147.15,300.44 147.3,301.43 148.28,301.28 148.14,300.29 147.15,300.44 M 154.86,257.81 151.51,262.36 147.16,267.07 144.64,270.48 143.11,273.74 142.42,275.87 141.88,278.99 142.48,282.94 144.07,286.75 145.35,288.58 148.77,291.09 M 156.83,290.89 159.64,289.45 161.47,288.16 163,284.9 163.54,281.78 162.94,277.83 161.51,275.01 160.22,273.18 157.94,271.5 155.82,270.81 M 196.33,256.45 196.33,271.75 M 197.33,255.6 197.33,270.9 M 198.33,253.9 198.33,271.75 M 198.33,253.9 187.33,266.65 203.33,266.65 M 193.33,271.75 201.33,271.75 M 196.33,270.9 194.33,271.75 M 196.33,270.05 195.33,271.75 M 198.33,270.05 199.33,271.75 M 198.33,270.9 200.33,271.75 M 196.33,274.45 196.33,289.75 M 197.33,273.6 197.33,288.9 M 198.33,271.9 198.33,289.75 M 198.33,271.9 187.33,284.65 203.33,284.65 M 193.33,289.75 201.33,289.75 M 196.33,288.9 194.33,289.75 M 196.33,288.05 195.33,289.75 M 198.33,288.05 199.33,289.75 M 198.33,288.9 200.33,289.75 M 213.33,263 237.33,263 M 216.83,263 216.83,266.75 M 233.83,263 233.83,266.75 M 216.83,263 233.83,263 M 216.83,264.25 233.83,264.25 M 216.83,265.5 233.83,265.5 M 216.83,266.75 233.83,266.75 M 147.45,408.42 148.43,408.27 149.27,407.13 149.12,406.14 147.99,405.3 147,405.45 146.16,406.59 146.46,408.57 147.74,410.4 149.87,411.09 151.85,410.79 154.67,409.35 156.34,407.07 157.03,404.95 157.43,400.84 155.78,389.97 150.91,364.41 149.86,357.49 150.1,352.39 150.79,350.27 152.62,348.98 153.61,348.83 155.74,349.52 157.02,351.35 157.62,355.3 157.08,358.42 156.39,360.54 154.86,363.81 150.52,368.51 145.18,373.36 143.5,375.64 141.97,378.91 141.28,381.03 140.89,385.14 141.49,389.09 143.08,392.9 145.5,395.57 148.77,397.09 152.87,397.49 156.83,396.89 160.63,395.3 162.46,394.01 163.99,390.75 164.53,387.63 163.93,383.68 162.5,380.86 161.21,379.03 158.93,377.35 155.82,376.81 151.86,377.41 149.04,378.85 147.37,381.12 146.83,384.24 147.42,388.2 148.86,391.01 151.14,392.69 M 147.15,406.44 147.3,407.43 148.28,407.28 148.14,406.29 147.15,406.44 M 154.86,363.81 151.51,368.36 147.16,373.07 144.64,376.48 143.11,379.74 142.42,381.87 141.88,384.99 142.48,388.94 144.07,392.75 145.35,394.58 148.77,397.09 M 156.83,396.89 159.64,395.45 161.47,394.16 163,390.9 163.54,387.78 162.94,383.83 161.51,381.01 160.22,379.18 157.94,377.5 155.82,376.81 M 196.33,362.45 196.33,377.75 M 197.33,361.6 197.33,376.9 M 198.33,359.9 198.33,377.75 M 198.33,359.9 187.33,372.65 203.33,372.65 M 193.33,377.75 201.33,377.75 M 196.33,376.9 194.33,377.75 M 196.33,376.05 195.33,377.75 M 198.33,376.05 199.33,377.75 M 198.33,376.9 200.33,377.75 M 196.33,380.45 196.33,395.75 M 197.33,379.6 197.33,394.9 M 198.33,377.9 198.33,395.75 M 198.33,377.9 187.33,390.65 203.33,390.65 M 193.33,395.75 201.33,395.75 M 196.33,394.9 194.33,395.75 M 196.33,394.05 195.33,395.75 M 198.33,394.05 199.33,395.75 M 198.33,394.9 200.33,395.75 M 213.33,369 237.33,369 M 216.83,369 216.83,372.75 M 233.83,369 233.83,372.75 M 216.83,369 233.83,369 M 216.83,370.25 233.83,370.25 M 216.83,371.5 233.83,371.5 M 216.83,372.75 233.83,372.75 M 147.45,514.42 148.43,514.27 149.27,513.13 149.12,512.14 147.99,511.3 147,511.45 146.16,512.59 146.46,514.57 147.74,516.4 149.87,517.09 151.85,516.79 154.67,515.35 156.34,513.07 157.03,510.95 157.43,506.84 155.78,495.97 150.91,470.41 149.86,463.49 150.1,458.39 150.79,456.27 152.62,454.98 153.61,454.83 155.74,455.52 157.02,457.35 157.62,461.3 157.08,464.42 156.39,466.54 154.86,469.81 150.52,474.51 145.18,479.36 143.5,481.64 141.97,484.91 141.28,487.03 140.89,491.14 141.49,495.09 143.08,498.9 145.5,501.57 148.77,503.09 152.87,503.49 156.83,502.89 160.63,501.3 162.46,500.01 163.99,496.75 164.53,493.63 163.93,489.68 162.5,486.86 161.21,485.03 158.93,483.35 155.82,482.81 151.86,483.41 149.04,484.85 147.37,487.12 146.83,490.24 147.42,494.2 148.86,497.01 151.14,498.69 M 147.15,512.44 147.3,513.43 148.28,513.28 148.14,512.29 147.15,512.44 M 154.86,469.81 151.51,474.36 147.16,479.07 144.64,482.48 143.11,485.74 142.42,487.87 141.88,490.99 142.48,494.94 144.07,498.75 145.35,500.58 148.77,503.09 M 156.83,502.89 159.64,501.45 161.47,500.16 163,496.9 163.54,493.78 162.94,489.83 161.51,487.01 160.22,485.18 157.94,483.5 155.82,482.81 M 196.33,468.45 196.33,483.75 M 197.33,467.6 197.33,482.9 M 198.33,465.9 198.33,483.75 M 198.33,465.9 187.33,478.65 203.33,478.65 M 193.33,483.75 201.33,483.75 M 196.33,482.9 194.33,483.75 M 196.33,482.05 195.33,483.75 M 198.33,482.05 199.33,483.75 M 198.33,482.9 200.33,483.75 M 196.33,486.45 196.33,501.75 M 197.33,485.6 197.33,500.9 M 198.33,483.9 198.33,501.75 M 198.33,483.9 187.33,496.65 203.33,496.65 M 193.33,501.75 201.33,501.75 M 196.33,500.9 194.33,501.75 M 196.33,500.05 195.33,501.75 M 198.33,500.05 199.33,501.75 M 198.33,500.9 200.33,501.75 M 213.33,475 237.33,475 M 216.83,475 216.83,478.75 M 233.83,475 233.83,478.75 M 216.83,475 233.83,475 M 216.83,476.25 233.83,476.25 M 216.83,477.5 233.83,477.5 M 216.83,478.75 233.83,478.75 M 147.45,620.42 148.43,620.27 149.27,619.13 149.12,618.14 147.99,617.3 147,617.45 146.16,618.59 146.46,620.57 147.74,622.4 149.87,623.09 151.85,622.79 154.67,621.35 156.34,619.07 157.03,616.95 157.43,612.84 155.78,601.97 150.91,576.41 149.86,569.49 150.1,564.39 150.79,562.27 152.62,560.98 153.61,560.83 155.74,561.52 157.02,563.35 157.62,567.3 157.08,570.42 156.39,572.54 154.86,575.81 150.52,580.51 145.18,585.36 143.5,587.64 141.97,590.91 141.28,593.03 140.89,597.14 141.49,601.09 143.08,604.9 145.5,607.57 148.77,609.09 152.87,609.49 156.83,608.89 160.63,607.3 162.46,606.01 163.99,602.75 164.53,599.63 163.93,595.68 162.5,592.86 161.21,591.03 158.93,589.35 155.82,588.81 151.86,589.41 149.04,590.85 147.37,593.12 146.83,596.24 147.42,600.2 148.86,603.01 151.14,604.69 M 147.15,618.44 147.3,619.43 148.28,619.28 148.14,618.29 147.15,618.44 M 154.86,575.81 151.51,580.36 147.16,585.07 144.64,588.48 143.11,591.74 142.42,593.87 141.88,596.99 142.48,600.94 144.07,604.75 145.35,606.58 148.77,609.09 M 156.83,608.89 159.64,607.45 161.47,606.16 163,602.9 163.54,599.78 162.94,595.83 161.51,593.01 160.22,591.18 157.94,589.5 155.82,588.81 M 196.33,574.45 196.33,589.75 M 197.33,573.6 197.33,588.9 M 198.33,571.9 198.33,589.75 M 198.33,571.9 187.33,584.65 203.33,584.65 M 193.33,589.75 201.33,589.75 M 196.33,588.9 194.33,589.75 M 196.33,588.05 195.33,589.75 M 198.33,588.05 199.33,589.75 M 198.33,588.9 200.33,589.75 M 196.33,592.45 196.33,607.75 M 197.33,591.6 197.33,606.9 M 198.33,589.9 198.33,607.75 M 198.33,589.9 187.33,602.65 203.33,602.65 M 193.33,607.75 201.33,607.75 M 196.33,606.9 194.33,607.75 M 196.33,606.05 195.33,607.75 M 198.33,606.05 199.33,607.75 M 198.33,606.9 200.33,607.75 M 213.33,581 237.33,581 M 216.83,581 216.83,584.75 M 233.83,581 233.83,584.75 M 216.83,581 233.83,581 M 216.83,582.25 233.83,582.25 M 216.83,583.5 233.83,583.5 M 216.83,584.75 233.83,584.75 M 243.33,42 243.33,78 M 243.33,148 243.33,184 M 243.33,254 243.33,290 M 243.33,360 243.33,396 M 243.33,466 243.33,572 M 243.33,572 243.33,608 M 249.33,51 273.33,51 M 252.83,51 252.83,54.75 M 269.83,51 269.83,54.75 M 252.83,51 269.83,51 M 252.83,52.25 269.83,52.25 M 252.83,53.5 269.83,53.5 M 252.83,54.75 269.83,54.75 M 249.33,157 273.33,157 M 252.83,157 252.83,160.75 M 269.83,157 269.83,160.75 M 252.83,157 269.83,157 M 252.83,158.25 269.83,158.25 M 252.83,159.5 269.83,159.5 M 252.83,160.75 269.83,160.75 M 249.33,263 273.33,263 M 252.83,263 252.83,266.75 M 269.83,263 269.83,266.75 M 252.83,263 269.83,263 M 252.83,264.25 269.83,264.25 M 252.83,265.5 269.83,265.5 M 252.83,266.75 269.83,266.75 M 249.33,369 273.33,369 M 252.83,369 252.83,372.75 M 269.83,369 269.83,372.75 M 252.83,369 269.83,369 M 252.83,370.25 269.83,370.25 M 252.83,371.5 269.83,371.5 M 252.83,372.75 269.83,372.75 M 249.33,475 273.33,475 M 252.83,475 252.83,478.75 M 269.83,475 269.83,478.75 M 252.83,475 269.83,475 M 252.83,476.25 269.83,476.25 M 252.83,477.5 269.83,477.5 M 252.83,478.75 269.83,478.75 M 249.33,581 273.33,581 M 252.83,581 252.83,584.75 M 269.83,581 269.83,584.75 M 252.83,581 269.83,581 M 252.83,582.25 269.83,582.25 M 252.83,583.5 269.83,583.5 M 252.83,584.75 269.83,584.75 M 279.33,42 279.33,78 M 279.33,148 279.33,184 M 279.33,254 279.33,290 M 279.33,360 279.33,396 M 279.33,466 279.33,572 M 279.33,572 279.33,608 "/></svg>