<svg xmlns="http://www.w3.org/2000/svg" width="800" height="280"><rect x="0" y="0" width="800" height="280" fill="white"></rect><path stroke="black" stroke-width="1.5" stroke-linecap="round" stroke-linejoin="round" fill="none" d="M 318.54,30 318.54,59.75 M 319.96,31.42 319.96,58.33 M 321.38,30 321.38,59.75 M 314.29,30 331.29,30 335.54,31.42 336.96,32.83 338.38,35.67 338.38,38.5 336.96,41.33 335.54,42.75 331.29,44.17 M 335.54,32.83 336.96,35.67 336.96,38.5 335.54,41.33 M 331.29,30 334.13,31.42 335.54,34.25 335.54,39.92 334.13,42.75 331.29,44.17 M 321.38,44.17 331.29,44.17 335.54,45.58 336.96,47 338.38,49.83 338.38,54.08 336.96,56.92 335.54,58.33 331.29,59.75 314.29,59.75 M 335.54,47 336.96,49.83 336.96,54.08 335.54,56.92 M 331.29,44.17 334.13,45.58 335.54,48.42 335.54,55.5 334.13,58.33 331.29,59.75 M 315.71,30 318.54,31.42 M 317.13,30 318.54,32.83 M 322.79,30 321.38,32.83 M 324.21,30 321.38,31.42 M 318.54,58.33 315.71,59.75 M 318.54,56.92 317.13,59.75 M 321.38,56.92 322.79,59.75 M 321.38,58.33 324.21,59.75 M 346.87,30 346.87,32.83 349.71,32.83 349.71,30 346.87,30 M 348.29,30 348.29,32.83 M 346.87,31.42 349.71,31.42 M 346.87,39.92 346.87,59.75 M 348.29,41.33 348.29,58.33 M 342.62,39.92 349.71,39.92 349.71,59.75 M 342.62,59.75 353.96,59.75 M 344.04,39.92 346.87,41.33 M 345.46,39.92 346.87,42.75 M 346.87,58.33 344.04,59.75 M 346.87,56.92 345.46,59.75 M 349.71,56.92 351.12,59.75 M 349.71,58.33 352.54,59.75 M 375.21,41.33 376.63,42.75 378.04,41.33 376.63,39.92 375.21,39.92 372.38,41.33 370.96,42.75 M 365.29,39.92 362.46,41.33 361.04,42.75 359.63,45.58 359.63,48.42 361.04,51.25 362.46,52.67 365.29,54.08 368.13,54.08 370.96,52.67 372.38,51.25 373.79,48.42 373.79,45.58 372.38,42.75 370.96,41.33 368.13,39.92 365.29,39.92 M 362.46,42.75 361.04,45.58 361.04,48.42 362.46,51.25 M 370.96,51.25 372.38,48.42 372.38,45.58 370.96,42.75 M 365.29,39.92 363.88,41.33 362.46,44.17 362.46,49.83 363.88,52.67 365.29,54.08 M 368.13,54.08 369.54,52.67 370.96,49.83 370.96,44.17 369.54,41.33 368.13,39.92 M 361.04,51.25 359.63,52.67 358.21,55.5 358.21,56.92 359.63,59.75 361.04,61.17 365.29,62.58 370.96,62.58 375.21,64 376.63,65.42 M 361.04,59.75 365.29,61.17 370.96,61.17 375.21,62.58 M 358.21,56.92 359.63,58.33 363.88,59.75 370.96,59.75 375.21,61.17 376.63,64 376.63,65.42 375.21,68.25 370.96,69.67 362.46,69.67 358.21,68.25 356.79,65.42 356.79,64 358.21,61.17 362.46,59.75 M 362.46,69.67 359.63,68.25 358.21,65.42 358.21,64 359.63,61.17 362.46,59.75 M 395.04,30 395.04,38.5 M 404.96,30 404.96,59.75 M 406.38,31.42 406.38,58.33 M 407.79,30 407.79,59.75 M 417.71,30 417.71,38.5 M 395.04,30 417.71,30 M 400.71,59.75 412.04,59.75 M 396.46,30 395.04,38.5 M 397.88,30 395.04,34.25 M 399.29,30 395.04,32.83 M 402.13,30 395.04,31.42 M 410.63,30 417.71,31.42 M 413.46,30 417.71,32.83 M 414.88,30 417.71,34.25 M 416.29,30 417.71,38.5 M 404.96,58.33 402.13,59.75 M 404.96,56.92 403.54,59.75 M 407.79,56.92 409.21,59.75 M 407.79,58.33 410.63,59.75 M 424.79,30 424.79,32.83 427.63,32.83 427.63,30 424.79,30 M 426.21,30 426.21,32.83 M 424.79,31.42 427.63,31.42 M 424.79,39.92 424.79,59.75 M 426.21,41.33 426.21,58.33 M 420.54,39.92 427.63,39.92 427.63,59.75 M 420.54,59.75 431.88,59.75 M 421.96,39.92 424.79,41.33 M 423.38,39.92 424.79,42.75 M 424.79,58.33 421.96,59.75 M 424.79,56.92 423.38,59.75 M 427.63,56.92 429.04,59.75 M 427.63,58.33 430.46,59.75 M 438.96,32.83 438.96,52.67 440.38,56.92 441.79,58.33 444.63,59.75 447.46,59.75 450.29,58.33 451.71,55.5 M 440.38,32.83 440.38,54.08 441.79,56.92 M 438.96,32.83 441.79,30 441.79,54.08 443.21,58.33 444.63,59.75 M 434.71,39.92 447.46,39.92 M 457.37,30 457.37,59.75 M 458.79,31.42 458.79,58.33 M 453.12,30 460.21,30 460.21,59.75 M 453.12,59.75 464.46,59.75 M 454.54,30 457.37,31.42 M 455.96,30 457.37,32.83 M 457.37,58.33 454.54,59.75 M 457.37,56.92 455.96,59.75 M 460.21,56.92 461.62,59.75 M 460.21,58.33 463.04,59.75 M 471.54,48.42 487.13,48.42 487.13,45.58 485.71,42.75 484.29,41.33 480.04,39.92 477.21,39.92 472.96,41.33 470.13,44.17 468.71,48.42 468.71,51.25 470.13,55.5 472.96,58.33 477.21,59.75 480.04,59.75 484.29,58.33 487.13,55.5 M 485.71,47 485.71,45.58 484.29,42.75 M 471.54,44.17 470.13,47 470.13,52.67 471.54,55.5 M 484.29,48.42 484.29,44.17 482.88,41.33 480.04,39.92 M 477.21,39.92 474.38,41.33 472.96,42.75 471.54,47 471.54,52.67 472.96,56.92 474.38,58.33 477.21,59.75 M 363.33,78.5 364.17,76 364.17,81 363.33,78.5 361.67,76.83 359.17,76 356.67,76 354.17,76.83 352.5,78.5 352.5,80.17 353.33,81.83 354.17,82.67 355.83,83.5 360.83,85.17 362.5,86 364.17,87.67 M 352.5,80.17 354.17,81.83 355.83,82.67 360.83,84.33 362.5,85.17 363.33,86 364.17,87.67 364.17,91 362.5,92.67 360,93.5 357.5,93.5 355,92.67 353.33,91 352.5,88.5 352.5,93.5 353.33,91 M 369.17,81.83 369.17,91 370,92.67 372.5,93.5 374.17,93.5 376.67,92.67 378.33,91 M 370,81.83 370,91 370.83,92.67 372.5,93.5 M 378.33,81.83 378.33,93.5 M 379.17,81.83 379.17,93.5 M 366.67,81.83 370,81.83 M 375.83,81.83 379.17,81.83 M 378.33,93.5 381.67,93.5 M 385.83,76 385.83,93.5 M 386.67,76 386.67,93.5 M 386.67,84.33 388.33,82.67 390,81.83 391.67,81.83 394.17,82.67 395.83,84.33 396.67,86.83 396.67,88.5 395.83,91 394.17,92.67 391.67,93.5 390,93.5 388.33,92.67 386.67,91 M 391.67,81.83 393.33,82.67 395,84.33 395.83,86.83 395.83,88.5 395,91 393.33,92.67 391.67,93.5 M 383.33,76 386.67,76 M 401.67,76 401.67,90.17 402.5,92.67 404.17,93.5 405.83,93.5 407.5,92.67 408.33,91 M 402.5,76 402.5,90.17 403.33,92.67 404.17,93.5 M 399.17,81.83 405.83,81.83 M 412.5,76 411.67,76.83 412.5,77.67 413.33,76.83 412.5,76 M 412.5,81.83 412.5,93.5 M 413.33,81.83 413.33,93.5 M 410,81.83 413.33,81.83 M 410,93.5 415.83,93.5 M 420,76 420,90.17 420.83,92.67 422.5,93.5 424.17,93.5 425.83,92.67 426.67,91 M 420.83,76 420.83,90.17 421.67,92.67 422.5,93.5 M 417.5,81.83 424.17,81.83 M 430.83,76 430.83,93.5 M 431.67,76 431.67,93.5 M 428.33,76 431.67,76 M 428.33,93.5 434.17,93.5 M 437.5,86.83 447.5,86.83 447.5,85.17 446.67,83.5 445.83,82.67 444.17,81.83 441.67,81.83 439.17,82.67 437.5,84.33 436.67,86.83 436.67,88.5 437.5,91 439.17,92.67 441.67,93.5 443.33,93.5 445.83,92.67 447.5,91 M 446.67,86.83 446.67,84.33 445.83,82.67 M 441.67,81.83 440,82.67 438.33,84.33 437.5,86.83 437.5,88.5 438.33,91 440,92.67 441.67,93.5 M 362.08,108 359.58,108.83 357.92,110.5 357.08,112.17 356.25,115.5 356.25,118 357.08,121.33 357.92,123 359.58,124.67 362.08,125.5 363.75,125.5 366.25,124.67 367.92,123 368.75,121.33 369.58,118 369.58,115.5 368.75,112.17 367.92,110.5 366.25,108.83 363.75,108 362.08,108 M 362.08,108 360.42,108.83 358.75,110.5 357.92,112.17 357.08,115.5 357.08,118 357.92,121.33 358.75,123 360.42,124.67 362.08,125.5 M 363.75,125.5 365.42,124.67 367.08,123 367.92,121.33 368.75,118 368.75,115.5 367.92,112.17 367.08,110.5 365.42,108.83 363.75,108 M 374.58,113.83 374.58,131.33 M 375.42,113.83 375.42,131.33 M 375.42,116.33 377.08,114.67 378.75,113.83 380.42,113.83 382.92,114.67 384.58,116.33 385.42,118.83 385.42,120.5 384.58,123 382.92,124.67 380.42,125.5 378.75,125.5 377.08,124.67 375.42,123 M 380.42,113.83 382.08,114.67 383.75,116.33 384.58,118.83 384.58,120.5 383.75,123 382.08,124.67 380.42,125.5 M 372.08,113.83 375.42,113.83 M 372.08,131.33 377.92,131.33 M 390.42,123.83 389.58,124.67 390.42,125.5 391.25,124.67 390.42,123.83 M 406.25,111.33 407.92,110.5 410.42,108 410.42,125.5 M 409.58,108.83 409.58,125.5 M 406.25,125.5 413.75,125.5 M 419.58,111.33 420.42,112.17 419.58,113 418.75,112.17 418.75,111.33 419.58,109.67 420.42,108.83 422.92,108 426.25,108 428.75,108.83 429.58,109.67 430.42,111.33 430.42,113 429.58,114.67 427.08,116.33 422.92,118 421.25,118.83 419.58,120.5 418.75,123 418.75,125.5 M 426.25,108 427.92,108.83 428.75,109.67 429.58,111.33 429.58,113 428.75,114.67 426.25,116.33 422.92,118 M 418.75,123.83 419.58,123 421.25,123 425.42,124.67 427.92,124.67 429.58,123.83 430.42,123 M 421.25,123 425.42,125.5 428.75,125.5 429.58,124.67 430.42,123 430.42,121.33 M 434.58,111.33 435.42,112.17 434.58,113 433.75,112.17 433.75,111.33 434.58,109.67 435.42,108.83 437.92,108 441.25,108 443.75,108.83 444.58,110.5 444.58,113 443.75,114.67 441.25,115.5 438.75,115.5 M 441.25,108 442.92,108.83 443.75,110.5 443.75,113 442.92,114.67 441.25,115.5 M 441.25,115.5 442.92,116.33 444.58,118 445.42,119.67 445.42,122.17 444.58,123.83 443.75,124.67 441.25,125.5 437.92,125.5 435.42,124.67 434.58,123.83 433.75,122.17 433.75,121.33 434.58,120.5 435.42,121.33 434.58,122.17 M 443.75,117.17 444.58,119.67 444.58,122.17 443.75,123.83 442.92,124.67 441.25,125.5 M 616,152 616,164.25 M 616.58,152 620.08,162.5 M 616,152 620.08,164.25 M 624.17,152 620.08,164.25 M 624.17,152 624.17,164.25 M 624.75,152 624.75,164.25 M 614.25,152 616.58,152 M 624.17,152 626.5,152 M 614.25,164.25 617.75,164.25 M 622.42,164.25 626.5,164.25 M 629.42,156.08 629.42,162.5 630,163.67 631.75,164.25 632.92,164.25 634.67,163.67 635.83,162.5 M 630,156.08 630,162.5 630.58,163.67 631.75,164.25 M 635.83,156.08 635.83,164.25 M 636.42,156.08 636.42,164.25 M 627.67,156.08 630,156.08 M 634.08,156.08 636.42,156.08 M 635.83,164.25 638.17,164.25 M 645.75,157.25 646.33,156.08 646.33,158.42 645.75,157.25 645.17,156.67 644,156.08 641.67,156.08 640.5,156.67 639.92,157.25 639.92,158.42 640.5,159 641.67,159.58 644.58,160.75 645.75,161.33 646.33,161.92 M 639.92,157.83 640.5,158.42 641.67,159 644.58,160.17 645.75,160.75 646.33,161.33 646.33,163.08 645.75,163.67 644.58,164.25 642.25,164.25 641.08,163.67 640.5,163.08 639.92,161.92 639.92,164.25 640.5,163.08 M 649.83,152 649.25,152.58 649.83,153.17 650.42,152.58 649.83,152 M 649.83,156.08 649.83,164.25 M 650.42,156.08 650.42,164.25 M 648.08,156.08 650.42,156.08 M 648.08,164.25 652.17,164.25 M 660.92,157.83 660.33,158.42 660.92,159 661.5,158.42 661.5,157.83 660.33,156.67 659.17,156.08 657.42,156.08 655.67,156.67 654.5,157.83 653.92,159.58 653.92,160.75 654.5,162.5 655.67,163.67 657.42,164.25 658.58,164.25 660.33,163.67 661.5,162.5 M 657.42,156.08 656.25,156.67 655.08,157.83 654.5,159.58 654.5,160.75 655.08,162.5 656.25,163.67 657.42,164.25 M 670.83,152 670.83,164.25 M 671.42,152 671.42,164.25 M 671.42,157.83 672.58,156.67 673.75,156.08 674.92,156.08 676.67,156.67 677.83,157.83 678.42,159.58 678.42,160.75 677.83,162.5 676.67,163.67 674.92,164.25 673.75,164.25 672.58,163.67 671.42,162.5 M 674.92,156.08 676.08,156.67 677.25,157.83 677.83,159.58 677.83,160.75 677.25,162.5 676.08,163.67 674.92,164.25 M 669.08,152 671.42,152 M 681.33,156.08 684.83,164.25 M 681.92,156.08 684.83,163.08 M 688.33,156.08 684.83,164.25 683.67,166.58 682.5,167.75 681.33,168.33 680.75,168.33 680.17,167.75 680.75,167.17 681.33,167.75 M 680.17,156.08 683.67,156.08 M 686,156.08 689.5,156.08 M 697.67,152 697.67,164.25 M 698.25,152 701.75,162.5 M 697.67,152 701.75,164.25 M 705.83,152 701.75,164.25 M 705.83,152 705.83,164.25 M 706.42,152 706.42,164.25 M 695.92,152 698.25,152 M 705.83,152 708.17,152 M 695.92,164.25 699.42,164.25 M 704.08,164.25 708.17,164.25 M 711.08,156.08 711.08,162.5 711.67,163.67 713.42,164.25 714.58,164.25 716.33,163.67 717.5,162.5 M 711.67,156.08 711.67,162.5 712.25,163.67 713.42,164.25 M 717.5,156.08 717.5,164.25 M 718.08,156.08 718.08,164.25 M 709.33,156.08 711.67,156.08 M 715.75,156.08 718.08,156.08 M 717.5,164.25 719.83,164.25 M 727.42,157.25 728,156.08 728,158.42 727.42,157.25 726.83,156.67 725.67,156.08 723.33,156.08 722.17,156.67 721.58,157.25 721.58,158.42 722.17,159 723.33,159.58 726.25,160.75 727.42,161.33 728,161.92 M 721.58,157.83 722.17,158.42 723.33,159 726.25,160.17 727.42,160.75 728,161.33 728,163.08 727.42,163.67 726.25,164.25 723.92,164.25 722.75,163.67 722.17,163.08 721.58,161.92 721.58,164.25 722.17,163.08 M 731.5,152 730.92,152.58 731.5,153.17 732.08,152.58 731.5,152 M 731.5,156.08 731.5,164.25 M 732.08,156.08 732.08,164.25 M 729.75,156.08 732.08,156.08 M 729.75,164.25 733.83,164.25 M 742.58,157.83 742,158.42 742.58,159 743.17,158.42 743.17,157.83 742,156.67 740.83,156.08 739.08,156.08 737.33,156.67 736.17,157.83 735.58,159.58 735.58,160.75 736.17,162.5 737.33,163.67 739.08,164.25 740.25,164.25 742,163.67 743.17,162.5 M 739.08,156.08 737.92,156.67 736.75,157.83 736.17,159.58 736.17,160.75 736.75,162.5 737.92,163.67 739.08,164.25 M 746.67,152 746.08,152.58 746.67,153.17 747.25,152.58 746.67,152 M 746.67,156.08 746.67,164.25 M 747.25,156.08 747.25,164.25 M 744.92,156.08 747.25,156.08 M 744.92,164.25 749,164.25 M 751.92,157.25 751.92,157.83 751.33,157.83 751.33,157.25 751.92,156.67 753.08,156.08 755.42,156.08 756.58,156.67 757.17,157.25 757.75,158.42 757.75,162.5 758.33,163.67 758.92,164.25 M 757.17,157.25 757.17,162.5 757.75,163.67 758.92,164.25 759.5,164.25 M 757.17,158.42 756.58,159 753.08,159.58 751.33,160.17 750.75,161.33 750.75,162.5 751.33,163.67 753.08,164.25 754.83,164.25 756,163.67 757.17,162.5 M 753.08,159.58 751.92,160.17 751.33,161.33 751.33,162.5 751.92,163.67 753.08,164.25 M 762.42,156.08 762.42,164.25 M 763,156.08 763,164.25 M 763,157.83 764.17,156.67 765.92,156.08 767.08,156.08 768.83,156.67 769.42,157.83 769.42,164.25 M 767.08,156.08 768.25,156.67 768.83,157.83 768.83,164.25 M 760.67,156.08 763,156.08 M 760.67,164.25 764.75,164.25 M 767.08,164.25 771.17,164.25 M 624.75,170 624.75,182.25 M 625.33,170 625.33,182.25 M 623,170 627.08,170 M 623,182.25 631.75,182.25 631.75,178.75 631.17,182.25 M 633.5,174.08 637,182.25 M 634.08,174.08 637,181.08 M 640.5,174.08 637,182.25 635.83,184.58 634.67,185.75 633.5,186.33 632.92,186.33 632.33,185.75 632.92,185.17 633.5,185.75 M 632.33,174.08 635.83,174.08 M 638.17,174.08 641.67,174.08 M 644,174.08 644,182.25 M 644.58,174.08 644.58,182.25 M 644.58,177.58 645.17,175.83 646.33,174.67 647.5,174.08 649.25,174.08 649.83,174.67 649.83,175.25 649.25,175.83 648.67,175.25 649.25,174.67 M 642.25,174.08 644.58,174.08 M 642.25,182.25 646.33,182.25 M 652.75,170 652.17,170.58 652.75,171.17 653.33,170.58 652.75,170 M 652.75,174.08 652.75,182.25 M 653.33,174.08 653.33,182.25 M 651,174.08 653.33,174.08 M 651,182.25 655.08,182.25 M 663.83,175.83 663.25,176.42 663.83,177 664.42,176.42 664.42,175.83 663.25,174.67 662.08,174.08 660.33,174.08 658.58,174.67 657.42,175.83 656.83,177.58 656.83,178.75 657.42,180.5 658.58,181.67 660.33,182.25 661.5,182.25 663.25,181.67 664.42,180.5 M 660.33,174.08 659.17,174.67 658,175.83 657.42,177.58 657.42,178.75 658,180.5 659.17,181.67 660.33,182.25 M 672.58,175.25 673.17,174.08 673.17,176.42 672.58,175.25 672,174.67 670.83,174.08 668.5,174.08 667.33,174.67 666.75,175.25 666.75,176.42 667.33,177 668.5,177.58 671.42,178.75 672.58,179.33 673.17,179.92 M 666.75,175.83 667.33,176.42 668.5,177 671.42,178.17 672.58,178.75 673.17,179.33 673.17,181.08 672.58,181.67 671.42,182.25 669.08,182.25 667.92,181.67 667.33,181.08 666.75,179.92 666.75,182.25 667.33,181.08 M 682.5,170 682.5,182.25 M 683.08,170 683.08,182.25 M 683.08,175.83 684.25,174.67 685.42,174.08 686.58,174.08 688.33,174.67 689.5,175.83 690.08,177.58 690.08,178.75 689.5,180.5 688.33,181.67 686.58,182.25 685.42,182.25 684.25,181.67 683.08,180.5 M 686.58,174.08 687.75,174.67 688.92,175.83 689.5,177.58 689.5,178.75 688.92,180.5 687.75,181.67 686.58,182.25 M 680.75,170 683.08,170 M 693,174.08 696.5,182.25 M 693.58,174.08 696.5,181.08 M 700,174.08 696.5,182.25 695.33,184.58 694.17,185.75 693,186.33 692.42,186.33 691.83,185.75 692.42,185.17 693,185.75 M 691.83,174.08 695.33,174.08 M 697.67,174.08 701.17,174.08 M 709.33,170 709.33,182.25 M 709.92,170 709.92,182.25 M 707.58,170 711.67,170 M 707.58,182.25 716.33,182.25 716.33,178.75 715.75,182.25 M 718.08,174.08 721.58,182.25 M 718.67,174.08 721.58,181.08 M 725.08,174.08 721.58,182.25 720.42,184.58 719.25,185.75 718.08,186.33 717.5,186.33 716.92,185.75 717.5,185.17 718.08,185.75 M 716.92,174.08 720.42,174.08 M 722.75,174.08 726.25,174.08 M 728.58,174.08 728.58,182.25 M 729.17,174.08 729.17,182.25 M 729.17,177.58 729.75,175.83 730.92,174.67 732.08,174.08 733.83,174.08 734.42,174.67 734.42,175.25 733.83,175.83 733.25,175.25 733.83,174.67 M 726.83,174.08 729.17,174.08 M 726.83,182.25 730.92,182.25 M 737.33,170 736.75,170.58 737.33,171.17 737.92,170.58 737.33,170 M 737.33,174.08 737.33,182.25 M 737.92,174.08 737.92,182.25 M 735.58,174.08 737.92,174.08 M 735.58,182.25 739.67,182.25 M 748.42,175.83 747.83,176.42 748.42,177 749,176.42 749,175.83 747.83,174.67 746.67,174.08 744.92,174.08 743.17,174.67 742,175.83 741.42,177.58 741.42,178.75 742,180.5 743.17,181.67 744.92,182.25 746.08,182.25 747.83,181.67 749,180.5 M 744.92,174.08 743.75,174.67 742.58,175.83 742,177.58 742,178.75 742.58,180.5 743.75,181.67 744.92,182.25 M 752.5,170 751.92,170.58 752.5,171.17 753.08,170.58 752.5,170 M 752.5,174.08 752.5,182.25 M 753.08,174.08 753.08,182.25 M 750.75,174.08 753.08,174.08 M 750.75,182.25 754.83,182.25 M 762.42,175.25 763,174.08 763,176.42 762.42,175.25 761.83,174.67 760.67,174.08 758.33,174.08 757.17,174.67 756.58,175.25 756.58,176.42 757.17,177 758.33,177.58 761.25,178.75 762.42,179.33 763,179.92 M 756.58,175.83 757.17,176.42 758.33,177 761.25,178.17 762.42,178.75 763,179.33 763,181.08 762.42,181.67 761.25,182.25 758.92,182.25 757.75,181.67 757.17,181.08 756.58,179.92 756.58,182.25 757.17,181.08 M 766.5,170 766.5,179.92 767.08,181.67 768.25,182.25 769.42,182.25 770.58,181.67 771.17,180.5 M 767.08,170 767.08,179.92 767.67,181.67 768.25,182.25 M 764.75,174.08 769.42,174.08 M 30,196 138,196 M 30,205 138,205 M 30,214 138,214 M 30,223 138,223 M 30,232 138,232 M 42.11,244.42 43.1,244.27 43.94,243.13 43.79,242.14 42.65,241.3 41.66,241.45 40.82,242.59 41.12,244.57 42.41,246.4 44.54,247.09 46.52,246.79 49.33,245.35 51.01,243.07 51.7,240.95 52.09,236.84 50.45,225.97 45.57,200.41 44.53,193.49 44.77,188.39 45.46,186.27 47.29,184.98 48.28,184.83 50.4,185.52 51.69,187.35 52.29,191.3 51.75,194.42 51.06,196.54 49.53,199.81 45.18,204.51 39.85,209.36 38.17,211.64 36.64,214.91 35.95,217.03 35.56,221.14 36.16,225.09 37.74,228.9 40.17,231.57 43.43,233.09 47.54,233.49 51.49,232.89 55.3,231.3 57.13,230.01 58.66,226.75 59.2,223.63 58.6,219.68 57.16,216.86 55.88,215.03 53.6,213.35 50.48,212.81 46.53,213.41 43.71,214.85 42.03,217.12 41.49,220.24 42.09,224.2 43.53,227.01 45.8,228.69 M 41.81,242.44 41.96,243.43 42.95,243.28 42.8,242.29 41.81,242.44 M 49.53,199.81 46.17,204.36 41.83,209.07 39.31,212.48 37.78,215.74 37.09,217.87 36.55,220.99 37.15,224.94 38.73,228.75 40.02,230.58 43.43,233.09 M 51.49,232.89 54.31,231.45 56.14,230.16 57.67,226.9 58.21,223.78 57.61,219.83 56.17,217.01 54.89,215.18 52.61,213.5 50.48,212.81 M 91,198.45 91,213.75 M 92,197.6 92,212.9 M 93,195.9 93,213.75 M 93,195.9 82,208.65 98,208.65 M 88,213.75 96,213.75 M 91,212.9 89,213.75 M 91,212.05 90,213.75 M 93,212.05 94,213.75 M 93,212.9 95,213.75 M 91,216.45 91,231.75 M 92,215.6 92,230.9 M 93,213.9 93,231.75 M 93,213.9 82,226.65 98,226.65 M 88,231.75 96,231.75 M 91,230.9 89,231.75 M 91,230.05 90,231.75 M 93,230.05 94,231.75 M 93,230.9 95,231.75 M 108,205 132,205 M 111.5,205 111.5,208.75 M 128.5,205 128.5,208.75 M 111.5,205 128.5,205 M 111.5,206.25 128.5,206.25 M 111.5,207.5 128.5,207.5 M 111.5,208.75 128.5,208.75 M 138,196 138,232 "/></svg>