<svg xmlns="http://www.w3.org/2000/svg" width="800" height="268"><rect x="0" y="0" width="800" height="268" fill="white"></rect><path stroke="black" stroke-width="1.5" stroke-linecap="round" stroke-linejoin="round" fill="none" d="M 30,64.5 30,206.5 M 30,64.5 218.32,64.5 M 30,73.5 218.32,73.5 M 30,82.5 218.32,82.5 M 30,91.5 218.32,91.5 M 30,100.5 218.32,100.5 M 30,170.5 218.32,170.5 M 30,179.5 218.32,179.5 M 30,188.5 218.32,188.5 M 30,197.5 218.32,197.5 M 30,206.5 218.32,206.5 M 42.11,112.92 43.1,112.77 43.94,111.63 43.79,110.64 42.65,109.8 41.66,109.95 40.82,111.09 41.12,113.07 42.41,114.9 44.54,115.59 46.52,115.29 49.33,113.85 51.01,111.57 51.7,109.45 52.09,105.34 50.45,94.47 45.57,68.91 44.53,61.99 44.77,56.89 45.46,54.77 47.29,53.48 48.28,53.33 50.4,54.02 51.69,55.85 52.29,59.8 51.75,62.92 51.06,65.04 49.53,68.31 45.18,73.01 39.85,77.86 38.17,80.14 36.64,83.41 35.95,85.53 35.56,89.64 36.16,93.59 37.74,97.4 40.17,100.07 43.43,101.59 47.54,101.99 51.49,101.39 55.3,99.8 57.13,98.51 58.66,95.25 59.2,92.13 58.6,88.18 57.16,85.36 55.88,83.53 53.6,81.85 50.48,81.31 46.53,81.91 43.71,83.35 42.03,85.62 41.49,88.74 42.09,92.7 43.53,95.51 45.8,97.19 M 41.81,110.94 41.96,111.93 42.95,111.78 42.8,110.79 41.81,110.94 M 49.53,68.31 46.17,72.86 41.83,77.57 39.31,80.98 37.78,84.24 37.09,86.37 36.55,89.49 37.15,93.44 38.73,97.25 40.02,99.08 43.43,101.59 M 51.49,101.39 54.31,99.95 56.14,98.66 57.67,95.4 58.21,92.28 57.61,88.33 56.17,85.51 54.89,83.68 52.61,82 50.48,81.31 M 84,67.8 84,68.65 85,68.65 85,67.8 84,67.8 M 84,66.95 85,66.95 86,67.8 86,68.65 85,69.5 84,69.5 83,68.65 83,67.8 84,66.1 85,65.25 88,64.4 92,64.4 95,65.25 96,66.95 96,69.5 95,71.2 92,72.05 M 94,65.25 95,66.95 95,69.5 94,71.2 M 91,64.4 93,65.25 94,66.95 94,69.5 93,71.2 91,72.05 M 89,72.05 92,72.05 94,72.9 96,74.6 97,76.3 97,78.85 96,80.55 95,81.4 92,82.25 88,82.25 85,81.4 84,80.55 83,78.85 83,78 84,77.15 85,77.15 86,78 86,78.85 85,79.7 84,79.7 M 95,74.6 96,76.3 96,78.85 95,80.55 M 91,72.05 93,72.9 94,73.75 95,76.3 95,78.85 94,81.4 92,82.25 M 84,78 84,78.85 85,78.85 85,78 84,78 M 91,84.95 91,100.25 M 92,84.1 92,99.4 M 93,82.4 93,100.25 M 93,82.4 82,95.15 98,95.15 M 88,100.25 96,100.25 M 91,99.4 89,100.25 M 91,98.55 90,100.25 M 93,98.55 94,100.25 M 93,99.4 95,100.25 M 121.36,109.72 118.4,110.8 116.32,112.64 115.2,114.4 115.04,116.08 115.84,117.68 117.68,118.36 119.6,118.2 122.56,117.12 124.64,115.28 125.76,113.52 125.92,111.84 125.12,110.24 123.28,109.56 121.36,109.72 M 117.28,112.56 123.28,109.56 M 116.16,114.32 124.16,110.32 M 115.04,116.08 125.04,111.08 M 115.92,116.84 125.92,111.84 M 116.8,117.6 124.8,113.6 M 117.68,118.36 123.68,115.36 M 126,105 126,114 M 121.36,100.72 118.4,101.8 116.32,103.64 115.2,105.4 115.04,107.08 115.84,108.68 117.68,109.36 119.6,109.2 122.56,108.12 124.64,106.28 125.76,104.52 125.92,102.84 125.12,101.24 123.28,100.56 121.36,100.72 M 117.28,103.56 123.28,100.56 M 116.16,105.32 124.16,101.32 M 115.04,107.08 125.04,102.08 M 115.92,107.84 125.92,102.84 M 116.8,108.6 124.8,104.6 M 117.68,109.36 123.68,106.36 M 126,96 126,105 M 121.36,91.72 118.4,92.8 116.32,94.64 115.2,96.4 115.04,98.08 115.84,99.68 117.68,100.36 119.6,100.2 122.56,99.12 124.64,97.28 125.76,95.52 125.92,93.84 125.12,92.24 123.28,91.56 121.36,91.72 M 117.28,94.56 123.28,91.56 M 116.16,96.32 124.16,92.32 M 115.04,98.08 125.04,93.08 M 115.92,98.84 125.92,93.84 M 116.8,99.6 124.8,95.6 M 117.68,100.36 123.68,97.36 M 126,69 126,96 M 154.8,105.22 151.84,106.3 149.76,108.14 148.64,109.9 148.48,111.58 149.28,113.18 151.12,113.86 153.04,113.7 156,112.62 158.08,110.78 159.2,109.02 159.36,107.34 158.56,105.74 156.72,105.06 154.8,105.22 M 150.72,108.06 156.72,105.06 M 149.6,109.82 157.6,105.82 M 148.48,111.58 158.48,106.58 M 149.36,112.34 159.36,107.34 M 150.24,113.1 158.24,109.1 M 151.12,113.86 157.12,110.86 M 159.44,82.5 159.44,109.5 M 188.24,96.22 185.28,97.3 183.2,99.14 182.08,100.9 181.92,102.58 182.72,104.18 184.56,104.86 186.48,104.7 189.44,103.62 191.52,101.78 192.64,100.02 192.8,98.34 192,96.74 190.16,96.06 188.24,96.22 M 184.16,99.06 190.16,96.06 M 183.04,100.82 191.04,96.82 M 181.92,102.58 191.92,97.58 M 182.8,103.34 192.8,98.34 M 183.68,104.1 191.68,100.1 M 184.56,104.86 190.56,101.86 M 192.88,73.5 192.88,100.5 M 188.24,69.22 185.28,70.3 183.2,72.14 182.08,73.9 181.92,75.58 182.72,77.18 184.56,77.86 186.48,77.7 189.44,76.62 191.52,74.78 192.64,73.02 192.8,71.34 192,69.74 190.16,69.06 188.24,69.22 M 184.16,72.06 190.16,69.06 M 183.04,73.82 191.04,69.82 M 181.92,75.58 191.92,70.58 M 182.8,76.34 192.8,71.34 M 183.68,77.1 191.68,73.1 M 184.56,77.86 190.56,74.86 M 192.88,46.5 192.88,73.5 M 109.5,109.5 130.5,109.5 M 142.94,109.5 163.94,109.5 M 42.11,218.92 43.1,218.77 43.94,217.63 43.79,216.64 42.65,215.8 41.66,215.95 40.82,217.09 41.12,219.07 42.41,220.9 44.54,221.59 46.52,221.29 49.33,219.85 51.01,217.57 51.7,215.45 52.09,211.34 50.45,200.47 45.57,174.91 44.53,167.99 44.77,162.89 45.46,160.77 47.29,159.48 48.28,159.33 50.4,160.02 51.69,161.85 52.29,165.8 51.75,168.92 51.06,171.04 49.53,174.31 45.18,179.01 39.85,183.86 38.17,186.14 36.64,189.41 35.95,191.53 35.56,195.64 36.16,199.59 37.74,203.4 40.17,206.07 43.43,207.59 47.54,207.99 51.49,207.39 55.3,205.8 57.13,204.51 58.66,201.25 59.2,198.13 58.6,194.18 57.16,191.36 55.88,189.53 53.6,187.85 50.48,187.31 46.53,187.91 43.71,189.35 42.03,191.62 41.49,194.74 42.09,198.7 43.53,201.51 45.8,203.19 M 41.81,216.94 41.96,217.93 42.95,217.78 42.8,216.79 41.81,216.94 M 49.53,174.31 46.17,178.86 41.83,183.57 39.31,186.98 37.78,190.24 37.09,192.37 36.55,195.49 37.15,199.44 38.73,203.25 40.02,205.08 43.43,207.59 M 51.49,207.39 54.31,205.95 56.14,204.66 57.67,201.4 58.21,198.28 57.61,194.33 56.17,191.51 54.89,189.68 52.61,188 50.48,187.31 M 84,173.8 84,174.65 85,174.65 85,173.8 84,173.8 M 84,172.95 85,172.95 86,173.8 86,174.65 85,175.5 84,175.5 83,174.65 83,173.8 84,172.1 85,171.25 88,170.4 92,170.4 95,171.25 96,172.95 96,175.5 95,177.2 92,178.05 M 94,171.25 95,172.95 95,175.5 94,177.2 M 91,170.4 93,171.25 94,172.95 94,175.5 93,177.2 91,178.05 M 89,178.05 92,178.05 94,178.9 96,180.6 97,182.3 97,184.85 96,186.55 95,187.4 92,188.25 88,188.25 85,187.4 84,186.55 83,184.85 83,184 84,183.15 85,183.15 86,184 86,184.85 85,185.7 84,185.7 M 95,180.6 96,182.3 96,184.85 95,186.55 M 91,178.05 93,178.9 94,179.75 95,182.3 95,184.85 94,187.4 92,188.25 M 84,184 84,184.85 85,184.85 85,184 84,184 M 91,190.95 91,206.25 M 92,190.1 92,205.4 M 93,188.4 93,206.25 M 93,188.4 82,201.15 98,201.15 M 88,206.25 96,206.25 M 91,205.4 89,206.25 M 91,204.55 90,206.25 M 93,204.55 94,206.25 M 93,205.4 95,206.25 M 121.47,219.86 118.22,220.94 115.74,222.9 114.87,224.78 114.81,226.62 115.55,228.42 117.12,229.26 119.53,229.14 122.78,228.06 125.26,226.1 126.13,224.22 126.19,222.38 125.45,220.58 123.88,219.74 121.47,219.86 M 121.8,220.67 118.63,221.93 116.11,223.8 115.13,225.41 114.92,226.89 115.47,228.24 116.9,228.72 119.2,228.33 122.37,227.07 124.89,225.2 125.87,223.59 126.08,222.11 125.53,220.76 124.1,220.28 121.8,220.67 M 126,215.5 126,224.5 M 121.47,210.86 118.22,211.94 115.74,213.9 114.87,215.78 114.81,217.62 115.55,219.42 117.12,220.26 119.53,220.14 122.78,219.06 125.26,217.1 126.13,215.22 126.19,213.38 125.45,211.58 123.88,210.74 121.47,210.86 M 121.8,211.67 118.63,212.93 116.11,214.8 115.13,216.41 114.92,217.89 115.47,219.24 116.9,219.72 119.2,219.33 122.37,218.07 124.89,216.2 125.87,214.59 126.08,213.11 125.53,211.76 124.1,211.28 121.8,211.67 M 126,188.5 126,215.5 M 188.24,220.22 185.28,221.3 183.2,223.14 182.08,224.9 181.92,226.58 182.72,228.18 184.56,228.86 186.48,228.7 189.44,227.62 191.52,225.78 192.64,224.02 192.8,222.34 192,220.74 190.16,220.06 188.24,220.22 M 184.16,223.06 190.16,220.06 M 183.04,224.82 191.04,220.82 M 181.92,226.58 191.92,221.58 M 182.8,227.34 192.8,222.34 M 183.68,228.1 191.68,224.1 M 184.56,228.86 190.56,225.86 M 192.88,215.5 192.88,224.5 M 188.24,211.22 185.28,212.3 183.2,214.14 182.08,215.9 181.92,217.58 182.72,219.18 184.56,219.86 186.48,219.7 189.44,218.62 191.52,216.78 192.64,215.02 192.8,213.34 192,211.74 190.16,211.06 188.24,211.22 M 184.16,214.06 190.16,211.06 M 183.04,215.82 191.04,211.82 M 181.92,217.58 191.92,212.58 M 182.8,218.34 192.8,213.34 M 183.68,219.1 191.68,215.1 M 184.56,219.86 190.56,216.86 M 192.88,188.5 192.88,215.5 M 109.5,215.5 130.5,215.5 M 109.5,224.5 130.5,224.5 M 176.38,215.5 197.38,215.5 M 176.38,224.5 197.38,224.5 M 218.32,64.5 218.32,206.5 M 122,121 124.47,123.37 127.28,125.31 130.39,126.83 133.76,127.94 137.34,128.67 141.08,129.03 144.94,129.03 148.89,128.7 152.87,128.04 156.84,127.08 160.75,125.84 164.57,124.32 168.25,122.55 171.74,120.54 175,118.31 177.99,115.87 180.67,113.25 182.98,110.45 184.88,107.5 M 180.67,112.97 177.99,115.47 175,117.81 171.74,119.96 168.25,121.9 164.57,123.62 160.75,125.11 156.84,126.34 152.87,127.29 148.89,127.97 144.94,128.33 141.08,128.38 137.34,128.09 133.76,127.44 130.39,126.43 127.28,125.03 M 123,231.5 125.12,232.71 127.6,233.79 130.4,234.73 133.47,235.54 136.78,236.21 140.29,236.75 143.94,237.15 147.7,237.42 151.52,237.56 155.36,237.56 159.18,237.42 162.94,237.15 166.59,236.75 170.1,236.21 173.41,235.54 176.48,234.73 179.28,233.79 181.76,232.71 183.88,231.5 M 179.28,233.51 176.48,234.33 173.41,235.04 170.1,235.63 166.59,236.1 162.94,236.46 159.18,236.69 155.36,236.81 151.52,236.81 147.7,236.69 143.94,236.46 140.29,236.1 136.78,235.63 133.47,235.04 130.4,234.33 127.6,233.51 M 123,208.5 125.12,207.29 127.6,206.21 130.4,205.27 133.47,204.46 136.78,203.79 140.29,203.25 143.94,202.85 147.7,202.58 151.52,202.44 155.36,202.44 159.18,202.58 162.94,202.85 166.59,203.25 170.1,203.79 173.41,204.46 176.48,205.27 179.28,206.21 181.76,207.29 183.88,208.5 M 179.28,206.49 176.48,205.67 173.41,204.96 170.1,204.37 166.59,203.9 162.94,203.54 159.18,203.31 155.36,203.19 151.52,203.19 147.7,203.31 143.94,203.54 140.29,203.9 136.78,204.37 133.47,204.96 130.4,205.67 127.6,206.49 "/></svg>