<svg xmlns="http://www.w3.org/2000/svg" width="800" height="127.8"><rect x="0" y="0" width="800" height="127.8" fill="white"></rect><path stroke="black" stroke-width="1.5" stroke-linecap="round" stroke-linejoin="round" fill="none" d="M 30,43.8 183.44,43.8 M 30,52.8 183.44,52.8 M 30,61.8 183.44,61.8 M 30,70.8 183.44,70.8 M 30,79.8 183.44,79.8 M 42.11,92.22 43.1,92.07 43.94,90.93 43.79,89.94 42.65,89.1 41.66,89.25 40.82,90.39 41.12,92.37 42.41,94.2 44.54,94.89 46.52,94.59 49.33,93.15 51.01,90.87 51.7,88.75 52.09,84.64 50.45,73.77 45.57,48.21 44.53,41.29 44.77,36.19 45.46,34.07 47.29,32.78 48.28,32.63 50.4,33.32 51.69,35.15 52.29,39.1 51.75,42.22 51.06,44.34 49.53,47.61 45.18,52.31 39.85,57.16 38.17,59.44 36.64,62.71 35.95,64.83 35.56,68.94 36.16,72.89 37.74,76.7 40.17,79.37 43.43,80.89 47.54,81.29 51.49,80.69 55.3,79.1 57.13,77.81 58.66,74.55 59.2,71.43 58.6,67.48 57.16,64.66 55.88,62.83 53.6,61.15 50.48,60.61 46.53,61.21 43.71,62.65 42.03,64.92 41.49,68.04 42.09,72 43.53,74.81 45.8,76.49 M 41.81,90.24 41.96,91.23 42.95,91.08 42.8,90.09 41.81,90.24 M 49.53,47.61 46.17,52.16 41.83,56.87 39.31,60.28 37.78,63.54 37.09,65.67 36.55,68.79 37.15,72.74 38.73,76.55 40.02,78.38 43.43,80.89 M 51.49,80.69 54.31,79.25 56.14,77.96 57.67,74.7 58.21,71.58 57.61,67.63 56.17,64.81 54.89,62.98 52.61,61.3 50.48,60.61 M 91,46.25 91,61.55 M 92,45.4 92,60.7 M 93,43.7 93,61.55 M 93,43.7 82,56.45 98,56.45 M 88,61.55 96,61.55 M 91,60.7 89,61.55 M 91,59.85 90,61.55 M 93,59.85 94,61.55 M 93,60.7 95,61.55 M 91,64.25 91,79.55 M 92,63.4 92,78.7 M 93,61.7 93,79.55 M 93,61.7 82,74.45 98,74.45 M 88,79.55 96,79.55 M 91,78.7 89,79.55 M 91,77.85 90,79.55 M 93,77.85 94,79.55 M 93,78.7 95,79.55 M 130.9,83.2 130.9,85.4 133.1,85.4 133.1,83.2 130.9,83.2 M 130.9,83.2 133.1,85.4 M 133.1,83.2 130.9,85.4 M 121.36,84.52 118.4,85.6 116.32,87.44 115.2,89.2 115.04,90.88 115.84,92.48 117.68,93.16 119.6,93 122.56,91.92 124.64,90.08 125.76,88.32 125.92,86.64 125.12,85.04 123.28,84.36 121.36,84.52 M 117.28,87.36 123.28,84.36 M 116.16,89.12 124.16,85.12 M 115.04,90.88 125.04,85.88 M 115.92,91.64 125.92,86.64 M 116.8,92.4 124.8,88.4 M 117.68,93.16 123.68,90.16 M 163.44,80.02 160.48,81.1 158.4,82.94 157.28,84.7 157.12,86.38 157.92,87.98 159.76,88.66 161.68,88.5 164.64,87.42 166.72,85.58 167.84,83.82 168,82.14 167.2,80.54 165.36,79.86 163.44,80.02 M 159.36,82.86 165.36,79.86 M 158.24,84.62 166.24,80.62 M 157.12,86.38 167.12,81.38 M 158,87.14 168,82.14 M 158.88,87.9 166.88,83.9 M 159.76,88.66 165.76,85.66 M 126,53.46 168.08,46.8 M 126,54.55 168.08,47.89 M 126,55.64 168.08,48.98 M 126,56.73 168.08,50.07 M 155.46,55.28 168.08,53.28 M 155.46,56.37 168.08,54.37 M 155.46,57.46 168.08,55.46 M 155.46,58.55 168.08,56.55 M 126,53.16 126,88.8 M 168.08,46.5 168.08,84.3 M 109.5,88.8 130.5,88.8 M 183.44,43.8 183.44,79.8 "/></svg>