<svg xmlns="http://www.w3.org/2000/svg" width="800" height="166.5"><rect x="0" y="0" width="800" height="166.5" fill="white"></rect><path stroke="black" stroke-width="1.5" stroke-linecap="round" stroke-linejoin="round" fill="none" d="M 30,69 267.76,69 M 30,78 267.76,78 M 30,87 267.76,87 M 30,96 267.76,96 M 30,105 267.76,105 M 42.11,117.42 43.1,117.27 43.94,116.13 43.79,115.14 42.65,114.3 41.66,114.45 40.82,115.59 41.12,117.57 42.41,119.4 44.54,120.09 46.52,119.79 49.33,118.35 51.01,116.07 51.7,113.95 52.09,109.84 50.45,98.97 45.57,73.41 44.53,66.49 44.77,61.39 45.46,59.27 47.29,57.98 48.28,57.83 50.4,58.52 51.69,60.35 52.29,64.3 51.75,67.42 51.06,69.54 49.53,72.81 45.18,77.51 39.85,82.36 38.17,84.64 36.64,87.91 35.95,90.03 35.56,94.14 36.16,98.09 37.74,101.9 40.17,104.57 43.43,106.09 47.54,106.49 51.49,105.89 55.3,104.3 57.13,103.01 58.66,99.75 59.2,96.63 58.6,92.68 57.16,89.86 55.88,88.03 53.6,86.35 50.48,85.81 46.53,86.41 43.71,87.85 42.03,90.12 41.49,93.24 42.09,97.2 43.53,100.01 45.8,101.69 M 41.81,115.44 41.96,116.43 42.95,116.28 42.8,115.29 41.81,115.44 M 49.53,72.81 46.17,77.36 41.83,82.07 39.31,85.48 37.78,88.74 37.09,90.87 36.55,93.99 37.15,97.94 38.73,101.75 40.02,103.58 43.43,106.09 M 51.49,105.89 54.31,104.45 56.14,103.16 57.67,99.9 58.21,96.78 57.61,92.83 56.17,90.01 54.89,88.18 52.61,86.5 50.48,85.81 M 84,72.3 84,73.15 85,73.15 85,72.3 84,72.3 M 84,71.45 85,71.45 86,72.3 86,73.15 85,74 84,74 83,73.15 83,72.3 84,70.6 85,69.75 88,68.9 92,68.9 95,69.75 96,70.6 97,72.3 97,74 96,75.7 93,77.4 88,79.1 86,79.95 84,81.65 83,84.2 83,86.75 M 95,70.6 96,72.3 96,74 95,75.7 M 92,68.9 94,69.75 95,72.3 95,74 94,75.7 92,77.4 88,79.1 M 83,85.05 84,84.2 86,84.2 91,85.05 95,85.05 97,84.2 M 86,84.2 91,85.9 95,85.9 96,85.05 M 86,84.2 91,86.75 95,86.75 96,85.9 97,84.2 97,82.5 M 91,89.45 91,104.75 M 92,88.6 92,103.9 M 93,86.9 93,104.75 M 93,86.9 82,99.65 98,99.65 M 88,104.75 96,104.75 M 91,103.9 89,104.75 M 91,103.05 90,104.75 M 93,103.05 94,104.75 M 93,103.9 95,104.75 M 121.36,87.22 118.4,88.3 116.32,90.14 115.2,91.9 115.04,93.58 115.84,95.18 117.68,95.86 119.6,95.7 122.56,94.62 124.64,92.78 125.76,91.02 125.92,89.34 125.12,87.74 123.28,87.06 121.36,87.22 M 117.28,90.06 123.28,87.06 M 116.16,91.82 124.16,87.82 M 115.04,93.58 125.04,88.58 M 115.92,94.34 125.92,89.34 M 116.8,95.1 124.8,91.1 M 117.68,95.86 123.68,92.86 M 126,64.5 126,91.5 M 154.8,69.22 151.84,70.3 149.76,72.14 148.64,73.9 148.48,75.58 149.28,77.18 151.12,77.86 153.04,77.7 156,76.62 158.08,74.78 159.2,73.02 159.36,71.34 158.56,69.74 156.72,69.06 154.8,69.22 M 150.72,72.06 156.72,69.06 M 149.6,73.82 157.6,69.82 M 148.48,75.58 158.48,70.58 M 149.36,76.34 159.36,71.34 M 150.24,77.1 158.24,73.1 M 151.12,77.86 157.12,74.86 M 159.44,46.5 159.44,73.5 M 153.8,100.72 150.84,101.8 148.76,103.64 147.64,105.4 147.48,107.08 148.28,108.68 150.12,109.36 152.04,109.2 155,108.12 157.08,106.28 158.2,104.52 158.36,102.84 157.56,101.24 155.72,100.56 153.8,100.72 M 149.72,103.56 155.72,100.56 M 148.6,105.32 156.6,101.32 M 147.48,107.08 157.48,102.08 M 148.36,107.84 158.36,102.84 M 149.24,108.6 157.24,104.6 M 150.12,109.36 156.12,106.36 M 147.44,132 147.44,105 M 117.51,108.17 123.48,117.63 120.2,124.99 120.3,125.99 M 122.39,116.73 119.1,124.09 M 121.09,113.85 121.29,115.84 118.01,123.2 120.3,125.99 123.68,129.67 M 125.97,132.45 123.68,129.67 121.59,128.87 119.6,129.07 117.71,130.26 116.92,132.35 117.12,134.34 118.31,136.23 121.5,137.93 M 125.97,132.45 123.78,130.66 121.69,129.87 117.71,130.26 118.11,134.24 119.31,136.13 121.5,137.93 M 121.59,128.87 118.81,131.16 117.12,134.34 M 184.88,69 184.88,105 M 204.24,87.22 201.28,88.3 199.2,90.14 198.08,91.9 197.92,93.58 198.72,95.18 200.56,95.86 202.48,95.7 205.44,94.62 207.52,92.78 208.64,91.02 208.8,89.34 208,87.74 206.16,87.06 204.24,87.22 M 200.16,90.06 206.16,87.06 M 199.04,91.82 207.04,87.82 M 197.92,93.58 207.92,88.58 M 198.8,94.34 208.8,89.34 M 199.68,95.1 207.68,91.1 M 200.56,95.86 206.56,92.86 M 208.88,64.5 208.88,91.5 M 237.68,69.22 234.72,70.3 232.64,72.14 231.52,73.9 231.36,75.58 232.16,77.18 234,77.86 235.92,77.7 238.88,76.62 240.96,74.78 242.08,73.02 242.24,71.34 241.44,69.74 239.6,69.06 237.68,69.22 M 233.6,72.06 239.6,69.06 M 232.48,73.82 240.48,69.82 M 231.36,75.58 241.36,70.58 M 232.24,76.34 242.24,71.34 M 233.12,77.1 241.12,73.1 M 234,77.86 240,74.86 M 242.32,46.5 242.32,73.5 M 236.68,100.72 233.72,101.8 231.64,103.64 230.52,105.4 230.36,107.08 231.16,108.68 233,109.36 234.92,109.2 237.88,108.12 239.96,106.28 241.08,104.52 241.24,102.84 240.44,101.24 238.6,100.56 236.68,100.72 M 232.6,103.56 238.6,100.56 M 231.48,105.32 239.48,101.32 M 230.36,107.08 240.36,102.08 M 231.24,107.84 241.24,102.84 M 232.12,108.6 240.12,104.6 M 233,109.36 239,106.36 M 230.32,132 230.32,105 M 267.76,69 267.76,105 "/></svg>