<svg xmlns="http://www.w3.org/2000/svg" width="800" height="152"><rect x="0" y="0" width="800" height="152" fill="white"></rect><path stroke="black" stroke-width="1.5" stroke-linecap="round" stroke-linejoin="round" fill="none" d="M 37.36,51.72 34.4,52.8 32.32,54.64 31.2,56.4 31.04,58.08 31.84,59.68 33.68,60.36 35.6,60.2 38.56,59.12 40.64,57.28 41.76,55.52 41.92,53.84 41.12,52.24 39.28,51.56 37.36,51.72 M 33.28,54.56 39.28,51.56 M 32.16,56.32 40.16,52.32 M 31.04,58.08 41.04,53.08 M 31.92,58.84 41.92,53.84 M 32.8,59.6 40.8,55.6 M 33.68,60.36 39.68,57.36 M 42,35.52 42,56 M 46.9,50.4 46.9,52.6 49.1,52.6 49.1,50.4 46.9,50.4 M 46.9,50.4 49.1,52.6 M 49.1,50.4 46.9,52.6 M 62.17,47.25 72.67,47.25 M 62.17,50.75 72.67,50.75 M 84.33,42 82.58,42.58 82,43.75 82,45.5 82.58,46.67 84.33,47.25 86.67,47.25 88.42,46.67 89,45.5 89,43.75 88.42,42.58 86.67,42 84.33,42 M 84.33,42 83.17,42.58 82.58,43.75 82.58,45.5 83.17,46.67 84.33,47.25 M 86.67,47.25 87.83,46.67 88.42,45.5 88.42,43.75 87.83,42.58 86.67,42 M 84.33,47.25 82.58,47.83 82,48.42 81.42,49.58 81.42,51.92 82,53.08 82.58,53.67 84.33,54.25 86.67,54.25 88.42,53.67 89,53.08 89.58,51.92 89.58,49.58 89,48.42 88.42,47.83 86.67,47.25 M 84.33,47.25 83.17,47.83 82.58,48.42 82,49.58 82,51.92 82.58,53.08 83.17,53.67 84.33,54.25 M 86.67,54.25 87.83,53.67 88.42,53.08 89,51.92 89,49.58 88.42,48.42 87.83,47.83 86.67,47.25 M 95.42,42 93.67,42.58 92.5,44.33 91.92,47.25 91.92,49 92.5,51.92 93.67,53.67 95.42,54.25 96.58,54.25 98.33,53.67 99.5,51.92 100.08,49 100.08,47.25 99.5,44.33 98.33,42.58 96.58,42 95.42,42 M 95.42,42 94.25,42.58 93.67,43.17 93.08,44.33 92.5,47.25 92.5,49 93.08,51.92 93.67,53.08 94.25,53.67 95.42,54.25 M 96.58,54.25 97.75,53.67 98.33,53.08 98.92,51.92 99.5,49 99.5,47.25 98.92,44.33 98.33,43.17 97.75,42.58 96.58,42 M 30,68 222.32,68 M 30,77 222.32,77 M 30,86 222.32,86 M 30,95 222.32,95 M 30,104 222.32,104 M 42.11,116.42 43.1,116.27 43.94,115.13 43.79,114.14 42.65,113.3 41.66,113.45 40.82,114.59 41.12,116.57 42.41,118.4 44.54,119.09 46.52,118.79 49.33,117.35 51.01,115.07 51.7,112.95 52.09,108.84 50.45,97.97 45.57,72.41 44.53,65.49 44.77,60.39 45.46,58.27 47.29,56.98 48.28,56.83 50.4,57.52 51.69,59.35 52.29,63.3 51.75,66.42 51.06,68.54 49.53,71.81 45.18,76.51 39.85,81.36 38.17,83.64 36.64,86.91 35.95,89.03 35.56,93.14 36.16,97.09 37.74,100.9 40.17,103.57 43.43,105.09 47.54,105.49 51.49,104.89 55.3,103.3 57.13,102.01 58.66,98.75 59.2,95.63 58.6,91.68 57.16,88.86 55.88,87.03 53.6,85.35 50.48,84.81 46.53,85.41 43.71,86.85 42.03,89.12 41.49,92.24 42.09,96.2 43.53,99.01 45.8,100.69 M 41.81,114.44 41.96,115.43 42.95,115.28 42.8,114.29 41.81,114.44 M 49.53,71.81 46.17,76.36 41.83,81.07 39.31,84.48 37.78,87.74 37.09,89.87 36.55,92.99 37.15,96.94 38.73,100.75 40.02,102.58 43.43,105.09 M 51.49,104.89 54.31,103.45 56.14,102.16 57.67,98.9 58.21,95.78 57.61,91.83 56.17,89.01 54.89,87.18 52.61,85.5 50.48,84.81 M 94,70.45 94,71.3 95,71.3 95,70.45 94,70.45 M 95,69.6 94,69.6 93,70.45 93,71.3 94,72.15 95,72.15 96,71.3 96,70.45 95,68.75 93,67.9 90,67.9 87,68.75 85,70.45 84,72.15 83,75.55 83,80.65 84,83.2 86,84.9 89,85.75 91,85.75 94,84.9 96,83.2 97,80.65 97,79.8 96,77.25 94,75.55 91,74.7 89,74.7 87,75.55 86,76.4 85,78.1 M 86,70.45 85,72.15 84,75.55 84,80.65 85,83.2 86,84.05 M 95,83.2 96,81.5 96,78.95 95,77.25 M 90,67.9 88,68.75 87,69.6 86,71.3 85,74.7 85,80.65 86,83.2 87,84.9 89,85.75 M 91,85.75 93,84.9 94,84.05 95,81.5 95,78.95 94,76.4 93,75.55 91,74.7 M 88,85.9 85,86.75 84,88.45 84,91 85,92.7 88,93.55 92,93.55 95,92.7 96,91 96,88.45 95,86.75 92,85.9 88,85.9 M 86,86.75 85,88.45 85,91 86,92.7 M 94,92.7 95,91 95,88.45 94,86.75 M 88,85.9 87,86.75 86,88.45 86,91 87,92.7 88,93.55 M 92,93.55 93,92.7 94,91 94,88.45 93,86.75 92,85.9 M 88,93.55 85,94.4 84,95.25 83,96.95 83,100.35 84,102.05 85,102.9 88,103.75 92,103.75 95,102.9 96,102.05 97,100.35 97,96.95 96,95.25 95,94.4 92,93.55 M 85,95.25 84,96.95 84,100.35 85,102.05 M 95,102.05 96,100.35 96,96.95 95,95.25 M 88,93.55 86,94.4 85,96.95 85,100.35 86,102.9 88,103.75 M 92,103.75 94,102.9 95,100.35 95,96.95 94,94.4 92,93.55 M 130.9,107.4 130.9,109.6 133.1,109.6 133.1,107.4 130.9,107.4 M 130.9,107.4 133.1,109.6 M 133.1,107.4 130.9,109.6 M 121.36,108.72 118.4,109.8 116.32,111.64 115.2,113.4 115.04,115.08 115.84,116.68 117.68,117.36 119.6,117.2 122.56,116.12 124.64,114.28 125.76,112.52 125.92,110.84 125.12,109.24 123.28,108.56 121.36,108.72 M 117.28,111.56 123.28,108.56 M 116.16,113.32 124.16,109.32 M 115.04,115.08 125.04,110.08 M 115.92,115.84 125.92,110.84 M 116.8,116.6 124.8,112.6 M 117.68,117.36 123.68,114.36 M 126,86 126,113 M 183.06,107.4 183.06,109.6 185.26,109.6 185.26,107.4 183.06,107.4 M 183.06,107.4 185.26,109.6 M 185.26,107.4 183.06,109.6 M 173.52,108.72 170.56,109.8 168.48,111.64 167.36,113.4 167.2,115.08 168,116.68 169.84,117.36 171.76,117.2 174.72,116.12 176.8,114.28 177.92,112.52 178.08,110.84 177.28,109.24 175.44,108.56 173.52,108.72 M 169.44,111.56 175.44,108.56 M 168.32,113.32 176.32,109.32 M 167.2,115.08 177.2,110.08 M 168.08,115.84 178.08,110.84 M 168.96,116.6 176.96,112.6 M 169.84,117.36 175.84,114.36 M 178.16,86 178.16,113 M 109.5,113 130.5,113 M 161.66,113 182.66,113 M 222.32,68 222.32,104 "/></svg>