<svg xmlns="http://www.w3.org/2000/svg" width="800" height="198"><rect x="0" y="0" width="800" height="198" fill="white"></rect><path stroke="black" stroke-width="1.5" stroke-linecap="round" stroke-linejoin="round" fill="none" d="M 353.25,30 353.25,38.5 M 363.17,30 363.17,59.75 M 364.58,31.42 364.58,58.33 M 366,30 366,59.75 M 375.92,30 375.92,38.5 M 353.25,30 375.92,30 M 358.92,59.75 370.25,59.75 M 354.67,30 353.25,38.5 M 356.08,30 353.25,34.25 M 357.5,30 353.25,32.83 M 360.33,30 353.25,31.42 M 368.83,30 375.92,31.42 M 371.67,30 375.92,32.83 M 373.08,30 375.92,34.25 M 374.5,30 375.92,38.5 M 363.17,58.33 360.33,59.75 M 363.17,56.92 361.75,59.75 M 366,56.92 367.42,59.75 M 366,58.33 368.83,59.75 M 383,30 383,32.83 385.83,32.83 385.83,30 383,30 M 384.42,30 384.42,32.83 M 383,31.42 385.83,31.42 M 383,39.92 383,59.75 M 384.42,41.33 384.42,58.33 M 378.75,39.92 385.83,39.92 385.83,59.75 M 378.75,59.75 390.08,59.75 M 380.17,39.92 383,41.33 M 381.58,39.92 383,42.75 M 383,58.33 380.17,59.75 M 383,56.92 381.58,59.75 M 385.83,56.92 387.25,59.75 M 385.83,58.33 388.67,59.75 M 397.17,32.83 397.17,52.67 398.58,56.92 400,58.33 402.83,59.75 405.67,59.75 408.5,58.33 409.92,55.5 M 398.58,32.83 398.58,54.08 400,56.92 M 397.17,32.83 400,30 400,54.08 401.42,58.33 402.83,59.75 M 392.92,39.92 405.67,39.92 M 415.58,30 415.58,59.75 M 417,31.42 417,58.33 M 411.33,30 418.42,30 418.42,59.75 M 411.33,59.75 422.67,59.75 M 412.75,30 415.58,31.42 M 414.17,30 415.58,32.83 M 415.58,58.33 412.75,59.75 M 415.58,56.92 414.17,59.75 M 418.42,56.92 419.83,59.75 M 418.42,58.33 421.25,59.75 M 429.75,48.42 445.33,48.42 445.33,45.58 443.92,42.75 442.5,41.33 438.25,39.92 435.42,39.92 431.17,41.33 428.33,44.17 426.92,48.42 426.92,51.25 428.33,55.5 431.17,58.33 435.42,59.75 438.25,59.75 442.5,58.33 445.33,55.5 M 443.92,47 443.92,45.58 442.5,42.75 M 429.75,44.17 428.33,47 428.33,52.67 429.75,55.5 M 442.5,48.42 442.5,44.17 441.08,41.33 438.25,39.92 M 435.42,39.92 432.58,41.33 431.17,42.75 429.75,47 429.75,52.67 431.17,56.92 432.58,58.33 435.42,59.75 M 694.17,88 694.17,97.92 693.58,99.67 692.42,100.25 691.25,100.25 690.08,99.67 689.5,98.5 689.5,97.33 690.08,96.75 690.67,97.33 690.08,97.92 M 693.58,88 693.58,97.92 693,99.67 692.42,100.25 M 691.83,88 695.92,88 M 698.83,99.08 698.25,99.67 698.83,100.25 699.42,99.67 698.83,99.08 M 715.75,89.75 716.33,88 716.33,91.5 715.75,89.75 714.58,88.58 712.83,88 711.08,88 709.33,88.58 708.17,89.75 708.17,90.92 708.75,92.08 709.33,92.67 710.5,93.25 714,94.42 715.17,95 716.33,96.17 M 708.17,90.92 709.33,92.08 710.5,92.67 714,93.83 715.17,94.42 715.75,95 716.33,96.17 716.33,98.5 715.17,99.67 713.42,100.25 711.67,100.25 709.92,99.67 708.75,98.5 708.17,96.75 708.17,100.25 708.75,98.5 M 719.83,99.08 719.25,99.67 719.83,100.25 720.42,99.67 719.83,99.08 M 730.33,88 730.33,100.25 M 730.92,88 730.92,100.25 M 728.58,88 735.58,88 737.33,88.58 737.92,89.17 738.5,90.33 738.5,91.5 737.92,92.67 737.33,93.25 735.58,93.83 M 735.58,88 736.75,88.58 737.33,89.17 737.92,90.33 737.92,91.5 737.33,92.67 736.75,93.25 735.58,93.83 M 730.92,93.83 735.58,93.83 737.33,94.42 737.92,95 738.5,96.17 738.5,97.92 737.92,99.08 737.33,99.67 735.58,100.25 728.58,100.25 M 735.58,93.83 736.75,94.42 737.33,95 737.92,96.17 737.92,97.92 737.33,99.08 736.75,99.67 735.58,100.25 M 742,93.25 742,93.83 741.42,93.83 741.42,93.25 742,92.67 743.17,92.08 745.5,92.08 746.67,92.67 747.25,93.25 747.83,94.42 747.83,98.5 748.42,99.67 749,100.25 M 747.25,93.25 747.25,98.5 747.83,99.67 749,100.25 749.58,100.25 M 747.25,94.42 746.67,95 743.17,95.58 741.42,96.17 740.83,97.33 740.83,98.5 741.42,99.67 743.17,100.25 744.92,100.25 746.08,99.67 747.25,98.5 M 743.17,95.58 742,96.17 741.42,97.33 741.42,98.5 742,99.67 743.17,100.25 M 758.33,93.83 757.75,94.42 758.33,95 758.92,94.42 758.92,93.83 757.75,92.67 756.58,92.08 754.83,92.08 753.08,92.67 751.92,93.83 751.33,95.58 751.33,96.75 751.92,98.5 753.08,99.67 754.83,100.25 756,100.25 757.75,99.67 758.92,98.5 M 754.83,92.08 753.67,92.67 752.5,93.83 751.92,95.58 751.92,96.75 752.5,98.5 753.67,99.67 754.83,100.25 M 762.42,88 762.42,100.25 M 763,88 763,100.25 M 763,93.83 764.17,92.67 765.92,92.08 767.08,92.08 768.83,92.67 769.42,93.83 769.42,100.25 M 767.08,92.08 768.25,92.67 768.83,93.83 768.83,100.25 M 760.67,88 763,88 M 760.67,100.25 764.75,100.25 M 767.08,100.25 771.17,100.25 M 30,114 138,114 M 30,123 138,123 M 30,132 138,132 M 30,141 138,141 M 30,150 138,150 M 42.11,162.42 43.1,162.27 43.94,161.13 43.79,160.14 42.65,159.3 41.66,159.45 40.82,160.59 41.12,162.57 42.41,164.4 44.54,165.09 46.52,164.79 49.33,163.35 51.01,161.07 51.7,158.95 52.09,154.84 50.45,143.97 45.57,118.41 44.53,111.49 44.77,106.39 45.46,104.27 47.29,102.98 48.28,102.83 50.4,103.52 51.69,105.35 52.29,109.3 51.75,112.42 51.06,114.54 49.53,117.81 45.18,122.51 39.85,127.36 38.17,129.64 36.64,132.91 35.95,135.03 35.56,139.14 36.16,143.09 37.74,146.9 40.17,149.57 43.43,151.09 47.54,151.49 51.49,150.89 55.3,149.3 57.13,148.01 58.66,144.75 59.2,141.63 58.6,137.68 57.16,134.86 55.88,133.03 53.6,131.35 50.48,130.81 46.53,131.41 43.71,132.85 42.03,135.12 41.49,138.24 42.09,142.2 43.53,145.01 45.8,146.69 M 41.81,160.44 41.96,161.43 42.95,161.28 42.8,160.29 41.81,160.44 M 49.53,117.81 46.17,122.36 41.83,127.07 39.31,130.48 37.78,133.74 37.09,135.87 36.55,138.99 37.15,142.94 38.73,146.75 40.02,148.58 43.43,151.09 M 51.49,150.89 54.31,149.45 56.14,148.16 57.67,144.9 58.21,141.78 57.61,137.83 56.17,135.01 54.89,133.18 52.61,131.5 50.48,130.81 M 91,116.45 91,131.75 M 92,115.6 92,130.9 M 93,113.9 93,131.75 M 93,113.9 82,126.65 98,126.65 M 88,131.75 96,131.75 M 91,130.9 89,131.75 M 91,130.05 90,131.75 M 93,130.05 94,131.75 M 93,130.9 95,131.75 M 91,134.45 91,149.75 M 92,133.6 92,148.9 M 93,131.9 93,149.75 M 93,131.9 82,144.65 98,144.65 M 88,149.75 96,149.75 M 91,148.9 89,149.75 M 91,148.05 90,149.75 M 93,148.05 94,149.75 M 93,148.9 95,149.75 M 108,123 132,123 M 111.5,123 111.5,126.75 M 128.5,123 128.5,126.75 M 111.5,123 128.5,123 M 111.5,124.25 128.5,124.25 M 111.5,125.5 128.5,125.5 M 111.5,126.75 128.5,126.75 M 138,114 138,150 "/></svg>