<svg xmlns="http://www.w3.org/2000/svg" width="800" height="762"><rect x="0" y="0" width="800" height="762" fill="white"></rect><path stroke="black" stroke-width="1.5" stroke-linecap="round" stroke-linejoin="round" fill="none" d="M 30,42 30,714 M 30,42 211.76,42 M 30,51 211.76,51 M 30,60 211.76,60 M 30,69 211.76,69 M 30,78 211.76,78 M 30,148 211.76,148 M 30,157 211.76,157 M 30,166 211.76,166 M 30,175 211.76,175 M 30,184 211.76,184 M 30,254 211.76,254 M 30,263 211.76,263 M 30,272 211.76,272 M 30,281 211.76,281 M 30,290 211.76,290 M 30,360 211.76,360 M 30,369 211.76,369 M 30,378 211.76,378 M 30,387 211.76,387 M 30,396 211.76,396 M 30,466 211.76,466 M 30,475 211.76,475 M 30,484 211.76,484 M 30,493 211.76,493 M 30,502 211.76,502 M 30,572 211.76,572 M 30,581 211.76,581 M 30,590 211.76,590 M 30,599 211.76,599 M 30,608 211.76,608 M 30,678 211.76,678 M 30,687 211.76,687 M 30,696 211.76,696 M 30,705 211.76,705 M 30,714 211.76,714 M 42.11,90.42 43.1,90.27 43.94,89.13 43.79,88.14 42.65,87.3 41.66,87.45 40.82,88.59 41.12,90.57 42.41,92.4 44.54,93.09 46.52,92.79 49.33,91.35 51.01,89.07 51.7,86.95 52.09,82.84 50.45,71.97 45.57,46.41 44.53,39.49 44.77,34.39 45.46,32.27 47.29,30.98 48.28,30.83 50.4,31.52 51.69,33.35 52.29,37.3 51.75,40.42 51.06,42.54 49.53,45.81 45.18,50.51 39.85,55.36 38.17,57.64 36.64,60.91 35.95,63.03 35.56,67.14 36.16,71.09 37.74,74.9 40.17,77.57 43.43,79.09 47.54,79.49 51.49,78.89 55.3,77.3 57.13,76.01 58.66,72.75 59.2,69.63 58.6,65.68 57.16,62.86 55.88,61.03 53.6,59.35 50.48,58.81 46.53,59.41 43.71,60.85 42.03,63.12 41.49,66.24 42.09,70.2 43.53,73.01 45.8,74.69 M 41.81,88.44 41.96,89.43 42.95,89.28 42.8,88.29 41.81,88.44 M 49.53,45.81 46.17,50.36 41.83,55.07 39.31,58.48 37.78,61.74 37.09,63.87 36.55,66.99 37.15,70.94 38.73,74.75 40.02,76.58 43.43,79.09 M 51.49,78.89 54.31,77.45 56.14,76.16 57.67,72.9 58.21,69.78 57.61,65.83 56.17,63.01 54.89,61.18 52.61,59.5 50.48,58.81 M 91,44.45 91,59.75 M 92,43.6 92,58.9 M 93,41.9 93,59.75 M 93,41.9 82,54.65 98,54.65 M 88,59.75 96,59.75 M 91,58.9 89,59.75 M 91,58.05 90,59.75 M 93,58.05 94,59.75 M 93,58.9 95,59.75 M 91,62.45 91,77.75 M 92,61.6 92,76.9 M 93,59.9 93,77.75 M 93,59.9 82,72.65 98,72.65 M 88,77.75 96,77.75 M 91,76.9 89,77.75 M 91,76.05 90,77.75 M 93,76.05 94,77.75 M 93,76.9 95,77.75 M 121.47,82.36 118.22,83.44 115.74,85.4 114.87,87.28 114.81,89.12 115.55,90.92 117.12,91.76 119.53,91.64 122.78,90.56 125.26,88.6 126.13,86.72 126.19,84.88 125.45,83.08 123.88,82.24 121.47,82.36 M 121.8,83.17 118.63,84.43 116.11,86.3 115.13,87.91 114.92,89.39 115.47,90.74 116.9,91.22 119.2,90.83 122.37,89.57 124.89,87.7 125.87,86.09 126.08,84.61 125.53,83.26 124.1,82.78 121.8,83.17 M 126,60 126,87 M 168.35,77.86 165.1,78.94 162.62,80.9 161.75,82.78 161.69,84.62 162.43,86.42 164,87.26 166.41,87.14 169.66,86.06 172.14,84.1 173.01,82.22 173.07,80.38 172.33,78.58 170.76,77.74 168.35,77.86 M 168.68,78.67 165.51,79.93 162.99,81.8 162.01,83.41 161.8,84.89 162.35,86.24 163.78,86.72 166.08,86.33 169.25,85.07 171.77,83.2 172.75,81.59 172.96,80.11 172.41,78.76 170.98,78.28 168.68,78.67 M 172.88,55.5 172.88,82.5 M 109.5,87 130.5,87 M 37,156 38,154 40,153 42,153 44,154 45,156 45,158 44,160 42,161 40,161 38,160 37,159 36,156 36,153 37,150 39,148 42,147 46,147 50,148 53,150 55,153 56,157 56,162 55,166 54,168 52,171 49,174 45,177 40,180 36,182 M 46,147 49,148 52,150 54,153 55,157 55,162 54,166 53,168 51,171 48,174 43,178 40,180 M 39,154 43,154 M 38,155 44,155 M 37,156 45,156 M 37,157 45,157 M 37,158 45,158 M 38,159 44,159 M 39,160 43,160 M 60,151 60,153 62,153 62,151 60,151 M 61,151 61,153 M 60,152 62,152 M 60,161 60,163 62,163 62,161 60,161 M 61,161 61,163 M 60,162 62,162 M 91,150.45 91,165.75 M 92,149.6 92,164.9 M 93,147.9 93,165.75 M 93,147.9 82,160.65 98,160.65 M 88,165.75 96,165.75 M 91,164.9 89,165.75 M 91,164.05 90,165.75 M 93,164.05 94,165.75 M 93,164.9 95,165.75 M 91,168.45 91,183.75 M 92,167.6 92,182.9 M 93,165.9 93,183.75 M 93,165.9 82,178.65 98,178.65 M 88,183.75 96,183.75 M 91,182.9 89,183.75 M 91,182.05 90,183.75 M 93,182.05 94,183.75 M 93,182.9 95,183.75 M 120.47,134.36 117.22,135.44 114.74,137.4 113.87,139.28 113.81,141.12 114.55,142.92 116.12,143.76 118.53,143.64 121.78,142.56 124.26,140.6 125.13,138.72 125.19,136.88 124.45,135.08 122.88,134.24 120.47,134.36 M 120.8,135.17 117.63,136.43 115.11,138.3 114.13,139.91 113.92,141.39 114.47,142.74 115.9,143.22 118.2,142.83 121.37,141.57 123.89,139.7 124.87,138.09 125.08,136.61 124.53,135.26 123.1,134.78 120.8,135.17 M 114,166 114,139 M 167.35,129.86 164.1,130.94 161.62,132.9 160.75,134.78 160.69,136.62 161.43,138.42 163,139.26 165.41,139.14 168.66,138.06 171.14,136.1 172.01,134.22 172.07,132.38 171.33,130.58 169.76,129.74 167.35,129.86 M 167.68,130.67 164.51,131.93 161.99,133.8 161.01,135.41 160.8,136.89 161.35,138.24 162.78,138.72 165.08,138.33 168.25,137.07 170.77,135.2 171.75,133.59 171.96,132.11 171.41,130.76 169.98,130.28 167.68,130.67 M 160.88,161.5 160.88,134.5 M 109.5,139 130.5,139 M 156.38,139 177.38,139 M 40,272 40,308 M 41,272 41,308 M 45,272 45,308 M 49,275.6 51,275.6 51,277.4 49,277.4 49,274.7 50,272.9 52,272 55,272 57,272.9 59,274.7 60,277.4 60,281.9 59,284.6 57,286.4 55,287.3 53,287.3 51,286.4 50,284.6 49,286.4 47,289.1 46,290 47,290.9 49,293.6 50,295.4 51,293.6 53,292.7 55,292.7 57,293.6 59,295.4 60,298.1 60,302.6 59,305.3 57,307.1 55,308 52,308 50,307.1 49,305.3 49,302.6 51,302.6 51,304.4 49,304.4 M 50,275.6 50,277.4 M 49,276.5 51,276.5 M 57,272.9 58,274.7 59,277.4 59,281.9 58,284.6 57,286.4 M 50,284.6 50,286.4 48,289.1 46,290 48,290.9 50,293.6 50,295.4 M 57,293.6 58,295.4 59,298.1 59,302.6 58,305.3 57,307.1 M 50,302.6 50,304.4 M 49,303.5 51,303.5 M 91,256.45 91,271.75 M 92,255.6 92,270.9 M 93,253.9 93,271.75 M 93,253.9 82,266.65 98,266.65 M 88,271.75 96,271.75 M 91,270.9 89,271.75 M 91,270.05 90,271.75 M 93,270.05 94,271.75 M 93,270.9 95,271.75 M 91,274.45 91,289.75 M 92,273.6 92,288.9 M 93,271.9 93,289.75 M 93,271.9 82,284.65 98,284.65 M 88,289.75 96,289.75 M 91,288.9 89,289.75 M 91,288.05 90,289.75 M 93,288.05 94,289.75 M 93,288.9 95,289.75 M 121.47,285.36 118.22,286.44 115.74,288.4 114.87,290.28 114.81,292.12 115.55,293.92 117.12,294.76 119.53,294.64 122.78,293.56 125.26,291.6 126.13,289.72 126.19,287.88 125.45,286.08 123.88,285.24 121.47,285.36 M 121.8,286.17 118.63,287.43 116.11,289.3 115.13,290.91 114.92,292.39 115.47,293.74 116.9,294.22 119.2,293.83 122.37,292.57 124.89,290.7 125.87,289.09 126.08,287.61 125.53,286.26 124.1,285.78 121.8,286.17 M 126,263 126,290 M 168.35,280.86 165.1,281.94 162.62,283.9 161.75,285.78 161.69,287.62 162.43,289.42 164,290.26 166.41,290.14 169.66,289.06 172.14,287.1 173.01,285.22 173.07,283.38 172.33,281.58 170.76,280.74 168.35,280.86 M 168.68,281.67 165.51,282.93 162.99,284.8 162.01,286.41 161.8,287.89 162.35,289.24 163.78,289.72 166.08,289.33 169.25,288.07 171.77,286.2 172.75,284.59 172.96,283.11 172.41,281.76 170.98,281.28 168.68,281.67 M 172.88,258.5 172.88,285.5 M 40,369 40,405 M 41,369 41,405 M 45,369 45,405 M 49,372.6 51,372.6 51,374.4 49,374.4 49,371.7 50,369.9 52,369 55,369 57,369.9 59,371.7 60,374.4 60,378.9 59,381.6 57,383.4 55,384.3 53,384.3 51,383.4 50,381.6 49,383.4 47,386.1 46,387 47,387.9 49,390.6 50,392.4 51,390.6 53,389.7 55,389.7 57,390.6 59,392.4 60,395.1 60,399.6 59,402.3 57,404.1 55,405 52,405 50,404.1 49,402.3 49,399.6 51,399.6 51,401.4 49,401.4 M 50,372.6 50,374.4 M 49,373.5 51,373.5 M 57,369.9 58,371.7 59,374.4 59,378.9 58,381.6 57,383.4 M 50,381.6 50,383.4 48,386.1 46,387 48,387.9 50,390.6 50,392.4 M 57,390.6 58,392.4 59,395.1 59,399.6 58,402.3 57,404.1 M 50,399.6 50,401.4 M 49,400.5 51,400.5 M 91,362.45 91,377.75 M 92,361.6 92,376.9 M 93,359.9 93,377.75 M 93,359.9 82,372.65 98,372.65 M 88,377.75 96,377.75 M 91,376.9 89,377.75 M 91,376.05 90,377.75 M 93,376.05 94,377.75 M 93,376.9 95,377.75 M 91,380.45 91,395.75 M 92,379.6 92,394.9 M 93,377.9 93,395.75 M 93,377.9 82,390.65 98,390.65 M 88,395.75 96,395.75 M 91,394.9 89,395.75 M 91,394.05 90,395.75 M 93,394.05 94,395.75 M 93,394.9 95,395.75 M 121.47,382.36 118.22,383.44 115.74,385.4 114.87,387.28 114.81,389.12 115.55,390.92 117.12,391.76 119.53,391.64 122.78,390.56 125.26,388.6 126.13,386.72 126.19,384.88 125.45,383.08 123.88,382.24 121.47,382.36 M 121.8,383.17 118.63,384.43 116.11,386.3 115.13,387.91 114.92,389.39 115.47,390.74 116.9,391.22 119.2,390.83 122.37,389.57 124.89,387.7 125.87,386.09 126.08,384.61 125.53,383.26 124.1,382.78 121.8,383.17 M 126,360 126,387 M 168.35,377.86 165.1,378.94 162.62,380.9 161.75,382.78 161.69,384.62 162.43,386.42 164,387.26 166.41,387.14 169.66,386.06 172.14,384.1 173.01,382.22 173.07,380.38 172.33,378.58 170.76,377.74 168.35,377.86 M 168.68,378.67 165.51,379.93 162.99,381.8 162.01,383.41 161.8,384.89 162.35,386.24 163.78,386.72 166.08,386.33 169.25,385.07 171.77,383.2 172.75,381.59 172.96,380.11 172.41,378.76 170.98,378.28 168.68,378.67 M 172.88,355.5 172.88,382.5 M 40,466 40,502 M 41,466 41,502 M 45,466 45,502 M 49,469.6 51,469.6 51,471.4 49,471.4 49,468.7 50,466.9 52,466 55,466 57,466.9 59,468.7 60,471.4 60,475.9 59,478.6 57,480.4 55,481.3 53,481.3 51,480.4 50,478.6 49,480.4 47,483.1 46,484 47,484.9 49,487.6 50,489.4 51,487.6 53,486.7 55,486.7 57,487.6 59,489.4 60,492.1 60,496.6 59,499.3 57,501.1 55,502 52,502 50,501.1 49,499.3 49,496.6 51,496.6 51,498.4 49,498.4 M 50,469.6 50,471.4 M 49,470.5 51,470.5 M 57,466.9 58,468.7 59,471.4 59,475.9 58,478.6 57,480.4 M 50,478.6 50,480.4 48,483.1 46,484 48,484.9 50,487.6 50,489.4 M 57,487.6 58,489.4 59,492.1 59,496.6 58,499.3 57,501.1 M 50,496.6 50,498.4 M 49,497.5 51,497.5 M 91,468.45 91,483.75 M 92,467.6 92,482.9 M 93,465.9 93,483.75 M 93,465.9 82,478.65 98,478.65 M 88,483.75 96,483.75 M 91,482.9 89,483.75 M 91,482.05 90,483.75 M 93,482.05 94,483.75 M 93,482.9 95,483.75 M 91,486.45 91,501.75 M 92,485.6 92,500.9 M 93,483.9 93,501.75 M 93,483.9 82,496.65 98,496.65 M 88,501.75 96,501.75 M 91,500.9 89,501.75 M 91,500.05 90,501.75 M 93,500.05 94,501.75 M 93,500.9 95,501.75 M 121.47,479.36 118.22,480.44 115.74,482.4 114.87,484.28 114.81,486.12 115.55,487.92 117.12,488.76 119.53,488.64 122.78,487.56 125.26,485.6 126.13,483.72 126.19,481.88 125.45,480.08 123.88,479.24 121.47,479.36 M 121.8,480.17 118.63,481.43 116.11,483.3 115.13,484.91 114.92,486.39 115.47,487.74 116.9,488.22 119.2,487.83 122.37,486.57 124.89,484.7 125.87,483.09 126.08,481.61 125.53,480.26 124.1,479.78 121.8,480.17 M 126,457 126,484 M 167.35,474.86 164.1,475.94 161.62,477.9 160.75,479.78 160.69,481.62 161.43,483.42 163,484.26 165.41,484.14 168.66,483.06 171.14,481.1 172.01,479.22 172.07,477.38 171.33,475.58 169.76,474.74 167.35,474.86 M 167.68,475.67 164.51,476.93 161.99,478.8 161.01,480.41 160.8,481.89 161.35,483.24 162.78,483.72 165.08,483.33 168.25,482.07 170.77,480.2 171.75,478.59 171.96,477.11 171.41,475.76 169.98,475.28 167.68,475.67 M 160.88,506.5 160.88,479.5 M 40,563 40,599 M 41,563 41,599 M 45,563 45,599 M 49,566.6 51,566.6 51,568.4 49,568.4 49,565.7 50,563.9 52,563 55,563 57,563.9 59,565.7 60,568.4 60,572.9 59,575.6 57,577.4 55,578.3 53,578.3 51,577.4 50,575.6 49,577.4 47,580.1 46,581 47,581.9 49,584.6 50,586.4 51,584.6 53,583.7 55,583.7 57,584.6 59,586.4 60,589.1 60,593.6 59,596.3 57,598.1 55,599 52,599 50,598.1 49,596.3 49,593.6 51,593.6 51,595.4 49,595.4 M 50,566.6 50,568.4 M 49,567.5 51,567.5 M 57,563.9 58,565.7 59,568.4 59,572.9 58,575.6 57,577.4 M 50,575.6 50,577.4 48,580.1 46,581 48,581.9 50,584.6 50,586.4 M 57,584.6 58,586.4 59,589.1 59,593.6 58,596.3 57,598.1 M 50,593.6 50,595.4 M 49,594.5 51,594.5 M 91,574.45 91,589.75 M 92,573.6 92,588.9 M 93,571.9 93,589.75 M 93,571.9 82,584.65 98,584.65 M 88,589.75 96,589.75 M 91,588.9 89,589.75 M 91,588.05 90,589.75 M 93,588.05 94,589.75 M 93,588.9 95,589.75 M 91,592.45 91,607.75 M 92,591.6 92,606.9 M 93,589.9 93,607.75 M 93,589.9 82,602.65 98,602.65 M 88,607.75 96,607.75 M 91,606.9 89,607.75 M 91,606.05 90,607.75 M 93,606.05 94,607.75 M 93,606.9 95,607.75 M 120.47,576.36 117.22,577.44 114.74,579.4 113.87,581.28 113.81,583.12 114.55,584.92 116.12,585.76 118.53,585.64 121.78,584.56 124.26,582.6 125.13,580.72 125.19,578.88 124.45,577.08 122.88,576.24 120.47,576.36 M 120.8,577.17 117.63,578.43 115.11,580.3 114.13,581.91 113.92,583.39 114.47,584.74 115.9,585.22 118.2,584.83 121.37,583.57 123.89,581.7 124.87,580.09 125.08,578.61 124.53,577.26 123.1,576.78 120.8,577.17 M 114,608 114,581 M 167.35,571.86 164.1,572.94 161.62,574.9 160.75,576.78 160.69,578.62 161.43,580.42 163,581.26 165.41,581.14 168.66,580.06 171.14,578.1 172.01,576.22 172.07,574.38 171.33,572.58 169.76,571.74 167.35,571.86 M 167.68,572.67 164.51,573.93 161.99,575.8 161.01,577.41 160.8,578.89 161.35,580.24 162.78,580.72 165.08,580.33 168.25,579.07 170.77,577.2 171.75,575.59 171.96,574.11 171.41,572.76 169.98,572.28 167.68,572.67 M 160.88,603.5 160.88,576.5 M 40,660 40,696 M 41,660 41,696 M 45,660 45,696 M 49,663.6 51,663.6 51,665.4 49,665.4 49,662.7 50,660.9 52,660 55,660 57,660.9 59,662.7 60,665.4 60,669.9 59,672.6 57,674.4 55,675.3 53,675.3 51,674.4 50,672.6 49,674.4 47,677.1 46,678 47,678.9 49,681.6 50,683.4 51,681.6 53,680.7 55,680.7 57,681.6 59,683.4 60,686.1 60,690.6 59,693.3 57,695.1 55,696 52,696 50,695.1 49,693.3 49,690.6 51,690.6 51,692.4 49,692.4 M 50,663.6 50,665.4 M 49,664.5 51,664.5 M 57,660.9 58,662.7 59,665.4 59,669.9 58,672.6 57,674.4 M 50,672.6 50,674.4 48,677.1 46,678 48,678.9 50,681.6 50,683.4 M 57,681.6 58,683.4 59,686.1 59,690.6 58,693.3 57,695.1 M 50,690.6 50,692.4 M 49,691.5 51,691.5 M 91,680.45 91,695.75 M 92,679.6 92,694.9 M 93,677.9 93,695.75 M 93,677.9 82,690.65 98,690.65 M 88,695.75 96,695.75 M 91,694.9 89,695.75 M 91,694.05 90,695.75 M 93,694.05 94,695.75 M 93,694.9 95,695.75 M 91,698.45 91,713.75 M 92,697.6 92,712.9 M 93,695.9 93,713.75 M 93,695.9 82,708.65 98,708.65 M 88,713.75 96,713.75 M 91,712.9 89,713.75 M 91,712.05 90,713.75 M 93,712.05 94,713.75 M 93,712.9 95,713.75 M 120.47,673.36 117.22,674.44 114.74,676.4 113.87,678.28 113.81,680.12 114.55,681.92 116.12,682.76 118.53,682.64 121.78,681.56 124.26,679.6 125.13,677.72 125.19,675.88 124.45,674.08 122.88,673.24 120.47,673.36 M 120.8,674.17 117.63,675.43 115.11,677.3 114.13,678.91 113.92,680.39 114.47,681.74 115.9,682.22 118.2,681.83 121.37,680.57 123.89,678.7 124.87,677.09 125.08,675.61 124.53,674.26 123.1,673.78 120.8,674.17 M 114,705 114,678 M 167.35,668.86 164.1,669.94 161.62,671.9 160.75,673.78 160.69,675.62 161.43,677.42 163,678.26 165.41,678.14 168.66,677.06 171.14,675.1 172.01,673.22 172.07,671.38 171.33,669.58 169.76,668.74 167.35,668.86 M 167.68,669.67 164.51,670.93 161.99,672.8 161.01,674.41 160.8,675.89 161.35,677.24 162.78,677.72 165.08,677.33 168.25,676.07 170.77,674.2 171.75,672.59 171.96,671.11 171.41,669.76 169.98,669.28 167.68,669.67 M 160.88,700.5 160.88,673.5 M 211.76,42 211.76,714 "/></svg>