<svg xmlns="http://www.w3.org/2000/svg" width="800" height="126"><rect x="0" y="0" width="800" height="126" fill="white"></rect><path stroke="black" stroke-width="1.5" stroke-linecap="round" stroke-linejoin="round" fill="none" d="M 30,42 552.68,42 M 30,51 552.68,51 M 30,60 552.68,60 M 30,69 552.68,69 M 30,78 552.68,78 M 42.11,90.42 43.1,90.27 43.94,89.13 43.79,88.14 42.65,87.3 41.66,87.45 40.82,88.59 41.12,90.57 42.41,92.4 44.54,93.09 46.52,92.79 49.33,91.35 51.01,89.07 51.7,86.95 52.09,82.84 50.45,71.97 45.57,46.41 44.53,39.49 44.77,34.39 45.46,32.27 47.29,30.98 48.28,30.83 50.4,31.52 51.69,33.35 52.29,37.3 51.75,40.42 51.06,42.54 49.53,45.81 45.18,50.51 39.85,55.36 38.17,57.64 36.64,60.91 35.95,63.03 35.56,67.14 36.16,71.09 37.74,74.9 40.17,77.57 43.43,79.09 47.54,79.49 51.49,78.89 55.3,77.3 57.13,76.01 58.66,72.75 59.2,69.63 58.6,65.68 57.16,62.86 55.88,61.03 53.6,59.35 50.48,58.81 46.53,59.41 43.71,60.85 42.03,63.12 41.49,66.24 42.09,70.2 43.53,73.01 45.8,74.69 M 41.81,88.44 41.96,89.43 42.95,89.28 42.8,88.29 41.81,88.44 M 49.53,45.81 46.17,50.36 41.83,55.07 39.31,58.48 37.78,61.74 37.09,63.87 36.55,66.99 37.15,70.94 38.73,74.75 40.02,76.58 43.43,79.09 M 51.49,78.89 54.31,77.45 56.14,76.16 57.67,72.9 58.21,69.78 57.61,65.83 56.17,63.01 54.89,61.18 52.61,59.5 50.48,58.81 M 91,44.45 91,59.75 M 92,43.6 92,58.9 M 93,41.9 93,59.75 M 93,41.9 82,54.65 98,54.65 M 88,59.75 96,59.75 M 91,58.9 89,59.75 M 91,58.05 90,59.75 M 93,58.05 94,59.75 M 93,58.9 95,59.75 M 91,62.45 91,77.75 M 92,61.6 92,76.9 M 93,59.9 93,77.75 M 93,59.9 82,72.65 98,72.65 M 88,77.75 96,77.75 M 91,76.9 89,77.75 M 91,76.05 90,77.75 M 93,76.05 94,77.75 M 93,76.9 95,77.75 M 118,82 115,83 114,84 113,86 113,88 114,90 115,91 118,92 122,92 125,91 126,90 127,88 127,86 126,84 125,83 122,82 118,82 M 115,83 114,85 114,88 115,90 116,91 118,92 M 125,91 126,89 126,86 125,84 124,83 122,82 M 215.23,82.36 211.98,83.44 209.5,85.4 208.63,87.28 208.57,89.12 209.31,90.92 210.88,91.76 213.29,91.64 216.54,90.56 219.02,88.6 219.89,86.72 219.95,84.88 219.21,83.08 217.64,82.24 215.23,82.36 M 215.56,83.17 212.39,84.43 209.87,86.3 208.89,87.91 208.68,89.39 209.23,90.74 210.66,91.22 212.96,90.83 216.13,89.57 218.65,87.7 219.63,86.09 219.84,84.61 219.29,83.26 217.86,82.78 215.56,83.17 M 219.76,60 219.76,87 M 282,82.72 279.04,83.8 276.96,85.64 275.84,87.4 275.68,89.08 276.48,90.68 278.32,91.36 280.24,91.2 283.2,90.12 285.28,88.28 286.4,86.52 286.56,84.84 285.76,83.24 283.92,82.56 282,82.72 M 277.92,85.56 283.92,82.56 M 276.8,87.32 284.8,83.32 M 275.68,89.08 285.68,84.08 M 276.56,89.84 286.56,84.84 M 277.44,90.6 285.44,86.6 M 278.32,91.36 284.32,88.36 M 286.64,60 286.64,87 M 335.44,82.72 332.48,83.8 330.4,85.64 329.28,87.4 329.12,89.08 329.92,90.68 331.76,91.36 333.68,91.2 336.64,90.12 338.72,88.28 339.84,86.52 340,84.84 339.2,83.24 337.36,82.56 335.44,82.72 M 331.36,85.56 337.36,82.56 M 330.24,87.32 338.24,83.32 M 329.12,89.08 339.12,84.08 M 330,89.84 340,84.84 M 330.88,90.6 338.88,86.6 M 331.76,91.36 337.76,88.36 M 340.08,56.76 340.08,87 M 340.08,57.51 344.08,60.51 347.08,63.51 349.08,66.51 350.08,71.01 350.08,74.01 349.08,77.01 348.08,78.51 M 340.08,59.01 346.08,63.51 M 340.08,60.51 343.08,62.01 347.08,65.01 349.08,68.01 350.08,71.01 M 394.16,82.72 391.2,83.8 389.12,85.64 388,87.4 387.84,89.08 388.64,90.68 390.48,91.36 392.4,91.2 395.36,90.12 397.44,88.28 398.56,86.52 398.72,84.84 397.92,83.24 396.08,82.56 394.16,82.72 M 390.08,85.56 396.08,82.56 M 388.96,87.32 396.96,83.32 M 387.84,89.08 397.84,84.08 M 388.72,89.84 398.72,84.84 M 389.6,90.6 397.6,86.6 M 390.48,91.36 396.48,88.36 M 398.8,53.52 398.8,87 M 398.8,54.27 402.8,57.27 405.8,60.27 407.8,63.27 408.8,67.77 408.8,73.77 M 398.8,55.77 404.8,60.27 M 398.8,57.27 401.8,58.77 405.8,61.77 407.8,64.77 408.8,67.77 M 398.8,60.75 402.8,63.75 405.8,66.75 407.8,69.75 408.8,74.25 408.8,77.25 407.8,80.25 406.8,81.75 M 398.8,62.25 404.8,66.75 M 398.8,63.75 401.8,65.25 405.8,68.25 407.8,71.25 408.8,74.25 M 449.52,82.72 446.56,83.8 444.48,85.64 443.36,87.4 443.2,89.08 444,90.68 445.84,91.36 447.76,91.2 450.72,90.12 452.8,88.28 453.92,86.52 454.08,84.84 453.28,83.24 451.44,82.56 449.52,82.72 M 445.44,85.56 451.44,82.56 M 444.32,87.32 452.32,83.32 M 443.2,89.08 453.2,84.08 M 444.08,89.84 454.08,84.84 M 444.96,90.6 452.96,86.6 M 445.84,91.36 451.84,88.36 M 454.16,50.28 454.16,87 M 454.16,51.03 458.16,54.03 461.16,57.03 463.16,60.03 464.16,64.53 464.16,70.53 M 454.16,52.53 460.16,57.03 M 454.16,54.03 457.16,55.53 461.16,58.53 463.16,61.53 464.16,64.53 M 454.16,57.51 458.16,60.51 461.16,63.51 463.16,66.51 464.16,71.01 464.16,77.01 M 454.16,59.01 460.16,63.51 M 454.16,60.51 457.16,62.01 461.16,65.01 463.16,68.01 464.16,71.01 M 454.16,63.99 458.16,66.99 461.16,69.99 463.16,72.99 464.16,77.49 464.16,80.49 463.16,83.49 462.16,84.99 M 454.16,65.49 460.16,69.99 M 454.16,66.99 457.16,68.49 461.16,71.49 463.16,74.49 464.16,77.49 M 503.2,82.72 500.24,83.8 498.16,85.64 497.04,87.4 496.88,89.08 497.68,90.68 499.52,91.36 501.44,91.2 504.4,90.12 506.48,88.28 507.6,86.52 507.76,84.84 506.96,83.24 505.12,82.56 503.2,82.72 M 499.12,85.56 505.12,82.56 M 498,87.32 506,83.32 M 496.88,89.08 506.88,84.08 M 497.76,89.84 507.76,84.84 M 498.64,90.6 506.64,86.6 M 499.52,91.36 505.52,88.36 M 507.84,47.04 507.84,87 M 507.84,47.79 511.84,50.79 514.84,53.79 516.84,56.79 517.84,61.29 517.84,67.29 M 507.84,49.29 513.84,53.79 M 507.84,50.79 510.84,52.29 514.84,55.29 516.84,58.29 517.84,61.29 M 507.84,54.27 511.84,57.27 514.84,60.27 516.84,63.27 517.84,67.77 517.84,73.77 M 507.84,55.77 513.84,60.27 M 507.84,57.27 510.84,58.77 514.84,61.77 516.84,64.77 517.84,67.77 M 507.84,60.75 511.84,63.75 514.84,66.75 516.84,69.75 517.84,74.25 517.84,80.25 M 507.84,62.25 513.84,66.75 M 507.84,63.75 510.84,65.25 514.84,68.25 516.84,71.25 517.84,74.25 M 507.84,67.23 511.84,70.23 514.84,73.23 516.84,76.23 517.84,80.73 517.84,83.73 516.84,86.73 515.84,88.23 M 507.84,68.73 513.84,73.23 M 507.84,70.23 510.84,71.73 514.84,74.73 516.84,77.73 517.84,80.73 M 181.76,51 205.76,51 M 185.26,51 185.26,54.75 M 202.26,51 202.26,54.75 M 185.26,51 202.26,51 M 185.26,52.25 202.26,52.25 M 185.26,53.5 202.26,53.5 M 185.26,54.75 202.26,54.75 M 248.64,60 272.64,60 M 255.64,56 255.64,59.75 M 265.64,56 265.64,59.75 M 255.64,56 265.64,56 M 255.64,57.25 265.64,57.25 M 255.64,58.5 265.64,58.5 M 255.64,59.75 265.64,59.75 M 311.59,45.17 317.56,54.63 314.28,61.99 314.38,62.99 M 316.47,53.73 313.18,61.09 M 315.17,50.85 315.37,52.84 312.09,60.2 314.38,62.99 317.76,66.67 M 320.05,69.45 317.76,66.67 315.67,65.87 313.68,66.07 311.79,67.26 311,69.35 311.2,71.34 312.39,73.23 315.58,74.93 M 320.05,69.45 317.86,67.66 315.77,66.87 311.79,67.26 312.19,71.24 313.39,73.13 315.58,74.93 M 315.67,65.87 312.89,68.16 311.2,71.34 M 370.8,57 369.8,55 369.8,53 367.8,53 367.8,55 368.8,56 370.8,57 373.8,57 375.8,56 377.8,54 M 368.8,53 368.8,56 M 367.8,54 369.8,54 M 367.8,55 373.8,57 M 370.8,57 375.8,56 M 377.8,54 373.8,67 M 426.16,57 425.16,55 425.16,53 423.16,53 423.16,55 424.16,56 426.16,57 429.16,57 431.16,56 433.16,54 M 424.16,53 424.16,56 M 423.16,54 425.16,54 M 423.16,55 429.16,57 M 426.16,57 431.16,56 M 433.16,54 430.09,64 M 423.09,67 422.09,65 422.09,63 420.09,63 420.09,65 421.09,66 423.09,67 426.09,67 428.09,66 430.09,64 M 421.09,63 421.09,66 M 420.09,64 422.09,64 M 420.09,65 426.09,67 M 423.09,67 428.09,66 M 430.09,64 426.09,77 M 482.91,47 481.91,45 481.91,43 479.91,43 479.91,45 480.91,46 482.91,47 485.91,47 487.91,46 489.91,44 M 480.91,43 480.91,46 M 479.91,44 481.91,44 M 479.91,45 485.91,47 M 482.91,47 487.91,46 M 489.91,44 486.84,54 M 479.84,57 478.84,55 478.84,53 476.84,53 476.84,55 477.84,56 479.84,57 482.84,57 484.84,56 486.84,54 M 477.84,53 477.84,56 M 476.84,54 478.84,54 M 476.84,55 482.84,57 M 479.84,57 484.84,56 M 486.84,54 483.77,64 M 476.77,67 475.77,65 475.77,63 473.77,63 473.77,65 474.77,66 476.77,67 479.77,67 481.77,66 483.77,64 M 474.77,63 474.77,66 M 473.77,64 475.77,64 M 473.77,65 479.77,67 M 476.77,67 481.77,66 M 483.77,64 479.77,77 M 536.75,47 535.75,45 535.75,43 533.75,43 533.75,45 534.75,46 536.75,47 539.75,47 541.75,46 543.75,44 M 534.75,43 534.75,46 M 533.75,44 535.75,44 M 533.75,45 539.75,47 M 536.75,47 541.75,46 M 543.75,44 540.68,54 M 533.68,57 532.68,55 532.68,53 530.68,53 530.68,55 531.68,56 533.68,57 536.68,57 538.68,56 540.68,54 M 531.68,53 531.68,56 M 530.68,54 532.68,54 M 530.68,55 536.68,57 M 533.68,57 538.68,56 M 540.68,54 537.61,64 M 530.61,67 529.61,65 529.61,63 527.61,63 527.61,65 528.61,66 530.61,67 533.61,67 535.61,66 537.61,64 M 528.61,63 528.61,66 M 527.61,64 529.61,64 M 527.61,65 533.61,67 M 530.61,67 535.61,66 M 537.61,64 533.61,77 M 527.54,77 526.54,75 526.54,73 524.54,73 524.54,75 525.54,76 527.54,77 530.54,77 532.54,76 534.54,74 M 525.54,73 525.54,76 M 524.54,74 526.54,74 M 524.54,75 530.54,77 M 527.54,77 532.54,76 M 534.54,74 530.54,87 M 109.5,87 130.5,87 M 203.26,87 224.26,87 M 270.14,87 291.14,87 M 323.58,87 344.58,87 M 382.3,87 403.3,87 M 437.66,87 458.66,87 M 491.34,87 512.34,87 M 552.68,42 552.68,78 "/></svg>