<svg xmlns="http://www.w3.org/2000/svg" width="800" height="236"><rect x="0" y="0" width="800" height="236" fill="white"></rect><path stroke="black" stroke-width="1.5" stroke-linecap="round" stroke-linejoin="round" fill="none" d="M 30,42 30,184 M 30,42 287.76,42 M 30,51 287.76,51 M 30,60 287.76,60 M 30,69 287.76,69 M 30,78 287.76,78 M 30,148 287.76,148 M 30,157 287.76,157 M 30,166 287.76,166 M 30,175 287.76,175 M 30,184 287.76,184 M 42.11,90.42 43.1,90.27 43.94,89.13 43.79,88.14 42.65,87.3 41.66,87.45 40.82,88.59 41.12,90.57 42.41,92.4 44.54,93.09 46.52,92.79 49.33,91.35 51.01,89.07 51.7,86.95 52.09,82.84 50.45,71.97 45.57,46.41 44.53,39.49 44.77,34.39 45.46,32.27 47.29,30.98 48.28,30.83 50.4,31.52 51.69,33.35 52.29,37.3 51.75,40.42 51.06,42.54 49.53,45.81 45.18,50.51 39.85,55.36 38.17,57.64 36.64,60.91 35.95,63.03 35.56,67.14 36.16,71.09 37.74,74.9 40.17,77.57 43.43,79.09 47.54,79.49 51.49,78.89 55.3,77.3 57.13,76.01 58.66,72.75 59.2,69.63 58.6,65.68 57.16,62.86 55.88,61.03 53.6,59.35 50.48,58.81 46.53,59.41 43.71,60.85 42.03,63.12 41.49,66.24 42.09,70.2 43.53,73.01 45.8,74.69 M 41.81,88.44 41.96,89.43 42.95,89.28 42.8,88.29 41.81,88.44 M 49.53,45.81 46.17,50.36 41.83,55.07 39.31,58.48 37.78,61.74 37.09,63.87 36.55,66.99 37.15,70.94 38.73,74.75 40.02,76.58 43.43,79.09 M 51.49,78.89 54.31,77.45 56.14,76.16 57.67,72.9 58.21,69.78 57.61,65.83 56.17,63.01 54.89,61.18 52.61,59.5 50.48,58.81 M 91,44.45 91,59.75 M 92,43.6 92,58.9 M 93,41.9 93,59.75 M 93,41.9 82,54.65 98,54.65 M 88,59.75 96,59.75 M 91,58.9 89,59.75 M 91,58.05 90,59.75 M 93,58.05 94,59.75 M 93,58.9 95,59.75 M 91,62.45 91,77.75 M 92,61.6 92,76.9 M 93,59.9 93,77.75 M 93,59.9 82,72.65 98,72.65 M 88,77.75 96,77.75 M 91,76.9 89,77.75 M 91,76.05 90,77.75 M 93,76.05 94,77.75 M 93,76.9 95,77.75 M 121.36,82.72 118.4,83.8 116.32,85.64 115.2,87.4 115.04,89.08 115.84,90.68 117.68,91.36 119.6,91.2 122.56,90.12 124.64,88.28 125.76,86.52 125.92,84.84 125.12,83.24 123.28,82.56 121.36,82.72 M 117.28,85.56 123.28,82.56 M 116.16,87.32 124.16,83.32 M 115.04,89.08 125.04,84.08 M 115.92,89.84 125.92,84.84 M 116.8,90.6 124.8,86.6 M 117.68,91.36 123.68,88.36 M 126,60 126,87 M 102.03,101.03 102.77,99.57 104.23,98.1 105.7,98.1 106.43,98.83 107.17,100.3 107.17,102.5 105.7,108.37 M 106.43,98.83 106.43,102.5 104.97,108.37 M 106.43,100.3 105.7,103.23 104.23,108.37 105.7,108.37 M 107.17,102.5 108.63,100.3 110.1,98.83 111.57,98.1 113.03,98.1 114.5,98.83 115.23,100.3 115.23,102.5 113.77,108.37 M 114.5,98.83 114.5,102.5 113.03,108.37 M 114.5,100.3 113.77,103.23 112.3,108.37 113.77,108.37 M 115.23,102.5 116.7,100.3 118.17,98.83 119.63,98.1 121.1,98.1 122.57,98.83 123.3,100.3 123.3,102.5 121.83,106.17 M 122.57,98.83 122.57,101.77 121.83,104.7 121.83,107.63 M 122.57,100.3 121.1,103.97 121.1,106.17 121.83,107.63 122.57,108.37 124.03,108.37 125.5,106.9 126.23,105.43 M 136.5,94.43 136.5,93.7 135.77,93.7 135.77,95.17 137.23,95.17 137.23,93.7 136.5,92.97 135.03,92.97 133.57,93.7 132.1,95.17 131.37,96.63 130.63,98.83 129.9,101.77 128.43,108.37 127.7,110.57 126.97,112.03 125.5,113.5 M 132.1,95.9 131.37,98.1 130.63,101.77 129.17,108.37 128.43,110.57 M 135.03,92.97 133.57,94.43 132.83,95.9 132.1,98.1 131.37,101.77 129.9,107.63 129.17,109.83 128.43,111.3 126.97,112.77 125.5,113.5 124.03,113.5 123.3,112.77 123.3,111.3 124.77,111.3 124.77,112.77 124.03,112.77 124.03,112.03 M 127.7,98.1 135.77,98.1 M 154.8,82.72 151.84,83.8 149.76,85.64 148.64,87.4 148.48,89.08 149.28,90.68 151.12,91.36 153.04,91.2 156,90.12 158.08,88.28 159.2,86.52 159.36,84.84 158.56,83.24 156.72,82.56 154.8,82.72 M 150.72,85.56 156.72,82.56 M 149.6,87.32 157.6,83.32 M 148.48,89.08 158.48,84.08 M 149.36,89.84 159.36,84.84 M 150.24,90.6 158.24,86.6 M 151.12,91.36 157.12,88.36 M 159.44,60 159.44,87 M 188.24,82.72 185.28,83.8 183.2,85.64 182.08,87.4 181.92,89.08 182.72,90.68 184.56,91.36 186.48,91.2 189.44,90.12 191.52,88.28 192.64,86.52 192.8,84.84 192,83.24 190.16,82.56 188.24,82.72 M 184.16,85.56 190.16,82.56 M 183.04,87.32 191.04,83.32 M 181.92,89.08 191.92,84.08 M 182.8,89.84 192.8,84.84 M 183.68,90.6 191.68,86.6 M 184.56,91.36 190.56,88.36 M 192.88,60 192.88,87 M 197.43,100.85 197.98,99.75 199.08,98.65 200.73,98.65 201.28,99.2 201.28,100.3 200.73,102.5 198.53,110.2 M 200.18,98.65 200.73,99.2 200.73,100.3 200.18,102.5 197.98,110.2 M 200.73,102.5 201.28,100.85 202.38,99.2 203.48,98.65 204.58,98.65 205.68,99.2 206.23,99.75 206.78,100.85 206.78,102.5 206.23,104.15 205.13,105.8 203.48,106.35 202.38,106.35 201.28,105.8 200.73,104.15 200.73,102.5 M 205.68,99.2 206.23,100.3 206.23,102.5 205.68,104.15 204.58,105.8 203.48,106.35 M 196.33,110.2 200.18,110.2 M 213.38,98.65 211.73,99.2 210.63,100.85 210.08,102.5 210.08,104.15 210.63,105.25 211.18,105.8 212.28,106.35 213.38,106.35 215.03,105.8 216.13,104.15 216.68,102.5 216.68,100.85 216.13,99.75 215.58,99.2 214.48,98.65 213.38,98.65 M 213.38,98.65 212.28,99.2 211.18,100.85 210.63,102.5 210.63,104.7 211.18,105.8 M 213.38,106.35 214.48,105.8 215.58,104.15 216.13,102.5 216.13,100.3 215.58,99.2 M 226.03,100.3 226.03,100.85 226.58,100.85 226.58,100.3 226.03,99.2 224.93,98.65 223.28,98.65 221.63,99.2 220.53,100.85 219.98,102.5 219.98,104.15 220.53,105.25 221.08,105.8 222.18,106.35 223.28,106.35 224.93,105.8 226.03,104.15 M 223.28,98.65 222.18,99.2 221.08,100.85 220.53,102.5 220.53,104.7 221.08,105.8 M 233.18,98.65 231.53,99.2 230.43,100.85 229.88,102.5 229.88,104.15 230.43,105.25 230.98,105.8 232.08,106.35 233.18,106.35 234.83,105.8 235.93,104.15 236.48,102.5 236.48,100.85 235.93,99.75 235.38,99.2 234.28,98.65 233.18,98.65 M 233.18,98.65 232.08,99.2 230.98,100.85 230.43,102.5 230.43,104.7 230.98,105.8 M 233.18,106.35 234.28,105.8 235.38,104.15 235.93,102.5 235.93,100.3 235.38,99.2 M 244.18,100.85 244.73,99.75 245.83,98.65 247.48,98.65 248.03,99.2 248.03,100.3 247.48,102.5 246.38,106.35 M 246.93,98.65 247.48,99.2 247.48,100.3 246.93,102.5 245.83,106.35 M 247.48,102.5 248.58,100.3 249.68,99.2 250.78,98.65 251.88,98.65 252.43,99.2 252.43,99.75 251.88,100.3 251.33,99.75 251.88,99.2 M 257.93,94.8 257.38,95.35 257.93,95.9 258.48,95.35 257.93,94.8 M 253.53,100.85 254.08,99.75 255.18,98.65 256.83,98.65 257.38,99.2 257.38,100.85 256.28,104.15 256.28,105.8 256.83,106.35 M 256.28,98.65 256.83,99.2 256.83,100.85 255.73,104.15 255.73,105.8 256.28,106.35 257.93,106.35 259.03,105.25 259.58,104.15 M 265.08,94.8 262.88,102.5 262.33,104.7 262.33,105.8 262.88,106.35 264.53,106.35 265.63,105.25 266.18,104.15 M 265.63,94.8 263.43,102.5 262.88,104.7 262.88,105.8 263.43,106.35 M 261.78,98.65 266.73,98.65 M 270.58,105.25 270.03,105.8 270.58,106.35 271.13,105.8 270.58,105.25 M 221.68,82.72 218.72,83.8 216.64,85.64 215.52,87.4 215.36,89.08 216.16,90.68 218,91.36 219.92,91.2 222.88,90.12 224.96,88.28 226.08,86.52 226.24,84.84 225.44,83.24 223.6,82.56 221.68,82.72 M 217.6,85.56 223.6,82.56 M 216.48,87.32 224.48,83.32 M 215.36,89.08 225.36,84.08 M 216.24,89.84 226.24,84.84 M 217.12,90.6 225.12,86.6 M 218,91.36 224,88.36 M 226.32,60 226.32,87 M 109.5,87 130.5,87 M 142.94,87 163.94,87 M 176.38,87 197.38,87 M 209.82,87 230.82,87 M 37,156 38,154 40,153 42,153 44,154 45,156 45,158 44,160 42,161 40,161 38,160 37,159 36,156 36,153 37,150 39,148 42,147 46,147 50,148 53,150 55,153 56,157 56,162 55,166 54,168 52,171 49,174 45,177 40,180 36,182 M 46,147 49,148 52,150 54,153 55,157 55,162 54,166 53,168 51,171 48,174 43,178 40,180 M 39,154 43,154 M 38,155 44,155 M 37,156 45,156 M 37,157 45,157 M 37,158 45,158 M 38,159 44,159 M 39,160 43,160 M 60,151 60,153 62,153 62,151 60,151 M 61,151 61,153 M 60,152 62,152 M 60,161 60,163 62,163 62,161 60,161 M 61,161 61,163 M 60,162 62,162 M 91,150.45 91,165.75 M 92,149.6 92,164.9 M 93,147.9 93,165.75 M 93,147.9 82,160.65 98,160.65 M 88,165.75 96,165.75 M 91,164.9 89,165.75 M 91,164.05 90,165.75 M 93,164.05 94,165.75 M 93,164.9 95,165.75 M 91,168.45 91,183.75 M 92,167.6 92,182.9 M 93,165.9 93,183.75 M 93,165.9 82,178.65 98,178.65 M 88,183.75 96,183.75 M 91,182.9 89,183.75 M 91,182.05 90,183.75 M 93,182.05 94,183.75 M 93,182.9 95,183.75 M 121.36,166.22 118.4,167.3 116.32,169.14 115.2,170.9 115.04,172.58 115.84,174.18 117.68,174.86 119.6,174.7 122.56,173.62 124.64,171.78 125.76,170.02 125.92,168.34 125.12,166.74 123.28,166.06 121.36,166.22 M 117.28,169.06 123.28,166.06 M 116.16,170.82 124.16,166.82 M 115.04,172.58 125.04,167.58 M 115.92,173.34 125.92,168.34 M 116.8,174.1 124.8,170.1 M 117.68,174.86 123.68,171.86 M 126,143.5 126,170.5 M 102.58,194.27 102.58,195 103.32,195.73 104.78,195.73 106.25,195 106.25,192.8 105.52,191.33 104.05,189.13 104.05,187.67 105.52,186.2 M 105.52,192.8 104.05,189.87 M 104.78,195.73 105.52,195 105.52,193.53 104.05,191.33 103.32,189.87 103.32,188.4 104.05,186.93 105.52,186.2 107.72,186.2 109.18,186.93 109.92,187.67 110.65,189.13 110.65,197.2 M 110.65,198.67 110.65,202.33 109.92,203.8 108.45,204.53 106.25,204.53 105.52,203.8 105.52,202.33 106.25,201.6 106.98,202.33 106.25,203.07 M 109.18,187.67 109.92,189.13 109.92,202.33 109.18,203.8 M 107.72,186.2 108.45,186.93 109.18,189.13 109.18,197.2 M 109.18,198.67 109.18,202.33 108.45,203.8 107.72,204.53 M 110.65,189.13 114.32,186.2 M 114.32,186.2 115.78,188.4 116.52,189.87 117.25,192.8 117.25,195 116.52,197.2 115.05,199.4 112.85,201.6 M 113.58,186.93 115.78,189.87 116.52,192.07 116.52,192.8 M 112.85,187.67 114.32,189.13 115.78,191.33 116.52,193.53 116.52,195.73 115.78,197.93 115.05,199.4 M 113.58,200.13 112.12,197.93 110.65,197.2 M 109.18,197.2 107.72,197.93 106.25,199.4 M 113.58,200.87 112.12,198.67 110.65,197.93 108.45,197.93 M 112.85,201.6 111.38,199.4 110.65,198.67 M 109.18,198.67 107.72,198.67 106.25,199.4 M 118.53,199.95 122.93,197.02 120.73,194.08 117.8,196.28 117.07,197.75 117.07,201.42 117.8,202.88 119.27,204.35 122.2,202.88 M 122.2,197.02 120,194.82 M 118.53,196.28 117.8,197.75 117.8,201.42 118.53,202.88 119.27,203.62 M 121.47,197.75 120,195.55 119.27,195.55 118.53,197.02 118.53,200.68 119.27,202.15 120.73,203.62 M 126.6,188.95 124.4,191.15 124.4,192.62 125.13,193.35 128.07,194.82 130.27,196.28 131,197.75 131,199.95 130.27,202.15 128.8,203.62 M 125.13,191.88 125.13,192.62 128.07,194.08 130.27,195.55 131,196.28 M 125.13,190.42 125.13,191.15 125.87,191.88 129.53,194.08 131,195.55 131.73,197.75 131.73,199.95 131,202.15 128.8,203.62 126.6,204.35 M 127.33,194.82 124.4,196.28 124.4,202.15 123.67,202.88 M 125.13,196.28 125.13,202.15 127.33,203.62 M 125.87,195.55 125.87,202.15 127.33,202.88 128.07,203.62 M 123.67,202.88 124.4,202.88 125.87,203.62 126.6,204.35 M 132.83,203.25 133.75,202.33 134.67,203.25 133.75,204.17 M 154.8,166.22 151.84,167.3 149.76,169.14 148.64,170.9 148.48,172.58 149.28,174.18 151.12,174.86 153.04,174.7 156,173.62 158.08,171.78 159.2,170.02 159.36,168.34 158.56,166.74 156.72,166.06 154.8,166.22 M 150.72,169.06 156.72,166.06 M 149.6,170.82 157.6,166.82 M 148.48,172.58 158.48,167.58 M 149.36,173.34 159.36,168.34 M 150.24,174.1 158.24,170.1 M 151.12,174.86 157.12,171.86 M 159.44,143.5 159.44,170.5 M 188.24,166.22 185.28,167.3 183.2,169.14 182.08,170.9 181.92,172.58 182.72,174.18 184.56,174.86 186.48,174.7 189.44,173.62 191.52,171.78 192.64,170.02 192.8,168.34 192,166.74 190.16,166.06 188.24,166.22 M 184.16,169.06 190.16,166.06 M 183.04,170.82 191.04,166.82 M 181.92,172.58 191.92,167.58 M 182.8,173.34 192.8,168.34 M 183.68,174.1 191.68,170.1 M 184.56,174.86 190.56,171.86 M 192.88,143.5 192.88,170.5 M 217.83,151.17 223.8,160.63 220.52,167.99 220.62,168.99 M 222.71,159.73 219.42,167.09 M 221.41,156.85 221.61,158.84 218.33,166.2 220.62,168.99 224,172.67 M 226.29,175.45 224,172.67 221.91,171.87 219.92,172.07 218.03,173.26 217.24,175.35 217.44,177.34 218.63,179.23 221.82,180.93 M 226.29,175.45 224.1,173.66 222.01,172.87 218.03,173.26 218.43,177.24 219.63,179.13 221.82,180.93 M 221.91,171.87 219.13,174.16 217.44,177.34 M 211.79,193.53 212.52,195 215.45,194.63 216.92,193.53 218.39,195 216.92,196.47 215.45,195.37 212.52,195 211.79,196.47 M 212.39,195 211.88,196.56 214.21,198.37 216.02,198.63 216.02,200.7 213.95,200.7 213.69,198.89 211.88,196.56 210.32,197.07 M 211.79,196.47 210.32,197.2 210.69,200.13 211.79,201.6 210.32,203.07 208.85,201.6 209.95,200.13 210.32,197.2 208.85,196.47 M 210.32,197.07 208.76,196.56 206.95,198.89 206.69,200.7 204.62,200.7 204.62,198.63 206.43,198.37 208.76,196.56 208.25,195 M 208.85,196.47 208.12,195 205.19,195.37 203.72,196.47 202.25,195 203.72,193.53 205.19,194.63 208.12,195 208.85,193.53 M 208.25,195 208.76,193.44 206.43,191.63 204.62,191.37 204.62,189.3 206.69,189.3 206.95,191.11 208.76,193.44 210.32,192.93 M 208.85,193.53 210.32,192.8 209.95,189.87 208.85,188.4 210.32,186.93 211.79,188.4 210.69,189.87 210.32,192.8 211.79,193.53 M 210.32,192.93 211.88,193.44 213.69,191.11 213.95,189.3 216.02,189.3 216.02,191.37 214.21,191.63 211.88,193.44 212.39,195 M 251.76,42 251.76,184 M 257.76,51 281.76,51 M 261.26,51 261.26,54.75 M 278.26,51 278.26,54.75 M 261.26,51 278.26,51 M 261.26,52.25 278.26,52.25 M 261.26,53.5 278.26,53.5 M 261.26,54.75 278.26,54.75 M 257.76,157 281.76,157 M 261.26,157 261.26,160.75 M 278.26,157 278.26,160.75 M 261.26,157 278.26,157 M 261.26,158.25 278.26,158.25 M 261.26,159.5 278.26,159.5 M 261.26,160.75 278.26,160.75 M 287.76,42 287.76,184 "/></svg>