<svg xmlns="http://www.w3.org/2000/svg" width="800" height="234"><rect x="0" y="0" width="800" height="234" fill="white"></rect><path stroke="black" stroke-width="1.5" stroke-linecap="round" stroke-linejoin="round" fill="none" d="M 30,82.5 302.48,82.5 M 30,91.5 302.48,91.5 M 30,100.5 302.48,100.5 M 30,109.5 302.48,109.5 M 30,118.5 302.48,118.5 M 42.11,130.92 43.1,130.77 43.94,129.63 43.79,128.64 42.65,127.8 41.66,127.95 40.82,129.09 41.12,131.07 42.41,132.9 44.54,133.59 46.52,133.29 49.33,131.85 51.01,129.57 51.7,127.45 52.09,123.34 50.45,112.47 45.57,86.91 44.53,79.99 44.77,74.89 45.46,72.77 47.29,71.48 48.28,71.33 50.4,72.02 51.69,73.85 52.29,77.8 51.75,80.92 51.06,83.04 49.53,86.31 45.18,91.01 39.85,95.86 38.17,98.14 36.64,101.41 35.95,103.53 35.56,107.64 36.16,111.59 37.74,115.4 40.17,118.07 43.43,119.59 47.54,119.99 51.49,119.39 55.3,117.8 57.13,116.51 58.66,113.25 59.2,110.13 58.6,106.18 57.16,103.36 55.88,101.53 53.6,99.85 50.48,99.31 46.53,99.91 43.71,101.35 42.03,103.62 41.49,106.74 42.09,110.7 43.53,113.51 45.8,115.19 M 41.81,128.94 41.96,129.93 42.95,129.78 42.8,128.79 41.81,128.94 M 49.53,86.31 46.17,90.86 41.83,95.57 39.31,98.98 37.78,102.24 37.09,104.37 36.55,107.49 37.15,111.44 38.73,115.25 40.02,117.08 43.43,119.59 M 51.49,119.39 54.31,117.95 56.14,116.66 57.67,113.4 58.21,110.28 57.61,106.33 56.17,103.51 54.89,101.68 52.61,100 50.48,99.31 M 84,85.8 84,86.65 85,86.65 85,85.8 84,85.8 M 84,84.95 85,84.95 86,85.8 86,86.65 85,87.5 84,87.5 83,86.65 83,85.8 84,84.1 85,83.25 88,82.4 92,82.4 95,83.25 96,84.95 96,87.5 95,89.2 92,90.05 M 94,83.25 95,84.95 95,87.5 94,89.2 M 91,82.4 93,83.25 94,84.95 94,87.5 93,89.2 91,90.05 M 89,90.05 92,90.05 94,90.9 96,92.6 97,94.3 97,96.85 96,98.55 95,99.4 92,100.25 88,100.25 85,99.4 84,98.55 83,96.85 83,96 84,95.15 85,95.15 86,96 86,96.85 85,97.7 84,97.7 M 95,92.6 96,94.3 96,96.85 95,98.55 M 91,90.05 93,90.9 94,91.75 95,94.3 95,96.85 94,99.4 92,100.25 M 84,96 84,96.85 85,96.85 85,96 84,96 M 91,102.95 91,118.25 M 92,102.1 92,117.4 M 93,100.4 93,118.25 M 93,100.4 82,113.15 98,113.15 M 88,118.25 96,118.25 M 91,117.4 89,118.25 M 91,116.55 90,118.25 M 93,116.55 94,118.25 M 93,117.4 95,118.25 M 121.36,82.72 118.4,83.8 116.32,85.64 115.2,87.4 115.04,89.08 115.84,90.68 117.68,91.36 119.6,91.2 122.56,90.12 124.64,88.28 125.76,86.52 125.92,84.84 125.12,83.24 123.28,82.56 121.36,82.72 M 117.28,85.56 123.28,82.56 M 116.16,87.32 124.16,83.32 M 115.04,89.08 125.04,84.08 M 115.92,89.84 125.92,84.84 M 116.8,90.6 124.8,86.6 M 117.68,91.36 123.68,88.36 M 126,60 126,87 M 206.96,73.72 204,74.8 201.92,76.64 200.8,78.4 200.64,80.08 201.44,81.68 203.28,82.36 205.2,82.2 208.16,81.12 210.24,79.28 211.36,77.52 211.52,75.84 210.72,74.24 208.88,73.56 206.96,73.72 M 202.88,76.56 208.88,73.56 M 201.76,78.32 209.76,74.32 M 200.64,80.08 210.64,75.08 M 201.52,80.84 211.52,75.84 M 202.4,81.6 210.4,77.6 M 203.28,82.36 209.28,79.36 M 211.6,51 211.6,78 M 240.4,69.22 237.44,70.3 235.36,72.14 234.24,73.9 234.08,75.58 234.88,77.18 236.72,77.86 238.64,77.7 241.6,76.62 243.68,74.78 244.8,73.02 244.96,71.34 244.16,69.74 242.32,69.06 240.4,69.22 M 236.32,72.06 242.32,69.06 M 235.2,73.82 243.2,69.82 M 234.08,75.58 244.08,70.58 M 234.96,76.34 244.96,71.34 M 235.84,77.1 243.84,73.1 M 236.72,77.86 242.72,74.86 M 245.04,46.5 245.04,73.5 M 120.47,100.36 117.22,101.44 114.74,103.4 113.87,105.28 113.81,107.12 114.55,108.92 116.12,109.76 118.53,109.64 121.78,108.56 124.26,106.6 125.13,104.72 125.19,102.88 124.45,101.08 122.88,100.24 120.47,100.36 M 120.8,101.17 117.63,102.43 115.11,104.3 114.13,105.91 113.92,107.39 114.47,108.74 115.9,109.22 118.2,108.83 121.37,107.57 123.89,105.7 124.87,104.09 125.08,102.61 124.53,101.26 123.1,100.78 120.8,101.17 M 114,132 114,105 M 239.4,91.72 236.44,92.8 234.36,94.64 233.24,96.4 233.08,98.08 233.88,99.68 235.72,100.36 237.64,100.2 240.6,99.12 242.68,97.28 243.8,95.52 243.96,93.84 243.16,92.24 241.32,91.56 239.4,91.72 M 235.32,94.56 241.32,91.56 M 234.2,96.32 242.2,92.32 M 233.08,98.08 243.08,93.08 M 233.96,98.84 243.96,93.84 M 234.84,99.6 242.84,95.6 M 235.72,100.36 241.72,97.36 M 266.12,100.72 263.16,101.8 261.08,103.64 259.96,105.4 259.8,107.08 260.6,108.68 262.44,109.36 264.36,109.2 267.32,108.12 269.4,106.28 270.52,104.52 270.68,102.84 269.88,101.24 268.04,100.56 266.12,100.72 M 262.04,103.56 268.04,100.56 M 260.92,105.32 268.92,101.32 M 259.8,107.08 269.8,102.08 M 260.68,107.84 270.68,102.84 M 261.56,108.6 269.56,104.6 M 262.44,109.36 268.44,106.36 M 121.36,141.22 118.4,142.3 116.32,144.14 115.2,145.9 115.04,147.58 115.84,149.18 117.68,149.86 119.6,149.7 122.56,148.62 124.64,146.78 125.76,145.02 125.92,143.34 125.12,141.74 123.28,141.06 121.36,141.22 M 117.28,144.06 123.28,141.06 M 116.16,145.82 124.16,141.82 M 115.04,147.58 125.04,142.58 M 115.92,148.34 125.92,143.34 M 116.8,149.1 124.8,145.1 M 117.68,149.86 123.68,146.86 M 126,115.26 126,145.5 M 126,116.01 130,119.01 133,122.01 135,125.01 136,129.51 136,132.51 135,135.51 134,137.01 M 126,117.51 132,122.01 M 126,119.01 129,120.51 133,123.51 135,126.51 136,129.51 M 160.19,131.86 156.94,132.94 154.46,134.9 153.59,136.78 153.53,138.62 154.27,140.42 155.84,141.26 158.25,141.14 161.5,140.06 163.98,138.1 164.85,136.22 164.91,134.38 164.17,132.58 162.6,131.74 160.19,131.86 M 160.52,132.67 157.35,133.93 154.83,135.8 153.85,137.41 153.64,138.89 154.19,140.24 155.62,140.72 157.92,140.33 161.09,139.07 163.61,137.2 164.59,135.59 164.8,134.11 164.25,132.76 162.82,132.28 160.52,132.67 M 164.72,109.5 164.72,136.5 M 267.12,141.22 264.16,142.3 262.08,144.14 260.96,145.9 260.8,147.58 261.6,149.18 263.44,149.86 265.36,149.7 268.32,148.62 270.4,146.78 271.52,145.02 271.68,143.34 270.88,141.74 269.04,141.06 267.12,141.22 M 263.04,144.06 269.04,141.06 M 261.92,145.82 269.92,141.82 M 260.8,147.58 270.8,142.58 M 261.68,148.34 271.68,143.34 M 262.56,149.1 270.56,145.1 M 263.44,149.86 269.44,146.86 M 271.76,115.26 271.76,145.5 M 271.76,116.01 275.76,119.01 278.76,122.01 280.76,125.01 281.76,129.51 281.76,132.51 280.76,135.51 279.76,137.01 M 271.76,117.51 277.76,122.01 M 271.76,119.01 274.76,120.51 278.76,123.51 280.76,126.51 281.76,129.51 M 130.9,175.9 130.9,178.1 133.1,178.1 133.1,175.9 130.9,175.9 M 130.9,175.9 133.1,178.1 M 133.1,175.9 130.9,178.1 M 120.47,167.86 117.22,168.94 114.74,170.9 113.87,172.78 113.81,174.62 114.55,176.42 116.12,177.26 118.53,177.14 121.78,176.06 124.26,174.1 125.13,172.22 125.19,170.38 124.45,168.58 122.88,167.74 120.47,167.86 M 120.8,168.67 117.63,169.93 115.11,171.8 114.13,173.41 113.92,174.89 114.47,176.24 115.9,176.72 118.2,176.33 121.37,175.07 123.89,173.2 124.87,171.59 125.08,170.11 124.53,168.76 123.1,168.28 120.8,168.67 M 114,199.5 114,172.5 M 233.04,124.86 259.76,133.86 M 233.04,123.77 259.76,132.77 M 233.04,122.68 259.76,131.68 M 233.04,121.59 259.76,130.59 M 233.04,125.16 233.04,96 M 259.76,134.16 259.76,105 M 109.5,127.5 130.5,127.5 M 109.5,136.5 130.5,136.5 M 109.5,145.5 130.5,145.5 M 109.5,154.5 130.5,154.5 M 109.5,163.5 130.5,163.5 M 109.5,172.5 130.5,172.5 M 148.22,127.5 169.22,127.5 M 148.22,136.5 169.22,136.5 M 228.54,73.5 249.54,73.5 M 255.26,127.5 276.26,127.5 M 255.26,136.5 276.26,136.5 M 255.26,145.5 276.26,145.5 M 302.48,82.5 302.48,118.5 "/></svg>