<svg xmlns="http://www.w3.org/2000/svg" width="800" height="126"><rect x="0" y="0" width="800" height="126" fill="white"></rect><path stroke="black" stroke-width="1.5" stroke-linecap="round" stroke-linejoin="round" fill="none" d="M 30,42 323.76,42 M 30,51 323.76,51 M 30,60 323.76,60 M 30,69 323.76,69 M 30,78 323.76,78 M 42.11,90.42 43.1,90.27 43.94,89.13 43.79,88.14 42.65,87.3 41.66,87.45 40.82,88.59 41.12,90.57 42.41,92.4 44.54,93.09 46.52,92.79 49.33,91.35 51.01,89.07 51.7,86.95 52.09,82.84 50.45,71.97 45.57,46.41 44.53,39.49 44.77,34.39 45.46,32.27 47.29,30.98 48.28,30.83 50.4,31.52 51.69,33.35 52.29,37.3 51.75,40.42 51.06,42.54 49.53,45.81 45.18,50.51 39.85,55.36 38.17,57.64 36.64,60.91 35.95,63.03 35.56,67.14 36.16,71.09 37.74,74.9 40.17,77.57 43.43,79.09 47.54,79.49 51.49,78.89 55.3,77.3 57.13,76.01 58.66,72.75 59.2,69.63 58.6,65.68 57.16,62.86 55.88,61.03 53.6,59.35 50.48,58.81 46.53,59.41 43.71,60.85 42.03,63.12 41.49,66.24 42.09,70.2 43.53,73.01 45.8,74.69 M 41.81,88.44 41.96,89.43 42.95,89.28 42.8,88.29 41.81,88.44 M 49.53,45.81 46.17,50.36 41.83,55.07 39.31,58.48 37.78,61.74 37.09,63.87 36.55,66.99 37.15,70.94 38.73,74.75 40.02,76.58 43.43,79.09 M 51.49,78.89 54.31,77.45 56.14,76.16 57.67,72.9 58.21,69.78 57.61,65.83 56.17,63.01 54.89,61.18 52.61,59.5 50.48,58.81 M 68.2,44 68.2,65 M 68.2,56 70.3,54 72.4,54 73.8,55 74.5,57 74.5,59 73.8,61 71.7,63 70.3,64 68.2,65 M 68.2,56 70.3,55 72.4,55 73.8,56 M 73.1,55 73.8,57 73.8,59 73.1,61 71.7,63 M 77.8,30.5 77.8,51.5 M 77.8,42.5 79.9,40.5 82,40.5 83.4,41.5 84.1,43.5 84.1,45.5 83.4,47.5 81.3,49.5 79.9,50.5 77.8,51.5 M 77.8,42.5 79.9,41.5 82,41.5 83.4,42.5 M 82.7,41.5 83.4,43.5 83.4,45.5 82.7,47.5 81.3,49.5 M 87.4,48.5 87.4,69.5 M 87.4,60.5 89.5,58.5 91.6,58.5 93,59.5 93.7,61.5 93.7,63.5 93,65.5 90.9,67.5 89.5,68.5 87.4,69.5 M 87.4,60.5 89.5,59.5 91.6,59.5 93,60.5 M 92.3,59.5 93,61.5 93,63.5 92.3,65.5 90.9,67.5 M 119.8,44.45 119.8,59.75 M 120.8,43.6 120.8,58.9 M 121.8,41.9 121.8,59.75 M 121.8,41.9 110.8,54.65 126.8,54.65 M 116.8,59.75 124.8,59.75 M 119.8,58.9 117.8,59.75 M 119.8,58.05 118.8,59.75 M 121.8,58.05 122.8,59.75 M 121.8,58.9 123.8,59.75 M 119.8,62.45 119.8,77.75 M 120.8,61.6 120.8,76.9 M 121.8,59.9 121.8,77.75 M 121.8,59.9 110.8,72.65 126.8,72.65 M 116.8,77.75 124.8,77.75 M 119.8,76.9 117.8,77.75 M 119.8,76.05 118.8,77.75 M 121.8,76.05 122.8,77.75 M 121.8,76.9 123.8,77.75 M 164.56,82.72 161.6,83.8 159.52,85.64 158.4,87.4 158.24,89.08 159.04,90.68 160.88,91.36 162.8,91.2 165.76,90.12 167.84,88.28 168.96,86.52 169.12,84.84 168.32,83.24 166.48,82.56 164.56,82.72 M 160.48,85.56 166.48,82.56 M 159.36,87.32 167.36,83.32 M 158.24,89.08 168.24,84.08 M 159.12,89.84 169.12,84.84 M 160,90.6 168,86.6 M 160.88,91.36 166.88,88.36 M 169.2,60 169.2,87 M 145.86,75.5 145.86,100.8 M 151.26,73.2 151.26,98.5 M 144.06,83.6 153.06,79.4 M 144.06,84.85 153.06,80.65 M 144.06,93.5 153.06,89.3 M 144.06,94.75 153.06,90.55 M 212.4,78.22 209.44,79.3 207.36,81.14 206.24,82.9 206.08,84.58 206.88,86.18 208.72,86.86 210.64,86.7 213.6,85.62 215.68,83.78 216.8,82.02 216.96,80.34 216.16,78.74 214.32,78.06 212.4,78.22 M 208.32,81.06 214.32,78.06 M 207.2,82.82 215.2,78.82 M 206.08,84.58 216.08,79.58 M 206.96,85.34 216.96,80.34 M 207.84,86.1 215.84,82.1 M 208.72,86.86 214.72,83.86 M 217.04,55.5 217.04,82.5 M 193.6,66.5 193.6,87.5 M 193.6,78.5 195.7,76.5 197.8,76.5 199.2,77.5 199.9,79.5 199.9,81.5 199.2,83.5 197.1,85.5 195.7,86.5 193.6,87.5 M 193.6,78.5 195.7,77.5 197.8,77.5 199.2,78.5 M 198.5,77.5 199.2,79.5 199.2,81.5 198.5,83.5 197.1,85.5 M 260.24,73.72 257.28,74.8 255.2,76.64 254.08,78.4 253.92,80.08 254.72,81.68 256.56,82.36 258.48,82.2 261.44,81.12 263.52,79.28 264.64,77.52 264.8,75.84 264,74.24 262.16,73.56 260.24,73.72 M 256.16,76.56 262.16,73.56 M 255.04,78.32 263.04,74.32 M 253.92,80.08 263.92,75.08 M 254.8,80.84 264.8,75.84 M 255.68,81.6 263.68,77.6 M 256.56,82.36 262.56,79.36 M 264.88,51 264.88,78 M 241.44,66 241.44,84 M 247.04,72 247.04,90 M 241.44,74 247.04,72 M 241.44,75 247.04,73 M 241.44,83 247.04,81 M 241.44,84 247.04,82 M 293.68,69.22 290.72,70.3 288.64,72.14 287.52,73.9 287.36,75.58 288.16,77.18 290,77.86 291.92,77.7 294.88,76.62 296.96,74.78 298.08,73.02 298.24,71.34 297.44,69.74 295.6,69.06 293.68,69.22 M 289.6,72.06 295.6,69.06 M 288.48,73.82 296.48,69.82 M 287.36,75.58 297.36,70.58 M 288.24,76.34 298.24,71.34 M 289.12,77.1 297.12,73.1 M 290,77.86 296,74.86 M 298.32,46.5 298.32,73.5 M 152.7,87 173.7,87 M 323.76,42 323.76,78 "/></svg>